<?xml version="1.0" encoding="UTF-8" standalone="no"?>
<!DOCTYPE svg PUBLIC "-//W3C//DTD SVG 1.1//EN"
 "http://www.w3.org/Graphics/SVG/1.1/DTD/svg11.dtd">
<!-- Generated by graphviz version 2.40.1 (20161225.0304)
 -->
<!-- Title: %3 Pages: 1 -->
<svg width="355pt" height="197pt"
 viewBox="0.00 0.00 354.80 196.99" xmlns="http://www.w3.org/2000/svg" xmlns:xlink="http://www.w3.org/1999/xlink">
<g id="graph0" class="graph" transform="scale(1 1) rotate(0) translate(4 192.9949)">
<title>%3</title>
<polygon fill="#ffffff" stroke="transparent" points="-4,4 -4,-192.9949 350.797,-192.9949 350.797,4 -4,4"/>
<!-- A -->
<g id="node1" class="node">
<title>A</title>
<polygon fill="#d3d3d3" stroke="#000000" points="239,-125.6102 216,-125.6102 216,-107.6102 239,-107.6102 239,-125.6102"/>
<text text-anchor="middle" x="227.5" y="-114.4102" font-family="Times,serif" font-size="9.00" fill="#000000">A</text>
</g>
<!-- LEFT -->
<g id="node8" class="node">
<title>LEFT</title>
<ellipse fill="#add8e6" stroke="#000000" cx="111.5" cy="-31.1127" rx="26.7407" ry="26.7407"/>
<text text-anchor="middle" x="111.5" y="-28.9127" font-family="Times,serif" font-size="9.00" fill="#000000">LEFT</text>
</g>
<!-- A&#45;&gt;LEFT -->
<g id="edge1" class="edge">
<title>A&#45;&gt;LEFT</title>
<path fill="none" stroke="#ff0000" stroke-width="1.4916" d="M217.4273,-107.4151C214.0214,-104.4082 210.1546,-101.1034 206.5,-98.2254 185.8193,-81.9395 161.5678,-64.8379 142.7441,-51.9739"/>
<polygon fill="#ff0000" stroke="#ff0000" stroke-width="1.4916" points="144.4837,-48.9245 134.2449,-46.201 140.5506,-54.7151 144.4837,-48.9245"/>
</g>
<!-- RIGHT -->
<g id="node9" class="node">
<title>RIGHT</title>
<ellipse fill="#add8e6" stroke="#000000" cx="251.5" cy="-31.1127" rx="31.2258" ry="31.2258"/>
<text text-anchor="middle" x="251.5" y="-28.9127" font-family="Times,serif" font-size="9.00" fill="#000000">RIGHT</text>
</g>
<!-- A&#45;&gt;RIGHT -->
<g id="edge2" class="edge">
<title>A&#45;&gt;RIGHT</title>
<path fill="none" stroke="#00ff00" stroke-width=".5172" d="M230.0684,-107.4604C232.54,-98.6557 236.4536,-84.7138 240.2641,-71.1394"/>
<polygon fill="#00ff00" stroke="#00ff00" stroke-width=".5172" points="243.6654,-71.9726 242.9984,-61.3988 236.9259,-70.0807 243.6654,-71.9726"/>
</g>
<!-- B -->
<g id="node2" class="node">
<title>B</title>
<polygon fill="#d3d3d3" stroke="#000000" points="147,-188.9949 124,-188.9949 124,-170.9949 147,-170.9949 147,-188.9949"/>
<text text-anchor="middle" x="135.5" y="-177.7949" font-family="Times,serif" font-size="9.00" fill="#000000">B</text>
</g>
<!-- B&#45;&gt;LEFT -->
<g id="edge11" class="edge">
<title>B&#45;&gt;LEFT</title>
<path fill="none" stroke="#00ff00" stroke-width=".1183" d="M128.637,-170.9381C122.5157,-162.2491 113.9972,-148.4912 110.5,-134.9949 104.8752,-113.2881 104.9497,-88.1635 106.5144,-68.0607"/>
<polygon fill="#00ff00" stroke="#00ff00" stroke-width=".1183" points="110.0042,-68.332 107.4462,-58.0506 103.0343,-67.6832 110.0042,-68.332"/>
</g>
<!-- 29 -->
<g id="node11" class="node">
<title>29</title>
<ellipse fill="#ffffff" stroke="#000000" cx="179.5" cy="-116.6102" rx="18.2703" ry="18.2703"/>
<text text-anchor="middle" x="179.5" y="-114.4102" font-family="Times,serif" font-size="9.00" fill="#000000">29</text>
</g>
<!-- B&#45;&gt;29 -->
<g id="edge8" class="edge">
<title>B&#45;&gt;29</title>
<path fill="none" stroke="#00ff00" stroke-width=".4393" d="M141.8041,-170.9135C147.2992,-162.9975 155.5203,-151.1544 162.884,-140.5466"/>
<polygon fill="#00ff00" stroke="#00ff00" stroke-width=".4393" points="165.9618,-142.2505 168.7891,-132.0398 160.2115,-138.2587 165.9618,-142.2505"/>
</g>
<!-- C -->
<g id="node3" class="node">
<title>C</title>
<polygon fill="#d3d3d3" stroke="#000000" points="23,-125.6102 0,-125.6102 0,-107.6102 23,-107.6102 23,-125.6102"/>
<text text-anchor="middle" x="11.5" y="-114.4102" font-family="Times,serif" font-size="9.00" fill="#000000">C</text>
</g>
<!-- C&#45;&gt;LEFT -->
<g id="edge10" class="edge">
<title>C&#45;&gt;LEFT</title>
<path fill="none" stroke="#00ff00" stroke-width=".51" d="M21.7273,-107.6026C25.1435,-104.6083 28.9773,-101.2634 32.5,-98.2254 49.0583,-83.9453 67.6942,-68.1027 82.7058,-55.3974"/>
<polygon fill="#00ff00" stroke="#00ff00" stroke-width=".51" points="85.2603,-57.821 90.6365,-48.6916 80.7405,-52.4757 85.2603,-57.821"/>
</g>
<!-- D -->
<g id="node4" class="node">
<title>D</title>
<polygon fill="#d3d3d3" stroke="#000000" points="330,-188.9949 307,-188.9949 307,-170.9949 330,-170.9949 330,-188.9949"/>
<text text-anchor="middle" x="318.5" y="-177.7949" font-family="Times,serif" font-size="9.00" fill="#000000">D</text>
</g>
<!-- D&#45;&gt;RIGHT -->
<g id="edge3" class="edge">
<title>D&#45;&gt;RIGHT</title>
<path fill="none" stroke="#ff0000" stroke-width=".4768" stroke-dasharray="1,5" d="M325.509,-170.7584C336.4173,-155.1689 354.9723,-122.9211 342.5,-98.2254 331.2956,-76.0402 308.9155,-59.3836 289.1546,-48.2135"/>
<polygon fill="#ff0000" stroke="#ff0000" stroke-width=".4768" points="290.7756,-45.1113 280.3091,-43.4672 287.4659,-51.2795 290.7756,-45.1113"/>
</g>
<!-- 77 -->
<g id="node10" class="node">
<title>77</title>
<ellipse fill="#ffffff" stroke="#000000" cx="275.5" cy="-116.6102" rx="18.2703" ry="18.2703"/>
<text text-anchor="middle" x="275.5" y="-114.4102" font-family="Times,serif" font-size="9.00" fill="#000000">77</text>
</g>
<!-- D&#45;&gt;77 -->
<g id="edge13" class="edge">
<title>D&#45;&gt;77</title>
<path fill="none" stroke="#00ff00" stroke-width=".2182" d="M312.3391,-170.9135C306.969,-162.9975 298.9347,-151.1544 291.7384,-140.5466"/>
<polygon fill="#00ff00" stroke="#00ff00" stroke-width=".2182" points="294.4779,-138.3504 285.9674,-132.0398 288.6851,-142.2802 294.4779,-138.3504"/>
</g>
<!-- E -->
<g id="node5" class="node">
<title>E</title>
<polygon fill="#d3d3d3" stroke="#000000" points="333.5,-125.6102 311.5,-125.6102 311.5,-107.6102 333.5,-107.6102 333.5,-125.6102"/>
<text text-anchor="middle" x="322.5" y="-114.4102" font-family="Times,serif" font-size="9.00" fill="#000000">E</text>
</g>
<!-- E&#45;&gt;RIGHT -->
<g id="edge4" class="edge">
<title>E&#45;&gt;RIGHT</title>
<path fill="none" stroke="#00ff00" stroke-width=".462" d="M314.9018,-107.4604C306.1892,-96.9689 291.4195,-79.1834 278.3266,-63.417"/>
<polygon fill="#00ff00" stroke="#00ff00" stroke-width=".462" points="280.7549,-60.8627 271.6736,-55.4056 275.3697,-65.3348 280.7549,-60.8627"/>
</g>
<!-- F -->
<g id="node6" class="node">
<title>F</title>
<polygon fill="#d3d3d3" stroke="#000000" points="63.5,-125.6102 41.5,-125.6102 41.5,-107.6102 63.5,-107.6102 63.5,-125.6102"/>
<text text-anchor="middle" x="52.5" y="-114.4102" font-family="Times,serif" font-size="9.00" fill="#000000">F</text>
</g>
<!-- F&#45;&gt;LEFT -->
<g id="edge5" class="edge">
<title>F&#45;&gt;LEFT</title>
<path fill="none" stroke="#ff0000" stroke-width=".1635" d="M58.814,-107.4604C66.2886,-96.629 79.128,-78.0233 90.2604,-61.8912"/>
<polygon fill="#ff0000" stroke="#ff0000" stroke-width=".1635" points="93.4255,-63.467 96.2245,-53.2486 87.6641,-59.4912 93.4255,-63.467"/>
</g>
<!-- G -->
<g id="node7" class="node">
<title>G</title>
<polygon fill="#d3d3d3" stroke="#000000" points="143,-125.6102 120,-125.6102 120,-107.6102 143,-107.6102 143,-125.6102"/>
<text text-anchor="middle" x="131.5" y="-114.4102" font-family="Times,serif" font-size="9.00" fill="#000000">G</text>
</g>
<!-- G&#45;&gt;LEFT -->
<g id="edge6" class="edge">
<title>G&#45;&gt;LEFT</title>
<path fill="none" stroke="#ff0000" stroke-width=".2553" d="M129.3596,-107.4604C127.1162,-97.8702 123.4472,-82.1853 120.0164,-67.519"/>
<polygon fill="#ff0000" stroke="#ff0000" stroke-width=".2553" points="123.3855,-66.5555 117.6997,-57.6156 116.5695,-68.15 123.3855,-66.5555"/>
</g>
<!-- G&#45;&gt;RIGHT -->
<g id="edge7" class="edge">
<title>G&#45;&gt;RIGHT</title>
<path fill="none" stroke="#00ff00" stroke-width=".7955" stroke-dasharray="1,5" d="M141.5404,-107.3736C144.9441,-104.364 148.8178,-101.068 152.5,-98.2254 173.0253,-82.3804 197.0827,-66.0246 216.3424,-53.4265"/>
<polygon fill="#00ff00" stroke="#00ff00" stroke-width=".7955" points="218.3439,-56.3001 224.824,-47.918 214.5311,-50.4296 218.3439,-56.3001"/>
</g>
<!-- 77&#45;&gt;RIGHT -->
<g id="edge14" class="edge">
<title>77&#45;&gt;RIGHT</title>
<path fill="none" stroke="#ff0000" stroke-width=".6014" d="M270.5272,-98.895C268.2411,-90.7513 265.4298,-80.736 262.6765,-70.9277"/>
<polygon fill="#ff0000" stroke="#ff0000" stroke-width=".6014" points="266.0366,-69.9472 259.9641,-61.2653 259.2971,-71.8391 266.0366,-69.9472"/>
</g>
<!-- 29&#45;&gt;LEFT -->
<g id="edge12" class="edge">
<title>29&#45;&gt;LEFT</title>
<path fill="none" stroke="#00ff00" stroke-width=".1622" d="M167.9647,-102.1067C158.9056,-90.7165 145.9951,-74.4839 134.8053,-60.4148"/>
<polygon fill="#00ff00" stroke="#00ff00" stroke-width=".1622" points="137.4219,-58.0819 128.4579,-52.4341 131.9434,-62.4392 137.4219,-58.0819"/>
</g>
<!-- 29&#45;&gt;RIGHT -->
<g id="edge9" class="edge">
<title>29&#45;&gt;RIGHT</title>
<path fill="none" stroke="#00ff00" stroke-width=".6309" d="M191.3893,-102.492C200.471,-91.7078 213.3414,-76.4247 224.8443,-62.7654"/>
<polygon fill="#00ff00" stroke="#00ff00" stroke-width=".6309" points="227.6557,-64.8605 231.4201,-54.9569 222.3014,-60.3514 227.6557,-64.8605"/>
</g>
</g>
</svg>
