<?xml version="1.0" encoding="UTF-8" standalone="no"?>
<!DOCTYPE svg PUBLIC "-//W3C//DTD SVG 1.1//EN"
 "http://www.w3.org/Graphics/SVG/1.1/DTD/svg11.dtd">
<!-- Generated by graphviz version 2.40.1 (20161225.0304)
 -->
<!-- Title: %3 Pages: 1 -->
<svg width="547pt" height="197pt"
 viewBox="0.00 0.00 546.87 196.99" xmlns="http://www.w3.org/2000/svg" xmlns:xlink="http://www.w3.org/1999/xlink">
<g id="graph0" class="graph" transform="scale(1 1) rotate(0) translate(4 192.9949)">
<title>%3</title>
<polygon fill="#ffffff" stroke="transparent" points="-4,4 -4,-192.9949 542.8651,-192.9949 542.8651,4 -4,4"/>
<!-- A -->
<g id="node1" class="node">
<title>A</title>
<polygon fill="#d3d3d3" stroke="#000000" points="367.3651,-188.9949 344.3651,-188.9949 344.3651,-170.9949 367.3651,-170.9949 367.3651,-188.9949"/>
<text text-anchor="middle" x="355.8651" y="-177.7949" font-family="Times,serif" font-size="9.00" fill="#000000">A</text>
</g>
<!-- LEFT -->
<g id="node8" class="node">
<title>LEFT</title>
<ellipse fill="#add8e6" stroke="#000000" cx="217.8651" cy="-31.1127" rx="26.7407" ry="26.7407"/>
<text text-anchor="middle" x="217.8651" y="-28.9127" font-family="Times,serif" font-size="9.00" fill="#000000">LEFT</text>
</g>
<!-- A&#45;&gt;LEFT -->
<g id="edge10" class="edge">
<title>A&#45;&gt;LEFT</title>
<path fill="none" stroke="#ff0000" stroke-width=".5215" d="M356.0375,-170.912C355.89,-154.6961 353.4642,-120.39 336.8651,-98.2254 316.098,-70.4954 280.2898,-52.5609 253.3646,-42.2713"/>
<polygon fill="#ff0000" stroke="#ff0000" stroke-width=".5215" points="254.485,-38.9545 243.891,-38.8223 252.0903,-45.5322 254.485,-38.9545"/>
</g>
<!-- RIGHT -->
<g id="node9" class="node">
<title>RIGHT</title>
<ellipse fill="#add8e6" stroke="#000000" cx="352.8651" cy="-31.1127" rx="31.2258" ry="31.2258"/>
<text text-anchor="middle" x="352.8651" y="-28.9127" font-family="Times,serif" font-size="9.00" fill="#000000">RIGHT</text>
</g>
<!-- A&#45;&gt;RIGHT -->
<g id="edge11" class="edge">
<title>A&#45;&gt;RIGHT</title>
<path fill="none" stroke="#ff0000" stroke-width=".2554" d="M367.5723,-173.9035C380.2078,-166.5899 399.6264,-153.0198 407.8651,-134.9949 414.6586,-120.1319 413.3652,-113.614 407.8651,-98.2254 402.7653,-83.9568 393.1821,-70.5399 383.426,-59.5083"/>
<polygon fill="#ff0000" stroke="#ff0000" stroke-width=".2554" points="385.7314,-56.8483 376.3531,-51.919 380.6105,-61.6208 385.7314,-56.8483"/>
</g>
<!-- 8 -->
<g id="node11" class="node">
<title>8</title>
<ellipse fill="#ffffff" stroke="#000000" cx="312.8651" cy="-116.6102" rx="14.7" ry="14.7"/>
<text text-anchor="middle" x="312.8651" y="-114.4102" font-family="Times,serif" font-size="9.00" fill="#000000">8</text>
</g>
<!-- A&#45;&gt;8 -->
<g id="edge1" class="edge">
<title>A&#45;&gt;8</title>
<path fill="none" stroke="#ff0000" stroke-width=".1133" d="M349.7042,-170.9135C343.8406,-162.27 334.8007,-148.9447 327.1436,-137.6576"/>
<polygon fill="#ff0000" stroke="#ff0000" stroke-width=".1133" points="329.8967,-135.4814 321.3862,-129.1708 324.1039,-139.4112 329.8967,-135.4814"/>
</g>
<!-- B -->
<g id="node2" class="node">
<title>B</title>
<polygon fill="#d3d3d3" stroke="#000000" points="481.3651,-188.9949 458.3651,-188.9949 458.3651,-170.9949 481.3651,-170.9949 481.3651,-188.9949"/>
<text text-anchor="middle" x="469.8651" y="-177.7949" font-family="Times,serif" font-size="9.00" fill="#000000">B</text>
</g>
<!-- B&#45;&gt;LEFT -->
<g id="edge12" class="edge">
<title>B&#45;&gt;LEFT</title>
<path fill="none" stroke="#00ff00" stroke-width=".2769" d="M458.8912,-170.9217C439.3546,-155.016 396.9202,-121.5737 357.8651,-98.2254 323.1536,-77.4738 281.04,-57.9935 252.1244,-45.4225"/>
<polygon fill="#00ff00" stroke="#00ff00" stroke-width=".2769" points="253.423,-42.171 242.8539,-41.4323 250.6555,-48.6008 253.423,-42.171"/>
</g>
<!-- B&#45;&gt;RIGHT -->
<g id="edge13" class="edge">
<title>B&#45;&gt;RIGHT</title>
<path fill="none" stroke="#ff0000" stroke-width=".329" d="M475.1574,-170.8965C483.6657,-154.9517 498.0624,-121.4508 483.8651,-98.2254 464.3471,-66.2958 424.2908,-48.9348 393.5813,-39.9232"/>
<polygon fill="#ff0000" stroke="#ff0000" stroke-width=".329" points="394.1378,-36.4467 383.5683,-37.1781 392.2871,-43.1976 394.1378,-36.4467"/>
</g>
<!-- B&#45;&gt;8 -->
<g id="edge2" class="edge">
<title>B&#45;&gt;8</title>
<path fill="none" stroke="#ff0000" stroke-width=".2586" d="M458.3205,-175.3341C432.7785,-165.0222 371.0376,-140.0959 336.7757,-126.2635"/>
<polygon fill="#ff0000" stroke="#ff0000" stroke-width=".2586" points="337.6785,-122.8535 327.0953,-122.3553 335.0578,-129.3445 337.6785,-122.8535"/>
</g>
<!-- C -->
<g id="node3" class="node">
<title>C</title>
<polygon fill="#d3d3d3" stroke="#000000" points="104.3651,-188.9949 81.3651,-188.9949 81.3651,-170.9949 104.3651,-170.9949 104.3651,-188.9949"/>
<text text-anchor="middle" x="92.8651" y="-177.7949" font-family="Times,serif" font-size="9.00" fill="#000000">C</text>
</g>
<!-- C&#45;&gt;LEFT -->
<g id="edge14" class="edge">
<title>C&#45;&gt;LEFT</title>
<path fill="none" stroke="#ff0000" stroke-width=".1522" stroke-dasharray="1,5" d="M81.3577,-177.893C61.9612,-173.6611 23.2711,-162.0958 6.8651,-134.9949 -1.598,-121.015 -2.7815,-111.4165 6.8651,-98.2254 27.5961,-69.8771 126.2289,-47.8056 180.9949,-37.4929"/>
<polygon fill="#ff0000" stroke="#ff0000" stroke-width=".1522" points="181.8051,-40.9026 191.0045,-35.647 180.5356,-34.0187 181.8051,-40.9026"/>
</g>
<!-- C&#45;&gt;RIGHT -->
<g id="edge15" class="edge">
<title>C&#45;&gt;RIGHT</title>
<path fill="none" stroke="#ff0000" stroke-width=".181" d="M104.4911,-172.2135C126.9842,-157.2643 178.1825,-123.7506 222.8651,-98.2254 253.6054,-80.6648 289.4091,-62.3314 315.6498,-49.2725"/>
<polygon fill="#ff0000" stroke="#ff0000" stroke-width=".181" points="317.4505,-52.2865 324.8577,-44.7112 314.3432,-46.0139 317.4505,-52.2865"/>
</g>
<!-- 52 -->
<g id="node10" class="node">
<title>52</title>
<ellipse fill="#ffffff" stroke="#000000" cx="33.8651" cy="-116.6102" rx="18.2703" ry="18.2703"/>
<text text-anchor="middle" x="33.8651" y="-114.4102" font-family="Times,serif" font-size="9.00" fill="#000000">52</text>
</g>
<!-- C&#45;&gt;52 -->
<g id="edge23" class="edge">
<title>C&#45;&gt;52</title>
<path fill="none" stroke="#ff0000" stroke-width=".2148" d="M84.4118,-170.9135C76.3345,-162.2358 63.8645,-148.8391 53.3317,-137.5236"/>
<polygon fill="#ff0000" stroke="#ff0000" stroke-width=".2148" points="55.8024,-135.0408 46.4271,-130.1058 50.6786,-139.8102 55.8024,-135.0408"/>
</g>
<!-- C&#45;&gt;8 -->
<g id="edge3" class="edge">
<title>C&#45;&gt;8</title>
<path fill="none" stroke="#00ff00" stroke-width=".1537" d="M104.3835,-176.6764C138.8232,-166.7538 241.5366,-137.1608 288.7008,-123.5722"/>
<polygon fill="#00ff00" stroke="#00ff00" stroke-width=".1537" points="289.7549,-126.9109 298.3951,-120.7792 287.8169,-120.1846 289.7549,-126.9109"/>
</g>
<!-- D -->
<g id="node4" class="node">
<title>D</title>
<polygon fill="#d3d3d3" stroke="#000000" points="203.3651,-188.9949 180.3651,-188.9949 180.3651,-170.9949 203.3651,-170.9949 203.3651,-188.9949"/>
<text text-anchor="middle" x="191.8651" y="-177.7949" font-family="Times,serif" font-size="9.00" fill="#000000">D</text>
</g>
<!-- D&#45;&gt;LEFT -->
<g id="edge16" class="edge">
<title>D&#45;&gt;LEFT</title>
<path fill="none" stroke="#00ff00" stroke-width=".1549" d="M193.4915,-170.6817C197.0077,-150.5472 205.4806,-102.029 211.4446,-67.8777"/>
<polygon fill="#00ff00" stroke="#00ff00" stroke-width=".1549" points="214.9342,-68.2406 213.2067,-57.7876 208.0385,-67.0364 214.9342,-68.2406"/>
</g>
<!-- D&#45;&gt;RIGHT -->
<g id="edge17" class="edge">
<title>D&#45;&gt;RIGHT</title>
<path fill="none" stroke="#00ff00" stroke-width=".2673" d="M198.3393,-170.7659C209.7133,-154.9087 234.493,-121.9137 259.8651,-98.2254 277.6253,-81.6438 299.5857,-65.6207 317.7063,-53.3915"/>
<polygon fill="#00ff00" stroke="#00ff00" stroke-width=".2673" points="319.8677,-56.1575 326.2582,-47.7069 315.9927,-50.3279 319.8677,-56.1575"/>
</g>
<!-- D&#45;&gt;8 -->
<g id="edge4" class="edge">
<title>D&#45;&gt;8</title>
<path fill="none" stroke="#ff0000" stroke-width=".2177" d="M203.4671,-173.9174C223.5031,-163.4217 264.91,-141.731 290.6414,-128.2518"/>
<polygon fill="#ff0000" stroke="#ff0000" stroke-width=".2177" points="292.4244,-131.269 299.6585,-123.5283 289.1762,-125.0683 292.4244,-131.269"/>
</g>
<!-- E -->
<g id="node5" class="node">
<title>E</title>
<polygon fill="#d3d3d3" stroke="#000000" points="243.8651,-188.9949 221.8651,-188.9949 221.8651,-170.9949 243.8651,-170.9949 243.8651,-188.9949"/>
<text text-anchor="middle" x="232.8651" y="-177.7949" font-family="Times,serif" font-size="9.00" fill="#000000">E</text>
</g>
<!-- E&#45;&gt;LEFT -->
<g id="edge18" class="edge">
<title>E&#45;&gt;LEFT</title>
<path fill="none" stroke="#00ff00" stroke-width=".5189" d="M228.8698,-170.9067C225.1746,-161.9696 219.9493,-147.8384 217.8651,-134.9949 214.3143,-113.1142 214.1731,-88.2979 214.986,-68.4087"/>
<polygon fill="#00ff00" stroke="#00ff00" stroke-width=".5189" points="218.4922,-68.3723 215.5025,-58.2081 211.5012,-68.0183 218.4922,-68.3723"/>
</g>
<!-- E&#45;&gt;RIGHT -->
<g id="edge19" class="edge">
<title>E&#45;&gt;RIGHT</title>
<path fill="none" stroke="#ff0000" stroke-width=".2245" d="M238.6166,-170.5741C248.2834,-154.9881 268.7148,-123.0887 288.8651,-98.2254 299.4259,-85.1944 311.9902,-71.6549 323.1785,-60.1788"/>
<polygon fill="#ff0000" stroke="#ff0000" stroke-width=".2245" points="325.7668,-62.5388 330.2971,-52.9614 320.783,-57.6232 325.7668,-62.5388"/>
</g>
<!-- E&#45;&gt;8 -->
<g id="edge5" class="edge">
<title>E&#45;&gt;8</title>
<path fill="none" stroke="#00ff00" stroke-width=".5665" d="M243.9887,-171.1816C256.6675,-161.1361 277.6341,-144.524 293.1101,-132.2623"/>
<polygon fill="#00ff00" stroke="#00ff00" stroke-width=".5665" points="295.391,-134.9205 301.0554,-125.9671 291.0438,-129.4339 295.391,-134.9205"/>
</g>
<!-- F -->
<g id="node6" class="node">
<title>F</title>
<polygon fill="#d3d3d3" stroke="#000000" points="538.8651,-188.9949 516.8651,-188.9949 516.8651,-170.9949 538.8651,-170.9949 538.8651,-188.9949"/>
<text text-anchor="middle" x="527.8651" y="-177.7949" font-family="Times,serif" font-size="9.00" fill="#000000">F</text>
</g>
<!-- F&#45;&gt;RIGHT -->
<g id="edge20" class="edge">
<title>F&#45;&gt;RIGHT</title>
<path fill="none" stroke="#ff0000" stroke-width=".1135" d="M527.0885,-170.9647C525.2242,-154.5277 519.1099,-119.4631 499.8651,-98.2254 471.6959,-67.1392 426.2808,-49.4707 393.3775,-40.1513"/>
<polygon fill="#ff0000" stroke="#ff0000" stroke-width=".1135" points="394.1666,-36.7392 383.6007,-37.5215 392.3483,-43.4989 394.1666,-36.7392"/>
</g>
<!-- F&#45;&gt;8 -->
<g id="edge6" class="edge">
<title>F&#45;&gt;8</title>
<path fill="none" stroke="#00ff00" stroke-width=".3021" d="M516.6085,-176.6764C483.1023,-166.7983 383.471,-137.4257 337.1033,-123.7559"/>
<polygon fill="#00ff00" stroke="#00ff00" stroke-width=".3021" points="337.8755,-120.3347 327.2939,-120.864 335.896,-127.049 337.8755,-120.3347"/>
</g>
<!-- G -->
<g id="node7" class="node">
<title>G</title>
<polygon fill="#d3d3d3" stroke="#000000" points="324.3651,-188.9949 301.3651,-188.9949 301.3651,-170.9949 324.3651,-170.9949 324.3651,-188.9949"/>
<text text-anchor="middle" x="312.8651" y="-177.7949" font-family="Times,serif" font-size="9.00" fill="#000000">G</text>
</g>
<!-- G&#45;&gt;LEFT -->
<g id="edge21" class="edge">
<title>G&#45;&gt;LEFT</title>
<path fill="none" stroke="#00ff00" stroke-width=".3477" d="M306.9224,-170.6817C293.3867,-149.4687 259.7474,-96.7499 237.9057,-62.52"/>
<polygon fill="#00ff00" stroke="#00ff00" stroke-width=".3477" points="240.6854,-60.3695 232.3557,-53.8221 234.7843,-64.1349 240.6854,-60.3695"/>
</g>
<!-- G&#45;&gt;RIGHT -->
<g id="edge22" class="edge">
<title>G&#45;&gt;RIGHT</title>
<path fill="none" stroke="#ff0000" stroke-width=".1924" stroke-dasharray="1,5" d="M318.9931,-170.7591C324.5443,-161.9436 332.5019,-148.1002 336.8651,-134.9949 343.559,-114.889 347.4722,-91.6476 349.7502,-72.2527"/>
<polygon fill="#ff0000" stroke="#ff0000" stroke-width=".1924" points="353.241,-72.5249 350.8265,-62.2088 346.2808,-71.7789 353.241,-72.5249"/>
</g>
<!-- G&#45;&gt;8 -->
<g id="edge7" class="edge">
<title>G&#45;&gt;8</title>
<path fill="none" stroke="#ff0000" stroke-width=".246" d="M312.8651,-170.9135C312.8651,-163.2916 312.8651,-152.0292 312.8651,-141.7341"/>
<polygon fill="#ff0000" stroke="#ff0000" stroke-width=".246" points="316.3652,-141.5487 312.8651,-131.5487 309.3652,-141.5487 316.3652,-141.5487"/>
</g>
<!-- 52&#45;&gt;LEFT -->
<g id="edge24" class="edge">
<title>52&#45;&gt;LEFT</title>
<path fill="none" stroke="#00ff00" stroke-width=".1535" d="M49.6348,-107.1093C54.7499,-104.147 60.4917,-100.9457 65.8651,-98.2254 105.3447,-78.239 152.0874,-58.1076 183.2136,-45.1812"/>
<polygon fill="#00ff00" stroke="#00ff00" stroke-width=".1535" points="184.8346,-48.2986 192.7417,-41.2468 182.1629,-41.8285 184.8346,-48.2986"/>
</g>
<!-- 8&#45;&gt;LEFT -->
<g id="edge8" class="edge">
<title>8&#45;&gt;LEFT</title>
<path fill="none" stroke="#00ff00" stroke-width=".1814" d="M301.5943,-106.4667C287.9184,-94.1589 264.378,-72.9731 245.7341,-56.194"/>
<polygon fill="#00ff00" stroke="#00ff00" stroke-width=".1814" points="247.861,-53.3995 238.0866,-49.3115 243.1783,-58.6027 247.861,-53.3995"/>
</g>
<!-- 8&#45;&gt;RIGHT -->
<g id="edge9" class="edge">
<title>8&#45;&gt;RIGHT</title>
<path fill="none" stroke="#ff0000" stroke-width=".3845" d="M319.2918,-102.8735C323.6562,-93.5449 329.6533,-80.7265 335.3725,-68.502"/>
<polygon fill="#ff0000" stroke="#ff0000" stroke-width=".3845" points="338.5927,-69.8782 339.6602,-59.3373 332.2523,-66.9118 338.5927,-69.8782"/>
</g>
</g>
</svg>
