<?xml version="1.0" encoding="UTF-8" standalone="no"?>
<!DOCTYPE svg PUBLIC "-//W3C//DTD SVG 1.1//EN"
 "http://www.w3.org/Graphics/SVG/1.1/DTD/svg11.dtd">
<!-- Generated by graphviz version 2.40.1 (20161225.0304)
 -->
<!-- Title: %3 Pages: 1 -->
<svg width="455pt" height="197pt"
 viewBox="0.00 0.00 454.50 196.99" xmlns="http://www.w3.org/2000/svg" xmlns:xlink="http://www.w3.org/1999/xlink">
<g id="graph0" class="graph" transform="scale(1 1) rotate(0) translate(4 192.9949)">
<title>%3</title>
<polygon fill="#ffffff" stroke="transparent" points="-4,4 -4,-192.9949 450.5,-192.9949 450.5,4 -4,4"/>
<!-- A -->
<g id="node1" class="node">
<title>A</title>
<polygon fill="#d3d3d3" stroke="#000000" points="99,-188.9949 76,-188.9949 76,-170.9949 99,-170.9949 99,-188.9949"/>
<text text-anchor="middle" x="87.5" y="-177.7949" font-family="Times,serif" font-size="9.00" fill="#000000">A</text>
</g>
<!-- LEFT -->
<g id="node8" class="node">
<title>LEFT</title>
<ellipse fill="#add8e6" stroke="#000000" cx="165.5" cy="-31.1127" rx="26.7407" ry="26.7407"/>
<text text-anchor="middle" x="165.5" y="-28.9127" font-family="Times,serif" font-size="9.00" fill="#000000">LEFT</text>
</g>
<!-- A&#45;&gt;LEFT -->
<g id="edge10" class="edge">
<title>A&#45;&gt;LEFT</title>
<path fill="none" stroke="#ff0000" stroke-width=".5215" d="M87.9998,-170.9009C89.1776,-155.2475 93.0485,-122.5515 105.5,-98.2254 113.5029,-82.5903 126.0424,-67.7489 137.593,-56.0175"/>
<polygon fill="#ff0000" stroke="#ff0000" stroke-width=".5215" points="140.2873,-58.2778 144.983,-48.7803 135.3896,-53.2766 140.2873,-58.2778"/>
</g>
<!-- RIGHT -->
<g id="node9" class="node">
<title>RIGHT</title>
<ellipse fill="#add8e6" stroke="#000000" cx="289.5" cy="-31.1127" rx="31.2258" ry="31.2258"/>
<text text-anchor="middle" x="289.5" y="-28.9127" font-family="Times,serif" font-size="9.00" fill="#000000">RIGHT</text>
</g>
<!-- A&#45;&gt;RIGHT -->
<g id="edge11" class="edge">
<title>A&#45;&gt;RIGHT</title>
<path fill="none" stroke="#ff0000" stroke-width=".2554" d="M92.6326,-170.7725C102.1681,-154.3354 124.0683,-119.6904 150.5,-98.2254 180.4964,-73.8655 220.8024,-55.6547 250.2864,-44.3947"/>
<polygon fill="#ff0000" stroke="#ff0000" stroke-width=".2554" points="251.6859,-47.6085 259.8399,-40.8437 249.247,-41.0471 251.6859,-47.6085"/>
</g>
<!-- 8 -->
<g id="node11" class="node">
<title>8</title>
<ellipse fill="#ffffff" stroke="#000000" cx="208.5" cy="-116.6102" rx="14.7" ry="14.7"/>
<text text-anchor="middle" x="208.5" y="-114.4102" font-family="Times,serif" font-size="9.00" fill="#000000">8</text>
</g>
<!-- A&#45;&gt;8 -->
<g id="edge1" class="edge">
<title>A&#45;&gt;8</title>
<path fill="none" stroke="#ff0000" stroke-width=".1133" d="M99.102,-173.9174C119.138,-163.4217 160.5449,-141.731 186.2764,-128.2518"/>
<polygon fill="#ff0000" stroke="#ff0000" stroke-width=".1133" points="188.0593,-131.269 195.2934,-123.5283 184.8111,-125.0683 188.0593,-131.269"/>
</g>
<!-- B -->
<g id="node2" class="node">
<title>B</title>
<polygon fill="#d3d3d3" stroke="#000000" points="263,-188.9949 240,-188.9949 240,-170.9949 263,-170.9949 263,-188.9949"/>
<text text-anchor="middle" x="251.5" y="-177.7949" font-family="Times,serif" font-size="9.00" fill="#000000">B</text>
</g>
<!-- B&#45;&gt;LEFT -->
<g id="edge12" class="edge">
<title>B&#45;&gt;LEFT</title>
<path fill="none" stroke="#00ff00" stroke-width=".2769" d="M251.0037,-170.8235C249.8074,-155.0533 245.7905,-122.1859 232.5,-98.2254 223.0871,-81.2556 208.139,-65.6854 194.748,-53.8232"/>
<polygon fill="#00ff00" stroke="#00ff00" stroke-width=".2769" points="196.9732,-51.1209 187.0972,-47.2849 192.4255,-56.4424 196.9732,-51.1209"/>
</g>
<!-- B&#45;&gt;RIGHT -->
<g id="edge13" class="edge">
<title>B&#45;&gt;RIGHT</title>
<path fill="none" stroke="#ff0000" stroke-width=".329" d="M263.2072,-173.9035C275.8427,-166.5899 295.2613,-153.0198 303.5,-134.9949 312.7545,-114.7475 309.9674,-90.1295 304.5338,-69.9414"/>
<polygon fill="#ff0000" stroke="#ff0000" stroke-width=".329" points="307.8182,-68.7079 301.5985,-60.1308 301.1119,-70.7145 307.8182,-68.7079"/>
</g>
<!-- B&#45;&gt;8 -->
<g id="edge2" class="edge">
<title>B&#45;&gt;8</title>
<path fill="none" stroke="#ff0000" stroke-width=".2586" d="M245.3391,-170.9135C239.4755,-162.27 230.4356,-148.9447 222.7785,-137.6576"/>
<polygon fill="#ff0000" stroke="#ff0000" stroke-width=".2586" points="225.5316,-135.4814 217.0211,-129.1708 219.7388,-139.4112 225.5316,-135.4814"/>
</g>
<!-- C -->
<g id="node3" class="node">
<title>C</title>
<polygon fill="#d3d3d3" stroke="#000000" points="385,-188.9949 362,-188.9949 362,-170.9949 385,-170.9949 385,-188.9949"/>
<text text-anchor="middle" x="373.5" y="-177.7949" font-family="Times,serif" font-size="9.00" fill="#000000">C</text>
</g>
<!-- C&#45;&gt;RIGHT -->
<g id="edge14" class="edge">
<title>C&#45;&gt;RIGHT</title>
<path fill="none" stroke="#ff0000" stroke-width=".181" d="M381.1254,-170.9337C393.2733,-155.3299 414.3063,-122.7066 400.5,-98.2254 385.2471,-71.1791 354.2236,-53.7981 328.8428,-43.517"/>
<polygon fill="#ff0000" stroke="#ff0000" stroke-width=".181" points="330.0268,-40.2226 319.4363,-39.9189 327.5259,-46.7606 330.0268,-40.2226"/>
</g>
<!-- 52 -->
<g id="node10" class="node">
<title>52</title>
<ellipse fill="#ffffff" stroke="#000000" cx="373.5" cy="-116.6102" rx="18.2703" ry="18.2703"/>
<text text-anchor="middle" x="373.5" y="-114.4102" font-family="Times,serif" font-size="9.00" fill="#000000">52</text>
</g>
<!-- C&#45;&gt;52 -->
<g id="edge21" class="edge">
<title>C&#45;&gt;52</title>
<path fill="none" stroke="#ff0000" stroke-width=".2148" d="M373.5,-170.9135C373.5,-164.1485 373.5,-154.5155 373.5,-145.2364"/>
<polygon fill="#ff0000" stroke="#ff0000" stroke-width=".2148" points="377.0001,-145.0821 373.5,-135.0821 370.0001,-145.0821 377.0001,-145.0821"/>
</g>
<!-- C&#45;&gt;8 -->
<g id="edge3" class="edge">
<title>C&#45;&gt;8</title>
<path fill="none" stroke="#00ff00" stroke-width=".1537" d="M361.8975,-175.5379C335.0584,-165.2276 268.2423,-139.5602 232.2916,-125.7497"/>
<polygon fill="#00ff00" stroke="#00ff00" stroke-width=".1537" points="233.2058,-122.3516 222.6157,-122.0327 230.6955,-128.886 233.2058,-122.3516"/>
</g>
<!-- D -->
<g id="node4" class="node">
<title>D</title>
<polygon fill="#d3d3d3" stroke="#000000" points="220,-188.9949 197,-188.9949 197,-170.9949 220,-170.9949 220,-188.9949"/>
<text text-anchor="middle" x="208.5" y="-177.7949" font-family="Times,serif" font-size="9.00" fill="#000000">D</text>
</g>
<!-- D&#45;&gt;LEFT -->
<g id="edge15" class="edge">
<title>D&#45;&gt;LEFT</title>
<path fill="none" stroke="#00ff00" stroke-width=".1549" d="M202.456,-170.7305C196.9642,-161.8948 189.0467,-148.0377 184.5,-134.9949 176.9966,-113.4706 172.3,-88.3513 169.4536,-68.2055"/>
<polygon fill="#00ff00" stroke="#00ff00" stroke-width=".1549" points="172.9075,-67.6253 168.1287,-58.1693 165.9677,-68.5414 172.9075,-67.6253"/>
</g>
<!-- D&#45;&gt;RIGHT -->
<g id="edge16" class="edge">
<title>D&#45;&gt;RIGHT</title>
<path fill="none" stroke="#00ff00" stroke-width=".2673" d="M213.5669,-170.6817C224.5206,-150.5482 250.9151,-102.0338 269.4951,-67.8828"/>
<polygon fill="#00ff00" stroke="#00ff00" stroke-width=".2673" points="272.8044,-69.1236 274.5091,-58.6668 266.6555,-65.7783 272.8044,-69.1236"/>
</g>
<!-- D&#45;&gt;8 -->
<g id="edge4" class="edge">
<title>D&#45;&gt;8</title>
<path fill="none" stroke="#ff0000" stroke-width=".2177" d="M208.5,-170.9135C208.5,-163.2916 208.5,-152.0292 208.5,-141.7341"/>
<polygon fill="#ff0000" stroke="#ff0000" stroke-width=".2177" points="212.0001,-141.5487 208.5,-131.5487 205.0001,-141.5487 212.0001,-141.5487"/>
</g>
<!-- E -->
<g id="node5" class="node">
<title>E</title>
<polygon fill="#d3d3d3" stroke="#000000" points="139.5,-188.9949 117.5,-188.9949 117.5,-170.9949 139.5,-170.9949 139.5,-188.9949"/>
<text text-anchor="middle" x="128.5" y="-177.7949" font-family="Times,serif" font-size="9.00" fill="#000000">E</text>
</g>
<!-- E&#45;&gt;LEFT -->
<g id="edge17" class="edge">
<title>E&#45;&gt;LEFT</title>
<path fill="none" stroke="#00ff00" stroke-width=".5189" d="M123.7998,-170.6946C116.6667,-155.2818 104.8112,-123.6257 113.5,-98.2254 118.6941,-83.0414 128.8756,-68.6337 138.8628,-57.0885"/>
<polygon fill="#00ff00" stroke="#00ff00" stroke-width=".5189" points="141.5509,-59.3346 145.6824,-49.5785 136.3686,-54.6288 141.5509,-59.3346"/>
</g>
<!-- E&#45;&gt;RIGHT -->
<g id="edge18" class="edge">
<title>E&#45;&gt;RIGHT</title>
<path fill="none" stroke="#ff0000" stroke-width=".2245" d="M133.2,-170.7734C141.7507,-154.6383 161.1429,-120.8521 184.5,-98.2254 204.6231,-78.7316 231.2561,-61.7863 252.6635,-49.7995"/>
<polygon fill="#ff0000" stroke="#ff0000" stroke-width=".2245" points="254.3915,-52.8437 261.4839,-44.9729 251.0313,-46.7029 254.3915,-52.8437"/>
</g>
<!-- E&#45;&gt;8 -->
<g id="edge5" class="edge">
<title>E&#45;&gt;8</title>
<path fill="none" stroke="#00ff00" stroke-width=".5665" d="M139.6237,-171.1816C152.3024,-161.1361 173.269,-144.524 188.745,-132.2623"/>
<polygon fill="#00ff00" stroke="#00ff00" stroke-width=".5665" points="191.0259,-134.9205 196.6903,-125.9671 186.6788,-129.4339 191.0259,-134.9205"/>
</g>
<!-- F -->
<g id="node6" class="node">
<title>F</title>
<polygon fill="#d3d3d3" stroke="#000000" points="446.5,-188.9949 424.5,-188.9949 424.5,-170.9949 446.5,-170.9949 446.5,-188.9949"/>
<text text-anchor="middle" x="435.5" y="-177.7949" font-family="Times,serif" font-size="9.00" fill="#000000">F</text>
</g>
<!-- F&#45;&gt;RIGHT -->
<g id="edge19" class="edge">
<title>F&#45;&gt;RIGHT</title>
<path fill="none" stroke="#ff0000" stroke-width=".1135" d="M435.7326,-170.8663C435.6805,-154.578 433.4008,-120.1608 416.5,-98.2254 394.7839,-70.0402 357.825,-52.4255 329.3596,-42.3536"/>
<polygon fill="#ff0000" stroke="#ff0000" stroke-width=".1135" points="330.2782,-38.97 319.6841,-39.1007 328.0474,-45.605 330.2782,-38.97"/>
</g>
<!-- F&#45;&gt;8 -->
<g id="edge6" class="edge">
<title>F&#45;&gt;8</title>
<path fill="none" stroke="#00ff00" stroke-width=".3021" d="M424.243,-176.8517C389.1547,-167.054 281.2186,-136.9152 232.6369,-123.3499"/>
<polygon fill="#00ff00" stroke="#00ff00" stroke-width=".3021" points="233.5267,-119.9645 222.9538,-120.6461 231.644,-126.7066 233.5267,-119.9645"/>
</g>
<!-- G -->
<g id="node7" class="node">
<title>G</title>
<polygon fill="#d3d3d3" stroke="#000000" points="23,-188.9949 0,-188.9949 0,-170.9949 23,-170.9949 23,-188.9949"/>
<text text-anchor="middle" x="11.5" y="-177.7949" font-family="Times,serif" font-size="9.00" fill="#000000">G</text>
</g>
<!-- G&#45;&gt;LEFT -->
<g id="edge20" class="edge">
<title>G&#45;&gt;LEFT</title>
<path fill="none" stroke="#00ff00" stroke-width=".3477" d="M19.7609,-170.638C33.5598,-155.1439 62.3652,-123.3736 88.5,-98.2254 104.0253,-83.2861 122.1583,-67.4101 136.9265,-54.8516"/>
<polygon fill="#00ff00" stroke="#00ff00" stroke-width=".3477" points="139.368,-57.3708 144.747,-48.243 134.8498,-52.0242 139.368,-57.3708"/>
</g>
<!-- G&#45;&gt;8 -->
<g id="edge7" class="edge">
<title>G&#45;&gt;8</title>
<path fill="none" stroke="#ff0000" stroke-width=".246" d="M23.2333,-176.2198C54.8374,-166.0511 142.2211,-137.9354 184.7003,-124.2677"/>
<polygon fill="#ff0000" stroke="#ff0000" stroke-width=".246" points="185.7883,-127.5945 194.2356,-121.1997 183.6442,-120.9309 185.7883,-127.5945"/>
</g>
<!-- 52&#45;&gt;LEFT -->
<g id="edge22" class="edge">
<title>52&#45;&gt;LEFT</title>
<path fill="none" stroke="#00ff00" stroke-width=".1535" d="M356.4785,-109.6136C322.3104,-95.5689 244.7955,-63.7067 199.7272,-45.1816"/>
<polygon fill="#00ff00" stroke="#00ff00" stroke-width=".1535" points="200.9403,-41.8962 190.3605,-41.3315 198.279,-48.3706 200.9403,-41.8962"/>
</g>
<!-- 8&#45;&gt;LEFT -->
<g id="edge8" class="edge">
<title>8&#45;&gt;LEFT</title>
<path fill="none" stroke="#00ff00" stroke-width=".1814" d="M201.7813,-103.2512C196.5611,-92.8719 189.0877,-78.0125 182.2789,-64.4743"/>
<polygon fill="#00ff00" stroke="#00ff00" stroke-width=".1814" points="185.3271,-62.7453 177.7071,-55.3841 179.0734,-65.8905 185.3271,-62.7453"/>
</g>
<!-- 8&#45;&gt;RIGHT -->
<g id="edge9" class="edge">
<title>8&#45;&gt;RIGHT</title>
<path fill="none" stroke="#ff0000" stroke-width=".3845" d="M218.7587,-105.7819C229.368,-94.5835 246.4098,-76.5954 261.1084,-61.0807"/>
<polygon fill="#ff0000" stroke="#ff0000" stroke-width=".3845" points="263.7606,-63.3703 268.0973,-53.7037 258.6789,-58.556 263.7606,-63.3703"/>
</g>
</g>
</svg>
