<?xml version="1.0" encoding="UTF-8" standalone="no"?>
<!DOCTYPE svg PUBLIC "-//W3C//DTD SVG 1.1//EN"
 "http://www.w3.org/Graphics/SVG/1.1/DTD/svg11.dtd">
<!-- Generated by graphviz version 2.40.1 (20161225.0304)
 -->
<!-- Title: %3 Pages: 1 -->
<svg width="333pt" height="197pt"
 viewBox="0.00 0.00 332.90 196.99" xmlns="http://www.w3.org/2000/svg" xmlns:xlink="http://www.w3.org/1999/xlink">
<g id="graph0" class="graph" transform="scale(1 1) rotate(0) translate(4 192.9949)">
<title>%3</title>
<polygon fill="#ffffff" stroke="transparent" points="-4,4 -4,-192.9949 328.9041,-192.9949 328.9041,4 -4,4"/>
<!-- A -->
<g id="node1" class="node">
<title>A</title>
<polygon fill="#d3d3d3" stroke="#000000" points="121.0193,-125.6102 98.0193,-125.6102 98.0193,-107.6102 121.0193,-107.6102 121.0193,-125.6102"/>
<text text-anchor="middle" x="109.5193" y="-114.4102" font-family="Times,serif" font-size="9.00" fill="#000000">A</text>
</g>
<!-- LEFT -->
<g id="node8" class="node">
<title>LEFT</title>
<ellipse fill="#add8e6" stroke="#000000" cx="91.5193" cy="-31.1127" rx="26.7407" ry="26.7407"/>
<text text-anchor="middle" x="91.5193" y="-28.9127" font-family="Times,serif" font-size="9.00" fill="#000000">LEFT</text>
</g>
<!-- A&#45;&gt;LEFT -->
<g id="edge1" class="edge">
<title>A&#45;&gt;LEFT</title>
<path fill="none" stroke="#00ff00" stroke-width=".1218" stroke-dasharray="1,5" d="M107.593,-107.4604C105.574,-97.8702 102.2718,-82.1853 99.184,-67.519"/>
<polygon fill="#00ff00" stroke="#00ff00" stroke-width=".1218" points="102.5842,-66.68 97.0991,-57.6156 95.7344,-68.1222 102.5842,-66.68"/>
</g>
<!-- RIGHT -->
<g id="node9" class="node">
<title>RIGHT</title>
<ellipse fill="#add8e6" stroke="#000000" cx="167.5193" cy="-31.1127" rx="31.2258" ry="31.2258"/>
<text text-anchor="middle" x="167.5193" y="-28.9127" font-family="Times,serif" font-size="9.00" fill="#000000">RIGHT</text>
</g>
<!-- A&#45;&gt;RIGHT -->
<g id="edge2" class="edge">
<title>A&#45;&gt;RIGHT</title>
<path fill="none" stroke="#ff0000" stroke-width=".1336" d="M115.7263,-107.4604C122.5811,-97.3559 134.0256,-80.4857 144.4157,-65.1696"/>
<polygon fill="#ff0000" stroke="#ff0000" stroke-width=".1336" points="147.3261,-67.1138 150.0437,-56.8735 141.5333,-63.1841 147.3261,-67.1138"/>
</g>
<!-- B -->
<g id="node2" class="node">
<title>B</title>
<polygon fill="#d3d3d3" stroke="#000000" points="162.0193,-125.6102 139.0193,-125.6102 139.0193,-107.6102 162.0193,-107.6102 162.0193,-125.6102"/>
<text text-anchor="middle" x="150.5193" y="-114.4102" font-family="Times,serif" font-size="9.00" fill="#000000">B</text>
</g>
<!-- B&#45;&gt;LEFT -->
<g id="edge3" class="edge">
<title>B&#45;&gt;LEFT</title>
<path fill="none" stroke="#ff0000" stroke-width=".2134" d="M144.2053,-107.4604C136.7307,-96.629 123.8913,-78.0233 112.759,-61.8912"/>
<polygon fill="#ff0000" stroke="#ff0000" stroke-width=".2134" points="115.3552,-59.4912 106.7948,-53.2486 109.5939,-63.467 115.3552,-59.4912"/>
</g>
<!-- B&#45;&gt;RIGHT -->
<g id="edge4" class="edge">
<title>B&#45;&gt;RIGHT</title>
<path fill="none" stroke="#ff0000" stroke-width=".4897" d="M152.3386,-107.4604C154.0587,-98.8098 156.7647,-85.2004 159.4188,-71.8526"/>
<polygon fill="#ff0000" stroke="#ff0000" stroke-width=".4897" points="162.9035,-72.2736 161.421,-61.783 156.0379,-70.9084 162.9035,-72.2736"/>
</g>
<!-- C -->
<g id="node3" class="node">
<title>C</title>
<polygon fill="#d3d3d3" stroke="#000000" points="250.0193,-188.9949 227.0193,-188.9949 227.0193,-170.9949 250.0193,-170.9949 250.0193,-188.9949"/>
<text text-anchor="middle" x="238.5193" y="-177.7949" font-family="Times,serif" font-size="9.00" fill="#000000">C</text>
</g>
<!-- C&#45;&gt;LEFT -->
<g id="edge5" class="edge">
<title>C&#45;&gt;LEFT</title>
<path fill="none" stroke="#00ff00" stroke-width=".3167" d="M226.9286,-179.5986C184.1164,-177.8695 35.9052,-169.4441 7.5193,-134.9949 -17.1222,-105.0899 26.1758,-69.9734 59.2312,-49.1846"/>
<polygon fill="#00ff00" stroke="#00ff00" stroke-width=".3167" points="61.0733,-52.1608 67.7918,-43.9686 57.4309,-46.183 61.0733,-52.1608"/>
</g>
<!-- 25 -->
<g id="node10" class="node">
<title>25</title>
<ellipse fill="#ffffff" stroke="#000000" cx="306.5193" cy="-31.1127" rx="18.2703" ry="18.2703"/>
<text text-anchor="middle" x="306.5193" y="-28.9127" font-family="Times,serif" font-size="9.00" fill="#000000">25</text>
</g>
<!-- C&#45;&gt;25 -->
<g id="edge15" class="edge">
<title>C&#45;&gt;25</title>
<path fill="none" stroke="#ff0000" stroke-width=".2479" d="M250.1819,-176.3399C266.4497,-170.5366 295.326,-157.5044 307.5193,-134.9949 320.1435,-111.6902 317.9447,-80.91 313.7809,-58.916"/>
<polygon fill="#ff0000" stroke="#ff0000" stroke-width=".2479" points="317.1516,-57.9415 311.6353,-48.896 310.3068,-59.4072 317.1516,-57.9415"/>
</g>
<!-- 46 -->
<g id="node11" class="node">
<title>46</title>
<ellipse fill="#ffffff" stroke="#000000" cx="238.5193" cy="-116.6102" rx="18.2703" ry="18.2703"/>
<text text-anchor="middle" x="238.5193" y="-114.4102" font-family="Times,serif" font-size="9.00" fill="#000000">46</text>
</g>
<!-- C&#45;&gt;46 -->
<g id="edge16" class="edge">
<title>C&#45;&gt;46</title>
<path fill="none" stroke="#00ff00" stroke-width=".3823" d="M238.5193,-170.9135C238.5193,-164.1485 238.5193,-154.5155 238.5193,-145.2364"/>
<polygon fill="#00ff00" stroke="#00ff00" stroke-width=".3823" points="242.0194,-145.0821 238.5193,-135.0821 235.0194,-145.0821 242.0194,-145.0821"/>
</g>
<!-- D -->
<g id="node4" class="node">
<title>D</title>
<polygon fill="#d3d3d3" stroke="#000000" points="298.0193,-125.6102 275.0193,-125.6102 275.0193,-107.6102 298.0193,-107.6102 298.0193,-125.6102"/>
<text text-anchor="middle" x="286.5193" y="-114.4102" font-family="Times,serif" font-size="9.00" fill="#000000">D</text>
</g>
<!-- D&#45;&gt;LEFT -->
<g id="edge6" class="edge">
<title>D&#45;&gt;LEFT</title>
<path fill="none" stroke="#ff0000" stroke-width=".3136" d="M277.8106,-107.3576C274.2733,-104.0608 269.9725,-100.5843 265.5193,-98.2254 209.5067,-68.5545 183.6265,-91.7172 127.5193,-62.2254 124.4277,-60.6003 121.3753,-58.6634 118.4335,-56.5618"/>
<polygon fill="#ff0000" stroke="#ff0000" stroke-width=".3136" points="120.5209,-53.7508 110.4949,-50.3259 116.1968,-59.2556 120.5209,-53.7508"/>
</g>
<!-- D&#45;&gt;RIGHT -->
<g id="edge7" class="edge">
<title>D&#45;&gt;RIGHT</title>
<path fill="none" stroke="#ff0000" stroke-width=".4015" d="M276.4711,-107.3838C273.0668,-104.3748 269.1948,-101.0767 265.5193,-98.2254 245.1731,-82.4417 221.358,-66.0875 202.2995,-53.4749"/>
<polygon fill="#ff0000" stroke="#ff0000" stroke-width=".4015" points="204.1861,-50.5265 193.9072,-47.9587 200.3412,-56.3761 204.1861,-50.5265"/>
</g>
<!-- D&#45;&gt;25 -->
<g id="edge14" class="edge">
<title>D&#45;&gt;25</title>
<path fill="none" stroke="#ff0000" stroke-width=".3613" d="M288.6597,-107.4604C291.3468,-95.9734 296.0793,-75.7425 299.9978,-58.9914"/>
<polygon fill="#ff0000" stroke="#ff0000" stroke-width=".3613" points="303.437,-59.6549 302.3069,-49.1205 296.621,-58.0604 303.437,-59.6549"/>
</g>
<!-- E -->
<g id="node5" class="node">
<title>E</title>
<polygon fill="#d3d3d3" stroke="#000000" points="202.5193,-125.6102 180.5193,-125.6102 180.5193,-107.6102 202.5193,-107.6102 202.5193,-125.6102"/>
<text text-anchor="middle" x="191.5193" y="-114.4102" font-family="Times,serif" font-size="9.00" fill="#000000">E</text>
</g>
<!-- E&#45;&gt;LEFT -->
<g id="edge8" class="edge">
<title>E&#45;&gt;LEFT</title>
<path fill="none" stroke="#00ff00" stroke-width=".3933" d="M181.8555,-107.5192C178.6071,-104.5193 174.9395,-101.1922 171.5193,-98.2254 152.4327,-81.6688 146.8573,-78.4877 127.5193,-62.2254 124.9904,-60.0987 122.3729,-57.877 119.7562,-55.6419"/>
<polygon fill="#00ff00" stroke="#00ff00" stroke-width=".3933" points="121.8643,-52.8388 111.9979,-48.9782 117.3033,-58.149 121.8643,-52.8388"/>
</g>
<!-- E&#45;&gt;RIGHT -->
<g id="edge9" class="edge">
<title>E&#45;&gt;RIGHT</title>
<path fill="none" stroke="#ff0000" stroke-width=".5951" d="M188.9509,-107.4604C186.4793,-98.6557 182.5657,-84.7138 178.7552,-71.1394"/>
<polygon fill="#ff0000" stroke="#ff0000" stroke-width=".5951" points="182.0934,-70.0807 176.0209,-61.3988 175.3539,-71.9726 182.0934,-70.0807"/>
</g>
<!-- F -->
<g id="node6" class="node">
<title>F</title>
<polygon fill="#d3d3d3" stroke="#000000" points="38.5193,-125.6102 16.5193,-125.6102 16.5193,-107.6102 38.5193,-107.6102 38.5193,-125.6102"/>
<text text-anchor="middle" x="27.5193" y="-114.4102" font-family="Times,serif" font-size="9.00" fill="#000000">F</text>
</g>
<!-- F&#45;&gt;LEFT -->
<g id="edge10" class="edge">
<title>F&#45;&gt;LEFT</title>
<path fill="none" stroke="#00ff00" stroke-width=".5547" d="M34.3685,-107.4604C42.6064,-96.4553 56.852,-77.4247 69.0591,-61.1173"/>
<polygon fill="#00ff00" stroke="#00ff00" stroke-width=".5547" points="72.0235,-62.9977 75.2142,-52.8947 66.4196,-58.8028 72.0235,-62.9977"/>
</g>
<!-- F&#45;&gt;RIGHT -->
<g id="edge11" class="edge">
<title>F&#45;&gt;RIGHT</title>
<path fill="none" stroke="#ff0000" stroke-width=".3057" d="M36.8748,-107.3778C40.3538,-104.2341 44.4486,-100.8538 48.5193,-98.2254 80.9343,-77.2955 94.5109,-82.2062 127.5193,-62.2254 130.1441,-60.6365 132.7961,-58.9032 135.4192,-57.0942"/>
<polygon fill="#ff0000" stroke="#ff0000" stroke-width=".3057" points="137.5873,-59.8455 143.6301,-51.1429 133.4792,-54.1777 137.5873,-59.8455"/>
</g>
<!-- G -->
<g id="node7" class="node">
<title>G</title>
<polygon fill="#d3d3d3" stroke="#000000" points="80.0193,-125.6102 57.0193,-125.6102 57.0193,-107.6102 80.0193,-107.6102 80.0193,-125.6102"/>
<text text-anchor="middle" x="68.5193" y="-114.4102" font-family="Times,serif" font-size="9.00" fill="#000000">G</text>
</g>
<!-- G&#45;&gt;LEFT -->
<g id="edge12" class="edge">
<title>G&#45;&gt;LEFT</title>
<path fill="none" stroke="#00ff00" stroke-width=".3458" d="M70.9807,-107.4604C73.5795,-97.8002 77.8418,-81.956 81.8119,-67.198"/>
<polygon fill="#00ff00" stroke="#00ff00" stroke-width=".3458" points="85.2717,-67.8098 84.4897,-57.2439 78.512,-65.9913 85.2717,-67.8098"/>
</g>
<!-- G&#45;&gt;RIGHT -->
<g id="edge13" class="edge">
<title>G&#45;&gt;RIGHT</title>
<path fill="none" stroke="#00ff00" stroke-width=".1303" d="M79.1871,-107.2396C82.4935,-104.3437 86.1526,-101.1474 89.5193,-98.2254 104.632,-85.1089 121.4531,-70.6216 135.594,-58.4743"/>
<polygon fill="#00ff00" stroke="#00ff00" stroke-width=".1303" points="138.2696,-60.7902 143.5772,-51.6207 133.7098,-55.479 138.2696,-60.7902"/>
</g>
<!-- 46&#45;&gt;RIGHT -->
<g id="edge17" class="edge">
<title>46&#45;&gt;RIGHT</title>
<path fill="none" stroke="#ff0000" stroke-width=".1803" d="M226.4751,-102.1067C217.5455,-91.3537 205.0319,-76.285 193.8295,-62.7951"/>
<polygon fill="#ff0000" stroke="#ff0000" stroke-width=".1803" points="196.5035,-60.5367 187.4222,-55.0795 191.1183,-65.0088 196.5035,-60.5367"/>
</g>
</g>
</svg>
