<?xml version="1.0" encoding="UTF-8" standalone="no"?>
<!DOCTYPE svg PUBLIC "-//W3C//DTD SVG 1.1//EN"
 "http://www.w3.org/Graphics/SVG/1.1/DTD/svg11.dtd">
<!-- Generated by graphviz version 2.40.1 (20161225.0304)
 -->
<!-- Title: %3 Pages: 1 -->
<svg width="456pt" height="197pt"
 viewBox="0.00 0.00 456.38 196.99" xmlns="http://www.w3.org/2000/svg" xmlns:xlink="http://www.w3.org/1999/xlink">
<g id="graph0" class="graph" transform="scale(1 1) rotate(0) translate(4 192.9949)">
<title>%3</title>
<polygon fill="#ffffff" stroke="transparent" points="-4,4 -4,-192.9949 452.3848,-192.9949 452.3848,4 -4,4"/>
<!-- A -->
<g id="node1" class="node">
<title>A</title>
<polygon fill="#d3d3d3" stroke="#000000" points="221.5,-125.6102 198.5,-125.6102 198.5,-107.6102 221.5,-107.6102 221.5,-125.6102"/>
<text text-anchor="middle" x="210" y="-114.4102" font-family="Times,serif" font-size="9.00" fill="#000000">A</text>
</g>
<!-- LEFT -->
<g id="node8" class="node">
<title>LEFT</title>
<ellipse fill="#add8e6" stroke="#000000" cx="273" cy="-31.1127" rx="26.7407" ry="26.7407"/>
<text text-anchor="middle" x="273" y="-28.9127" font-family="Times,serif" font-size="9.00" fill="#000000">LEFT</text>
</g>
<!-- A&#45;&gt;LEFT -->
<g id="edge1" class="edge">
<title>A&#45;&gt;LEFT</title>
<path fill="none" stroke="#ff0000" stroke-width=".2858" d="M216.7421,-107.4604C224.8514,-96.4553 238.8744,-77.4247 250.8907,-61.1173"/>
<polygon fill="#ff0000" stroke="#ff0000" stroke-width=".2858" points="253.8352,-63.0214 256.9496,-52.8947 248.1998,-58.8689 253.8352,-63.0214"/>
</g>
<!-- RIGHT -->
<g id="node9" class="node">
<title>RIGHT</title>
<ellipse fill="#add8e6" stroke="#000000" cx="108" cy="-31.1127" rx="31.2258" ry="31.2258"/>
<text text-anchor="middle" x="108" y="-28.9127" font-family="Times,serif" font-size="9.00" fill="#000000">RIGHT</text>
</g>
<!-- A&#45;&gt;RIGHT -->
<g id="edge2" class="edge">
<title>A&#45;&gt;RIGHT</title>
<path fill="none" stroke="#ff0000" stroke-width=".8292" d="M199.7945,-107.5772C196.3798,-104.5811 192.5413,-101.2417 189,-98.2254 173.0465,-84.6372 155.1204,-69.7463 140.1956,-57.4506"/>
<polygon fill="#ff0000" stroke="#ff0000" stroke-width=".8292" points="142.1911,-54.5602 132.2444,-50.9115 137.7448,-59.9667 142.1911,-54.5602"/>
</g>
<!-- B -->
<g id="node2" class="node">
<title>B</title>
<polygon fill="#d3d3d3" stroke="#000000" points="261.5,-188.9949 238.5,-188.9949 238.5,-170.9949 261.5,-170.9949 261.5,-188.9949"/>
<text text-anchor="middle" x="250" y="-177.7949" font-family="Times,serif" font-size="9.00" fill="#000000">B</text>
</g>
<!-- B&#45;&gt;LEFT -->
<g id="edge3" class="edge">
<title>B&#45;&gt;LEFT</title>
<path fill="none" stroke="#00ff00" stroke-width=".3639" stroke-dasharray="1,5" d="M251.4388,-170.6817C254.5492,-150.5472 262.0445,-102.029 267.3204,-67.8777"/>
<polygon fill="#00ff00" stroke="#00ff00" stroke-width=".3639" points="270.8113,-68.2047 268.8791,-57.7876 263.8934,-67.136 270.8113,-68.2047"/>
</g>
<!-- B&#45;&gt;RIGHT -->
<g id="edge4" class="edge">
<title>B&#45;&gt;RIGHT</title>
<path fill="none" stroke="#ff0000" stroke-width=".4485" d="M238.0066,-178.804C201.7472,-174.9323 94.5033,-161.4001 74,-134.9949 57.9717,-114.3529 69.0285,-85.8562 82.6674,-63.9297"/>
<polygon fill="#ff0000" stroke="#ff0000" stroke-width=".4485" points="85.5914,-65.8533 88.178,-55.579 79.7489,-61.9978 85.5914,-65.8533"/>
</g>
<!-- 92 -->
<g id="node11" class="node">
<title>92</title>
<ellipse fill="#ffffff" stroke="#000000" cx="296" cy="-116.6102" rx="18.2703" ry="18.2703"/>
<text text-anchor="middle" x="296" y="-114.4102" font-family="Times,serif" font-size="9.00" fill="#000000">92</text>
</g>
<!-- B&#45;&gt;92 -->
<g id="edge12" class="edge">
<title>B&#45;&gt;92</title>
<path fill="none" stroke="#00ff00" stroke-width=".3965" d="M256.5907,-170.9135C262.4714,-162.8103 271.3384,-150.5921 279.1733,-139.7962"/>
<polygon fill="#00ff00" stroke="#00ff00" stroke-width=".3965" points="282.1178,-141.6978 285.1587,-131.5487 276.4525,-137.5863 282.1178,-141.6978"/>
</g>
<!-- C -->
<g id="node3" class="node">
<title>C</title>
<polygon fill="#d3d3d3" stroke="#000000" points="351.5,-188.9949 328.5,-188.9949 328.5,-170.9949 351.5,-170.9949 351.5,-188.9949"/>
<text text-anchor="middle" x="340" y="-177.7949" font-family="Times,serif" font-size="9.00" fill="#000000">C</text>
</g>
<!-- C&#45;&gt;LEFT -->
<g id="edge5" class="edge">
<title>C&#45;&gt;LEFT</title>
<path fill="none" stroke="#00ff00" stroke-width=".1319" stroke-dasharray="1,5" d="M347.3918,-170.5181C358.6449,-154.8517 377.5116,-122.8393 365,-98.2254 352.9041,-74.4293 327.9756,-57.0654 307.1156,-45.9682"/>
<polygon fill="#00ff00" stroke="#00ff00" stroke-width=".1319" points="308.6809,-42.8377 298.177,-41.4528 305.5246,-49.0858 308.6809,-42.8377"/>
</g>
<!-- C&#45;&gt;RIGHT -->
<g id="edge6" class="edge">
<title>C&#45;&gt;RIGHT</title>
<path fill="none" stroke="#ff0000" stroke-width=".2668" d="M328.218,-178.1441C281.8642,-170.8087 114.2282,-143.7527 107,-134.9949 92.5954,-117.5421 92.5507,-92.2434 96.2502,-70.9819"/>
<polygon fill="#ff0000" stroke="#ff0000" stroke-width=".2668" points="99.7331,-71.4211 98.3206,-60.9208 92.8768,-70.0101 99.7331,-71.4211"/>
</g>
<!-- 98 -->
<g id="node10" class="node">
<title>98</title>
<ellipse fill="#ffffff" stroke="#000000" cx="430" cy="-116.6102" rx="18.2703" ry="18.2703"/>
<text text-anchor="middle" x="430" y="-114.4102" font-family="Times,serif" font-size="9.00" fill="#000000">98</text>
</g>
<!-- C&#45;&gt;98 -->
<g id="edge15" class="edge">
<title>C&#45;&gt;98</title>
<path fill="none" stroke="#00ff00" stroke-width=".2829" d="M351.7659,-171.7085C365.5614,-161.9927 388.7721,-145.646 406.3381,-133.2747"/>
<polygon fill="#00ff00" stroke="#00ff00" stroke-width=".2829" points="408.7691,-135.8435 414.9297,-127.2238 404.7385,-130.1204 408.7691,-135.8435"/>
</g>
<!-- C&#45;&gt;92 -->
<g id="edge14" class="edge">
<title>C&#45;&gt;92</title>
<path fill="none" stroke="#00ff00" stroke-width=".1364" d="M333.6959,-170.9135C328.2008,-162.9975 319.9797,-151.1544 312.616,-140.5466"/>
<polygon fill="#00ff00" stroke="#00ff00" stroke-width=".1364" points="315.2885,-138.2587 306.7109,-132.0398 309.5382,-142.2505 315.2885,-138.2587"/>
</g>
<!-- D -->
<g id="node4" class="node">
<title>D</title>
<polygon fill="#d3d3d3" stroke="#000000" points="139.5,-125.6102 116.5,-125.6102 116.5,-107.6102 139.5,-107.6102 139.5,-125.6102"/>
<text text-anchor="middle" x="128" y="-114.4102" font-family="Times,serif" font-size="9.00" fill="#000000">D</text>
</g>
<!-- D&#45;&gt;LEFT -->
<g id="edge17" class="edge">
<title>D&#45;&gt;LEFT</title>
<path fill="none" stroke="#ff0000" stroke-width=".3317" d="M137.4584,-107.5313C140.947,-104.4021 145.0216,-100.9917 149,-98.2254 177.8699,-78.1511 213.3835,-59.4739 238.9948,-46.9466"/>
<polygon fill="#ff0000" stroke="#ff0000" stroke-width=".3317" points="240.8088,-49.9574 248.2912,-42.4564 237.7643,-43.6541 240.8088,-49.9574"/>
</g>
<!-- D&#45;&gt;RIGHT -->
<g id="edge7" class="edge">
<title>D&#45;&gt;RIGHT</title>
<path fill="none" stroke="#ff0000" stroke-width=".9588" d="M125.8596,-107.4604C123.8361,-98.8098 120.6525,-85.2004 117.5301,-71.8526"/>
<polygon fill="#ff0000" stroke="#ff0000" stroke-width=".9588" points="120.8604,-70.7229 115.1746,-61.783 114.0444,-72.3174 120.8604,-70.7229"/>
</g>
<!-- E -->
<g id="node5" class="node">
<title>E</title>
<polygon fill="#d3d3d3" stroke="#000000" points="180,-125.6102 158,-125.6102 158,-107.6102 180,-107.6102 180,-125.6102"/>
<text text-anchor="middle" x="169" y="-114.4102" font-family="Times,serif" font-size="9.00" fill="#000000">E</text>
</g>
<!-- E&#45;&gt;LEFT -->
<g id="edge8" class="edge">
<title>E&#45;&gt;LEFT</title>
<path fill="none" stroke="#ff0000" stroke-width=".3182" d="M178.6437,-107.4959C181.8908,-104.4944 185.5626,-101.1723 189,-98.2254 206.7396,-83.017 227.2153,-66.6349 243.5096,-53.8634"/>
<polygon fill="#ff0000" stroke="#ff0000" stroke-width=".3182" points="245.8829,-56.451 251.6127,-47.5392 241.576,-50.9327 245.8829,-56.451"/>
</g>
<!-- E&#45;&gt;RIGHT -->
<g id="edge9" class="edge">
<title>E&#45;&gt;RIGHT</title>
<path fill="none" stroke="#ff0000" stroke-width=".9253" d="M162.4719,-107.4604C155.2108,-97.2832 143.0528,-80.2426 132.063,-64.8393"/>
<polygon fill="#ff0000" stroke="#ff0000" stroke-width=".9253" points="134.7734,-62.6121 126.1162,-56.5044 129.0751,-66.6777 134.7734,-62.6121"/>
</g>
<!-- F -->
<g id="node6" class="node">
<title>F</title>
<polygon fill="#d3d3d3" stroke="#000000" points="22,-125.6102 0,-125.6102 0,-107.6102 22,-107.6102 22,-125.6102"/>
<text text-anchor="middle" x="11" y="-114.4102" font-family="Times,serif" font-size="9.00" fill="#000000">F</text>
</g>
<!-- F&#45;&gt;RIGHT -->
<g id="edge10" class="edge">
<title>F&#45;&gt;RIGHT</title>
<path fill="none" stroke="#00ff00" stroke-width=".2318" d="M21.3807,-107.4604C34.5251,-95.8748 57.7606,-75.3945 76.8591,-58.5608"/>
<polygon fill="#00ff00" stroke="#00ff00" stroke-width=".2318" points="79.2927,-61.0813 84.4803,-51.8433 74.6641,-55.83 79.2927,-61.0813"/>
</g>
<!-- G -->
<g id="node7" class="node">
<title>G</title>
<polygon fill="#d3d3d3" stroke="#000000" points="355.5,-125.6102 332.5,-125.6102 332.5,-107.6102 355.5,-107.6102 355.5,-125.6102"/>
<text text-anchor="middle" x="344" y="-114.4102" font-family="Times,serif" font-size="9.00" fill="#000000">G</text>
</g>
<!-- G&#45;&gt;LEFT -->
<g id="edge11" class="edge">
<title>G&#45;&gt;LEFT</title>
<path fill="none" stroke="#00ff00" stroke-width=".1421" d="M336.4018,-107.4604C326.9944,-96.1322 310.5254,-76.3004 296.7302,-59.6883"/>
<polygon fill="#00ff00" stroke="#00ff00" stroke-width=".1421" points="299.2968,-57.3005 290.2154,-51.8433 293.9115,-61.7726 299.2968,-57.3005"/>
</g>
<!-- 98&#45;&gt;LEFT -->
<g id="edge16" class="edge">
<title>98&#45;&gt;LEFT</title>
<path fill="none" stroke="#00ff00" stroke-width=".262" d="M414.0998,-107.3552C408.9777,-104.406 403.2648,-101.1503 398,-98.2254 367.0701,-81.0419 331.4935,-62.0113 306.2236,-48.617"/>
<polygon fill="#00ff00" stroke="#00ff00" stroke-width=".262" points="307.5503,-45.3592 297.0745,-43.7751 304.2759,-51.5462 307.5503,-45.3592"/>
</g>
<!-- 92&#45;&gt;LEFT -->
<g id="edge13" class="edge">
<title>92&#45;&gt;LEFT</title>
<path fill="none" stroke="#ff0000" stroke-width=".2735" d="M291.1223,-98.4784C288.6589,-89.3213 285.5805,-77.8781 282.6639,-67.0362"/>
<polygon fill="#ff0000" stroke="#ff0000" stroke-width=".2735" points="286.0308,-66.0787 280.0531,-57.3312 279.2712,-67.8972 286.0308,-66.0787"/>
</g>
</g>
</svg>
