<?xml version="1.0" encoding="UTF-8" standalone="no"?>
<!DOCTYPE svg PUBLIC "-//W3C//DTD SVG 1.1//EN"
 "http://www.w3.org/Graphics/SVG/1.1/DTD/svg11.dtd">
<!-- Generated by graphviz version 2.40.1 (20161225.0304)
 -->
<!-- Title: %3 Pages: 1 -->
<svg width="379pt" height="197pt"
 viewBox="0.00 0.00 379.38 196.99" xmlns="http://www.w3.org/2000/svg" xmlns:xlink="http://www.w3.org/1999/xlink">
<g id="graph0" class="graph" transform="scale(1 1) rotate(0) translate(4 192.9949)">
<title>%3</title>
<polygon fill="#ffffff" stroke="transparent" points="-4,4 -4,-192.9949 375.3848,-192.9949 375.3848,4 -4,4"/>
<!-- A -->
<g id="node1" class="node">
<title>A</title>
<polygon fill="#d3d3d3" stroke="#000000" points="173.8848,-125.6102 150.8848,-125.6102 150.8848,-107.6102 173.8848,-107.6102 173.8848,-125.6102"/>
<text text-anchor="middle" x="162.3848" y="-114.4102" font-family="Times,serif" font-size="9.00" fill="#000000">A</text>
</g>
<!-- LEFT -->
<g id="node8" class="node">
<title>LEFT</title>
<ellipse fill="#add8e6" stroke="#000000" cx="138.3848" cy="-31.1127" rx="26.7407" ry="26.7407"/>
<text text-anchor="middle" x="138.3848" y="-28.9127" font-family="Times,serif" font-size="9.00" fill="#000000">LEFT</text>
</g>
<!-- A&#45;&gt;LEFT -->
<g id="edge1" class="edge">
<title>A&#45;&gt;LEFT</title>
<path fill="none" stroke="#ff0000" stroke-width=".2858" d="M159.8164,-107.4604C157.1046,-97.8002 152.657,-81.956 148.5143,-67.198"/>
<polygon fill="#ff0000" stroke="#ff0000" stroke-width=".2858" points="151.7925,-65.9258 145.7201,-57.2439 145.053,-67.8177 151.7925,-65.9258"/>
</g>
<!-- RIGHT -->
<g id="node9" class="node">
<title>RIGHT</title>
<ellipse fill="#add8e6" stroke="#000000" cx="263.3848" cy="-31.1127" rx="31.2258" ry="31.2258"/>
<text text-anchor="middle" x="263.3848" y="-28.9127" font-family="Times,serif" font-size="9.00" fill="#000000">RIGHT</text>
</g>
<!-- A&#45;&gt;RIGHT -->
<g id="edge2" class="edge">
<title>A&#45;&gt;RIGHT</title>
<path fill="none" stroke="#ff0000" stroke-width=".8292" d="M172.6011,-107.5898C176.0165,-104.5946 179.8527,-101.2525 183.3848,-98.2254 199.0644,-84.7876 216.629,-70.0213 231.297,-57.769"/>
<polygon fill="#ff0000" stroke="#ff0000" stroke-width=".8292" points="233.6805,-60.3386 239.1174,-51.2452 229.1964,-54.9633 233.6805,-60.3386"/>
</g>
<!-- B -->
<g id="node2" class="node">
<title>B</title>
<polygon fill="#d3d3d3" stroke="#000000" points="249.8848,-188.9949 226.8848,-188.9949 226.8848,-170.9949 249.8848,-170.9949 249.8848,-188.9949"/>
<text text-anchor="middle" x="238.3848" y="-177.7949" font-family="Times,serif" font-size="9.00" fill="#000000">B</text>
</g>
<!-- B&#45;&gt;RIGHT -->
<g id="edge3" class="edge">
<title>B&#45;&gt;RIGHT</title>
<path fill="none" stroke="#ff0000" stroke-width=".4485" d="M250.0982,-175.0537C264.3009,-168.3407 287.5558,-154.8533 297.3848,-134.9949 308.4572,-112.6244 299.1754,-85.8173 287.5327,-65.0386"/>
<polygon fill="#ff0000" stroke="#ff0000" stroke-width=".4485" points="290.4069,-63.0258 282.2671,-56.2439 284.4011,-66.6216 290.4069,-63.0258"/>
</g>
<!-- 92 -->
<g id="node11" class="node">
<title>92</title>
<ellipse fill="#ffffff" stroke="#000000" cx="114.3848" cy="-116.6102" rx="18.2703" ry="18.2703"/>
<text text-anchor="middle" x="114.3848" y="-114.4102" font-family="Times,serif" font-size="9.00" fill="#000000">92</text>
</g>
<!-- B&#45;&gt;92 -->
<g id="edge10" class="edge">
<title>B&#45;&gt;92</title>
<path fill="none" stroke="#00ff00" stroke-width=".3965" d="M226.591,-175.1134C208.2101,-167.3627 171.7883,-151.4292 142.3848,-134.9949 141.0523,-134.2502 139.6986,-133.4648 138.3422,-132.6551"/>
<polygon fill="#00ff00" stroke="#00ff00" stroke-width=".3965" points="139.8742,-129.4842 129.5446,-127.1282 136.1504,-135.4116 139.8742,-129.4842"/>
</g>
<!-- C -->
<g id="node3" class="node">
<title>C</title>
<polygon fill="#d3d3d3" stroke="#000000" points="125.8848,-188.9949 102.8848,-188.9949 102.8848,-170.9949 125.8848,-170.9949 125.8848,-188.9949"/>
<text text-anchor="middle" x="114.3848" y="-177.7949" font-family="Times,serif" font-size="9.00" fill="#000000">C</text>
</g>
<!-- C&#45;&gt;RIGHT -->
<g id="edge4" class="edge">
<title>C&#45;&gt;RIGHT</title>
<path fill="none" stroke="#ff0000" stroke-width=".2668" d="M125.9813,-178.3065C158.1795,-173.3582 247.4249,-157.7895 264.3848,-134.9949 277.8005,-116.9638 277.9189,-91.8733 274.5065,-70.8679"/>
<polygon fill="#ff0000" stroke="#ff0000" stroke-width=".2668" points="277.921,-70.0894 272.5905,-60.9331 271.0476,-71.415 277.921,-70.0894"/>
</g>
<!-- 98 -->
<g id="node10" class="node">
<title>98</title>
<ellipse fill="#ffffff" stroke="#000000" cx="18.3848" cy="-116.6102" rx="18.2703" ry="18.2703"/>
<text text-anchor="middle" x="18.3848" y="-114.4102" font-family="Times,serif" font-size="9.00" fill="#000000">98</text>
</g>
<!-- C&#45;&gt;98 -->
<g id="edge13" class="edge">
<title>C&#45;&gt;98</title>
<path fill="none" stroke="#00ff00" stroke-width=".2829" d="M102.6177,-172.422C88.8461,-163.5355 65.3782,-148.3196 45.3848,-134.9949 44.323,-134.2873 43.2393,-133.5621 42.1457,-132.8277"/>
<polygon fill="#00ff00" stroke="#00ff00" stroke-width=".2829" points="44.0138,-129.8659 33.7694,-127.1633 40.0925,-135.6645 44.0138,-129.8659"/>
</g>
<!-- C&#45;&gt;92 -->
<g id="edge12" class="edge">
<title>C&#45;&gt;92</title>
<path fill="none" stroke="#00ff00" stroke-width=".1364" d="M114.3848,-170.9135C114.3848,-164.1485 114.3848,-154.5155 114.3848,-145.2364"/>
<polygon fill="#00ff00" stroke="#00ff00" stroke-width=".1364" points="117.8849,-145.0821 114.3848,-135.0821 110.8849,-145.0821 117.8849,-145.0821"/>
</g>
<!-- D -->
<g id="node4" class="node">
<title>D</title>
<polygon fill="#d3d3d3" stroke="#000000" points="214.8848,-125.6102 191.8848,-125.6102 191.8848,-107.6102 214.8848,-107.6102 214.8848,-125.6102"/>
<text text-anchor="middle" x="203.3848" y="-114.4102" font-family="Times,serif" font-size="9.00" fill="#000000">D</text>
</g>
<!-- D&#45;&gt;LEFT -->
<g id="edge15" class="edge">
<title>D&#45;&gt;LEFT</title>
<path fill="none" stroke="#ff0000" stroke-width=".3317" d="M196.4286,-107.4604C188.0061,-96.382 173.4006,-77.1706 160.9483,-60.7915"/>
<polygon fill="#ff0000" stroke="#ff0000" stroke-width=".3317" points="163.5153,-58.3849 154.6769,-52.5425 157.9429,-62.6214 163.5153,-58.3849"/>
</g>
<!-- D&#45;&gt;RIGHT -->
<g id="edge5" class="edge">
<title>D&#45;&gt;RIGHT</title>
<path fill="none" stroke="#ff0000" stroke-width=".9588" d="M209.8058,-107.4604C216.8969,-97.3559 228.736,-80.4857 239.4845,-65.1696"/>
<polygon fill="#ff0000" stroke="#ff0000" stroke-width=".9588" points="242.427,-67.0695 245.3065,-56.8735 236.6972,-63.0484 242.427,-67.0695"/>
</g>
<!-- E -->
<g id="node5" class="node">
<title>E</title>
<polygon fill="#d3d3d3" stroke="#000000" points="255.3848,-125.6102 233.3848,-125.6102 233.3848,-107.6102 255.3848,-107.6102 255.3848,-125.6102"/>
<text text-anchor="middle" x="244.3848" y="-114.4102" font-family="Times,serif" font-size="9.00" fill="#000000">E</text>
</g>
<!-- E&#45;&gt;LEFT -->
<g id="edge6" class="edge">
<title>E&#45;&gt;LEFT</title>
<path fill="none" stroke="#ff0000" stroke-width=".3182" d="M234.7608,-107.4728C231.515,-104.4698 227.839,-101.1526 224.3848,-98.2254 206.1751,-82.7939 185.0513,-66.2905 168.2962,-53.5108"/>
<polygon fill="#ff0000" stroke="#ff0000" stroke-width=".3182" points="170.0528,-50.4501 159.9711,-47.1926 165.8209,-56.0261 170.0528,-50.4501"/>
</g>
<!-- E&#45;&gt;RIGHT -->
<g id="edge7" class="edge">
<title>E&#45;&gt;RIGHT</title>
<path fill="none" stroke="#ff0000" stroke-width=".9253" d="M246.4181,-107.4604C248.3405,-98.8098 251.3649,-85.2004 254.3312,-71.8526"/>
<polygon fill="#ff0000" stroke="#ff0000" stroke-width=".9253" points="257.8162,-72.3042 256.569,-61.783 250.9829,-70.7856 257.8162,-72.3042"/>
</g>
<!-- F -->
<g id="node6" class="node">
<title>F</title>
<polygon fill="#d3d3d3" stroke="#000000" points="371.3848,-125.6102 349.3848,-125.6102 349.3848,-107.6102 371.3848,-107.6102 371.3848,-125.6102"/>
<text text-anchor="middle" x="360.3848" y="-114.4102" font-family="Times,serif" font-size="9.00" fill="#000000">F</text>
</g>
<!-- F&#45;&gt;RIGHT -->
<g id="edge8" class="edge">
<title>F&#45;&gt;RIGHT</title>
<path fill="none" stroke="#00ff00" stroke-width=".2318" d="M350.0041,-107.4604C336.8597,-95.8748 313.6241,-75.3945 294.5257,-58.5608"/>
<polygon fill="#00ff00" stroke="#00ff00" stroke-width=".2318" points="296.7206,-55.83 286.9044,-51.8433 292.092,-61.0813 296.7206,-55.83"/>
</g>
<!-- G -->
<g id="node7" class="node">
<title>G</title>
<polygon fill="#d3d3d3" stroke="#000000" points="77.8848,-125.6102 54.8848,-125.6102 54.8848,-107.6102 77.8848,-107.6102 77.8848,-125.6102"/>
<text text-anchor="middle" x="66.3848" y="-114.4102" font-family="Times,serif" font-size="9.00" fill="#000000">G</text>
</g>
<!-- G&#45;&gt;LEFT -->
<g id="edge9" class="edge">
<title>G&#45;&gt;LEFT</title>
<path fill="none" stroke="#00ff00" stroke-width=".1421" d="M74.09,-107.4604C83.6299,-96.1322 100.3309,-76.3004 114.3204,-59.6883"/>
<polygon fill="#00ff00" stroke="#00ff00" stroke-width=".1421" points="117.1625,-61.7469 120.9269,-51.8433 111.8082,-57.2379 117.1625,-61.7469"/>
</g>
<!-- 98&#45;&gt;LEFT -->
<g id="edge14" class="edge">
<title>98&#45;&gt;LEFT</title>
<path fill="none" stroke="#00ff00" stroke-width=".262" d="M33.5829,-105.7819C52.231,-92.4955 84.2939,-69.6513 108.0575,-52.7203"/>
<polygon fill="#00ff00" stroke="#00ff00" stroke-width=".262" points="110.2834,-55.4319 116.3967,-46.7787 106.2215,-49.7309 110.2834,-55.4319"/>
</g>
<!-- 92&#45;&gt;LEFT -->
<g id="edge11" class="edge">
<title>92&#45;&gt;LEFT</title>
<path fill="none" stroke="#ff0000" stroke-width=".2735" d="M119.3576,-98.895C121.9435,-89.6828 125.2017,-78.0759 128.2876,-67.0827"/>
<polygon fill="#ff0000" stroke="#ff0000" stroke-width=".2735" points="131.716,-67.8195 131.049,-57.2457 124.9765,-65.9276 131.716,-67.8195"/>
</g>
</g>
</svg>
