<?xml version="1.0" encoding="UTF-8" standalone="no"?>
<!DOCTYPE svg PUBLIC "-//W3C//DTD SVG 1.1//EN"
 "http://www.w3.org/Graphics/SVG/1.1/DTD/svg11.dtd">
<!-- Generated by graphviz version 2.40.1 (20161225.0304)
 -->
<!-- Title: %3 Pages: 1 -->
<svg width="355pt" height="197pt"
 viewBox="0.00 0.00 354.91 196.99" xmlns="http://www.w3.org/2000/svg" xmlns:xlink="http://www.w3.org/1999/xlink">
<g id="graph0" class="graph" transform="scale(1 1) rotate(0) translate(4 192.9949)">
<title>%3</title>
<polygon fill="#ffffff" stroke="transparent" points="-4,4 -4,-192.9949 350.9117,-192.9949 350.9117,4 -4,4"/>
<!-- A -->
<g id="node1" class="node">
<title>A</title>
<polygon fill="#d3d3d3" stroke="#000000" points="43.5523,-188.9949 20.5523,-188.9949 20.5523,-170.9949 43.5523,-170.9949 43.5523,-188.9949"/>
<text text-anchor="middle" x="32.0523" y="-177.7949" font-family="Times,serif" font-size="9.00" fill="#000000">A</text>
</g>
<!-- RIGHT -->
<g id="node9" class="node">
<title>RIGHT</title>
<ellipse fill="#add8e6" stroke="#000000" cx="139.0523" cy="-31.1127" rx="31.2258" ry="31.2258"/>
<text text-anchor="middle" x="139.0523" y="-28.9127" font-family="Times,serif" font-size="9.00" fill="#000000">RIGHT</text>
</g>
<!-- A&#45;&gt;RIGHT -->
<g id="edge9" class="edge">
<title>A&#45;&gt;RIGHT</title>
<path fill="none" stroke="#00ff00" stroke-width=".3854" stroke-dasharray="1,5" d="M24.2233,-170.8135C11.768,-155.0282 -9.7158,-122.1387 5.0523,-98.2254 25.2838,-65.4656 66.9022,-48.1541 98.4211,-39.3776"/>
<polygon fill="#00ff00" stroke="#00ff00" stroke-width=".3854" points="99.4624,-42.7233 108.2597,-36.8192 97.7007,-35.9486 99.4624,-42.7233"/>
</g>
<!-- 10 -->
<g id="node10" class="node">
<title>10</title>
<ellipse fill="#ffffff" stroke="#000000" cx="162.0523" cy="-116.6102" rx="18.2703" ry="18.2703"/>
<text text-anchor="middle" x="162.0523" y="-114.4102" font-family="Times,serif" font-size="9.00" fill="#000000">10</text>
</g>
<!-- A&#45;&gt;10 -->
<g id="edge1" class="edge">
<title>A&#45;&gt;10</title>
<path fill="none" stroke="#ff0000" stroke-width=".3304" d="M43.589,-174.37C64.2672,-164.2878 108.1069,-142.9126 136.2666,-129.1827"/>
<polygon fill="#ff0000" stroke="#ff0000" stroke-width=".3304" points="138.0548,-132.2047 145.5094,-124.6761 134.987,-125.9127 138.0548,-132.2047"/>
</g>
<!-- 69 -->
<g id="node11" class="node">
<title>69</title>
<ellipse fill="#ffffff" stroke="#000000" cx="32.0523" cy="-116.6102" rx="18.2703" ry="18.2703"/>
<text text-anchor="middle" x="32.0523" y="-114.4102" font-family="Times,serif" font-size="9.00" fill="#000000">69</text>
</g>
<!-- A&#45;&gt;69 -->
<g id="edge18" class="edge">
<title>A&#45;&gt;69</title>
<path fill="none" stroke="#00ff00" stroke-width=".3653" d="M32.0523,-170.9135C32.0523,-164.1485 32.0523,-154.5155 32.0523,-145.2364"/>
<polygon fill="#00ff00" stroke="#00ff00" stroke-width=".3653" points="35.5524,-145.0821 32.0523,-135.0821 28.5524,-145.0821 35.5524,-145.0821"/>
</g>
<!-- B -->
<g id="node2" class="node">
<title>B</title>
<polygon fill="#d3d3d3" stroke="#000000" points="217.5523,-188.9949 194.5523,-188.9949 194.5523,-170.9949 217.5523,-170.9949 217.5523,-188.9949"/>
<text text-anchor="middle" x="206.0523" y="-177.7949" font-family="Times,serif" font-size="9.00" fill="#000000">B</text>
</g>
<!-- LEFT -->
<g id="node8" class="node">
<title>LEFT</title>
<ellipse fill="#add8e6" stroke="#000000" cx="306.0523" cy="-31.1127" rx="26.7407" ry="26.7407"/>
<text text-anchor="middle" x="306.0523" y="-28.9127" font-family="Times,serif" font-size="9.00" fill="#000000">LEFT</text>
</g>
<!-- B&#45;&gt;LEFT -->
<g id="edge10" class="edge">
<title>B&#45;&gt;LEFT</title>
<path fill="none" stroke="#ff0000" stroke-width=".6495" d="M217.8532,-174.9362C244.2246,-163.6052 305.7392,-137.0176 307.0523,-134.9949 319.8811,-115.2346 319.3577,-88.5932 315.768,-67.2376"/>
<polygon fill="#ff0000" stroke="#ff0000" stroke-width=".6495" points="319.1647,-66.3708 313.8045,-57.2319 312.2957,-67.7188 319.1647,-66.3708"/>
</g>
<!-- B&#45;&gt;RIGHT -->
<g id="edge11" class="edge">
<title>B&#45;&gt;RIGHT</title>
<path fill="none" stroke="#ff0000" stroke-width=".1221" stroke-dasharray="1,5" d="M205.4156,-170.5142C204.0761,-154.8421 200.1144,-122.8217 189.0523,-98.2254 183.3059,-85.4484 174.7951,-72.7754 166.4175,-61.9407"/>
<polygon fill="#ff0000" stroke="#ff0000" stroke-width=".1221" points="169.071,-59.655 160.085,-54.0423 163.6096,-64.0337 169.071,-59.655"/>
</g>
<!-- B&#45;&gt;10 -->
<g id="edge2" class="edge">
<title>B&#45;&gt;10</title>
<path fill="none" stroke="#00ff00" stroke-width=".1087" d="M199.7482,-170.9135C194.2531,-162.9975 186.032,-151.1544 178.6684,-140.5466"/>
<polygon fill="#00ff00" stroke="#00ff00" stroke-width=".1087" points="181.3409,-138.2587 172.7632,-132.0398 175.5905,-142.2505 181.3409,-138.2587"/>
</g>
<!-- C -->
<g id="node3" class="node">
<title>C</title>
<polygon fill="#d3d3d3" stroke="#000000" points="89.5523,-188.9949 66.5523,-188.9949 66.5523,-170.9949 89.5523,-170.9949 89.5523,-188.9949"/>
<text text-anchor="middle" x="78.0523" y="-177.7949" font-family="Times,serif" font-size="9.00" fill="#000000">C</text>
</g>
<!-- C&#45;&gt;RIGHT -->
<g id="edge12" class="edge">
<title>C&#45;&gt;RIGHT</title>
<path fill="none" stroke="#00ff00" stroke-width=".1582" d="M81.8682,-170.6817C89.9633,-150.9239 109.2567,-103.8347 123.1975,-69.8095"/>
<polygon fill="#00ff00" stroke="#00ff00" stroke-width=".1582" points="126.6008,-70.7346 127.1535,-60.1541 120.1234,-68.0806 126.6008,-70.7346"/>
</g>
<!-- C&#45;&gt;10 -->
<g id="edge3" class="edge">
<title>C&#45;&gt;10</title>
<path fill="none" stroke="#ff0000" stroke-width=".3648" d="M89.7322,-171.1816C102.4363,-161.5953 123.0652,-146.0291 139.0463,-133.9701"/>
<polygon fill="#ff0000" stroke="#ff0000" stroke-width=".3648" points="141.4924,-136.509 147.3666,-127.6917 137.276,-130.9213 141.4924,-136.509"/>
</g>
<!-- D -->
<g id="node4" class="node">
<title>D</title>
<polygon fill="#d3d3d3" stroke="#000000" points="297.5523,-125.6102 274.5523,-125.6102 274.5523,-107.6102 297.5523,-107.6102 297.5523,-125.6102"/>
<text text-anchor="middle" x="286.0523" y="-114.4102" font-family="Times,serif" font-size="9.00" fill="#000000">D</text>
</g>
<!-- D&#45;&gt;LEFT -->
<g id="edge13" class="edge">
<title>D&#45;&gt;LEFT</title>
<path fill="none" stroke="#ff0000" stroke-width=".2964" d="M288.1927,-107.4604C290.4361,-97.8702 294.1052,-82.1853 297.536,-67.519"/>
<polygon fill="#ff0000" stroke="#ff0000" stroke-width=".2964" points="300.9828,-68.15 299.8526,-57.6156 294.1668,-66.5555 300.9828,-68.15"/>
</g>
<!-- D&#45;&gt;RIGHT -->
<g id="edge14" class="edge">
<title>D&#45;&gt;RIGHT</title>
<path fill="none" stroke="#00ff00" stroke-width=".1883" d="M274.3295,-107.9122C269.9246,-104.7532 264.8271,-101.2252 260.0523,-98.2254 232.4567,-80.888 200.1269,-63.078 175.8311,-50.1655"/>
<polygon fill="#00ff00" stroke="#00ff00" stroke-width=".1883" points="177.4163,-47.0446 166.9394,-45.4677 174.1462,-53.2339 177.4163,-47.0446"/>
</g>
<!-- E -->
<g id="node5" class="node">
<title>E</title>
<polygon fill="#d3d3d3" stroke="#000000" points="258.0523,-188.9949 236.0523,-188.9949 236.0523,-170.9949 258.0523,-170.9949 258.0523,-188.9949"/>
<text text-anchor="middle" x="247.0523" y="-177.7949" font-family="Times,serif" font-size="9.00" fill="#000000">E</text>
</g>
<!-- E&#45;&gt;LEFT -->
<g id="edge15" class="edge">
<title>E&#45;&gt;LEFT</title>
<path fill="none" stroke="#ff0000" stroke-width="1.1853" d="M258.1533,-178.4344C278.5923,-174.8959 321.7572,-164.1718 340.0523,-134.9949 354.4062,-112.1037 342.2757,-82.541 328.6811,-60.8091"/>
<polygon fill="#ff0000" stroke="#ff0000" stroke-width="1.1853" points="331.4882,-58.7093 323.044,-52.3105 325.6548,-62.5786 331.4882,-58.7093"/>
</g>
<!-- E&#45;&gt;RIGHT -->
<g id="edge16" class="edge">
<title>E&#45;&gt;RIGHT</title>
<path fill="none" stroke="#ff0000" stroke-width=".4224" d="M243.9066,-170.8379C238.2399,-155.0894 225.2846,-122.2538 208.0523,-98.2254 197.4871,-83.4934 183.4854,-69.1953 170.857,-57.6089"/>
<polygon fill="#ff0000" stroke="#ff0000" stroke-width=".4224" points="172.9991,-54.8289 163.2145,-50.7655 168.3295,-60.0438 172.9991,-54.8289"/>
</g>
<!-- E&#45;&gt;10 -->
<g id="edge4" class="edge">
<title>E&#45;&gt;10</title>
<path fill="none" stroke="#ff0000" stroke-width=".2152" d="M235.9401,-171.7085C223.0643,-162.107 201.5043,-146.0297 184.9874,-133.7129"/>
<polygon fill="#ff0000" stroke="#ff0000" stroke-width=".2152" points="186.9913,-130.8413 176.8825,-127.6691 182.8067,-136.4528 186.9913,-130.8413"/>
</g>
<!-- F -->
<g id="node6" class="node">
<title>F</title>
<polygon fill="#d3d3d3" stroke="#000000" points="173.0523,-188.9949 151.0523,-188.9949 151.0523,-170.9949 173.0523,-170.9949 173.0523,-188.9949"/>
<text text-anchor="middle" x="162.0523" y="-177.7949" font-family="Times,serif" font-size="9.00" fill="#000000">F</text>
</g>
<!-- F&#45;&gt;10 -->
<g id="edge5" class="edge">
<title>F&#45;&gt;10</title>
<path fill="none" stroke="#00ff00" stroke-width=".1461" d="M162.0523,-170.9135C162.0523,-164.1485 162.0523,-154.5155 162.0523,-145.2364"/>
<polygon fill="#00ff00" stroke="#00ff00" stroke-width=".1461" points="165.5524,-145.0821 162.0523,-135.0821 158.5524,-145.0821 165.5524,-145.0821"/>
</g>
<!-- G -->
<g id="node7" class="node">
<title>G</title>
<polygon fill="#d3d3d3" stroke="#000000" points="131.5523,-188.9949 108.5523,-188.9949 108.5523,-170.9949 131.5523,-170.9949 131.5523,-188.9949"/>
<text text-anchor="middle" x="120.0523" y="-177.7949" font-family="Times,serif" font-size="9.00" fill="#000000">G</text>
</g>
<!-- G&#45;&gt;RIGHT -->
<g id="edge17" class="edge">
<title>G&#45;&gt;RIGHT</title>
<path fill="none" stroke="#00ff00" stroke-width=".5509" d="M121.2409,-170.6817C123.7,-151.4126 129.4766,-106.1472 133.7888,-72.3574"/>
<polygon fill="#00ff00" stroke="#00ff00" stroke-width=".5509" points="137.2806,-72.6434 135.0747,-62.2808 130.3369,-71.7572 137.2806,-72.6434"/>
</g>
<!-- G&#45;&gt;10 -->
<g id="edge6" class="edge">
<title>G&#45;&gt;10</title>
<path fill="none" stroke="#00ff00" stroke-width=".7616" d="M126.0699,-170.9135C131.3152,-162.9975 139.1626,-151.1544 146.1916,-140.5466"/>
<polygon fill="#00ff00" stroke="#00ff00" stroke-width=".7616" points="149.2223,-142.3092 151.8283,-132.0398 143.3871,-138.4426 149.2223,-142.3092"/>
</g>
<!-- 10&#45;&gt;LEFT -->
<g id="edge7" class="edge">
<title>10&#45;&gt;LEFT</title>
<path fill="none" stroke="#00ff00" stroke-width=".3193" d="M178.0131,-107.1338C201.107,-93.4222 244.3308,-67.7588 274.1236,-50.0698"/>
<polygon fill="#00ff00" stroke="#00ff00" stroke-width=".3193" points="276.0895,-52.9731 282.9013,-44.8582 272.5158,-46.954 276.0895,-52.9731"/>
</g>
<!-- 10&#45;&gt;RIGHT -->
<g id="edge8" class="edge">
<title>10&#45;&gt;RIGHT</title>
<path fill="none" stroke="#ff0000" stroke-width=".1915" d="M157.1746,-98.4784C155.0215,-90.4747 152.3986,-80.7246 149.8246,-71.1561"/>
<polygon fill="#ff0000" stroke="#ff0000" stroke-width=".1915" points="153.1592,-70.0785 147.1815,-61.3311 146.3995,-71.897 153.1592,-70.0785"/>
</g>
<!-- 69&#45;&gt;RIGHT -->
<g id="edge19" class="edge">
<title>69&#45;&gt;RIGHT</title>
<path fill="none" stroke="#00ff00" stroke-width=".3812" d="M46.4828,-105.0796C61.8245,-92.821 86.5908,-73.0317 106.6473,-57.0056"/>
<polygon fill="#00ff00" stroke="#00ff00" stroke-width=".3812" points="109.0047,-59.6021 114.6322,-50.6254 104.635,-54.1335 109.0047,-59.6021"/>
</g>
</g>
</svg>
