<?xml version="1.0" encoding="UTF-8" standalone="no"?>
<!DOCTYPE svg PUBLIC "-//W3C//DTD SVG 1.1//EN"
 "http://www.w3.org/Graphics/SVG/1.1/DTD/svg11.dtd">
<!-- Generated by graphviz version 2.40.1 (20161225.0304)
 -->
<!-- Title: %3 Pages: 1 -->
<svg width="461pt" height="194pt"
 viewBox="0.00 0.00 460.71 193.87" xmlns="http://www.w3.org/2000/svg" xmlns:xlink="http://www.w3.org/1999/xlink">
<g id="graph0" class="graph" transform="scale(1 1) rotate(0) translate(4 189.8688)">
<title>%3</title>
<polygon fill="#ffffff" stroke="transparent" points="-4,4 -4,-189.8688 456.7111,-189.8688 456.7111,4 -4,4"/>
<!-- A -->
<g id="node1" class="node">
<title>A</title>
<polygon fill="#d3d3d3" stroke="#000000" points="176.5066,-123.6911 153.4963,-123.6911 153.4963,-106.6911 176.5066,-106.6911 176.5066,-123.6911"/>
<text text-anchor="middle" x="165.0015" y="-112.4911" font-family="Times,serif" font-size="9.00" fill="#000000">A</text>
</g>
<!-- LEFT -->
<g id="node8" class="node">
<title>LEFT</title>
<ellipse fill="#add8e6" stroke="#000000" cx="126.0015" cy="-30.7567" rx="26.5303" ry="26.5303"/>
<text text-anchor="middle" x="126.0015" y="-28.0567" font-family="Times,serif" font-size="9.00" fill="#000000">LEFT</text>
</g>
<!-- A&#45;&gt;LEFT -->
<g id="edge9" class="edge">
<title>A&#45;&gt;LEFT</title>
<path fill="none" stroke="#ff0000" stroke-width="1.0562" d="M160.9747,-106.4732C156.3653,-96.4939 148.5366,-79.5449 141.4534,-64.2099"/>
<polygon fill="#ff0000" stroke="#ff0000" stroke-width="1.0562" points="144.5456,-62.5576 137.1749,-54.9469 138.1907,-65.493 144.5456,-62.5576"/>
</g>
<!-- RIGHT -->
<g id="node9" class="node">
<title>RIGHT</title>
<ellipse fill="#add8e6" stroke="#000000" cx="277.0015" cy="-30.7567" rx="30.5154" ry="30.5154"/>
<text text-anchor="middle" x="277.0015" y="-28.0567" font-family="Times,serif" font-size="9.00" fill="#000000">RIGHT</text>
</g>
<!-- A&#45;&gt;RIGHT -->
<g id="edge10" class="edge">
<title>A&#45;&gt;RIGHT</title>
<path fill="none" stroke="#ff0000" stroke-width=".3141" stroke-dasharray="1,5" d="M174.6057,-106.3678C177.8502,-103.4778 181.5304,-100.2962 185.0015,-97.5135 203.7906,-82.4503 225.5717,-66.5789 243.223,-54.0925"/>
<polygon fill="#ff0000" stroke="#ff0000" stroke-width=".3141" points="245.3593,-56.869 251.5252,-48.2532 241.3321,-51.1434 245.3593,-56.869"/>
</g>
<!-- B -->
<g id="node2" class="node">
<title>B</title>
<polygon fill="#d3d3d3" stroke="#000000" points="22.0044,-185.8688 -.0015,-185.8688 -.0015,-168.8688 22.0044,-168.8688 22.0044,-185.8688"/>
<text text-anchor="middle" x="11.0015" y="-174.6688" font-family="Times,serif" font-size="9.00" fill="#000000">B</text>
</g>
<!-- B&#45;&gt;LEFT -->
<g id="edge11" class="edge">
<title>B&#45;&gt;LEFT</title>
<path fill="none" stroke="#00ff00" stroke-width=".3931" d="M10.6737,-168.6406C10.5085,-153.0297 12.1079,-119.8718 27.0015,-97.5135 42.7893,-73.8127 70.1412,-56.3251 92.0999,-45.2075"/>
<polygon fill="#00ff00" stroke="#00ff00" stroke-width=".3931" points="93.6569,-48.3423 101.1311,-40.8332 90.6055,-42.0424 93.6569,-48.3423"/>
</g>
<!-- 20 -->
<g id="node11" class="node">
<title>20</title>
<ellipse fill="#ffffff" stroke="#000000" cx="212.0015" cy="-115.1911" rx="17.8571" ry="17.8571"/>
<text text-anchor="middle" x="212.0015" y="-112.4911" font-family="Times,serif" font-size="9.00" fill="#000000">20</text>
</g>
<!-- B&#45;&gt;20 -->
<g id="edge1" class="edge">
<title>B&#45;&gt;20</title>
<path fill="none" stroke="#ff0000" stroke-width=".3979" stroke-dasharray="1,5" d="M22.4175,-175.7813C50.8627,-171.5464 126.7933,-158.5172 185.0015,-132.8688 186.2128,-132.3351 187.4304,-131.7493 188.643,-131.1256"/>
<polygon fill="#ff0000" stroke="#ff0000" stroke-width=".3979" points="190.7964,-133.9199 197.6472,-125.838 187.2517,-127.8838 190.7964,-133.9199"/>
</g>
<!-- C -->
<g id="node3" class="node">
<title>C</title>
<polygon fill="#d3d3d3" stroke="#000000" points="99.0044,-185.8688 76.9985,-185.8688 76.9985,-168.8688 99.0044,-168.8688 99.0044,-185.8688"/>
<text text-anchor="middle" x="88.0015" y="-174.6688" font-family="Times,serif" font-size="9.00" fill="#000000">C</text>
</g>
<!-- C&#45;&gt;LEFT -->
<g id="edge12" class="edge">
<title>C&#45;&gt;LEFT</title>
<path fill="none" stroke="#ff0000" stroke-width=".3399" d="M76.7517,-171.6368C64.1356,-164.4995 44.35,-151.0013 36.0015,-132.8688 29.4298,-118.5955 28.9369,-111.5493 36.0015,-97.5135 47.7577,-74.1561 71.98,-56.9229 92.3367,-45.822"/>
<polygon fill="#ff0000" stroke="#ff0000" stroke-width=".3399" points="94.0863,-48.8575 101.3591,-41.1531 90.8692,-42.6406 94.0863,-48.8575"/>
</g>
<!-- C&#45;&gt;RIGHT -->
<g id="edge13" class="edge">
<title>C&#45;&gt;RIGHT</title>
<path fill="none" stroke="#00ff00" stroke-width=".2063" stroke-dasharray="1,5" d="M92.3859,-168.6379C100.7384,-152.7286 120.3197,-118.7088 145.0015,-97.5135 172.7119,-73.7173 210.3766,-55.7565 238.3811,-44.4923"/>
<polygon fill="#00ff00" stroke="#00ff00" stroke-width=".2063" points="239.8132,-47.6905 247.8516,-40.7888 237.2637,-41.1713 239.8132,-47.6905"/>
</g>
<!-- C&#45;&gt;20 -->
<g id="edge2" class="edge">
<title>C&#45;&gt;20</title>
<path fill="none" stroke="#ff0000" stroke-width=".6495" d="M99.0274,-172.946C117.3012,-165.4764 154.8398,-149.5388 185.0015,-132.8688 186.2887,-132.1574 187.5958,-131.406 188.9052,-130.6303"/>
<polygon fill="#ff0000" stroke="#ff0000" stroke-width=".6495" points="190.7684,-133.5932 197.393,-125.3249 187.0581,-127.6574 190.7684,-133.5932"/>
</g>
<!-- D -->
<g id="node4" class="node">
<title>D</title>
<polygon fill="#d3d3d3" stroke="#000000" points="203.5066,-185.8688 180.4963,-185.8688 180.4963,-168.8688 203.5066,-168.8688 203.5066,-185.8688"/>
<text text-anchor="middle" x="192.0015" y="-174.6688" font-family="Times,serif" font-size="9.00" fill="#000000">D</text>
</g>
<!-- D&#45;&gt;LEFT -->
<g id="edge14" class="edge">
<title>D&#45;&gt;LEFT</title>
<path fill="none" stroke="#ff0000" stroke-width=".3336" d="M180.6893,-174.9225C162.4275,-170.2954 126.9859,-158.3505 112.0015,-132.8688 99.8647,-112.2296 104.2403,-85.2687 111.1824,-64.2334"/>
<polygon fill="#ff0000" stroke="#ff0000" stroke-width=".3336" points="114.5084,-65.3281 114.6184,-54.7338 107.9257,-62.9471 114.5084,-65.3281"/>
</g>
<!-- D&#45;&gt;RIGHT -->
<g id="edge15" class="edge">
<title>D&#45;&gt;RIGHT</title>
<path fill="none" stroke="#00ff00" stroke-width=".22" d="M203.4859,-168.9954C213.9921,-160.8148 229.3292,-147.4883 239.0015,-132.8688 251.5015,-113.9752 260.6226,-90.4106 266.7906,-70.6807"/>
<polygon fill="#00ff00" stroke="#00ff00" stroke-width=".22" points="270.1587,-71.6334 269.666,-61.05 263.4513,-69.6307 270.1587,-71.6334"/>
</g>
<!-- D&#45;&gt;20 -->
<g id="edge3" class="edge">
<title>D&#45;&gt;20</title>
<path fill="none" stroke="#ff0000" stroke-width=".2076" d="M194.7824,-168.7233C197.0288,-161.7393 200.316,-151.5198 203.4177,-141.877"/>
<polygon fill="#ff0000" stroke="#ff0000" stroke-width=".2076" points="206.8012,-142.7883 206.5314,-132.1969 200.1374,-140.6448 206.8012,-142.7883"/>
</g>
<!-- E -->
<g id="node5" class="node">
<title>E</title>
<polygon fill="#d3d3d3" stroke="#000000" points="364.0049,-185.8688 341.998,-185.8688 341.998,-168.8688 364.0049,-168.8688 364.0049,-185.8688"/>
<text text-anchor="middle" x="353.0015" y="-174.6688" font-family="Times,serif" font-size="9.00" fill="#000000">E</text>
</g>
<!-- E&#45;&gt;LEFT -->
<g id="edge16" class="edge">
<title>E&#45;&gt;LEFT</title>
<path fill="none" stroke="#ff0000" stroke-width=".3175" d="M342.1893,-169.3731C322.1628,-154.6589 277.8004,-122.5099 239.0015,-97.5135 212.2336,-80.2681 181.0173,-61.9579 158.1857,-48.8843"/>
<polygon fill="#ff0000" stroke="#ff0000" stroke-width=".3175" points="159.6805,-45.7077 149.2597,-43.7953 156.2135,-51.7888 159.6805,-45.7077"/>
</g>
<!-- E&#45;&gt;RIGHT -->
<g id="edge17" class="edge">
<title>E&#45;&gt;RIGHT</title>
<path fill="none" stroke="#00ff00" stroke-width=".1656" d="M354.4818,-168.4618C356.5993,-153.1359 359.1098,-121.1481 348.0015,-97.5135 339.8798,-80.2333 325.1213,-65.2155 311.1557,-53.8235"/>
<polygon fill="#00ff00" stroke="#00ff00" stroke-width=".1656" points="313.1237,-50.9202 303.0807,-47.5454 308.8271,-56.4465 313.1237,-50.9202"/>
</g>
<!-- 91 -->
<g id="node10" class="node">
<title>91</title>
<ellipse fill="#ffffff" stroke="#000000" cx="418.0015" cy="-115.1911" rx="17.8571" ry="17.8571"/>
<text text-anchor="middle" x="418.0015" y="-112.4911" font-family="Times,serif" font-size="9.00" fill="#000000">91</text>
</g>
<!-- E&#45;&gt;91 -->
<g id="edge21" class="edge">
<title>E&#45;&gt;91</title>
<path fill="none" stroke="#00ff00" stroke-width=".302" d="M362.0394,-168.7233C371.1963,-159.964 385.6738,-146.1151 397.6092,-134.6979"/>
<polygon fill="#00ff00" stroke="#00ff00" stroke-width=".302" points="400.1971,-137.0659 405.004,-127.6243 395.3584,-132.0076 400.1971,-137.0659"/>
</g>
<!-- E&#45;&gt;20 -->
<g id="edge4" class="edge">
<title>E&#45;&gt;20</title>
<path fill="none" stroke="#00ff00" stroke-width=".4193" stroke-dasharray="1,5" d="M341.9374,-172.4898C319.6767,-162.6734 268.9549,-140.3062 237.8774,-126.6018"/>
<polygon fill="#00ff00" stroke="#00ff00" stroke-width=".4193" points="239.1006,-123.3161 228.5385,-122.4836 236.2762,-129.721 239.1006,-123.3161"/>
</g>
<!-- F -->
<g id="node6" class="node">
<title>F</title>
<polygon fill="#d3d3d3" stroke="#000000" points="242.5068,-185.8688 221.4961,-185.8688 221.4961,-168.8688 242.5068,-168.8688 242.5068,-185.8688"/>
<text text-anchor="middle" x="232.0015" y="-174.6688" font-family="Times,serif" font-size="9.00" fill="#000000">F</text>
</g>
<!-- F&#45;&gt;LEFT -->
<g id="edge18" class="edge">
<title>F&#45;&gt;LEFT</title>
<path fill="none" stroke="#ff0000" stroke-width=".979" d="M221.401,-172.5877C199.3208,-162.5389 150.0232,-139.5997 145.0015,-132.8688 131.1649,-114.3228 126.4257,-88.7133 125.1402,-67.7812"/>
<polygon fill="#ff0000" stroke="#ff0000" stroke-width=".979" points="128.6318,-67.4898 124.7572,-57.6289 121.6368,-67.7538 128.6318,-67.4898"/>
</g>
<!-- F&#45;&gt;RIGHT -->
<g id="edge19" class="edge">
<title>F&#45;&gt;RIGHT</title>
<path fill="none" stroke="#ff0000" stroke-width=".2399" d="M242.7195,-169.1627C252.328,-161.1004 265.832,-147.8538 272.0015,-132.8688 279.9058,-113.6701 281.6305,-90.6963 281.1726,-71.406"/>
<polygon fill="#ff0000" stroke="#ff0000" stroke-width=".2399" points="284.6689,-71.2438 280.7374,-61.4054 277.6756,-71.5482 284.6689,-71.2438"/>
</g>
<!-- F&#45;&gt;20 -->
<g id="edge5" class="edge">
<title>F&#45;&gt;20</title>
<path fill="none" stroke="#00ff00" stroke-width=".5581" d="M229.2206,-168.7233C226.9741,-161.7393 223.6869,-151.5198 220.5852,-141.877"/>
<polygon fill="#00ff00" stroke="#00ff00" stroke-width=".5581" points="223.8655,-140.6448 217.4715,-132.1969 217.2018,-142.7883 223.8655,-140.6448"/>
</g>
<!-- G -->
<g id="node7" class="node">
<title>G</title>
<polygon fill="#d3d3d3" stroke="#000000" points="449.5066,-185.8688 426.4963,-185.8688 426.4963,-168.8688 449.5066,-168.8688 449.5066,-185.8688"/>
<text text-anchor="middle" x="438.0015" y="-174.6688" font-family="Times,serif" font-size="9.00" fill="#000000">G</text>
</g>
<!-- G&#45;&gt;RIGHT -->
<g id="edge20" class="edge">
<title>G&#45;&gt;RIGHT</title>
<path fill="none" stroke="#00ff00" stroke-width=".4843" d="M442.0132,-168.7924C448.6852,-153.1343 459.9288,-119.5076 445.0015,-97.5135 416.7089,-55.8267 357.8409,-40.1711 317.8671,-34.2919"/>
<polygon fill="#00ff00" stroke="#00ff00" stroke-width=".4843" points="318.2637,-30.8139 307.8902,-32.9681 317.3429,-37.7531 318.2637,-30.8139"/>
</g>
<!-- G&#45;&gt;20 -->
<g id="edge6" class="edge">
<title>G&#45;&gt;20</title>
<path fill="none" stroke="#ff0000" stroke-width=".4282" d="M426.4834,-174.1999C391.885,-164.6811 288.2218,-136.161 238.7904,-122.5614"/>
<polygon fill="#ff0000" stroke="#ff0000" stroke-width=".4282" points="239.68,-119.1761 229.1098,-119.898 237.8231,-125.9254 239.68,-119.1761"/>
</g>
<!-- 91&#45;&gt;RIGHT -->
<g id="edge22" class="edge">
<title>91&#45;&gt;RIGHT</title>
<path fill="none" stroke="#ff0000" stroke-width=".293" d="M402.6436,-105.9944C381.1039,-93.0959 341.3063,-69.2641 312.257,-51.8687"/>
<polygon fill="#ff0000" stroke="#ff0000" stroke-width=".293" points="313.9965,-48.8308 303.6189,-46.6959 310.4002,-54.8363 313.9965,-48.8308"/>
</g>
<!-- 20&#45;&gt;LEFT -->
<g id="edge7" class="edge">
<title>20&#45;&gt;LEFT</title>
<path fill="none" stroke="#00ff00" stroke-width=".6028" d="M199.3119,-102.7325C187.0251,-90.6694 168.0206,-72.0109 152.4401,-56.7141"/>
<polygon fill="#00ff00" stroke="#00ff00" stroke-width=".6028" points="154.6988,-54.0267 145.111,-49.5184 149.7947,-59.0217 154.6988,-54.0267"/>
</g>
<!-- 20&#45;&gt;RIGHT -->
<g id="edge8" class="edge">
<title>20&#45;&gt;RIGHT</title>
<path fill="none" stroke="#ff0000" stroke-width=".2162" d="M223.0278,-100.868C230.8718,-90.6788 241.7364,-76.5657 251.663,-63.6711"/>
<polygon fill="#ff0000" stroke="#ff0000" stroke-width=".2162" points="254.6829,-65.4859 258.0096,-55.4269 249.1361,-61.2159 254.6829,-65.4859"/>
</g>
</g>
</svg>
