<?xml version="1.0" encoding="UTF-8" standalone="no"?>
<!DOCTYPE svg PUBLIC "-//W3C//DTD SVG 1.1//EN"
 "http://www.w3.org/Graphics/SVG/1.1/DTD/svg11.dtd">
<!-- Generated by graphviz version 2.40.1 (20161225.0304)
 -->
<!-- Title: %3 Pages: 1 -->
<svg width="434pt" height="194pt"
 viewBox="0.00 0.00 433.76 193.87" xmlns="http://www.w3.org/2000/svg" xmlns:xlink="http://www.w3.org/1999/xlink">
<g id="graph0" class="graph" transform="scale(1 1) rotate(0) translate(4 189.8688)">
<title>%3</title>
<polygon fill="#ffffff" stroke="transparent" points="-4,4 -4,-189.8688 429.7632,-189.8688 429.7632,4 -4,4"/>
<!-- A -->
<g id="node1" class="node">
<title>A</title>
<polygon fill="#d3d3d3" stroke="#000000" points="114.65,-123.6911 91.6396,-123.6911 91.6396,-106.6911 114.65,-106.6911 114.65,-123.6911"/>
<text text-anchor="middle" x="103.1448" y="-112.4911" font-family="Times,serif" font-size="9.00" fill="#000000">A</text>
</g>
<!-- LEFT -->
<g id="node8" class="node">
<title>LEFT</title>
<ellipse fill="#add8e6" stroke="#000000" cx="103.1448" cy="-30.7567" rx="26.5303" ry="26.5303"/>
<text text-anchor="middle" x="103.1448" y="-28.0567" font-family="Times,serif" font-size="9.00" fill="#000000">LEFT</text>
</g>
<!-- A&#45;&gt;LEFT -->
<g id="edge7" class="edge">
<title>A&#45;&gt;LEFT</title>
<path fill="none" stroke="#ff0000" stroke-width="1.0562" d="M103.1448,-106.4732C103.1448,-97.251 103.1448,-82.0766 103.1448,-67.7243"/>
<polygon fill="#ff0000" stroke="#ff0000" stroke-width="1.0562" points="106.6449,-67.5158 103.1448,-57.5158 99.6449,-67.5158 106.6449,-67.5158"/>
</g>
<!-- B -->
<g id="node2" class="node">
<title>B</title>
<polygon fill="#d3d3d3" stroke="#000000" points="36.1477,-123.6911 14.1419,-123.6911 14.1419,-106.6911 36.1477,-106.6911 36.1477,-123.6911"/>
<text text-anchor="middle" x="25.1448" y="-112.4911" font-family="Times,serif" font-size="9.00" fill="#000000">B</text>
</g>
<!-- B&#45;&gt;LEFT -->
<g id="edge8" class="edge">
<title>B&#45;&gt;LEFT</title>
<path fill="none" stroke="#00ff00" stroke-width=".3931" d="M33.1984,-106.4732C43.7296,-95.0732 62.6632,-74.5777 78.1779,-57.7832"/>
<polygon fill="#00ff00" stroke="#00ff00" stroke-width=".3931" points="80.8085,-60.0935 85.0233,-50.3731 75.6667,-55.3436 80.8085,-60.0935"/>
</g>
<!-- C -->
<g id="node3" class="node">
<title>C</title>
<polygon fill="#d3d3d3" stroke="#000000" points="59.1477,-185.8688 37.1419,-185.8688 37.1419,-168.8688 59.1477,-168.8688 59.1477,-185.8688"/>
<text text-anchor="middle" x="48.1448" y="-174.6688" font-family="Times,serif" font-size="9.00" fill="#000000">C</text>
</g>
<!-- C&#45;&gt;LEFT -->
<g id="edge9" class="edge">
<title>C&#45;&gt;LEFT</title>
<path fill="none" stroke="#ff0000" stroke-width=".3399" d="M36.8616,-169.7165C26.3946,-161.8686 11.5059,-148.6061 5.1448,-132.8688 -.7439,-118.3004 -2.2005,-111.4045 5.1448,-97.5135 18.5328,-72.1946 46.3131,-54.6788 68.8883,-43.9627"/>
<polygon fill="#ff0000" stroke="#ff0000" stroke-width=".3399" points="70.5012,-47.0752 78.1877,-39.7835 67.6317,-40.6903 70.5012,-47.0752"/>
</g>
<!-- 20 -->
<g id="node11" class="node">
<title>20</title>
<ellipse fill="#ffffff" stroke="#000000" cx="150.1448" cy="-115.1911" rx="17.8571" ry="17.8571"/>
<text text-anchor="middle" x="150.1448" y="-112.4911" font-family="Times,serif" font-size="9.00" fill="#000000">20</text>
</g>
<!-- C&#45;&gt;20 -->
<g id="edge1" class="edge">
<title>C&#45;&gt;20</title>
<path fill="none" stroke="#ff0000" stroke-width=".6495" d="M59.1665,-171.0337C73.8702,-162.5357 100.6626,-146.8889 123.1448,-132.8688 124.3928,-132.0906 125.6687,-131.286 126.9537,-130.4688"/>
<polygon fill="#ff0000" stroke="#ff0000" stroke-width=".6495" points="128.8649,-133.401 135.3662,-125.0354 125.067,-127.5209 128.8649,-133.401"/>
</g>
<!-- D -->
<g id="node4" class="node">
<title>D</title>
<polygon fill="#d3d3d3" stroke="#000000" points="161.65,-185.8688 138.6396,-185.8688 138.6396,-168.8688 161.65,-168.8688 161.65,-185.8688"/>
<text text-anchor="middle" x="150.1448" y="-174.6688" font-family="Times,serif" font-size="9.00" fill="#000000">D</text>
</g>
<!-- D&#45;&gt;LEFT -->
<g id="edge10" class="edge">
<title>D&#45;&gt;LEFT</title>
<path fill="none" stroke="#ff0000" stroke-width=".3336" d="M138.813,-173.6914C123.0079,-167.8761 94.958,-154.8963 83.1448,-132.8688 71.647,-111.4293 77.7811,-84.2882 86.1781,-63.3775"/>
<polygon fill="#ff0000" stroke="#ff0000" stroke-width=".3336" points="89.4959,-64.5247 90.2769,-53.9587 83.0773,-61.7315 89.4959,-64.5247"/>
</g>
<!-- RIGHT -->
<g id="node9" class="node">
<title>RIGHT</title>
<ellipse fill="#add8e6" stroke="#000000" cx="310.1448" cy="-30.7567" rx="30.5154" ry="30.5154"/>
<text text-anchor="middle" x="310.1448" y="-28.0567" font-family="Times,serif" font-size="9.00" fill="#000000">RIGHT</text>
</g>
<!-- D&#45;&gt;RIGHT -->
<g id="edge11" class="edge">
<title>D&#45;&gt;RIGHT</title>
<path fill="none" stroke="#00ff00" stroke-width=".22" d="M159.6744,-168.6366C182.8505,-147.3997 242.9596,-92.3202 279.8092,-58.554"/>
<polygon fill="#00ff00" stroke="#00ff00" stroke-width=".22" points="282.2895,-61.0285 287.2977,-51.6921 277.5604,-55.8675 282.2895,-61.0285"/>
</g>
<!-- D&#45;&gt;20 -->
<g id="edge2" class="edge">
<title>D&#45;&gt;20</title>
<path fill="none" stroke="#ff0000" stroke-width=".2076" d="M150.1448,-168.7233C150.1448,-162.0318 150.1448,-152.3701 150.1448,-143.0914"/>
<polygon fill="#ff0000" stroke="#ff0000" stroke-width=".2076" points="153.6449,-142.9567 150.1448,-132.9567 146.6449,-142.9568 153.6449,-142.9567"/>
</g>
<!-- E -->
<g id="node5" class="node">
<title>E</title>
<polygon fill="#d3d3d3" stroke="#000000" points="405.1482,-185.8688 383.1413,-185.8688 383.1413,-168.8688 405.1482,-168.8688 405.1482,-185.8688"/>
<text text-anchor="middle" x="394.1448" y="-174.6688" font-family="Times,serif" font-size="9.00" fill="#000000">E</text>
</g>
<!-- E&#45;&gt;LEFT -->
<g id="edge12" class="edge">
<title>E&#45;&gt;LEFT</title>
<path fill="none" stroke="#ff0000" stroke-width=".3175" d="M383.0926,-171.8005C342.5226,-151.3604 200.8008,-79.9579 135.9681,-47.2938"/>
<polygon fill="#ff0000" stroke="#ff0000" stroke-width=".3175" points="137.4871,-44.14 126.9817,-42.7663 134.3375,-50.3915 137.4871,-44.14"/>
</g>
<!-- E&#45;&gt;RIGHT -->
<g id="edge13" class="edge">
<title>E&#45;&gt;RIGHT</title>
<path fill="none" stroke="#00ff00" stroke-width=".1656" d="M401.7146,-168.5284C413.7784,-153.303 434.6882,-121.4626 421.1448,-97.5135 405.8327,-70.4366 374.6593,-53.1303 349.2365,-42.9413"/>
<polygon fill="#00ff00" stroke="#00ff00" stroke-width=".1656" points="350.4111,-39.6437 339.8195,-39.3793 347.9344,-46.1909 350.4111,-39.6437"/>
</g>
<!-- 91 -->
<g id="node10" class="node">
<title>91</title>
<ellipse fill="#ffffff" stroke="#000000" cx="394.1448" cy="-115.1911" rx="17.8571" ry="17.8571"/>
<text text-anchor="middle" x="394.1448" y="-112.4911" font-family="Times,serif" font-size="9.00" fill="#000000">91</text>
</g>
<!-- E&#45;&gt;91 -->
<g id="edge17" class="edge">
<title>E&#45;&gt;91</title>
<path fill="none" stroke="#00ff00" stroke-width=".302" d="M394.1448,-168.7233C394.1448,-162.0318 394.1448,-152.3701 394.1448,-143.0914"/>
<polygon fill="#00ff00" stroke="#00ff00" stroke-width=".302" points="397.6449,-142.9567 394.1448,-132.9567 390.6449,-142.9568 397.6449,-142.9567"/>
</g>
<!-- F -->
<g id="node6" class="node">
<title>F</title>
<polygon fill="#d3d3d3" stroke="#000000" points="244.6502,-185.8688 223.6394,-185.8688 223.6394,-168.8688 244.6502,-168.8688 244.6502,-185.8688"/>
<text text-anchor="middle" x="234.1448" y="-174.6688" font-family="Times,serif" font-size="9.00" fill="#000000">F</text>
</g>
<!-- F&#45;&gt;LEFT -->
<g id="edge14" class="edge">
<title>F&#45;&gt;LEFT</title>
<path fill="none" stroke="#ff0000" stroke-width=".979" d="M228.7281,-168.5174C219.2093,-153.2754 198.4606,-121.4107 177.1448,-97.5135 163.377,-82.0784 146.3319,-66.5024 132.072,-54.2825"/>
<polygon fill="#ff0000" stroke="#ff0000" stroke-width=".979" points="133.9419,-51.2805 124.0437,-47.5019 129.4251,-56.6283 133.9419,-51.2805"/>
</g>
<!-- F&#45;&gt;RIGHT -->
<g id="edge15" class="edge">
<title>F&#45;&gt;RIGHT</title>
<path fill="none" stroke="#ff0000" stroke-width=".2399" d="M238.6713,-168.6366C248.7779,-149.14 273.6702,-101.1202 291.2254,-67.2542"/>
<polygon fill="#ff0000" stroke="#ff0000" stroke-width=".2399" points="294.4691,-68.6019 295.964,-58.113 288.2544,-65.3803 294.4691,-68.6019"/>
</g>
<!-- F&#45;&gt;20 -->
<g id="edge3" class="edge">
<title>F&#45;&gt;20</title>
<path fill="none" stroke="#00ff00" stroke-width=".5581" d="M223.5061,-169.494C210.7994,-160.0883 189.1949,-144.0964 172.7124,-131.8959"/>
<polygon fill="#00ff00" stroke="#00ff00" stroke-width=".5581" points="174.7542,-129.0527 164.6342,-125.9163 170.5895,-134.6791 174.7542,-129.0527"/>
</g>
<!-- G -->
<g id="node7" class="node">
<title>G</title>
<polygon fill="#d3d3d3" stroke="#000000" points="322.65,-185.8688 299.6396,-185.8688 299.6396,-168.8688 322.65,-168.8688 322.65,-185.8688"/>
<text text-anchor="middle" x="311.1448" y="-174.6688" font-family="Times,serif" font-size="9.00" fill="#000000">G</text>
</g>
<!-- G&#45;&gt;RIGHT -->
<g id="edge16" class="edge">
<title>G&#45;&gt;RIGHT</title>
<path fill="none" stroke="#00ff00" stroke-width=".4843" d="M311.0852,-168.6366C310.9585,-150.0575 310.6551,-105.5764 310.4269,-72.1248"/>
<polygon fill="#00ff00" stroke="#00ff00" stroke-width=".4843" points="313.9241,-71.6741 310.3558,-61.6982 306.9242,-71.7219 313.9241,-71.6741"/>
</g>
<!-- G&#45;&gt;20 -->
<g id="edge4" class="edge">
<title>G&#45;&gt;20</title>
<path fill="none" stroke="#ff0000" stroke-width=".4282" d="M299.8236,-172.9966C274.4168,-163.1846 212.2964,-139.1939 176.5798,-125.4002"/>
<polygon fill="#ff0000" stroke="#ff0000" stroke-width=".4282" points="177.4247,-121.9747 166.8353,-121.6369 174.9029,-128.5046 177.4247,-121.9747"/>
</g>
<!-- 91&#45;&gt;RIGHT -->
<g id="edge18" class="edge">
<title>91&#45;&gt;RIGHT</title>
<path fill="none" stroke="#ff0000" stroke-width=".293" d="M381.387,-102.3674C370.2092,-91.1317 353.5455,-74.3819 339.1442,-59.9061"/>
<polygon fill="#ff0000" stroke="#ff0000" stroke-width=".293" points="341.3946,-57.2056 331.8605,-52.5847 336.4321,-62.1425 341.3946,-57.2056"/>
</g>
<!-- 20&#45;&gt;LEFT -->
<g id="edge5" class="edge">
<title>20&#45;&gt;LEFT</title>
<path fill="none" stroke="#00ff00" stroke-width=".6028" d="M141.5243,-99.7046C135.8092,-89.4375 128.0995,-75.5873 121.0895,-62.9939"/>
<polygon fill="#00ff00" stroke="#00ff00" stroke-width=".6028" points="124.0691,-61.1505 116.1472,-54.1153 117.9528,-64.5551 124.0691,-61.1505"/>
</g>
<!-- 20&#45;&gt;RIGHT -->
<g id="edge6" class="edge">
<title>20&#45;&gt;RIGHT</title>
<path fill="none" stroke="#ff0000" stroke-width=".2162" d="M165.7288,-106.4843C170.9345,-103.602 176.7765,-100.3956 182.1448,-97.5135 212.8245,-81.042 247.9054,-62.7863 273.5734,-49.5347"/>
<polygon fill="#ff0000" stroke="#ff0000" stroke-width=".2162" points="275.2945,-52.5852 282.5786,-44.8915 272.0865,-46.3635 275.2945,-52.5852"/>
</g>
</g>
</svg>
