<?xml version="1.0" encoding="UTF-8" standalone="no"?>
<!DOCTYPE svg PUBLIC "-//W3C//DTD SVG 1.1//EN"
 "http://www.w3.org/Graphics/SVG/1.1/DTD/svg11.dtd">
<!-- Generated by graphviz version 2.40.1 (20161225.0304)
 -->
<!-- Title: %3 Pages: 1 -->
<svg width="360pt" height="194pt"
 viewBox="0.00 0.00 360.25 193.87" xmlns="http://www.w3.org/2000/svg" xmlns:xlink="http://www.w3.org/1999/xlink">
<g id="graph0" class="graph" transform="scale(1 1) rotate(0) translate(4 189.8688)">
<title>%3</title>
<polygon fill="#ffffff" stroke="transparent" points="-4,4 -4,-189.8688 356.2512,-189.8688 356.2512,4 -4,4"/>
<!-- A -->
<g id="node1" class="node">
<title>A</title>
<polygon fill="#d3d3d3" stroke="#000000" points="154.5066,-123.6911 131.4963,-123.6911 131.4963,-106.6911 154.5066,-106.6911 154.5066,-123.6911"/>
<text text-anchor="middle" x="143.0015" y="-112.4911" font-family="Times,serif" font-size="9.00" fill="#000000">A</text>
</g>
<!-- LEFT -->
<g id="node8" class="node">
<title>LEFT</title>
<ellipse fill="#add8e6" stroke="#000000" cx="96.0015" cy="-30.7567" rx="26.5303" ry="26.5303"/>
<text text-anchor="middle" x="96.0015" y="-28.0567" font-family="Times,serif" font-size="9.00" fill="#000000">LEFT</text>
</g>
<!-- A&#45;&gt;LEFT -->
<g id="edge5" class="edge">
<title>A&#45;&gt;LEFT</title>
<path fill="none" stroke="#ff0000" stroke-width="1.4392" d="M138.1487,-106.4732C132.4629,-96.2589 122.7126,-78.7427 114.0214,-63.1292"/>
<polygon fill="#ff0000" stroke="#ff0000" stroke-width="1.4392" points="116.9872,-61.2608 109.0653,-54.2256 110.8709,-64.6654 116.9872,-61.2608"/>
</g>
<!-- RIGHT -->
<g id="node9" class="node">
<title>RIGHT</title>
<ellipse fill="#add8e6" stroke="#000000" cx="191.0015" cy="-30.7567" rx="30.5154" ry="30.5154"/>
<text text-anchor="middle" x="191.0015" y="-28.0567" font-family="Times,serif" font-size="9.00" fill="#000000">RIGHT</text>
</g>
<!-- A&#45;&gt;RIGHT -->
<g id="edge6" class="edge">
<title>A&#45;&gt;RIGHT</title>
<path fill="none" stroke="#00ff00" stroke-width=".3394" d="M147.9575,-106.4732C153.3529,-96.9824 162.3321,-81.1876 170.6975,-66.4725"/>
<polygon fill="#00ff00" stroke="#00ff00" stroke-width=".3394" points="173.8898,-67.939 175.7892,-57.5158 167.8044,-64.4795 173.8898,-67.939"/>
</g>
<!-- 5 -->
<g id="node10" class="node">
<title>5</title>
<ellipse fill="#ffffff" stroke="#000000" cx="263.0015" cy="-30.7567" rx="14.4914" ry="14.4914"/>
<text text-anchor="middle" x="263.0015" y="-28.0567" font-family="Times,serif" font-size="9.00" fill="#000000">5</text>
</g>
<!-- A&#45;&gt;5 -->
<g id="edge1" class="edge">
<title>A&#45;&gt;5</title>
<path fill="none" stroke="#ff0000" stroke-width=".5188" d="M151.9853,-106.4361C155.3055,-103.4249 159.1908,-100.1506 163.0015,-97.5135 191.1208,-78.0535 203.2945,-81.5561 231.0015,-61.5135 236.201,-57.7522 241.4042,-53.1831 246.0583,-48.7299"/>
<polygon fill="#ff0000" stroke="#ff0000" stroke-width=".5188" points="248.6823,-51.0555 253.275,-41.5078 243.7307,-46.1076 248.6823,-51.0555"/>
</g>
<!-- B -->
<g id="node2" class="node">
<title>B</title>
<polygon fill="#d3d3d3" stroke="#000000" points="194.0044,-123.6911 171.9985,-123.6911 171.9985,-106.6911 194.0044,-106.6911 194.0044,-123.6911"/>
<text text-anchor="middle" x="183.0015" y="-112.4911" font-family="Times,serif" font-size="9.00" fill="#000000">B</text>
</g>
<!-- B&#45;&gt;LEFT -->
<g id="edge7" class="edge">
<title>B&#45;&gt;LEFT</title>
<path fill="none" stroke="#00ff00" stroke-width=".1513" d="M174.0186,-106.4732C161.9385,-94.7493 139.9464,-73.4057 122.3836,-56.3609"/>
<polygon fill="#00ff00" stroke="#00ff00" stroke-width=".1513" points="124.7834,-53.8125 115.1697,-49.3597 119.9082,-58.8358 124.7834,-53.8125"/>
</g>
<!-- B&#45;&gt;RIGHT -->
<g id="edge8" class="edge">
<title>B&#45;&gt;RIGHT</title>
<path fill="none" stroke="#00ff00" stroke-width=".2804" stroke-dasharray="1,5" d="M183.8275,-106.4732C184.615,-98.1615 185.8606,-85.0149 187.0944,-71.9928"/>
<polygon fill="#00ff00" stroke="#00ff00" stroke-width=".2804" points="190.6135,-71.9564 188.0724,-61.6708 183.6447,-71.296 190.6135,-71.9564"/>
</g>
<!-- B&#45;&gt;5 -->
<g id="edge15" class="edge">
<title>B&#45;&gt;5</title>
<path fill="none" stroke="#00ff00" stroke-width=".246" d="M191.2616,-106.4732C204.0708,-92.9539 228.9996,-66.6433 245.8273,-48.8828"/>
<polygon fill="#00ff00" stroke="#00ff00" stroke-width=".246" points="248.5791,-51.0674 252.9163,-41.4009 243.4977,-46.2528 248.5791,-51.0674"/>
</g>
<!-- C -->
<g id="node3" class="node">
<title>C</title>
<polygon fill="#d3d3d3" stroke="#000000" points="22.0044,-123.6911 -.0015,-123.6911 -.0015,-106.6911 22.0044,-106.6911 22.0044,-123.6911"/>
<text text-anchor="middle" x="11.0015" y="-112.4911" font-family="Times,serif" font-size="9.00" fill="#000000">C</text>
</g>
<!-- C&#45;&gt;LEFT -->
<g id="edge9" class="edge">
<title>C&#45;&gt;LEFT</title>
<path fill="none" stroke="#ff0000" stroke-width=".3292" stroke-dasharray="1,5" d="M19.7778,-106.4732C31.4013,-94.927 52.4175,-74.0507 69.4424,-57.1391"/>
<polygon fill="#ff0000" stroke="#ff0000" stroke-width=".3292" points="72.3077,-59.2262 76.9357,-49.6956 67.3745,-54.2599 72.3077,-59.2262"/>
</g>
<!-- D -->
<g id="node4" class="node">
<title>D</title>
<polygon fill="#d3d3d3" stroke="#000000" points="352.5066,-123.6911 329.4963,-123.6911 329.4963,-106.6911 352.5066,-106.6911 352.5066,-123.6911"/>
<text text-anchor="middle" x="341.0015" y="-112.4911" font-family="Times,serif" font-size="9.00" fill="#000000">D</text>
</g>
<!-- D&#45;&gt;5 -->
<g id="edge2" class="edge">
<title>D&#45;&gt;5</title>
<path fill="none" stroke="#ff0000" stroke-width=".2988" d="M332.9479,-106.4732C320.5264,-93.027 296.4157,-66.9274 280.013,-49.1716"/>
<polygon fill="#ff0000" stroke="#ff0000" stroke-width=".2988" points="282.4453,-46.6465 273.0887,-41.6761 277.3035,-51.3965 282.4453,-46.6465"/>
</g>
<!-- E -->
<g id="node5" class="node">
<title>E</title>
<polygon fill="#d3d3d3" stroke="#000000" points="234.0049,-123.6911 211.998,-123.6911 211.998,-106.6911 234.0049,-106.6911 234.0049,-123.6911"/>
<text text-anchor="middle" x="223.0015" y="-112.4911" font-family="Times,serif" font-size="9.00" fill="#000000">E</text>
</g>
<!-- E&#45;&gt;RIGHT -->
<g id="edge10" class="edge">
<title>E&#45;&gt;RIGHT</title>
<path fill="none" stroke="#ff0000" stroke-width=".187" d="M219.6974,-106.4732C216.3241,-97.5723 210.8493,-83.1266 205.5814,-69.227"/>
<polygon fill="#ff0000" stroke="#ff0000" stroke-width=".187" points="208.8127,-67.8768 201.9959,-59.7663 202.267,-70.3576 208.8127,-67.8768"/>
</g>
<!-- F -->
<g id="node6" class="node">
<title>F</title>
<polygon fill="#d3d3d3" stroke="#000000" points="106.5068,-185.8688 85.4961,-185.8688 85.4961,-168.8688 106.5068,-168.8688 106.5068,-185.8688"/>
<text text-anchor="middle" x="96.0015" y="-174.6688" font-family="Times,serif" font-size="9.00" fill="#000000">F</text>
</g>
<!-- F&#45;&gt;LEFT -->
<g id="edge11" class="edge">
<title>F&#45;&gt;LEFT</title>
<path fill="none" stroke="#ff0000" stroke-width=".4826" d="M88.8511,-168.8429C82.2303,-160.3473 72.8467,-146.619 69.0015,-132.8688 62.5082,-109.6493 69.8075,-83.3446 78.4442,-63.2491"/>
<polygon fill="#ff0000" stroke="#ff0000" stroke-width=".4826" points="81.7347,-64.4709 82.7368,-53.9235 75.376,-61.5439 81.7347,-64.4709"/>
</g>
<!-- F&#45;&gt;5 -->
<g id="edge3" class="edge">
<title>F&#45;&gt;5</title>
<path fill="none" stroke="#ff0000" stroke-width=".135" d="M106.6347,-176.5204C142.8919,-173.387 260.6601,-161.1506 283.0015,-132.8688 301.4219,-109.5504 287.9111,-74.0371 275.8997,-51.6295"/>
<polygon fill="#ff0000" stroke="#ff0000" stroke-width=".135" points="278.9244,-49.868 270.9413,-42.9024 272.8382,-53.326 278.9244,-49.868"/>
</g>
<!-- 79 -->
<g id="node11" class="node">
<title>79</title>
<ellipse fill="#ffffff" stroke="#000000" cx="96.0015" cy="-115.1911" rx="17.8571" ry="17.8571"/>
<text text-anchor="middle" x="96.0015" y="-112.4911" font-family="Times,serif" font-size="9.00" fill="#000000">79</text>
</g>
<!-- F&#45;&gt;79 -->
<g id="edge13" class="edge">
<title>F&#45;&gt;79</title>
<path fill="none" stroke="#00ff00" stroke-width=".3386" d="M96.0015,-168.7233C96.0015,-162.0318 96.0015,-152.3701 96.0015,-143.0914"/>
<polygon fill="#00ff00" stroke="#00ff00" stroke-width=".3386" points="99.5016,-142.9567 96.0015,-132.9567 92.5016,-142.9568 99.5016,-142.9567"/>
</g>
<!-- G -->
<g id="node7" class="node">
<title>G</title>
<polygon fill="#d3d3d3" stroke="#000000" points="274.5066,-123.6911 251.4963,-123.6911 251.4963,-106.6911 274.5066,-106.6911 274.5066,-123.6911"/>
<text text-anchor="middle" x="263.0015" y="-112.4911" font-family="Times,serif" font-size="9.00" fill="#000000">G</text>
</g>
<!-- G&#45;&gt;RIGHT -->
<g id="edge12" class="edge">
<title>G&#45;&gt;RIGHT</title>
<path fill="none" stroke="#ff0000" stroke-width=".1524" d="M255.5674,-106.4732C246.6945,-96.0679 231.3602,-78.0854 217.8617,-62.2557"/>
<polygon fill="#ff0000" stroke="#ff0000" stroke-width=".1524" points="220.1659,-59.5637 211.0141,-54.2256 214.8395,-64.1057 220.1659,-59.5637"/>
</g>
<!-- G&#45;&gt;5 -->
<g id="edge4" class="edge">
<title>G&#45;&gt;5</title>
<path fill="none" stroke="#ff0000" stroke-width=".3203" d="M263.0015,-106.4732C263.0015,-94.6525 263.0015,-73.0527 263.0015,-55.9397"/>
<polygon fill="#ff0000" stroke="#ff0000" stroke-width=".3203" points="266.5016,-55.4897 263.0015,-45.4897 259.5016,-55.4898 266.5016,-55.4897"/>
</g>
<!-- 79&#45;&gt;LEFT -->
<g id="edge14" class="edge">
<title>79&#45;&gt;LEFT</title>
<path fill="none" stroke="#ff0000" stroke-width=".2105" stroke-dasharray="1,5" d="M96.0015,-97.2848C96.0015,-88.5713 96.0015,-77.7619 96.0015,-67.4072"/>
<polygon fill="#ff0000" stroke="#ff0000" stroke-width=".2105" points="99.5016,-67.2985 96.0015,-57.2985 92.5016,-67.2985 99.5016,-67.2985"/>
</g>
</g>
</svg>
