<?xml version="1.0" encoding="UTF-8" standalone="no"?>
<!DOCTYPE svg PUBLIC "-//W3C//DTD SVG 1.1//EN"
 "http://www.w3.org/Graphics/SVG/1.1/DTD/svg11.dtd">
<!-- Generated by graphviz version 2.40.1 (20161225.0304)
 -->
<!-- Title: %3 Pages: 1 -->
<svg width="535pt" height="275pt"
 viewBox="0.00 0.00 534.58 275.42" xmlns="http://www.w3.org/2000/svg" xmlns:xlink="http://www.w3.org/1999/xlink">
<g id="graph0" class="graph" transform="scale(1 1) rotate(0) translate(4 271.4214)">
<title>%3</title>
<polygon fill="#ffffff" stroke="transparent" points="-4,4 -4,-271.4214 530.5773,-271.4214 530.5773,4 -4,4"/>
<!-- A -->
<g id="node1" class="node">
<title>A</title>
<polygon fill="#d3d3d3" stroke="#000000" points="339.0425,-125.6102 316.0425,-125.6102 316.0425,-107.6102 339.0425,-107.6102 339.0425,-125.6102"/>
<text text-anchor="middle" x="327.5425" y="-114.4102" font-family="Times,serif" font-size="9.00" fill="#000000">A</text>
</g>
<!-- LEFT -->
<g id="node8" class="node">
<title>LEFT</title>
<ellipse fill="#add8e6" stroke="#000000" cx="207.5425" cy="-31.1127" rx="26.7407" ry="26.7407"/>
<text text-anchor="middle" x="207.5425" y="-28.9127" font-family="Times,serif" font-size="9.00" fill="#000000">LEFT</text>
</g>
<!-- A&#45;&gt;LEFT -->
<g id="edge8" class="edge">
<title>A&#45;&gt;LEFT</title>
<path fill="none" stroke="#ff0000" stroke-width=".1273" d="M316.0364,-108.4123C298.2223,-95.7202 263.3738,-70.8913 237.964,-52.7874"/>
<polygon fill="#ff0000" stroke="#ff0000" stroke-width=".1273" points="239.9221,-49.885 229.7469,-46.9329 235.8603,-55.5861 239.9221,-49.885"/>
</g>
<!-- 16 -->
<g id="node13" class="node">
<title>16</title>
<ellipse fill="#ffffff" stroke="#000000" cx="386.5425" cy="-31.1127" rx="18.2703" ry="18.2703"/>
<text text-anchor="middle" x="386.5425" y="-28.9127" font-family="Times,serif" font-size="9.00" fill="#000000">16</text>
</g>
<!-- A&#45;&gt;16 -->
<g id="edge1" class="edge">
<title>A&#45;&gt;16</title>
<path fill="none" stroke="#ff0000" stroke-width=".3979" d="M333.8565,-107.4604C342.4129,-95.0613 357.9993,-72.4748 370.0077,-55.0734"/>
<polygon fill="#ff0000" stroke="#ff0000" stroke-width=".3979" points="373.1059,-56.746 375.905,-46.5276 367.3446,-52.7702 373.1059,-56.746"/>
</g>
<!-- B -->
<g id="node2" class="node">
<title>B</title>
<polygon fill="#d3d3d3" stroke="#000000" points="259.0425,-125.6102 236.0425,-125.6102 236.0425,-107.6102 259.0425,-107.6102 259.0425,-125.6102"/>
<text text-anchor="middle" x="247.5425" y="-114.4102" font-family="Times,serif" font-size="9.00" fill="#000000">B</text>
</g>
<!-- B&#45;&gt;LEFT -->
<g id="edge9" class="edge">
<title>B&#45;&gt;LEFT</title>
<path fill="none" stroke="#00ff00" stroke-width=".2989" d="M243.2618,-107.4604C238.5218,-97.329 230.5995,-80.3957 223.4188,-65.0472"/>
<polygon fill="#00ff00" stroke="#00ff00" stroke-width=".2989" points="226.4865,-63.3449 219.0786,-55.7704 220.1461,-66.3113 226.4865,-63.3449"/>
</g>
<!-- RIGHT -->
<g id="node9" class="node">
<title>RIGHT</title>
<ellipse fill="#add8e6" stroke="#000000" cx="111.5425" cy="-31.1127" rx="31.2258" ry="31.2258"/>
<text text-anchor="middle" x="111.5425" y="-28.9127" font-family="Times,serif" font-size="9.00" fill="#000000">RIGHT</text>
</g>
<!-- B&#45;&gt;RIGHT -->
<g id="edge10" class="edge">
<title>B&#45;&gt;RIGHT</title>
<path fill="none" stroke="#ff0000" stroke-width=".1964" d="M235.9472,-109.3207C216.3875,-97.0243 176.0912,-71.6918 146.6418,-53.1782"/>
<polygon fill="#ff0000" stroke="#ff0000" stroke-width=".1964" points="148.2144,-50.0327 137.8856,-47.6735 144.4888,-55.9589 148.2144,-50.0327"/>
</g>
<!-- B&#45;&gt;16 -->
<g id="edge2" class="edge">
<title>B&#45;&gt;16</title>
<path fill="none" stroke="#00ff00" stroke-width=".5799" d="M259.3935,-109.3207C282.0026,-95.4141 331.7199,-64.8335 361.8507,-46.3004"/>
<polygon fill="#00ff00" stroke="#00ff00" stroke-width=".5799" points="363.8371,-49.1877 370.5211,-40.9673 360.1696,-43.2253 363.8371,-49.1877"/>
</g>
<!-- C -->
<g id="node3" class="node">
<title>C</title>
<polygon fill="#d3d3d3" stroke="#000000" points="511.0425,-125.6102 488.0425,-125.6102 488.0425,-107.6102 511.0425,-107.6102 511.0425,-125.6102"/>
<text text-anchor="middle" x="499.5425" y="-114.4102" font-family="Times,serif" font-size="9.00" fill="#000000">C</text>
</g>
<!-- C&#45;&gt;16 -->
<g id="edge3" class="edge">
<title>C&#45;&gt;16</title>
<path fill="none" stroke="#00ff00" stroke-width=".1526" d="M489.444,-107.4475C486.0364,-104.4428 482.1751,-101.1311 478.5425,-98.2254 455.8845,-80.1018 428.9699,-60.7017 410.1255,-47.4448"/>
<polygon fill="#00ff00" stroke="#00ff00" stroke-width=".1526" points="412.0281,-44.5044 401.8284,-41.638 408.0144,-50.2394 412.0281,-44.5044"/>
</g>
<!-- D -->
<g id="node4" class="node">
<title>D</title>
<polygon fill="#d3d3d3" stroke="#000000" points="109.0425,-267.4214 86.0425,-267.4214 86.0425,-249.4214 109.0425,-249.4214 109.0425,-267.4214"/>
<text text-anchor="middle" x="97.5425" y="-256.2214" font-family="Times,serif" font-size="9.00" fill="#000000">D</text>
</g>
<!-- D&#45;&gt;LEFT -->
<g id="edge11" class="edge">
<title>D&#45;&gt;LEFT</title>
<path fill="none" stroke="#00ff00" stroke-width=".2649" d="M109.132,-254.6745C125.7714,-248.6853 156.2188,-235.3441 172.5425,-213.4214 204.1698,-170.9457 209.6159,-107.8885 209.4602,-68.17"/>
<polygon fill="#00ff00" stroke="#00ff00" stroke-width=".2649" points="212.9589,-68.0551 209.299,-58.1125 205.9598,-68.1674 212.9589,-68.0551"/>
</g>
<!-- D&#45;&gt;RIGHT -->
<g id="edge12" class="edge">
<title>D&#45;&gt;RIGHT</title>
<path fill="none" stroke="#ff0000" stroke-width=".15" d="M85.7739,-255.7036C67.5635,-250.7926 33.1371,-238.5311 18.5425,-213.4214 -7.1855,-169.1571 -4.7743,-143.8059 18.5425,-98.2254 30.1019,-75.6286 53.2094,-58.895 73.4979,-47.7884"/>
<polygon fill="#ff0000" stroke="#ff0000" stroke-width=".15" points="75.3059,-50.7934 82.5696,-43.0805 72.0815,-44.5803 75.3059,-50.7934"/>
</g>
<!-- 103 -->
<g id="node10" class="node">
<title>103</title>
<ellipse fill="#ffffff" stroke="#000000" cx="48.5425" cy="-192.2082" rx="21.4286" ry="21.4286"/>
<text text-anchor="middle" x="48.5425" y="-190.0082" font-family="Times,serif" font-size="9.00" fill="#000000">103</text>
</g>
<!-- D&#45;&gt;103 -->
<g id="edge23" class="edge">
<title>D&#45;&gt;103</title>
<path fill="none" stroke="#00ff00" stroke-width=".5417" d="M90.7292,-249.2147C84.6942,-241.0596 75.5932,-228.7616 67.3875,-217.6733"/>
<polygon fill="#00ff00" stroke="#00ff00" stroke-width=".5417" points="70.1147,-215.4747 61.3526,-209.5184 64.4879,-219.6387 70.1147,-215.4747"/>
</g>
<!-- 76 -->
<g id="node11" class="node">
<title>76</title>
<ellipse fill="#ffffff" stroke="#000000" cx="45.5425" cy="-116.6102" rx="18.2703" ry="18.2703"/>
<text text-anchor="middle" x="45.5425" y="-114.4102" font-family="Times,serif" font-size="9.00" fill="#000000">76</text>
</g>
<!-- D&#45;&gt;76 -->
<g id="edge22" class="edge">
<title>D&#45;&gt;76</title>
<path fill="none" stroke="#00ff00" stroke-width=".2258" stroke-dasharray="1,5" d="M96.5552,-249.1935C94.5939,-232.9193 89.4231,-198.2605 78.5425,-170.9949 74.3059,-160.3785 68.1009,-149.4569 62.2117,-140.2123"/>
<polygon fill="#00ff00" stroke="#00ff00" stroke-width=".2258" points="64.9498,-138.0077 56.5123,-131.6 59.1123,-141.8709 64.9498,-138.0077"/>
</g>
<!-- D&#45;&gt;16 -->
<g id="edge4" class="edge">
<title>D&#45;&gt;16</title>
<path fill="none" stroke="#00ff00" stroke-width=".1017" d="M109.2152,-257.6769C160.6013,-254.27 366.7175,-239.2149 425.5425,-213.4214 475.6849,-191.4349 497.2052,-184.5231 520.5425,-134.9949 527.5082,-120.2118 529.1293,-112.1296 520.5425,-98.2254 497.5736,-61.033 447.0384,-43.7522 415.0122,-36.2667"/>
<polygon fill="#00ff00" stroke="#00ff00" stroke-width=".1017" points="415.4407,-32.7786 404.9272,-34.089 413.9632,-39.6209 415.4407,-32.7786"/>
</g>
<!-- E -->
<g id="node5" class="node">
<title>E</title>
<polygon fill="#d3d3d3" stroke="#000000" points="141.5425,-125.6102 119.5425,-125.6102 119.5425,-107.6102 141.5425,-107.6102 141.5425,-125.6102"/>
<text text-anchor="middle" x="130.5425" y="-114.4102" font-family="Times,serif" font-size="9.00" fill="#000000">E</text>
</g>
<!-- E&#45;&gt;LEFT -->
<g id="edge13" class="edge">
<title>E&#45;&gt;LEFT</title>
<path fill="none" stroke="#00ff00" stroke-width=".1744" stroke-dasharray="1,5" d="M138.7828,-107.4604C149.2125,-95.8798 167.6457,-75.4124 182.8026,-58.5828"/>
<polygon fill="#00ff00" stroke="#00ff00" stroke-width=".1744" points="185.404,-60.9243 189.4955,-51.1513 180.2025,-56.2397 185.404,-60.9243"/>
</g>
<!-- E&#45;&gt;RIGHT -->
<g id="edge14" class="edge">
<title>E&#45;&gt;RIGHT</title>
<path fill="none" stroke="#ff0000" stroke-width=".7089" d="M128.5091,-107.4604C126.5867,-98.8098 123.5623,-85.2004 120.5961,-71.8526"/>
<polygon fill="#ff0000" stroke="#ff0000" stroke-width=".7089" points="123.9444,-70.7856 118.3583,-61.783 117.1111,-72.3042 123.9444,-70.7856"/>
</g>
<!-- E&#45;&gt;16 -->
<g id="edge5" class="edge">
<title>E&#45;&gt;16</title>
<path fill="none" stroke="#ff0000" stroke-width=".3332" d="M141.5425,-112.9365C179.2024,-100.359 303.6952,-58.7816 359.3009,-40.2107"/>
<polygon fill="#ff0000" stroke="#ff0000" stroke-width=".3332" points="360.4693,-43.5106 368.8456,-37.023 358.2518,-36.8711 360.4693,-43.5106"/>
</g>
<!-- F -->
<g id="node6" class="node">
<title>F</title>
<polygon fill="#d3d3d3" stroke="#000000" points="416.5425,-201.2082 394.5425,-201.2082 394.5425,-183.2082 416.5425,-183.2082 416.5425,-201.2082"/>
<text text-anchor="middle" x="405.5425" y="-190.0082" font-family="Times,serif" font-size="9.00" fill="#000000">F</text>
</g>
<!-- F&#45;&gt;LEFT -->
<g id="edge15" class="edge">
<title>F&#45;&gt;LEFT</title>
<path fill="none" stroke="#ff0000" stroke-width=".1185" stroke-dasharray="1,5" d="M394.5058,-187.1277C375.5143,-178.1116 335.8704,-158.0748 306.5425,-134.9949 290.8617,-122.6548 256.0423,-85.0838 232.1753,-58.6891"/>
<polygon fill="#ff0000" stroke="#ff0000" stroke-width=".1185" points="234.7513,-56.3193 225.4565,-51.2343 229.5515,-61.0058 234.7513,-56.3193"/>
</g>
<!-- 78 -->
<g id="node12" class="node">
<title>78</title>
<ellipse fill="#ffffff" stroke="#000000" cx="451.5425" cy="-116.6102" rx="18.2703" ry="18.2703"/>
<text text-anchor="middle" x="451.5425" y="-114.4102" font-family="Times,serif" font-size="9.00" fill="#000000">78</text>
</g>
<!-- F&#45;&gt;78 -->
<g id="edge20" class="edge">
<title>F&#45;&gt;78</title>
<path fill="none" stroke="#00ff00" stroke-width=".206" d="M411.183,-182.9384C417.4412,-172.6533 427.799,-155.631 436.4544,-141.4064"/>
<polygon fill="#00ff00" stroke="#00ff00" stroke-width=".206" points="439.6281,-142.9239 441.8362,-132.5617 433.6481,-139.2852 439.6281,-142.9239"/>
</g>
<!-- F&#45;&gt;16 -->
<g id="edge6" class="edge">
<title>F&#45;&gt;16</title>
<path fill="none" stroke="#00ff00" stroke-width=".1473" stroke-dasharray="1,5" d="M404.4665,-183.0854C401.7086,-159.7015 394.2963,-96.8547 389.9155,-59.7116"/>
<polygon fill="#00ff00" stroke="#00ff00" stroke-width=".1473" points="393.3615,-59.0473 388.7142,-49.5262 386.4097,-59.8673 393.3615,-59.0473"/>
</g>
<!-- G -->
<g id="node7" class="node">
<title>G</title>
<polygon fill="#d3d3d3" stroke="#000000" points="164.0425,-201.2082 141.0425,-201.2082 141.0425,-183.2082 164.0425,-183.2082 164.0425,-201.2082"/>
<text text-anchor="middle" x="152.5425" y="-190.0082" font-family="Times,serif" font-size="9.00" fill="#000000">G</text>
</g>
<!-- G&#45;&gt;LEFT -->
<g id="edge16" class="edge">
<title>G&#45;&gt;LEFT</title>
<path fill="none" stroke="#00ff00" stroke-width=".1606" stroke-dasharray="1,5" d="M155.6571,-183.0854C163.1877,-161.0283 182.7059,-103.8594 195.5392,-66.2703"/>
<polygon fill="#00ff00" stroke="#00ff00" stroke-width=".1606" points="198.8874,-67.2959 198.8062,-56.7013 192.2629,-65.0341 198.8874,-67.2959"/>
</g>
<!-- G&#45;&gt;RIGHT -->
<g id="edge17" class="edge">
<title>G&#45;&gt;RIGHT</title>
<path fill="none" stroke="#ff0000" stroke-width=".3595" d="M142.9807,-183.1734C132.6802,-172.7186 116.9111,-154.4326 110.5425,-134.9949 103.9735,-114.9458 103.6166,-91.5292 105.1662,-72.0087"/>
<polygon fill="#ff0000" stroke="#ff0000" stroke-width=".3595" points="108.6643,-72.1985 106.1614,-61.9035 101.698,-71.5123 108.6643,-72.1985"/>
</g>
<!-- G&#45;&gt;76 -->
<g id="edge18" class="edge">
<title>G&#45;&gt;76</title>
<path fill="none" stroke="#00ff00" stroke-width=".1896" d="M140.6828,-183.829C123.4862,-171.6792 91.2681,-148.9164 69.126,-133.2725"/>
<polygon fill="#00ff00" stroke="#00ff00" stroke-width=".1896" points="71.0865,-130.3722 60.8996,-127.4604 67.0473,-136.0893 71.0865,-130.3722"/>
</g>
<!-- G&#45;&gt;16 -->
<g id="edge7" class="edge">
<title>G&#45;&gt;16</title>
<path fill="none" stroke="#ff0000" stroke-width=".9255" d="M164.136,-190.2326C201.9371,-183.5826 320.7788,-160.9668 348.5425,-134.9949 369.5821,-115.3132 379.0124,-83.0234 383.2145,-59.6621"/>
<polygon fill="#ff0000" stroke="#ff0000" stroke-width=".9255" points="386.6953,-60.0582 384.8003,-49.6342 379.7812,-58.9648 386.6953,-60.0582"/>
</g>
<!-- 103&#45;&gt;76 -->
<g id="edge24" class="edge">
<title>103&#45;&gt;76</title>
<path fill="none" stroke="#00ff00" stroke-width=".2609" d="M47.6908,-170.747C47.379,-162.8896 47.0209,-153.8658 46.6876,-145.4669"/>
<polygon fill="#00ff00" stroke="#00ff00" stroke-width=".2609" points="50.1779,-145.1506 46.2841,-135.2973 43.1834,-145.4283 50.1779,-145.1506"/>
</g>
<!-- 76&#45;&gt;LEFT -->
<g id="edge19" class="edge">
<title>76&#45;&gt;LEFT</title>
<path fill="none" stroke="#ff0000" stroke-width=".1816" d="M62.1551,-108.3004C83.0993,-97.775 120.1626,-78.9865 151.5425,-62.2254 159.2282,-58.1202 167.4544,-53.6138 175.1705,-49.3362"/>
<polygon fill="#ff0000" stroke="#ff0000" stroke-width=".1816" points="176.8975,-52.3806 183.9313,-44.4575 173.4918,-46.265 176.8975,-52.3806"/>
</g>
<!-- 78&#45;&gt;16 -->
<g id="edge21" class="edge">
<title>78&#45;&gt;16</title>
<path fill="none" stroke="#ff0000" stroke-width=".3191" d="M440.2203,-101.7176C430.2473,-88.5997 415.5619,-69.2833 404.0714,-54.1692"/>
<polygon fill="#ff0000" stroke="#ff0000" stroke-width=".3191" points="406.5733,-51.677 397.7349,-45.8346 401.0008,-55.9135 406.5733,-51.677"/>
</g>
</g>
</svg>
