<?xml version="1.0" encoding="UTF-8" standalone="no"?>
<!DOCTYPE svg PUBLIC "-//W3C//DTD SVG 1.1//EN"
 "http://www.w3.org/Graphics/SVG/1.1/DTD/svg11.dtd">
<!-- Generated by graphviz version 2.40.1 (20161225.0304)
 -->
<!-- Title: %3 Pages: 1 -->
<svg width="300pt" height="123pt"
 viewBox="0.00 0.00 299.68 122.51" xmlns="http://www.w3.org/2000/svg" xmlns:xlink="http://www.w3.org/1999/xlink">
<g id="graph0" class="graph" transform="scale(1 1) rotate(0) translate(4 118.5135)">
<title>%3</title>
<polygon fill="#ffffff" stroke="transparent" points="-4,4 -4,-118.5135 295.6791,-118.5135 295.6791,4 -4,4"/>
<!-- A -->
<g id="node1" class="node">
<title>A</title>
<polygon fill="#d3d3d3" stroke="#000000" points="172.1829,-114.5135 149.1725,-114.5135 149.1725,-97.5135 172.1829,-97.5135 172.1829,-114.5135"/>
<text text-anchor="middle" x="160.6777" y="-103.3135" font-family="Times,serif" font-size="9.00" fill="#000000">A</text>
</g>
<!-- LEFT -->
<g id="node8" class="node">
<title>LEFT</title>
<ellipse fill="#add8e6" stroke="#000000" cx="79.6777" cy="-30.7567" rx="26.5303" ry="26.5303"/>
<text text-anchor="middle" x="79.6777" y="-28.0567" font-family="Times,serif" font-size="9.00" fill="#000000">LEFT</text>
</g>
<!-- A&#45;&gt;LEFT -->
<g id="edge5" class="edge">
<title>A&#45;&gt;LEFT</title>
<path fill="none" stroke="#ff0000" stroke-width="1.4392" d="M151.3859,-97.3806C140.6284,-87.3858 122.4173,-70.4659 107.0399,-56.1789"/>
<polygon fill="#ff0000" stroke="#ff0000" stroke-width="1.4392" points="109.0197,-53.2408 99.3113,-48.9983 104.2551,-58.369 109.0197,-53.2408"/>
</g>
<!-- RIGHT -->
<g id="node9" class="node">
<title>RIGHT</title>
<ellipse fill="#add8e6" stroke="#000000" cx="201.6777" cy="-30.7567" rx="30.5154" ry="30.5154"/>
<text text-anchor="middle" x="201.6777" y="-28.0567" font-family="Times,serif" font-size="9.00" fill="#000000">RIGHT</text>
</g>
<!-- A&#45;&gt;RIGHT -->
<g id="edge6" class="edge">
<title>A&#45;&gt;RIGHT</title>
<path fill="none" stroke="#00ff00" stroke-width=".3394" d="M165.3809,-97.3806C169.497,-89.8254 175.7689,-78.3131 181.9474,-66.9722"/>
<polygon fill="#00ff00" stroke="#00ff00" stroke-width=".3394" points="185.1288,-68.4485 186.8395,-57.9926 178.9819,-65.0995 185.1288,-68.4485"/>
</g>
<!-- 5 -->
<g id="node10" class="node">
<title>5</title>
<ellipse fill="#ffffff" stroke="#000000" cx="138.6777" cy="-30.7567" rx="14.4914" ry="14.4914"/>
<text text-anchor="middle" x="138.6777" y="-28.0567" font-family="Times,serif" font-size="9.00" fill="#000000">5</text>
</g>
<!-- A&#45;&gt;5 -->
<g id="edge1" class="edge">
<title>A&#45;&gt;5</title>
<path fill="none" stroke="#ff0000" stroke-width=".5188" d="M158.154,-97.3806C155.1387,-87.0661 149.9674,-69.3763 145.711,-54.8162"/>
<polygon fill="#ff0000" stroke="#ff0000" stroke-width=".5188" points="148.9827,-53.5337 142.8173,-44.9175 142.2639,-55.4978 148.9827,-53.5337"/>
</g>
<!-- B -->
<g id="node2" class="node">
<title>B</title>
<polygon fill="#d3d3d3" stroke="#000000" points="91.6806,-114.5135 69.6747,-114.5135 69.6747,-97.5135 91.6806,-97.5135 91.6806,-114.5135"/>
<text text-anchor="middle" x="80.6777" y="-103.3135" font-family="Times,serif" font-size="9.00" fill="#000000">B</text>
</g>
<!-- B&#45;&gt;LEFT -->
<g id="edge7" class="edge">
<title>B&#45;&gt;LEFT</title>
<path fill="none" stroke="#00ff00" stroke-width=".1513" d="M80.563,-97.3806C80.464,-89.9315 80.3139,-78.6359 80.1652,-67.4504"/>
<polygon fill="#00ff00" stroke="#00ff00" stroke-width=".1513" points="83.6633,-67.2751 80.0307,-57.3225 76.6639,-67.3682 83.6633,-67.2751"/>
</g>
<!-- B&#45;&gt;5 -->
<g id="edge12" class="edge">
<title>B&#45;&gt;5</title>
<path fill="none" stroke="#00ff00" stroke-width=".246" d="M87.7142,-97.1978C94.8276,-88.2553 106.1068,-73.9921 115.6777,-61.5135 118.3711,-58.0018 121.2139,-54.2435 123.9477,-50.6025"/>
<polygon fill="#00ff00" stroke="#00ff00" stroke-width=".246" points="126.8263,-52.5973 130.007,-42.4912 121.2183,-48.4081 126.8263,-52.5973"/>
</g>
<!-- C -->
<g id="node3" class="node">
<title>C</title>
<polygon fill="#d3d3d3" stroke="#000000" points="291.6806,-114.5135 269.6747,-114.5135 269.6747,-97.5135 291.6806,-97.5135 291.6806,-114.5135"/>
<text text-anchor="middle" x="280.6777" y="-103.3135" font-family="Times,serif" font-size="9.00" fill="#000000">C</text>
</g>
<!-- D -->
<g id="node4" class="node">
<title>D</title>
<polygon fill="#d3d3d3" stroke="#000000" points="132.1829,-114.5135 109.1725,-114.5135 109.1725,-97.5135 132.1829,-97.5135 132.1829,-114.5135"/>
<text text-anchor="middle" x="120.6777" y="-103.3135" font-family="Times,serif" font-size="9.00" fill="#000000">D</text>
</g>
<!-- D&#45;&gt;5 -->
<g id="edge2" class="edge">
<title>D&#45;&gt;5</title>
<path fill="none" stroke="#ff0000" stroke-width=".2988" d="M122.7425,-97.3806C125.2095,-87.0661 129.4406,-69.3763 132.9231,-54.8162"/>
<polygon fill="#ff0000" stroke="#ff0000" stroke-width=".2988" points="136.3684,-55.4573 135.2907,-44.9175 129.5604,-53.829 136.3684,-55.4573"/>
</g>
<!-- E -->
<g id="node5" class="node">
<title>E</title>
<polygon fill="#d3d3d3" stroke="#000000" points="251.6811,-114.5135 229.6742,-114.5135 229.6742,-97.5135 251.6811,-97.5135 251.6811,-114.5135"/>
<text text-anchor="middle" x="240.6777" y="-103.3135" font-family="Times,serif" font-size="9.00" fill="#000000">E</text>
</g>
<!-- E&#45;&gt;RIGHT -->
<g id="edge8" class="edge">
<title>E&#45;&gt;RIGHT</title>
<path fill="none" stroke="#ff0000" stroke-width=".187" d="M236.2039,-97.3806C232.3202,-89.8863 226.4187,-78.4985 220.5877,-67.2466"/>
<polygon fill="#ff0000" stroke="#ff0000" stroke-width=".187" points="223.675,-65.5971 215.9663,-58.3289 217.4599,-68.8179 223.675,-65.5971"/>
</g>
<!-- F -->
<g id="node6" class="node">
<title>F</title>
<polygon fill="#d3d3d3" stroke="#000000" points="51.183,-114.5135 30.1723,-114.5135 30.1723,-97.5135 51.183,-97.5135 51.183,-114.5135"/>
<text text-anchor="middle" x="40.6777" y="-103.3135" font-family="Times,serif" font-size="9.00" fill="#000000">F</text>
</g>
<!-- F&#45;&gt;LEFT -->
<g id="edge9" class="edge">
<title>F&#45;&gt;LEFT</title>
<path fill="none" stroke="#ff0000" stroke-width=".4826" d="M45.1515,-97.3806C49.4985,-88.9923 56.3734,-75.7261 62.848,-63.2324"/>
<polygon fill="#ff0000" stroke="#ff0000" stroke-width=".4826" points="65.9562,-64.8413 67.4498,-54.3523 59.7411,-61.6205 65.9562,-64.8413"/>
</g>
<!-- F&#45;&gt;5 -->
<g id="edge3" class="edge">
<title>F&#45;&gt;5</title>
<path fill="none" stroke="#ff0000" stroke-width=".135" d="M51.2239,-101.3927C66.5637,-94.3297 95.408,-79.73 115.6777,-61.5135 118.9693,-58.5552 122.1002,-55.0634 124.9325,-51.5135"/>
<polygon fill="#ff0000" stroke="#ff0000" stroke-width=".135" points="127.8314,-53.4792 130.9342,-43.3489 122.1913,-49.3332 127.8314,-53.4792"/>
</g>
<!-- 79 -->
<g id="node11" class="node">
<title>79</title>
<ellipse fill="#ffffff" stroke="#000000" cx="17.6777" cy="-30.7567" rx="17.8571" ry="17.8571"/>
<text text-anchor="middle" x="17.6777" y="-28.0567" font-family="Times,serif" font-size="9.00" fill="#000000">79</text>
</g>
<!-- F&#45;&gt;79 -->
<g id="edge11" class="edge">
<title>F&#45;&gt;79</title>
<path fill="none" stroke="#00ff00" stroke-width=".3386" d="M38.0393,-97.3806C35.0769,-87.6874 30.1238,-71.4808 25.8446,-57.4793"/>
<polygon fill="#00ff00" stroke="#00ff00" stroke-width=".3386" points="29.1559,-56.3387 22.8859,-47.7984 22.4616,-58.3847 29.1559,-56.3387"/>
</g>
<!-- G -->
<g id="node7" class="node">
<title>G</title>
<polygon fill="#d3d3d3" stroke="#000000" points="212.1829,-114.5135 189.1725,-114.5135 189.1725,-97.5135 212.1829,-97.5135 212.1829,-114.5135"/>
<text text-anchor="middle" x="200.6777" y="-103.3135" font-family="Times,serif" font-size="9.00" fill="#000000">G</text>
</g>
<!-- G&#45;&gt;RIGHT -->
<g id="edge10" class="edge">
<title>G&#45;&gt;RIGHT</title>
<path fill="none" stroke="#ff0000" stroke-width=".1524" d="M200.7924,-97.3806C200.8784,-90.9046 201.0031,-81.5213 201.1319,-71.8306"/>
<polygon fill="#ff0000" stroke="#ff0000" stroke-width=".1524" points="204.6328,-71.7753 201.2661,-61.7297 197.6335,-71.6822 204.6328,-71.7753"/>
</g>
<!-- G&#45;&gt;5 -->
<g id="edge4" class="edge">
<title>G&#45;&gt;5</title>
<path fill="none" stroke="#ff0000" stroke-width=".3203" d="M192.7026,-97.3214C184.6716,-88.475 172.0238,-74.2851 161.6777,-61.5135 158.8919,-58.0746 156.0046,-54.3514 153.2555,-50.7224"/>
<polygon fill="#ff0000" stroke="#ff0000" stroke-width=".3203" points="155.9873,-48.5307 147.2052,-42.604 150.3745,-52.7137 155.9873,-48.5307"/>
</g>
</g>
</svg>
