<?xml version="1.0" encoding="UTF-8" standalone="no"?>
<!DOCTYPE svg PUBLIC "-//W3C//DTD SVG 1.1//EN"
 "http://www.w3.org/Graphics/SVG/1.1/DTD/svg11.dtd">
<!-- Generated by graphviz version 2.40.1 (20161225.0304)
 -->
<!-- Title: %3 Pages: 1 -->
<svg width="276pt" height="124pt"
 viewBox="0.00 0.00 276.00 124.23" xmlns="http://www.w3.org/2000/svg" xmlns:xlink="http://www.w3.org/1999/xlink">
<g id="graph0" class="graph" transform="scale(1 1) rotate(0) translate(4 120.2254)">
<title>%3</title>
<polygon fill="#ffffff" stroke="transparent" points="-4,4 -4,-120.2254 272,-120.2254 272,4 -4,4"/>
<!-- A -->
<g id="node1" class="node">
<title>A</title>
<polygon fill="#d3d3d3" stroke="#000000" points="23,-116.2254 0,-116.2254 0,-98.2254 23,-98.2254 23,-116.2254"/>
<text text-anchor="middle" x="11.5" y="-105.0254" font-family="Times,serif" font-size="9.00" fill="#000000">A</text>
</g>
<!-- RIGHT -->
<g id="node9" class="node">
<title>RIGHT</title>
<ellipse fill="#add8e6" stroke="#000000" cx="93.5" cy="-31.1127" rx="31.2258" ry="31.2258"/>
<text text-anchor="middle" x="93.5" y="-28.9127" font-family="Times,serif" font-size="9.00" fill="#000000">RIGHT</text>
</g>
<!-- A&#45;&gt;RIGHT -->
<g id="edge1" class="edge">
<title>A&#45;&gt;RIGHT</title>
<path fill="none" stroke="#ff0000" stroke-width="1.406" d="M21.2285,-98.1954C31.4884,-88.6721 48.1806,-73.1783 62.9394,-59.4791"/>
<polygon fill="#ff0000" stroke="#ff0000" stroke-width="1.406" points="65.4886,-61.8884 70.4368,-52.52 60.7264,-56.7579 65.4886,-61.8884"/>
</g>
<!-- B -->
<g id="node2" class="node">
<title>B</title>
<polygon fill="#d3d3d3" stroke="#000000" points="268,-116.2254 245,-116.2254 245,-98.2254 268,-98.2254 268,-116.2254"/>
<text text-anchor="middle" x="256.5" y="-105.0254" font-family="Times,serif" font-size="9.00" fill="#000000">B</text>
</g>
<!-- LEFT -->
<g id="node8" class="node">
<title>LEFT</title>
<ellipse fill="#add8e6" stroke="#000000" cx="194.5" cy="-31.1127" rx="26.7407" ry="26.7407"/>
<text text-anchor="middle" x="194.5" y="-28.9127" font-family="Times,serif" font-size="9.00" fill="#000000">LEFT</text>
</g>
<!-- B&#45;&gt;LEFT -->
<g id="edge2" class="edge">
<title>B&#45;&gt;LEFT</title>
<path fill="none" stroke="#00ff00" stroke-width=".5926" d="M249.1443,-98.1954C241.5472,-88.869 229.2856,-73.8164 218.3007,-60.331"/>
<polygon fill="#00ff00" stroke="#00ff00" stroke-width=".5926" points="220.7084,-57.745 211.6791,-52.2022 215.2812,-62.1659 220.7084,-57.745"/>
</g>
<!-- C -->
<g id="node3" class="node">
<title>C</title>
<polygon fill="#d3d3d3" stroke="#000000" points="227,-116.2254 204,-116.2254 204,-98.2254 227,-98.2254 227,-116.2254"/>
<text text-anchor="middle" x="215.5" y="-105.0254" font-family="Times,serif" font-size="9.00" fill="#000000">C</text>
</g>
<!-- C&#45;&gt;LEFT -->
<g id="edge3" class="edge">
<title>C&#45;&gt;LEFT</title>
<path fill="none" stroke="#ff0000" stroke-width=".2467" d="M213.0086,-98.1954C210.8574,-90.3986 207.602,-78.5998 204.4182,-67.0603"/>
<polygon fill="#ff0000" stroke="#ff0000" stroke-width=".2467" points="207.702,-65.8024 201.6683,-57.0935 200.9541,-67.6642 207.702,-65.8024"/>
</g>
<!-- D -->
<g id="node4" class="node">
<title>D</title>
<polygon fill="#d3d3d3" stroke="#000000" points="64,-116.2254 41,-116.2254 41,-98.2254 64,-98.2254 64,-116.2254"/>
<text text-anchor="middle" x="52.5" y="-105.0254" font-family="Times,serif" font-size="9.00" fill="#000000">D</text>
</g>
<!-- D&#45;&gt;RIGHT -->
<g id="edge4" class="edge">
<title>D&#45;&gt;RIGHT</title>
<path fill="none" stroke="#00ff00" stroke-width=".2297" stroke-dasharray="1,5" d="M57.3642,-98.1954C61.4817,-90.5518 67.671,-79.0619 73.7693,-67.7409"/>
<polygon fill="#00ff00" stroke="#00ff00" stroke-width=".2297" points="76.9382,-69.2383 78.5993,-58.7745 70.7754,-65.9185 76.9382,-69.2383"/>
</g>
<!-- E -->
<g id="node5" class="node">
<title>E</title>
<polygon fill="#d3d3d3" stroke="#000000" points="185.5,-116.2254 163.5,-116.2254 163.5,-98.2254 185.5,-98.2254 185.5,-116.2254"/>
<text text-anchor="middle" x="174.5" y="-105.0254" font-family="Times,serif" font-size="9.00" fill="#000000">E</text>
</g>
<!-- E&#45;&gt;LEFT -->
<g id="edge5" class="edge">
<title>E&#45;&gt;LEFT</title>
<path fill="none" stroke="#ff0000" stroke-width=".3247" stroke-dasharray="1,5" d="M176.8728,-98.1954C178.9056,-90.4595 181.9735,-78.7839 184.983,-67.3308"/>
<polygon fill="#ff0000" stroke="#ff0000" stroke-width=".3247" points="188.4288,-67.9891 187.5852,-57.4279 181.6586,-66.2101 188.4288,-67.9891"/>
</g>
<!-- E&#45;&gt;RIGHT -->
<g id="edge6" class="edge">
<title>E&#45;&gt;RIGHT</title>
<path fill="none" stroke="#ff0000" stroke-width=".6738" d="M164.8902,-98.1954C154.7554,-88.6721 138.2667,-73.1783 123.6879,-59.4791"/>
<polygon fill="#ff0000" stroke="#ff0000" stroke-width=".6738" points="125.9662,-56.8172 116.2819,-52.52 121.1727,-61.9185 125.9662,-56.8172"/>
</g>
<!-- F -->
<g id="node6" class="node">
<title>F</title>
<polygon fill="#d3d3d3" stroke="#000000" points="145.5,-116.2254 123.5,-116.2254 123.5,-98.2254 145.5,-98.2254 145.5,-116.2254"/>
<text text-anchor="middle" x="134.5" y="-105.0254" font-family="Times,serif" font-size="9.00" fill="#000000">F</text>
</g>
<!-- F&#45;&gt;LEFT -->
<g id="edge7" class="edge">
<title>F&#45;&gt;LEFT</title>
<path fill="none" stroke="#00ff00" stroke-width="1.0524" d="M141.6184,-98.1954C148.919,-88.9342 160.6707,-74.0266 171.2439,-60.6142"/>
<polygon fill="#00ff00" stroke="#00ff00" stroke-width="1.0524" points="174.1823,-62.5401 177.6245,-52.52 168.685,-58.2066 174.1823,-62.5401"/>
</g>
<!-- F&#45;&gt;RIGHT -->
<g id="edge8" class="edge">
<title>F&#45;&gt;RIGHT</title>
<path fill="none" stroke="#00ff00" stroke-width=".6075" d="M129.6358,-98.1954C125.5183,-90.5518 119.329,-79.0619 113.2307,-67.7409"/>
<polygon fill="#00ff00" stroke="#00ff00" stroke-width=".6075" points="116.2246,-65.9185 108.4007,-58.7745 110.0618,-69.2383 116.2246,-65.9185"/>
</g>
<!-- G -->
<g id="node7" class="node">
<title>G</title>
<polygon fill="#d3d3d3" stroke="#000000" points="105,-116.2254 82,-116.2254 82,-98.2254 105,-98.2254 105,-116.2254"/>
<text text-anchor="middle" x="93.5" y="-105.0254" font-family="Times,serif" font-size="9.00" fill="#000000">G</text>
</g>
<!-- G&#45;&gt;RIGHT -->
<g id="edge9" class="edge">
<title>G&#45;&gt;RIGHT</title>
<path fill="none" stroke="#00ff00" stroke-width=".2215" d="M93.5,-98.1954C93.5,-91.6488 93.5,-82.2808 93.5,-72.614"/>
<polygon fill="#00ff00" stroke="#00ff00" stroke-width=".2215" points="97.0001,-72.5375 93.5,-62.5376 90.0001,-72.5376 97.0001,-72.5375"/>
</g>
</g>
</svg>
