<?xml version="1.0" encoding="UTF-8" standalone="no"?>
<!DOCTYPE svg PUBLIC "-//W3C//DTD SVG 1.1//EN"
 "http://www.w3.org/Graphics/SVG/1.1/DTD/svg11.dtd">
<!-- Generated by graphviz version 2.40.1 (20161225.0304)
 -->
<!-- Title: %3 Pages: 1 -->
<svg width="277pt" height="124pt"
 viewBox="0.00 0.00 277.00 124.23" xmlns="http://www.w3.org/2000/svg" xmlns:xlink="http://www.w3.org/1999/xlink">
<g id="graph0" class="graph" transform="scale(1 1) rotate(0) translate(4 120.2254)">
<title>%3</title>
<polygon fill="#ffffff" stroke="transparent" points="-4,4 -4,-120.2254 273,-120.2254 273,4 -4,4"/>
<!-- A -->
<g id="node1" class="node">
<title>A</title>
<polygon fill="#d3d3d3" stroke="#000000" points="23,-116.2254 0,-116.2254 0,-98.2254 23,-98.2254 23,-116.2254"/>
<text text-anchor="middle" x="11.5" y="-105.0254" font-family="Times,serif" font-size="9.00" fill="#000000">A</text>
</g>
<!-- RIGHT -->
<g id="node9" class="node">
<title>RIGHT</title>
<ellipse fill="#add8e6" stroke="#000000" cx="73.5" cy="-31.1127" rx="31.2258" ry="31.2258"/>
<text text-anchor="middle" x="73.5" y="-28.9127" font-family="Times,serif" font-size="9.00" fill="#000000">RIGHT</text>
</g>
<!-- A&#45;&gt;RIGHT -->
<g id="edge1" class="edge">
<title>A&#45;&gt;RIGHT</title>
<path fill="none" stroke="#ff0000" stroke-width="1.406" d="M18.8557,-98.1954C25.8549,-89.603 36.8132,-76.1503 47.0848,-63.5407"/>
<polygon fill="#ff0000" stroke="#ff0000" stroke-width="1.406" points="50.085,-65.3993 53.687,-55.4356 44.6577,-60.9784 50.085,-65.3993"/>
</g>
<!-- B -->
<g id="node2" class="node">
<title>B</title>
<polygon fill="#d3d3d3" stroke="#000000" points="187,-116.2254 164,-116.2254 164,-98.2254 187,-98.2254 187,-116.2254"/>
<text text-anchor="middle" x="175.5" y="-105.0254" font-family="Times,serif" font-size="9.00" fill="#000000">B</text>
</g>
<!-- LEFT -->
<g id="node8" class="node">
<title>LEFT</title>
<ellipse fill="#add8e6" stroke="#000000" cx="175.5" cy="-31.1127" rx="26.7407" ry="26.7407"/>
<text text-anchor="middle" x="175.5" y="-28.9127" font-family="Times,serif" font-size="9.00" fill="#000000">LEFT</text>
</g>
<!-- B&#45;&gt;LEFT -->
<g id="edge2" class="edge">
<title>B&#45;&gt;LEFT</title>
<path fill="none" stroke="#00ff00" stroke-width=".5926" d="M175.5,-98.1954C175.5,-90.6582 175.5,-79.3812 175.5,-68.2139"/>
<polygon fill="#00ff00" stroke="#00ff00" stroke-width=".5926" points="179.0001,-68.0995 175.5,-58.0995 172.0001,-68.0995 179.0001,-68.0995"/>
</g>
<!-- C -->
<g id="node3" class="node">
<title>C</title>
<polygon fill="#d3d3d3" stroke="#000000" points="228,-116.2254 205,-116.2254 205,-98.2254 228,-98.2254 228,-116.2254"/>
<text text-anchor="middle" x="216.5" y="-105.0254" font-family="Times,serif" font-size="9.00" fill="#000000">C</text>
</g>
<!-- C&#45;&gt;LEFT -->
<g id="edge3" class="edge">
<title>C&#45;&gt;LEFT</title>
<path fill="none" stroke="#ff0000" stroke-width=".2467" d="M211.6358,-98.1954C207.0271,-89.6399 199.8229,-76.2658 193.0557,-63.7032"/>
<polygon fill="#ff0000" stroke="#ff0000" stroke-width=".2467" points="196.0727,-61.9237 188.2488,-54.7796 189.9099,-65.2435 196.0727,-61.9237"/>
</g>
<!-- D -->
<g id="node4" class="node">
<title>D</title>
<polygon fill="#d3d3d3" stroke="#000000" points="269,-116.2254 246,-116.2254 246,-98.2254 269,-98.2254 269,-116.2254"/>
<text text-anchor="middle" x="257.5" y="-105.0254" font-family="Times,serif" font-size="9.00" fill="#000000">D</text>
</g>
<!-- E -->
<g id="node5" class="node">
<title>E</title>
<polygon fill="#d3d3d3" stroke="#000000" points="63.5,-116.2254 41.5,-116.2254 41.5,-98.2254 63.5,-98.2254 63.5,-116.2254"/>
<text text-anchor="middle" x="52.5" y="-105.0254" font-family="Times,serif" font-size="9.00" fill="#000000">E</text>
</g>
<!-- E&#45;&gt;RIGHT -->
<g id="edge4" class="edge">
<title>E&#45;&gt;RIGHT</title>
<path fill="none" stroke="#ff0000" stroke-width=".6738" d="M54.9914,-98.1954C56.9016,-91.2723 59.6823,-81.1938 62.5104,-70.9434"/>
<polygon fill="#ff0000" stroke="#ff0000" stroke-width=".6738" points="65.9238,-71.731 65.2097,-61.1603 59.176,-69.8692 65.9238,-71.731"/>
</g>
<!-- F -->
<g id="node6" class="node">
<title>F</title>
<polygon fill="#d3d3d3" stroke="#000000" points="145.5,-116.2254 123.5,-116.2254 123.5,-98.2254 145.5,-98.2254 145.5,-116.2254"/>
<text text-anchor="middle" x="134.5" y="-105.0254" font-family="Times,serif" font-size="9.00" fill="#000000">F</text>
</g>
<!-- F&#45;&gt;LEFT -->
<g id="edge5" class="edge">
<title>F&#45;&gt;LEFT</title>
<path fill="none" stroke="#00ff00" stroke-width="1.0524" d="M139.3642,-98.1954C143.9729,-89.6399 151.1771,-76.2658 157.9443,-63.7032"/>
<polygon fill="#00ff00" stroke="#00ff00" stroke-width="1.0524" points="161.0901,-65.2435 162.7512,-54.7796 154.9273,-61.9237 161.0901,-65.2435"/>
</g>
<!-- F&#45;&gt;RIGHT -->
<g id="edge6" class="edge">
<title>F&#45;&gt;RIGHT</title>
<path fill="none" stroke="#00ff00" stroke-width=".6075" d="M127.263,-98.1954C120.3767,-89.603 109.5951,-76.1503 99.4892,-63.5407"/>
<polygon fill="#00ff00" stroke="#00ff00" stroke-width=".6075" points="101.9784,-61.05 92.9934,-55.4356 96.5161,-65.4277 101.9784,-61.05"/>
</g>
<!-- G -->
<g id="node7" class="node">
<title>G</title>
<polygon fill="#d3d3d3" stroke="#000000" points="105,-116.2254 82,-116.2254 82,-98.2254 105,-98.2254 105,-116.2254"/>
<text text-anchor="middle" x="93.5" y="-105.0254" font-family="Times,serif" font-size="9.00" fill="#000000">G</text>
</g>
<!-- G&#45;&gt;RIGHT -->
<g id="edge7" class="edge">
<title>G&#45;&gt;RIGHT</title>
<path fill="none" stroke="#00ff00" stroke-width=".2215" d="M91.1272,-98.1954C89.3237,-91.3319 86.7053,-81.3674 84.0359,-71.2084"/>
<polygon fill="#00ff00" stroke="#00ff00" stroke-width=".2215" points="87.4124,-70.2859 81.4858,-61.5038 80.6422,-72.065 87.4124,-70.2859"/>
</g>
</g>
</svg>
