<?xml version="1.0" encoding="UTF-8" standalone="no"?>
<!DOCTYPE svg PUBLIC "-//W3C//DTD SVG 1.1//EN"
 "http://www.w3.org/Graphics/SVG/1.1/DTD/svg11.dtd">
<!-- Generated by graphviz version 2.40.1 (20161225.0304)
 -->
<!-- Title: %3 Pages: 1 -->
<svg width="369pt" height="214pt"
 viewBox="0.00 0.00 369.00 213.97" xmlns="http://www.w3.org/2000/svg" xmlns:xlink="http://www.w3.org/1999/xlink">
<g id="graph0" class="graph" transform="scale(1 1) rotate(0) translate(4 209.9655)">
<title>%3</title>
<polygon fill="#ffffff" stroke="transparent" points="-4,4 -4,-209.9655 365,-209.9655 365,4 -4,4"/>
<!-- A -->
<g id="node1" class="node">
<title>A</title>
<polygon fill="#d3d3d3" stroke="#000000" points="84,-205.9655 61,-205.9655 61,-187.9655 84,-187.9655 84,-205.9655"/>
<text text-anchor="middle" x="72.5" y="-194.7655" font-family="Times,serif" font-size="9.00" fill="#000000">A</text>
</g>
<!-- LEFT -->
<g id="node8" class="node">
<title>LEFT</title>
<ellipse fill="#add8e6" stroke="#000000" cx="115.5" cy="-26.8701" rx="26.7407" ry="26.7407"/>
<text text-anchor="middle" x="115.5" y="-24.6701" font-family="Times,serif" font-size="9.00" fill="#000000">LEFT</text>
</g>
<!-- A&#45;&gt;LEFT -->
<g id="edge5" class="edge">
<title>A&#45;&gt;LEFT</title>
<path fill="none" stroke="#ff0000" stroke-width="1.1041" d="M65.9082,-187.8646C60.0293,-179.1445 51.85,-165.3656 48.5,-151.9655 41.7925,-125.1355 37.5118,-115.1192 48.5,-89.7401 55.9002,-72.6479 70.4885,-58.0682 84.1682,-47.2649"/>
<polygon fill="#ff0000" stroke="#ff0000" stroke-width="1.1041" points="86.5833,-49.8292 92.4958,-41.0376 82.3913,-44.2232 86.5833,-49.8292"/>
</g>
<!-- RIGHT -->
<g id="node9" class="node">
<title>RIGHT</title>
<ellipse fill="#add8e6" stroke="#000000" cx="174.5" cy="-120.8528" rx="31.2258" ry="31.2258"/>
<text text-anchor="middle" x="174.5" y="-118.6528" font-family="Times,serif" font-size="9.00" fill="#000000">RIGHT</text>
</g>
<!-- A&#45;&gt;RIGHT -->
<g id="edge6" class="edge">
<title>A&#45;&gt;RIGHT</title>
<path fill="none" stroke="#00ff00" stroke-width=".3409" d="M84.2007,-188.2344C98.0285,-177.9161 121.6361,-160.3 141.2453,-145.6676"/>
<polygon fill="#00ff00" stroke="#00ff00" stroke-width=".3409" points="143.4428,-148.3949 149.3642,-139.6092 139.2564,-142.7846 143.4428,-148.3949"/>
</g>
<!-- 9 -->
<g id="node11" class="node">
<title>9</title>
<ellipse fill="#ffffff" stroke="#000000" cx="72.5" cy="-120.8528" rx="14.7" ry="14.7"/>
<text text-anchor="middle" x="72.5" y="-118.6528" font-family="Times,serif" font-size="9.00" fill="#000000">9</text>
</g>
<!-- A&#45;&gt;9 -->
<g id="edge1" class="edge">
<title>A&#45;&gt;9</title>
<path fill="none" stroke="#ff0000" stroke-width=".7553" d="M72.5,-187.9355C72.5,-177.7059 72.5,-160.5872 72.5,-146.2038"/>
<polygon fill="#ff0000" stroke="#ff0000" stroke-width=".7553" points="76.0001,-145.8973 72.5,-135.8973 69.0001,-145.8974 76.0001,-145.8973"/>
</g>
<!-- B -->
<g id="node2" class="node">
<title>B</title>
<polygon fill="#d3d3d3" stroke="#000000" points="23,-205.9655 0,-205.9655 0,-187.9655 23,-187.9655 23,-205.9655"/>
<text text-anchor="middle" x="11.5" y="-194.7655" font-family="Times,serif" font-size="9.00" fill="#000000">B</text>
</g>
<!-- B&#45;&gt;LEFT -->
<g id="edge7" class="edge">
<title>B&#45;&gt;LEFT</title>
<path fill="none" stroke="#ff0000" stroke-width=".6223" d="M11.8891,-187.8868C13.107,-168.4165 18.105,-121.8143 38.5,-89.7401 49.7513,-72.0458 67.6672,-56.9855 83.3872,-46.0447"/>
<polygon fill="#ff0000" stroke="#ff0000" stroke-width=".6223" points="85.4668,-48.8647 91.8383,-40.3998 81.5786,-43.0438 85.4668,-48.8647"/>
</g>
<!-- B&#45;&gt;9 -->
<g id="edge2" class="edge">
<title>B&#45;&gt;9</title>
<path fill="none" stroke="#00ff00" stroke-width=".2913" d="M18.737,-187.9355C28.0568,-176.3067 44.5114,-155.7756 56.7698,-140.4801"/>
<polygon fill="#00ff00" stroke="#00ff00" stroke-width=".2913" points="59.5537,-142.6032 63.0764,-132.6111 54.0914,-138.2255 59.5537,-142.6032"/>
</g>
<!-- C -->
<g id="node3" class="node">
<title>C</title>
<polygon fill="#d3d3d3" stroke="#000000" points="194,-205.9655 171,-205.9655 171,-187.9655 194,-187.9655 194,-205.9655"/>
<text text-anchor="middle" x="182.5" y="-194.7655" font-family="Times,serif" font-size="9.00" fill="#000000">C</text>
</g>
<!-- C&#45;&gt;LEFT -->
<g id="edge8" class="edge">
<title>C&#45;&gt;LEFT</title>
<path fill="none" stroke="#ff0000" stroke-width=".5783" d="M191.5534,-187.9246C199.3415,-179.4569 210.0094,-166.0291 214.5,-151.9655 222.9122,-125.6202 227.8195,-113.9771 214.5,-89.7401 200.9433,-65.0715 173.1563,-48.7114 150.4626,-38.8803"/>
<polygon fill="#ff0000" stroke="#ff0000" stroke-width=".5783" points="151.686,-35.5994 141.1048,-35.0615 149.0411,-42.0805 151.686,-35.5994"/>
</g>
<!-- C&#45;&gt;RIGHT -->
<g id="edge9" class="edge">
<title>C&#45;&gt;RIGHT</title>
<path fill="none" stroke="#00ff00" stroke-width=".4254" d="M181.5509,-187.9355C180.8566,-181.3305 179.8605,-171.8534 178.8349,-162.0951"/>
<polygon fill="#00ff00" stroke="#00ff00" stroke-width=".4254" points="182.2929,-161.5119 177.7667,-151.9326 175.3313,-162.2437 182.2929,-161.5119"/>
</g>
<!-- D -->
<g id="node4" class="node">
<title>D</title>
<polygon fill="#d3d3d3" stroke="#000000" points="361,-205.9655 338,-205.9655 338,-187.9655 361,-187.9655 361,-205.9655"/>
<text text-anchor="middle" x="349.5" y="-194.7655" font-family="Times,serif" font-size="9.00" fill="#000000">D</text>
</g>
<!-- E -->
<g id="node5" class="node">
<title>E</title>
<polygon fill="#d3d3d3" stroke="#000000" points="319.5,-205.9655 297.5,-205.9655 297.5,-187.9655 319.5,-187.9655 319.5,-205.9655"/>
<text text-anchor="middle" x="308.5" y="-194.7655" font-family="Times,serif" font-size="9.00" fill="#000000">E</text>
</g>
<!-- E&#45;&gt;RIGHT -->
<g id="edge16" class="edge">
<title>E&#45;&gt;RIGHT</title>
<path fill="none" stroke="#ff0000" stroke-width=".1359" d="M297.0752,-190.4762C278.1718,-179.7389 239.6108,-157.8361 210.7597,-141.4485"/>
<polygon fill="#ff0000" stroke="#ff0000" stroke-width=".1359" points="212.1947,-138.2384 201.7708,-136.3428 208.7374,-144.3251 212.1947,-138.2384"/>
</g>
<!-- 91 -->
<g id="node10" class="node">
<title>91</title>
<ellipse fill="#ffffff" stroke="#000000" cx="317.5" cy="-120.8528" rx="18.2703" ry="18.2703"/>
<text text-anchor="middle" x="317.5" y="-118.6528" font-family="Times,serif" font-size="9.00" fill="#000000">91</text>
</g>
<!-- E&#45;&gt;91 -->
<g id="edge14" class="edge">
<title>E&#45;&gt;91</title>
<path fill="none" stroke="#00ff00" stroke-width=".3411" d="M309.5678,-187.9355C310.6957,-178.3962 312.5321,-162.8663 314.154,-149.1502"/>
<polygon fill="#00ff00" stroke="#00ff00" stroke-width=".3411" points="317.6385,-149.4861 315.3371,-139.1442 310.687,-148.664 317.6385,-149.4861"/>
</g>
<!-- F -->
<g id="node6" class="node">
<title>F</title>
<polygon fill="#d3d3d3" stroke="#000000" points="126.5,-205.9655 104.5,-205.9655 104.5,-187.9655 126.5,-187.9655 126.5,-205.9655"/>
<text text-anchor="middle" x="115.5" y="-194.7655" font-family="Times,serif" font-size="9.00" fill="#000000">F</text>
</g>
<!-- F&#45;&gt;LEFT -->
<g id="edge10" class="edge">
<title>F&#45;&gt;LEFT</title>
<path fill="none" stroke="#00ff00" stroke-width=".3132" d="M115.5,-187.8204C115.5,-164.8897 115.5,-103.9253 115.5,-63.9568"/>
<polygon fill="#00ff00" stroke="#00ff00" stroke-width=".3132" points="119.0001,-63.7869 115.5,-53.787 112.0001,-63.787 119.0001,-63.7869"/>
</g>
<!-- F&#45;&gt;RIGHT -->
<g id="edge11" class="edge">
<title>F&#45;&gt;RIGHT</title>
<path fill="none" stroke="#00ff00" stroke-width=".6037" d="M122.4998,-187.9355C129.1102,-179.4077 139.4317,-166.0925 149.1423,-153.5653"/>
<polygon fill="#00ff00" stroke="#00ff00" stroke-width=".6037" points="152.0299,-155.5531 155.3902,-145.5053 146.4974,-151.2645 152.0299,-155.5531"/>
</g>
<!-- F&#45;&gt;9 -->
<g id="edge3" class="edge">
<title>F&#45;&gt;9</title>
<path fill="none" stroke="#00ff00" stroke-width=".1458" d="M110.3985,-187.9355C104.1938,-176.9528 93.5029,-158.0293 85.0547,-143.0754"/>
<polygon fill="#00ff00" stroke="#00ff00" stroke-width=".1458" points="87.8627,-140.9302 79.8965,-133.9452 81.7681,-144.3734 87.8627,-140.9302"/>
</g>
<!-- G -->
<g id="node7" class="node">
<title>G</title>
<polygon fill="#d3d3d3" stroke="#000000" points="263,-205.9655 240,-205.9655 240,-187.9655 263,-187.9655 263,-205.9655"/>
<text text-anchor="middle" x="251.5" y="-194.7655" font-family="Times,serif" font-size="9.00" fill="#000000">G</text>
</g>
<!-- G&#45;&gt;LEFT -->
<g id="edge12" class="edge">
<title>G&#45;&gt;LEFT</title>
<path fill="none" stroke="#ff0000" stroke-width=".2256" d="M252.4835,-187.9199C254.1474,-168.1096 255.4412,-120.2291 233.5,-89.7401 213.7827,-62.3414 178.3895,-45.7833 151.4924,-36.5909"/>
<polygon fill="#ff0000" stroke="#ff0000" stroke-width=".2256" points="152.2417,-33.1553 141.6502,-33.4212 150.0958,-39.8183 152.2417,-33.1553"/>
</g>
<!-- G&#45;&gt;RIGHT -->
<g id="edge13" class="edge">
<title>G&#45;&gt;RIGHT</title>
<path fill="none" stroke="#00ff00" stroke-width=".3529" d="M242.3647,-187.9355C232.9532,-178.6325 217.7778,-163.6319 204.1616,-150.1726"/>
<polygon fill="#00ff00" stroke="#00ff00" stroke-width=".3529" points="206.3764,-147.4405 196.8039,-142.8997 201.4554,-152.4189 206.3764,-147.4405"/>
</g>
<!-- 91&#45;&gt;LEFT -->
<g id="edge15" class="edge">
<title>91&#45;&gt;LEFT</title>
<path fill="none" stroke="#00ff00" stroke-width=".1126" d="M305.4829,-106.79C299.8825,-100.9044 292.84,-94.3704 285.5,-89.7401 243.1093,-62.9987 187.6599,-45.1958 151.8111,-35.5604"/>
<polygon fill="#00ff00" stroke="#00ff00" stroke-width=".1126" points="152.3592,-32.0863 141.7993,-32.9451 150.59,-38.859 152.3592,-32.0863"/>
</g>
<!-- 9&#45;&gt;LEFT -->
<g id="edge4" class="edge">
<title>9&#45;&gt;LEFT</title>
<path fill="none" stroke="#00ff00" stroke-width=".3058" d="M78.8448,-106.9853C84.4301,-94.7779 92.7916,-76.5025 100.1189,-60.4878"/>
<polygon fill="#00ff00" stroke="#00ff00" stroke-width=".3058" points="103.3068,-61.9323 104.2847,-51.3827 96.9415,-59.0199 103.3068,-61.9323"/>
</g>
</g>
</svg>
