<?xml version="1.0" encoding="UTF-8" standalone="no"?>
<!DOCTYPE svg PUBLIC "-//W3C//DTD SVG 1.1//EN"
 "http://www.w3.org/Graphics/SVG/1.1/DTD/svg11.dtd">
<!-- Generated by graphviz version 2.40.1 (20161225.0304)
 -->
<!-- Title: %3 Pages: 1 -->
<svg width="345pt" height="216pt"
 viewBox="0.00 0.00 345.13 215.76" xmlns="http://www.w3.org/2000/svg" xmlns:xlink="http://www.w3.org/1999/xlink">
<g id="graph0" class="graph" transform="scale(1 1) rotate(0) translate(4 211.7645)">
<title>%3</title>
<polygon fill="#ffffff" stroke="transparent" points="-4,4 -4,-211.7645 341.1349,-211.7645 341.1349,4 -4,4"/>
<!-- A -->
<g id="node1" class="node">
<title>A</title>
<polygon fill="#d3d3d3" stroke="#000000" points="160,-125.6102 137,-125.6102 137,-107.6102 160,-107.6102 160,-125.6102"/>
<text text-anchor="middle" x="148.5" y="-114.4102" font-family="Times,serif" font-size="9.00" fill="#000000">A</text>
</g>
<!-- RIGHT -->
<g id="node9" class="node">
<title>RIGHT</title>
<ellipse fill="#add8e6" stroke="#000000" cx="148.5" cy="-31.1127" rx="31.2258" ry="31.2258"/>
<text text-anchor="middle" x="148.5" y="-28.9127" font-family="Times,serif" font-size="9.00" fill="#000000">RIGHT</text>
</g>
<!-- A&#45;&gt;RIGHT -->
<g id="edge1" class="edge">
<title>A&#45;&gt;RIGHT</title>
<path fill="none" stroke="#ff0000" stroke-width=".3884" d="M148.5,-107.4604C148.5,-99.0306 148.5,-85.8918 148.5,-72.875"/>
<polygon fill="#ff0000" stroke="#ff0000" stroke-width=".3884" points="152.0001,-72.5542 148.5,-62.5542 145.0001,-72.5543 152.0001,-72.5542"/>
</g>
<!-- B -->
<g id="node2" class="node">
<title>B</title>
<polygon fill="#d3d3d3" stroke="#000000" points="200,-198.3797 177,-198.3797 177,-180.3797 200,-180.3797 200,-198.3797"/>
<text text-anchor="middle" x="188.5" y="-187.1797" font-family="Times,serif" font-size="9.00" fill="#000000">B</text>
</g>
<!-- LEFT -->
<g id="node8" class="node">
<title>LEFT</title>
<ellipse fill="#add8e6" stroke="#000000" cx="287.5" cy="-31.1127" rx="26.7407" ry="26.7407"/>
<text text-anchor="middle" x="287.5" y="-28.9127" font-family="Times,serif" font-size="9.00" fill="#000000">LEFT</text>
</g>
<!-- B&#45;&gt;LEFT -->
<g id="edge2" class="edge">
<title>B&#45;&gt;LEFT</title>
<path fill="none" stroke="#ff0000" stroke-width=".3912" d="M197.2548,-180.2121C200.7977,-176.9258 205.0903,-173.4343 209.5,-170.9949 258.2237,-144.0424 296.2619,-179.6679 329.5,-134.9949 346.6957,-111.8833 329.9447,-80.7504 312.766,-58.6091"/>
<polygon fill="#ff0000" stroke="#ff0000" stroke-width=".3912" points="315.2645,-56.1349 306.231,-50.599 309.8405,-60.56 315.2645,-56.1349"/>
</g>
<!-- B&#45;&gt;RIGHT -->
<g id="edge3" class="edge">
<title>B&#45;&gt;RIGHT</title>
<path fill="none" stroke="#ff0000" stroke-width=".2561" d="M186.9037,-180.2549C183.9513,-163.7646 177.229,-127.9515 169.5,-98.2254 167.1311,-89.1144 164.284,-79.4031 161.4617,-70.2797"/>
<polygon fill="#ff0000" stroke="#ff0000" stroke-width=".2561" points="164.7763,-69.1528 158.4327,-60.6669 158.0999,-71.2565 164.7763,-69.1528"/>
</g>
<!-- 84 -->
<g id="node11" class="node">
<title>84</title>
<ellipse fill="#ffffff" stroke="#000000" cx="100.5" cy="-116.6102" rx="18.2703" ry="18.2703"/>
<text text-anchor="middle" x="100.5" y="-114.4102" font-family="Times,serif" font-size="9.00" fill="#000000">84</text>
</g>
<!-- B&#45;&gt;84 -->
<g id="edge11" class="edge">
<title>B&#45;&gt;84</title>
<path fill="none" stroke="#00ff00" stroke-width=".6495" d="M177.3547,-180.1634C163.6823,-168.8573 140.1766,-149.4198 122.7511,-135.0102"/>
<polygon fill="#00ff00" stroke="#00ff00" stroke-width=".6495" points="124.6918,-132.0734 114.7549,-128.3979 120.2309,-137.4679 124.6918,-132.0734"/>
</g>
<!-- C -->
<g id="node3" class="node">
<title>C</title>
<polygon fill="#d3d3d3" stroke="#000000" points="23,-125.6102 0,-125.6102 0,-107.6102 23,-107.6102 23,-125.6102"/>
<text text-anchor="middle" x="11.5" y="-114.4102" font-family="Times,serif" font-size="9.00" fill="#000000">C</text>
</g>
<!-- C&#45;&gt;RIGHT -->
<g id="edge4" class="edge">
<title>C&#45;&gt;RIGHT</title>
<path fill="none" stroke="#ff0000" stroke-width=".31" d="M20.4899,-107.5538C23.8107,-104.4267 27.6948,-101.0119 31.5,-98.2254 56.8521,-79.6604 87.7728,-62.1184 111.4587,-49.6277"/>
<polygon fill="#ff0000" stroke="#ff0000" stroke-width=".31" points="113.2263,-52.6534 120.4788,-44.9299 109.9928,-46.4449 113.2263,-52.6534"/>
</g>
<!-- D -->
<g id="node4" class="node">
<title>D</title>
<polygon fill="#d3d3d3" stroke="#000000" points="64,-125.6102 41,-125.6102 41,-107.6102 64,-107.6102 64,-125.6102"/>
<text text-anchor="middle" x="52.5" y="-114.4102" font-family="Times,serif" font-size="9.00" fill="#000000">D</text>
</g>
<!-- D&#45;&gt;RIGHT -->
<g id="edge5" class="edge">
<title>D&#45;&gt;RIGHT</title>
<path fill="none" stroke="#ff0000" stroke-width=".3175" d="M62.7737,-107.4604C75.7825,-95.8748 98.7786,-75.3945 117.6802,-58.5608"/>
<polygon fill="#ff0000" stroke="#ff0000" stroke-width=".3175" points="120.0828,-61.1079 125.2228,-51.8433 115.4272,-55.8804 120.0828,-61.1079"/>
</g>
<!-- E -->
<g id="node5" class="node">
<title>E</title>
<polygon fill="#d3d3d3" stroke="#000000" points="278.5,-125.6102 256.5,-125.6102 256.5,-107.6102 278.5,-107.6102 278.5,-125.6102"/>
<text text-anchor="middle" x="267.5" y="-114.4102" font-family="Times,serif" font-size="9.00" fill="#000000">E</text>
</g>
<!-- E&#45;&gt;LEFT -->
<g id="edge6" class="edge">
<title>E&#45;&gt;LEFT</title>
<path fill="none" stroke="#00ff00" stroke-width=".3464" d="M269.6404,-107.4604C271.8838,-97.8702 275.5528,-82.1853 278.9836,-67.519"/>
<polygon fill="#00ff00" stroke="#00ff00" stroke-width=".3464" points="282.4305,-68.15 281.3003,-57.6156 275.6145,-66.5555 282.4305,-68.15"/>
</g>
<!-- E&#45;&gt;RIGHT -->
<g id="edge7" class="edge">
<title>E&#45;&gt;RIGHT</title>
<path fill="none" stroke="#ff0000" stroke-width=".8634" d="M257.9885,-107.3354C254.7502,-104.3233 251.0502,-101.0354 247.5,-98.2254 227.1683,-82.1327 203.1157,-65.7708 183.81,-53.2316"/>
<polygon fill="#ff0000" stroke="#ff0000" stroke-width=".8634" points="185.6067,-50.2257 175.3042,-47.754 181.8167,-56.111 185.6067,-50.2257"/>
</g>
<!-- F -->
<g id="node6" class="node">
<title>F</title>
<polygon fill="#d3d3d3" stroke="#000000" points="238.5,-125.6102 216.5,-125.6102 216.5,-107.6102 238.5,-107.6102 238.5,-125.6102"/>
<text text-anchor="middle" x="227.5" y="-114.4102" font-family="Times,serif" font-size="9.00" fill="#000000">F</text>
</g>
<!-- F&#45;&gt;LEFT -->
<g id="edge8" class="edge">
<title>F&#45;&gt;LEFT</title>
<path fill="none" stroke="#00ff00" stroke-width=".2921" d="M233.9211,-107.4604C241.5927,-96.5287 254.8216,-77.6781 266.2144,-61.4438"/>
<polygon fill="#00ff00" stroke="#00ff00" stroke-width=".2921" points="269.0861,-63.4446 271.9656,-53.2486 263.3563,-59.4235 269.0861,-63.4446"/>
</g>
<!-- F&#45;&gt;RIGHT -->
<g id="edge9" class="edge">
<title>F&#45;&gt;RIGHT</title>
<path fill="none" stroke="#ff0000" stroke-width=".5894" d="M219.0456,-107.4604C209.0572,-96.6505 191.9139,-78.0973 177.0284,-61.9875"/>
<polygon fill="#ff0000" stroke="#ff0000" stroke-width=".5894" points="179.3008,-59.2894 169.9437,-54.32 174.1595,-64.04 179.3008,-59.2894"/>
</g>
<!-- G -->
<g id="node7" class="node">
<title>G</title>
<polygon fill="#d3d3d3" stroke="#000000" points="320,-125.6102 297,-125.6102 297,-107.6102 320,-107.6102 320,-125.6102"/>
<text text-anchor="middle" x="308.5" y="-114.4102" font-family="Times,serif" font-size="9.00" fill="#000000">G</text>
</g>
<!-- G&#45;&gt;LEFT -->
<g id="edge10" class="edge">
<title>G&#45;&gt;LEFT</title>
<path fill="none" stroke="#00ff00" stroke-width=".3444" d="M306.2526,-107.4604C303.8799,-97.8002 299.9882,-81.956 296.3633,-67.198"/>
<polygon fill="#00ff00" stroke="#00ff00" stroke-width=".3444" points="299.7027,-66.1203 293.9184,-57.2439 292.9048,-67.7901 299.7027,-66.1203"/>
</g>
<!-- 50 -->
<g id="node10" class="node">
<title>50</title>
<ellipse fill="#ffffff" stroke="#000000" cx="236.5" cy="-189.3797" rx="18.2703" ry="18.2703"/>
<text text-anchor="middle" x="236.5" y="-187.1797" font-family="Times,serif" font-size="9.00" fill="#000000">50</text>
</g>
<!-- 84&#45;&gt;RIGHT -->
<g id="edge12" class="edge">
<title>84&#45;&gt;RIGHT</title>
<path fill="none" stroke="#ff0000" stroke-width=".3326" d="M109.5284,-100.5288C114.757,-91.2156 121.5641,-79.0909 128.0231,-67.5861"/>
<polygon fill="#ff0000" stroke="#ff0000" stroke-width=".3326" points="131.2481,-68.9911 133.0917,-58.5579 125.1443,-65.5643 131.2481,-68.9911"/>
</g>
</g>
</svg>
