<?xml version="1.0" encoding="UTF-8" standalone="no"?>
<!DOCTYPE svg PUBLIC "-//W3C//DTD SVG 1.1//EN"
 "http://www.w3.org/Graphics/SVG/1.1/DTD/svg11.dtd">
<!-- Generated by graphviz version 2.40.1 (20161225.0304)
 -->
<!-- Title: %3 Pages: 1 -->
<svg width="318pt" height="197pt"
 viewBox="0.00 0.00 317.85 196.99" xmlns="http://www.w3.org/2000/svg" xmlns:xlink="http://www.w3.org/1999/xlink">
<g id="graph0" class="graph" transform="scale(1 1) rotate(0) translate(4 192.9949)">
<title>%3</title>
<polygon fill="#ffffff" stroke="transparent" points="-4,4 -4,-192.9949 313.8506,-192.9949 313.8506,4 -4,4"/>
<!-- A -->
<g id="node1" class="node">
<title>A</title>
<polygon fill="#d3d3d3" stroke="#000000" points="160.9658,-125.6102 137.9658,-125.6102 137.9658,-107.6102 160.9658,-107.6102 160.9658,-125.6102"/>
<text text-anchor="middle" x="149.4658" y="-114.4102" font-family="Times,serif" font-size="9.00" fill="#000000">A</text>
</g>
<!-- LEFT -->
<g id="node8" class="node">
<title>LEFT</title>
<ellipse fill="#add8e6" stroke="#000000" cx="88.4658" cy="-31.1127" rx="26.7407" ry="26.7407"/>
<text text-anchor="middle" x="88.4658" y="-28.9127" font-family="Times,serif" font-size="9.00" fill="#000000">LEFT</text>
</g>
<!-- A&#45;&gt;LEFT -->
<g id="edge1" class="edge">
<title>A&#45;&gt;LEFT</title>
<path fill="none" stroke="#ff0000" stroke-width="1.4916" d="M142.9378,-107.4604C135.1383,-96.5287 121.6889,-77.6781 110.1062,-61.4438"/>
<polygon fill="#ff0000" stroke="#ff0000" stroke-width="1.4916" points="112.9164,-59.3562 104.2592,-53.2486 107.218,-63.4219 112.9164,-59.3562"/>
</g>
<!-- RIGHT -->
<g id="node9" class="node">
<title>RIGHT</title>
<ellipse fill="#add8e6" stroke="#000000" cx="220.4658" cy="-31.1127" rx="31.2258" ry="31.2258"/>
<text text-anchor="middle" x="220.4658" y="-28.9127" font-family="Times,serif" font-size="9.00" fill="#000000">RIGHT</text>
</g>
<!-- A&#45;&gt;RIGHT -->
<g id="edge2" class="edge">
<title>A&#45;&gt;RIGHT</title>
<path fill="none" stroke="#00ff00" stroke-width=".5172" d="M157.0641,-107.4604C165.7766,-96.9689 180.5463,-79.1834 193.6393,-63.417"/>
<polygon fill="#00ff00" stroke="#00ff00" stroke-width=".5172" points="196.5961,-65.3348 200.2922,-55.4056 191.2109,-60.8627 196.5961,-65.3348"/>
</g>
<!-- B -->
<g id="node2" class="node">
<title>B</title>
<polygon fill="#d3d3d3" stroke="#000000" points="103.9658,-188.9949 80.9658,-188.9949 80.9658,-170.9949 103.9658,-170.9949 103.9658,-188.9949"/>
<text text-anchor="middle" x="92.4658" y="-177.7949" font-family="Times,serif" font-size="9.00" fill="#000000">B</text>
</g>
<!-- B&#45;&gt;LEFT -->
<g id="edge9" class="edge">
<title>B&#45;&gt;LEFT</title>
<path fill="none" stroke="#00ff00" stroke-width=".1183" d="M80.8297,-177.9371C61.2153,-173.7718 22.0865,-162.3043 5.4658,-134.9949 -14.0869,-102.868 24.8623,-69.5595 55.7712,-49.5849"/>
<polygon fill="#00ff00" stroke="#00ff00" stroke-width=".1183" points="57.9854,-52.3293 64.6255,-44.0734 54.2862,-46.3866 57.9854,-52.3293"/>
</g>
<!-- 29 -->
<g id="node11" class="node">
<title>29</title>
<ellipse fill="#ffffff" stroke="#000000" cx="197.4658" cy="-116.6102" rx="18.2703" ry="18.2703"/>
<text text-anchor="middle" x="197.4658" y="-114.4102" font-family="Times,serif" font-size="9.00" fill="#000000">29</text>
</g>
<!-- B&#45;&gt;29 -->
<g id="edge6" class="edge">
<title>B&#45;&gt;29</title>
<path fill="none" stroke="#00ff00" stroke-width=".4393" d="M103.9913,-173.6991C119.3528,-165.2279 147.2937,-149.5402 170.4658,-134.9949 171.5466,-134.3166 172.6459,-133.6154 173.7522,-132.9008"/>
<polygon fill="#00ff00" stroke="#00ff00" stroke-width=".4393" points="175.7792,-135.7562 182.1766,-127.3108 171.909,-129.9234 175.7792,-135.7562"/>
</g>
<!-- C -->
<g id="node3" class="node">
<title>C</title>
<polygon fill="#d3d3d3" stroke="#000000" points="37.9658,-125.6102 14.9658,-125.6102 14.9658,-107.6102 37.9658,-107.6102 37.9658,-125.6102"/>
<text text-anchor="middle" x="26.4658" y="-114.4102" font-family="Times,serif" font-size="9.00" fill="#000000">C</text>
</g>
<!-- C&#45;&gt;LEFT -->
<g id="edge8" class="edge">
<title>C&#45;&gt;LEFT</title>
<path fill="none" stroke="#00ff00" stroke-width=".51" d="M33.1009,-107.4604C41.0815,-96.4553 54.8819,-77.4247 66.7075,-61.1173"/>
<polygon fill="#00ff00" stroke="#00ff00" stroke-width=".51" points="69.6331,-63.0449 72.6702,-52.8947 63.9662,-58.9355 69.6331,-63.0449"/>
</g>
<!-- D -->
<g id="node4" class="node">
<title>D</title>
<polygon fill="#d3d3d3" stroke="#000000" points="302.9658,-188.9949 279.9658,-188.9949 279.9658,-170.9949 302.9658,-170.9949 302.9658,-188.9949"/>
<text text-anchor="middle" x="291.4658" y="-177.7949" font-family="Times,serif" font-size="9.00" fill="#000000">D</text>
</g>
<!-- 77 -->
<g id="node10" class="node">
<title>77</title>
<ellipse fill="#ffffff" stroke="#000000" cx="291.4658" cy="-116.6102" rx="18.2703" ry="18.2703"/>
<text text-anchor="middle" x="291.4658" y="-114.4102" font-family="Times,serif" font-size="9.00" fill="#000000">77</text>
</g>
<!-- D&#45;&gt;77 -->
<g id="edge11" class="edge">
<title>D&#45;&gt;77</title>
<path fill="none" stroke="#00ff00" stroke-width=".2182" d="M291.4658,-170.9135C291.4658,-164.1485 291.4658,-154.5155 291.4658,-145.2364"/>
<polygon fill="#00ff00" stroke="#00ff00" stroke-width=".2182" points="294.9659,-145.0821 291.4658,-135.0821 287.9659,-145.0821 294.9659,-145.0821"/>
</g>
<!-- E -->
<g id="node5" class="node">
<title>E</title>
<polygon fill="#d3d3d3" stroke="#000000" points="255.4658,-125.6102 233.4658,-125.6102 233.4658,-107.6102 255.4658,-107.6102 255.4658,-125.6102"/>
<text text-anchor="middle" x="244.4658" y="-114.4102" font-family="Times,serif" font-size="9.00" fill="#000000">E</text>
</g>
<!-- E&#45;&gt;RIGHT -->
<g id="edge3" class="edge">
<title>E&#45;&gt;RIGHT</title>
<path fill="none" stroke="#00ff00" stroke-width=".462" d="M241.8974,-107.4604C239.4258,-98.6557 235.5122,-84.7138 231.7017,-71.1394"/>
<polygon fill="#00ff00" stroke="#00ff00" stroke-width=".462" points="235.0399,-70.0807 228.9675,-61.3988 228.3004,-71.9726 235.0399,-70.0807"/>
</g>
<!-- F -->
<g id="node6" class="node">
<title>F</title>
<polygon fill="#d3d3d3" stroke="#000000" points="78.4658,-125.6102 56.4658,-125.6102 56.4658,-107.6102 78.4658,-107.6102 78.4658,-125.6102"/>
<text text-anchor="middle" x="67.4658" y="-114.4102" font-family="Times,serif" font-size="9.00" fill="#000000">F</text>
</g>
<!-- F&#45;&gt;LEFT -->
<g id="edge4" class="edge">
<title>F&#45;&gt;LEFT</title>
<path fill="none" stroke="#ff0000" stroke-width=".1635" d="M69.7132,-107.4604C72.086,-97.8002 75.9776,-81.956 79.6025,-67.198"/>
<polygon fill="#ff0000" stroke="#ff0000" stroke-width=".1635" points="83.0611,-67.7901 82.0475,-57.2439 76.2631,-66.1203 83.0611,-67.7901"/>
</g>
<!-- G -->
<g id="node7" class="node">
<title>G</title>
<polygon fill="#d3d3d3" stroke="#000000" points="119.9658,-125.6102 96.9658,-125.6102 96.9658,-107.6102 119.9658,-107.6102 119.9658,-125.6102"/>
<text text-anchor="middle" x="108.4658" y="-114.4102" font-family="Times,serif" font-size="9.00" fill="#000000">G</text>
</g>
<!-- G&#45;&gt;LEFT -->
<g id="edge5" class="edge">
<title>G&#45;&gt;LEFT</title>
<path fill="none" stroke="#ff0000" stroke-width=".2553" d="M106.3255,-107.4604C104.0821,-97.8702 100.413,-82.1853 96.9822,-67.519"/>
<polygon fill="#ff0000" stroke="#ff0000" stroke-width=".2553" points="100.3514,-66.5555 94.6655,-57.6156 93.5354,-68.15 100.3514,-66.5555"/>
</g>
<!-- 77&#45;&gt;RIGHT -->
<g id="edge12" class="edge">
<title>77&#45;&gt;RIGHT</title>
<path fill="none" stroke="#ff0000" stroke-width=".6014" d="M279.4217,-102.1067C270.492,-91.3537 257.9785,-76.285 246.776,-62.7951"/>
<polygon fill="#ff0000" stroke="#ff0000" stroke-width=".6014" points="249.45,-60.5367 240.3687,-55.0795 244.0648,-65.0088 249.45,-60.5367"/>
</g>
<!-- 29&#45;&gt;LEFT -->
<g id="edge10" class="edge">
<title>29&#45;&gt;LEFT</title>
<path fill="none" stroke="#00ff00" stroke-width=".1622" d="M182.7656,-105.0796C166.1443,-92.0422 138.6637,-70.4869 117.6443,-53.9997"/>
<polygon fill="#00ff00" stroke="#00ff00" stroke-width=".1622" points="119.6843,-51.1516 109.6559,-47.7337 115.3641,-56.6594 119.6843,-51.1516"/>
</g>
<!-- 29&#45;&gt;RIGHT -->
<g id="edge7" class="edge">
<title>29&#45;&gt;RIGHT</title>
<path fill="none" stroke="#00ff00" stroke-width=".6309" d="M202.3436,-98.4784C204.4966,-90.4747 207.1195,-80.7246 209.6936,-71.1561"/>
<polygon fill="#00ff00" stroke="#00ff00" stroke-width=".6309" points="213.1187,-71.897 212.3367,-61.3311 206.359,-70.0785 213.1187,-71.897"/>
</g>
</g>
</svg>
