<?xml version="1.0" encoding="UTF-8" standalone="no"?>
<!DOCTYPE svg PUBLIC "-//W3C//DTD SVG 1.1//EN"
 "http://www.w3.org/Graphics/SVG/1.1/DTD/svg11.dtd">
<!-- Generated by graphviz version 2.40.1 (20161225.0304)
 -->
<!-- Title: %3 Pages: 1 -->
<svg width="298pt" height="197pt"
 viewBox="0.00 0.00 298.44 196.99" xmlns="http://www.w3.org/2000/svg" xmlns:xlink="http://www.w3.org/1999/xlink">
<g id="graph0" class="graph" transform="scale(1 1) rotate(0) translate(4 192.9949)">
<title>%3</title>
<polygon fill="#ffffff" stroke="transparent" points="-4,4 -4,-192.9949 294.4418,-192.9949 294.4418,4 -4,4"/>
<!-- A -->
<g id="node1" class="node">
<title>A</title>
<polygon fill="#d3d3d3" stroke="#000000" points="280.557,-188.9949 257.557,-188.9949 257.557,-170.9949 280.557,-170.9949 280.557,-188.9949"/>
<text text-anchor="middle" x="269.057" y="-177.7949" font-family="Times,serif" font-size="9.00" fill="#000000">A</text>
</g>
<!-- 10 -->
<g id="node10" class="node">
<title>10</title>
<ellipse fill="#ffffff" stroke="#000000" cx="142.057" cy="-116.6102" rx="18.2703" ry="18.2703"/>
<text text-anchor="middle" x="142.057" y="-114.4102" font-family="Times,serif" font-size="9.00" fill="#000000">10</text>
</g>
<!-- A&#45;&gt;10 -->
<g id="edge1" class="edge">
<title>A&#45;&gt;10</title>
<path fill="none" stroke="#ff0000" stroke-width=".3304" d="M257.3368,-174.1455C237.1227,-164.0567 195.2476,-143.1572 167.9212,-129.5188"/>
<polygon fill="#ff0000" stroke="#ff0000" stroke-width=".3304" points="169.4322,-126.3612 158.9216,-125.0272 166.3062,-132.6245 169.4322,-126.3612"/>
</g>
<!-- 69 -->
<g id="node11" class="node">
<title>69</title>
<ellipse fill="#ffffff" stroke="#000000" cx="272.057" cy="-116.6102" rx="18.2703" ry="18.2703"/>
<text text-anchor="middle" x="272.057" y="-114.4102" font-family="Times,serif" font-size="9.00" fill="#000000">69</text>
</g>
<!-- A&#45;&gt;69 -->
<g id="edge16" class="edge">
<title>A&#45;&gt;69</title>
<path fill="none" stroke="#00ff00" stroke-width=".3653" d="M269.4868,-170.9135C269.807,-164.1485 270.263,-154.5155 270.7021,-145.2364"/>
<polygon fill="#00ff00" stroke="#00ff00" stroke-width=".3653" points="274.206,-145.2364 271.1827,-135.0821 267.2138,-144.9054 274.206,-145.2364"/>
</g>
<!-- B -->
<g id="node2" class="node">
<title>B</title>
<polygon fill="#d3d3d3" stroke="#000000" points="28.557,-188.9949 5.557,-188.9949 5.557,-170.9949 28.557,-170.9949 28.557,-188.9949"/>
<text text-anchor="middle" x="17.057" y="-177.7949" font-family="Times,serif" font-size="9.00" fill="#000000">B</text>
</g>
<!-- LEFT -->
<g id="node8" class="node">
<title>LEFT</title>
<ellipse fill="#add8e6" stroke="#000000" cx="36.057" cy="-31.1127" rx="26.7407" ry="26.7407"/>
<text text-anchor="middle" x="36.057" y="-28.9127" font-family="Times,serif" font-size="9.00" fill="#000000">LEFT</text>
</g>
<!-- B&#45;&gt;LEFT -->
<g id="edge9" class="edge">
<title>B&#45;&gt;LEFT</title>
<path fill="none" stroke="#ff0000" stroke-width=".6495" d="M12.9069,-170.8539C6.5647,-155.6703 -4.1797,-124.3362 2.057,-98.2254 4.9672,-86.0414 10.4688,-73.5672 16.2117,-62.7302"/>
<polygon fill="#ff0000" stroke="#ff0000" stroke-width=".6495" points="19.4469,-64.1151 21.2615,-53.6768 13.3336,-60.7051 19.4469,-64.1151"/>
</g>
<!-- B&#45;&gt;10 -->
<g id="edge2" class="edge">
<title>B&#45;&gt;10</title>
<path fill="none" stroke="#00ff00" stroke-width=".1087" d="M28.5927,-174.1455C48.4016,-164.1008 89.3445,-143.3395 116.247,-129.6979"/>
<polygon fill="#00ff00" stroke="#00ff00" stroke-width=".1087" points="118.122,-132.6714 125.458,-125.0272 114.9562,-126.4282 118.122,-132.6714"/>
</g>
<!-- C -->
<g id="node3" class="node">
<title>C</title>
<polygon fill="#d3d3d3" stroke="#000000" points="195.557,-188.9949 172.557,-188.9949 172.557,-170.9949 195.557,-170.9949 195.557,-188.9949"/>
<text text-anchor="middle" x="184.057" y="-177.7949" font-family="Times,serif" font-size="9.00" fill="#000000">C</text>
</g>
<!-- RIGHT -->
<g id="node9" class="node">
<title>RIGHT</title>
<ellipse fill="#add8e6" stroke="#000000" cx="165.057" cy="-31.1127" rx="31.2258" ry="31.2258"/>
<text text-anchor="middle" x="165.057" y="-28.9127" font-family="Times,serif" font-size="9.00" fill="#000000">RIGHT</text>
</g>
<!-- C&#45;&gt;RIGHT -->
<g id="edge10" class="edge">
<title>C&#45;&gt;RIGHT</title>
<path fill="none" stroke="#00ff00" stroke-width=".1582" d="M182.8685,-170.6817C180.4094,-151.4126 174.6327,-106.1472 170.3206,-72.3574"/>
<polygon fill="#00ff00" stroke="#00ff00" stroke-width=".1582" points="173.7725,-71.7572 169.0346,-62.2808 166.8288,-72.6434 173.7725,-71.7572"/>
</g>
<!-- C&#45;&gt;10 -->
<g id="edge3" class="edge">
<title>C&#45;&gt;10</title>
<path fill="none" stroke="#ff0000" stroke-width=".3648" d="M178.0394,-170.9135C172.7941,-162.9975 164.9467,-151.1544 157.9178,-140.5466"/>
<polygon fill="#ff0000" stroke="#ff0000" stroke-width=".3648" points="160.7223,-138.4426 152.281,-132.0398 154.8871,-142.3092 160.7223,-138.4426"/>
</g>
<!-- D -->
<g id="node4" class="node">
<title>D</title>
<polygon fill="#d3d3d3" stroke="#000000" points="67.557,-125.6102 44.557,-125.6102 44.557,-107.6102 67.557,-107.6102 67.557,-125.6102"/>
<text text-anchor="middle" x="56.057" y="-114.4102" font-family="Times,serif" font-size="9.00" fill="#000000">D</text>
</g>
<!-- D&#45;&gt;LEFT -->
<g id="edge11" class="edge">
<title>D&#45;&gt;LEFT</title>
<path fill="none" stroke="#ff0000" stroke-width=".2964" d="M53.9167,-107.4604C51.6733,-97.8702 48.0042,-82.1853 44.5734,-67.519"/>
<polygon fill="#ff0000" stroke="#ff0000" stroke-width=".2964" points="47.9426,-66.5555 42.2567,-57.6156 41.1266,-68.15 47.9426,-66.5555"/>
</g>
<!-- D&#45;&gt;RIGHT -->
<g id="edge12" class="edge">
<title>D&#45;&gt;RIGHT</title>
<path fill="none" stroke="#00ff00" stroke-width=".1883" d="M67.7219,-107.4604C83.0133,-95.4662 110.4581,-73.939 132.3161,-56.794"/>
<polygon fill="#00ff00" stroke="#00ff00" stroke-width=".1883" points="134.6746,-59.3923 140.3828,-50.4667 130.3544,-53.8845 134.6746,-59.3923"/>
</g>
<!-- E -->
<g id="node5" class="node">
<title>E</title>
<polygon fill="#d3d3d3" stroke="#000000" points="107.057,-188.9949 85.057,-188.9949 85.057,-170.9949 107.057,-170.9949 107.057,-188.9949"/>
<text text-anchor="middle" x="96.057" y="-177.7949" font-family="Times,serif" font-size="9.00" fill="#000000">E</text>
</g>
<!-- E&#45;&gt;LEFT -->
<g id="edge13" class="edge">
<title>E&#45;&gt;LEFT</title>
<path fill="none" stroke="#ff0000" stroke-width="1.1853" d="M84.9677,-175.6152C70.4142,-169.1866 45.4972,-155.6704 35.057,-134.9949 24.625,-114.3356 24.9023,-88.2866 27.774,-67.4418"/>
<polygon fill="#ff0000" stroke="#ff0000" stroke-width="1.1853" points="31.2607,-67.8058 29.4125,-57.3734 24.3516,-66.6813 31.2607,-67.8058"/>
</g>
<!-- E&#45;&gt;RIGHT -->
<g id="edge14" class="edge">
<title>E&#45;&gt;RIGHT</title>
<path fill="none" stroke="#ff0000" stroke-width=".4224" d="M96.9834,-170.5131C98.7891,-154.8395 103.6504,-122.8169 115.057,-98.2254 120.9033,-85.6213 129.3585,-73.0693 137.6577,-62.289"/>
<polygon fill="#ff0000" stroke="#ff0000" stroke-width=".4224" points="140.434,-64.4212 143.928,-54.419 134.9592,-60.0591 140.434,-64.4212"/>
</g>
<!-- E&#45;&gt;10 -->
<g id="edge4" class="edge">
<title>E&#45;&gt;10</title>
<path fill="none" stroke="#ff0000" stroke-width=".2152" d="M102.6477,-170.9135C108.5284,-162.8103 117.3954,-150.5921 125.2303,-139.7962"/>
<polygon fill="#ff0000" stroke="#ff0000" stroke-width=".2152" points="128.1748,-141.6978 131.2157,-131.5487 122.5095,-137.5863 128.1748,-141.6978"/>
</g>
<!-- F -->
<g id="node6" class="node">
<title>F</title>
<polygon fill="#d3d3d3" stroke="#000000" points="153.057,-188.9949 131.057,-188.9949 131.057,-170.9949 153.057,-170.9949 153.057,-188.9949"/>
<text text-anchor="middle" x="142.057" y="-177.7949" font-family="Times,serif" font-size="9.00" fill="#000000">F</text>
</g>
<!-- F&#45;&gt;10 -->
<g id="edge5" class="edge">
<title>F&#45;&gt;10</title>
<path fill="none" stroke="#00ff00" stroke-width=".1461" d="M142.057,-170.9135C142.057,-164.1485 142.057,-154.5155 142.057,-145.2364"/>
<polygon fill="#00ff00" stroke="#00ff00" stroke-width=".1461" points="145.5571,-145.0821 142.057,-135.0821 138.5571,-145.0821 145.5571,-145.0821"/>
</g>
<!-- G -->
<g id="node7" class="node">
<title>G</title>
<polygon fill="#d3d3d3" stroke="#000000" points="236.557,-188.9949 213.557,-188.9949 213.557,-170.9949 236.557,-170.9949 236.557,-188.9949"/>
<text text-anchor="middle" x="225.057" y="-177.7949" font-family="Times,serif" font-size="9.00" fill="#000000">G</text>
</g>
<!-- G&#45;&gt;RIGHT -->
<g id="edge15" class="edge">
<title>G&#45;&gt;RIGHT</title>
<path fill="none" stroke="#00ff00" stroke-width=".5509" d="M221.3038,-170.6817C213.3413,-150.9239 194.3642,-103.8347 180.652,-69.8095"/>
<polygon fill="#00ff00" stroke="#00ff00" stroke-width=".5509" points="183.7451,-68.121 176.7608,-60.1541 177.2525,-70.7376 183.7451,-68.121"/>
</g>
<!-- G&#45;&gt;10 -->
<g id="edge6" class="edge">
<title>G&#45;&gt;10</title>
<path fill="none" stroke="#00ff00" stroke-width=".7616" d="M213.5162,-171.1816C201.0386,-161.6527 180.8239,-146.2153 165.0734,-134.1871"/>
<polygon fill="#00ff00" stroke="#00ff00" stroke-width=".7616" points="166.9317,-131.2024 156.8599,-127.9147 162.6832,-136.7657 166.9317,-131.2024"/>
</g>
<!-- 10&#45;&gt;LEFT -->
<g id="edge7" class="edge">
<title>10&#45;&gt;LEFT</title>
<path fill="none" stroke="#00ff00" stroke-width=".3193" d="M127.3182,-104.7221C111.3188,-91.8174 85.359,-70.8787 65.2093,-54.6264"/>
<polygon fill="#00ff00" stroke="#00ff00" stroke-width=".3193" points="67.234,-51.7628 57.2529,-48.2089 62.8392,-57.2114 67.234,-51.7628"/>
</g>
<!-- 10&#45;&gt;RIGHT -->
<g id="edge8" class="edge">
<title>10&#45;&gt;RIGHT</title>
<path fill="none" stroke="#ff0000" stroke-width=".1915" d="M146.9347,-98.4784C149.0878,-90.4747 151.7107,-80.7246 154.2848,-71.1561"/>
<polygon fill="#ff0000" stroke="#ff0000" stroke-width=".1915" points="157.7098,-71.897 156.9279,-61.3311 150.9502,-70.0785 157.7098,-71.897"/>
</g>
<!-- 69&#45;&gt;RIGHT -->
<g id="edge17" class="edge">
<title>69&#45;&gt;RIGHT</title>
<path fill="none" stroke="#00ff00" stroke-width=".3812" d="M257.6265,-105.0796C242.2849,-92.821 217.5186,-73.0317 197.462,-57.0056"/>
<polygon fill="#00ff00" stroke="#00ff00" stroke-width=".3812" points="199.4744,-54.1335 189.4771,-50.6254 195.1047,-59.6021 199.4744,-54.1335"/>
</g>
</g>
</svg>
