<?xml version="1.0" encoding="UTF-8" standalone="no"?>
<!DOCTYPE svg PUBLIC "-//W3C//DTD SVG 1.1//EN"
 "http://www.w3.org/Graphics/SVG/1.1/DTD/svg11.dtd">
<!-- Generated by graphviz version 2.40.1 (20161225.0304)
 -->
<!-- Title: %3 Pages: 1 -->
<svg width="277pt" height="124pt"
 viewBox="0.00 0.00 277.00 124.23" xmlns="http://www.w3.org/2000/svg" xmlns:xlink="http://www.w3.org/1999/xlink">
<g id="graph0" class="graph" transform="scale(1 1) rotate(0) translate(4 120.2254)">
<title>%3</title>
<polygon fill="#ffffff" stroke="transparent" points="-4,4 -4,-120.2254 273,-120.2254 273,4 -4,4"/>
<!-- A -->
<g id="node1" class="node">
<title>A</title>
<polygon fill="#d3d3d3" stroke="#000000" points="105,-116.2254 82,-116.2254 82,-98.2254 105,-98.2254 105,-116.2254"/>
<text text-anchor="middle" x="93.5" y="-105.0254" font-family="Times,serif" font-size="9.00" fill="#000000">A</text>
</g>
<!-- LEFT -->
<g id="node8" class="node">
<title>LEFT</title>
<ellipse fill="#add8e6" stroke="#000000" cx="52.5" cy="-31.1127" rx="26.7407" ry="26.7407"/>
<text text-anchor="middle" x="52.5" y="-28.9127" font-family="Times,serif" font-size="9.00" fill="#000000">LEFT</text>
</g>
<!-- A&#45;&gt;LEFT -->
<g id="edge1" class="edge">
<title>A&#45;&gt;LEFT</title>
<path fill="none" stroke="#ff0000" stroke-width=".6384" d="M88.6358,-98.1954C84.0271,-89.6399 76.8229,-76.2658 70.0557,-63.7032"/>
<polygon fill="#ff0000" stroke="#ff0000" stroke-width=".6384" points="73.0727,-61.9237 65.2488,-54.7796 66.9099,-65.2435 73.0727,-61.9237"/>
</g>
<!-- RIGHT -->
<g id="node9" class="node">
<title>RIGHT</title>
<ellipse fill="#add8e6" stroke="#000000" cx="131.5" cy="-31.1127" rx="31.2258" ry="31.2258"/>
<text text-anchor="middle" x="131.5" y="-28.9127" font-family="Times,serif" font-size="9.00" fill="#000000">RIGHT</text>
</g>
<!-- A&#45;&gt;RIGHT -->
<g id="edge2" class="edge">
<title>A&#45;&gt;RIGHT</title>
<path fill="none" stroke="#00ff00" stroke-width=".2523" d="M98.0083,-98.1954C101.756,-90.689 107.3556,-79.4732 112.9086,-68.3507"/>
<polygon fill="#00ff00" stroke="#00ff00" stroke-width=".2523" points="116.185,-69.6235 117.5205,-59.1131 109.9222,-66.4966 116.185,-69.6235"/>
</g>
<!-- B -->
<g id="node2" class="node">
<title>B</title>
<polygon fill="#d3d3d3" stroke="#000000" points="187,-116.2254 164,-116.2254 164,-98.2254 187,-98.2254 187,-116.2254"/>
<text text-anchor="middle" x="175.5" y="-105.0254" font-family="Times,serif" font-size="9.00" fill="#000000">B</text>
</g>
<!-- B&#45;&gt;RIGHT -->
<g id="edge3" class="edge">
<title>B&#45;&gt;RIGHT</title>
<path fill="none" stroke="#00ff00" stroke-width=".2032" d="M170.2798,-98.1954C165.7448,-90.3506 158.8678,-78.4544 152.1578,-66.8473"/>
<polygon fill="#00ff00" stroke="#00ff00" stroke-width=".2032" points="155.1358,-65.0053 147.1008,-58.0995 149.0755,-68.5087 155.1358,-65.0053"/>
</g>
<!-- C -->
<g id="node3" class="node">
<title>C</title>
<polygon fill="#d3d3d3" stroke="#000000" points="64,-116.2254 41,-116.2254 41,-98.2254 64,-98.2254 64,-116.2254"/>
<text text-anchor="middle" x="52.5" y="-105.0254" font-family="Times,serif" font-size="9.00" fill="#000000">C</text>
</g>
<!-- C&#45;&gt;LEFT -->
<g id="edge4" class="edge">
<title>C&#45;&gt;LEFT</title>
<path fill="none" stroke="#ff0000" stroke-width=".5839" d="M52.5,-98.1954C52.5,-90.6582 52.5,-79.3812 52.5,-68.2139"/>
<polygon fill="#ff0000" stroke="#ff0000" stroke-width=".5839" points="56.0001,-68.0995 52.5,-58.0995 49.0001,-68.0995 56.0001,-68.0995"/>
</g>
<!-- C&#45;&gt;RIGHT -->
<g id="edge5" class="edge">
<title>C&#45;&gt;RIGHT</title>
<path fill="none" stroke="#00ff00" stroke-width=".2322" d="M61.8726,-98.1954C71.5975,-88.8259 87.3208,-73.6772 101.3671,-60.1443"/>
<polygon fill="#00ff00" stroke="#00ff00" stroke-width=".2322" points="104.1763,-62.298 108.9493,-52.8392 99.3195,-57.2569 104.1763,-62.298"/>
</g>
<!-- D -->
<g id="node4" class="node">
<title>D</title>
<polygon fill="#d3d3d3" stroke="#000000" points="23,-116.2254 0,-116.2254 0,-98.2254 23,-98.2254 23,-116.2254"/>
<text text-anchor="middle" x="11.5" y="-105.0254" font-family="Times,serif" font-size="9.00" fill="#000000">D</text>
</g>
<!-- D&#45;&gt;LEFT -->
<g id="edge6" class="edge">
<title>D&#45;&gt;LEFT</title>
<path fill="none" stroke="#ff0000" stroke-width=".2865" d="M16.3642,-98.1954C20.9729,-89.6399 28.1771,-76.2658 34.9443,-63.7032"/>
<polygon fill="#ff0000" stroke="#ff0000" stroke-width=".2865" points="38.0901,-65.2435 39.7512,-54.7796 31.9273,-61.9237 38.0901,-65.2435"/>
</g>
<!-- E -->
<g id="node5" class="node">
<title>E</title>
<polygon fill="#d3d3d3" stroke="#000000" points="227.5,-116.2254 205.5,-116.2254 205.5,-98.2254 227.5,-98.2254 227.5,-116.2254"/>
<text text-anchor="middle" x="216.5" y="-105.0254" font-family="Times,serif" font-size="9.00" fill="#000000">E</text>
</g>
<!-- F -->
<g id="node6" class="node">
<title>F</title>
<polygon fill="#d3d3d3" stroke="#000000" points="145.5,-116.2254 123.5,-116.2254 123.5,-98.2254 145.5,-98.2254 145.5,-116.2254"/>
<text text-anchor="middle" x="134.5" y="-105.0254" font-family="Times,serif" font-size="9.00" fill="#000000">F</text>
</g>
<!-- F&#45;&gt;RIGHT -->
<g id="edge7" class="edge">
<title>F&#45;&gt;RIGHT</title>
<path fill="none" stroke="#00ff00" stroke-width=".2941" d="M134.1441,-98.1954C133.886,-91.6488 133.5168,-82.2808 133.1358,-72.614"/>
<polygon fill="#00ff00" stroke="#00ff00" stroke-width=".2941" points="136.6298,-72.3919 132.7386,-62.5376 129.6353,-72.6677 136.6298,-72.3919"/>
</g>
<!-- G -->
<g id="node7" class="node">
<title>G</title>
<polygon fill="#d3d3d3" stroke="#000000" points="269,-116.2254 246,-116.2254 246,-98.2254 269,-98.2254 269,-116.2254"/>
<text text-anchor="middle" x="257.5" y="-105.0254" font-family="Times,serif" font-size="9.00" fill="#000000">G</text>
</g>
</g>
</svg>
