<?xml version="1.0" encoding="UTF-8" standalone="no"?>
<!DOCTYPE svg PUBLIC "-//W3C//DTD SVG 1.1//EN"
 "http://www.w3.org/Graphics/SVG/1.1/DTD/svg11.dtd">
<!-- Generated by graphviz version 2.40.1 (20161225.0304)
 -->
<!-- Title: %3 Pages: 1 -->
<svg width="549pt" height="263pt"
 viewBox="0.00 0.00 548.81 262.69" xmlns="http://www.w3.org/2000/svg" xmlns:xlink="http://www.w3.org/1999/xlink">
<g id="graph0" class="graph" transform="scale(1 1) rotate(0) translate(4 258.6934)">
<title>%3</title>
<polygon fill="#ffffff" stroke="transparent" points="-4,4 -4,-258.6934 544.8148,-258.6934 544.8148,4 -4,4"/>
<!-- A -->
<g id="node1" class="node">
<title>A</title>
<polygon fill="#d3d3d3" stroke="#000000" points="263.5,-254.6934 240.5,-254.6934 240.5,-236.6934 263.5,-236.6934 263.5,-254.6934"/>
<text text-anchor="middle" x="252" y="-243.4934" font-family="Times,serif" font-size="9.00" fill="#000000">A</text>
</g>
<!-- LEFT -->
<g id="node8" class="node">
<title>LEFT</title>
<ellipse fill="#add8e6" stroke="#000000" cx="145" cy="-31.1127" rx="26.7407" ry="26.7407"/>
<text text-anchor="middle" x="145" y="-28.9127" font-family="Times,serif" font-size="9.00" fill="#000000">LEFT</text>
</g>
<!-- A&#45;&gt;LEFT -->
<g id="edge9" class="edge">
<title>A&#45;&gt;LEFT</title>
<path fill="none" stroke="#00ff00" stroke-width=".1371" d="M248.8146,-236.4345C240.5201,-212.7585 217.0119,-148.3439 190,-98.2254 183.2113,-85.6295 174.6885,-72.4166 166.8912,-61.0781"/>
<polygon fill="#00ff00" stroke="#00ff00" stroke-width=".1371" points="169.7105,-59.0023 161.1106,-52.8141 163.9744,-63.0145 169.7105,-59.0023"/>
</g>
<!-- RIGHT -->
<g id="node9" class="node">
<title>RIGHT</title>
<ellipse fill="#add8e6" stroke="#000000" cx="412" cy="-31.1127" rx="31.2258" ry="31.2258"/>
<text text-anchor="middle" x="412" y="-28.9127" font-family="Times,serif" font-size="9.00" fill="#000000">RIGHT</text>
</g>
<!-- A&#45;&gt;RIGHT -->
<g id="edge10" class="edge">
<title>A&#45;&gt;RIGHT</title>
<path fill="none" stroke="#00ff00" stroke-width=".4475" d="M263.7393,-244.616C313.3419,-239.9478 503.9814,-220.7955 521,-200.6934 550.4263,-165.9356 543.2105,-137.9835 521,-98.2254 506.2174,-71.7636 476.2454,-54.448 451.4659,-44.0442"/>
<polygon fill="#00ff00" stroke="#00ff00" stroke-width=".4475" points="452.5062,-40.6916 441.9201,-40.2612 449.9272,-47.1993 452.5062,-40.6916"/>
</g>
<!-- 6 -->
<g id="node10" class="node">
<title>6</title>
<ellipse fill="#ffffff" stroke="#000000" cx="169" cy="-185.8442" rx="14.7" ry="14.7"/>
<text text-anchor="middle" x="169" y="-183.6442" font-family="Times,serif" font-size="9.00" fill="#000000">6</text>
</g>
<!-- A&#45;&gt;6 -->
<g id="edge1" class="edge">
<title>A&#45;&gt;6</title>
<path fill="none" stroke="#00ff00" stroke-width=".1021" stroke-dasharray="1,5" d="M240.4592,-237.3717C227.305,-227.8865 205.5522,-212.201 189.4958,-200.6232"/>
<polygon fill="#00ff00" stroke="#00ff00" stroke-width=".1021" points="191.4108,-197.6891 181.2525,-194.6792 187.3166,-203.3669 191.4108,-197.6891"/>
</g>
<!-- B -->
<g id="node2" class="node">
<title>B</title>
<polygon fill="#d3d3d3" stroke="#000000" points="99.5,-254.6934 76.5,-254.6934 76.5,-236.6934 99.5,-236.6934 99.5,-254.6934"/>
<text text-anchor="middle" x="88" y="-243.4934" font-family="Times,serif" font-size="9.00" fill="#000000">B</text>
</g>
<!-- B&#45;&gt;LEFT -->
<g id="edge11" class="edge">
<title>B&#45;&gt;LEFT</title>
<path fill="none" stroke="#ff0000" stroke-width=".3099" d="M85.5479,-236.6542C79.5921,-212.9645 66.1828,-147.5063 85,-98.2254 91.4175,-81.4185 104.1946,-66.157 116.3148,-54.4491"/>
<polygon fill="#ff0000" stroke="#ff0000" stroke-width=".3099" points="118.7279,-56.9849 123.7137,-47.6365 113.9864,-51.8354 118.7279,-56.9849"/>
</g>
<!-- B&#45;&gt;RIGHT -->
<g id="edge12" class="edge">
<title>B&#45;&gt;RIGHT</title>
<path fill="none" stroke="#00ff00" stroke-width=".3104" d="M92.4009,-236.5408C100.5116,-220.6737 119.3618,-188.1195 145,-170.9949 196.9946,-136.2661 226.3505,-165.3752 281,-134.9949 301.8214,-123.4201 301.6743,-113.4462 320,-98.2254 338.4287,-82.9191 360.0233,-67.0667 377.6581,-54.6144"/>
<polygon fill="#00ff00" stroke="#00ff00" stroke-width=".3104" points="379.7856,-57.3974 385.9659,-48.7919 375.7681,-51.6651 379.7856,-57.3974"/>
</g>
<!-- B&#45;&gt;6 -->
<g id="edge2" class="edge">
<title>B&#45;&gt;6</title>
<path fill="none" stroke="#00ff00" stroke-width=".4074" d="M99.6053,-237.1185C112.3309,-227.7158 132.998,-212.4453 148.4742,-201.0103"/>
<polygon fill="#00ff00" stroke="#00ff00" stroke-width=".4074" points="150.9243,-203.5517 156.8872,-194.7941 146.7645,-197.9218 150.9243,-203.5517"/>
</g>
<!-- C -->
<g id="node3" class="node">
<title>C</title>
<polygon fill="#d3d3d3" stroke="#000000" points="272.5,-125.6102 249.5,-125.6102 249.5,-107.6102 272.5,-107.6102 272.5,-125.6102"/>
<text text-anchor="middle" x="261" y="-114.4102" font-family="Times,serif" font-size="9.00" fill="#000000">C</text>
</g>
<!-- C&#45;&gt;LEFT -->
<g id="edge13" class="edge">
<title>C&#45;&gt;LEFT</title>
<path fill="none" stroke="#ff0000" stroke-width=".2313" d="M249.4534,-108.0998C232.2293,-95.4048 199.2317,-71.084 174.9154,-53.1618"/>
<polygon fill="#ff0000" stroke="#ff0000" stroke-width=".2313" points="176.843,-50.2346 166.7166,-47.1189 172.6898,-55.8694 176.843,-50.2346"/>
</g>
<!-- C&#45;&gt;RIGHT -->
<g id="edge14" class="edge">
<title>C&#45;&gt;RIGHT</title>
<path fill="none" stroke="#00ff00" stroke-width=".2848" d="M272.7007,-107.8767C277.1032,-104.7138 282.2048,-101.1925 287,-98.2254 315.6026,-80.527 349.2576,-62.6141 374.4366,-49.7512"/>
<polygon fill="#00ff00" stroke="#00ff00" stroke-width=".2848" points="376.3095,-52.7258 383.6435,-45.0797 373.1421,-46.4834 376.3095,-52.7258"/>
</g>
<!-- D -->
<g id="node4" class="node">
<title>D</title>
<polygon fill="#d3d3d3" stroke="#000000" points="140.5,-254.6934 117.5,-254.6934 117.5,-236.6934 140.5,-236.6934 140.5,-254.6934"/>
<text text-anchor="middle" x="129" y="-243.4934" font-family="Times,serif" font-size="9.00" fill="#000000">D</text>
</g>
<!-- D&#45;&gt;LEFT -->
<g id="edge15" class="edge">
<title>D&#45;&gt;LEFT</title>
<path fill="none" stroke="#ff0000" stroke-width=".2395" d="M123.201,-236.5535C109.1179,-213.1565 75.514,-149.3429 93,-98.2254 98.1941,-83.0414 108.3756,-68.6337 118.3628,-57.0885"/>
<polygon fill="#ff0000" stroke="#ff0000" stroke-width=".2395" points="121.0509,-59.3346 125.1824,-49.5785 115.8686,-54.6288 121.0509,-59.3346"/>
</g>
<!-- D&#45;&gt;RIGHT -->
<g id="edge16" class="edge">
<title>D&#45;&gt;RIGHT</title>
<path fill="none" stroke="#ff0000" stroke-width=".3632" d="M140.5371,-240.7034C143.6076,-239.3879 146.9255,-237.9775 150,-236.6934 260.6873,-190.4659 327.4324,-230.5072 400,-134.9949 413.342,-117.4344 416.724,-93.1485 416.5942,-72.474"/>
<polygon fill="#ff0000" stroke="#ff0000" stroke-width=".3632" points="420.0882,-72.2328 416.2588,-62.3542 413.0921,-72.4647 420.0882,-72.2328"/>
</g>
<!-- D&#45;&gt;6 -->
<g id="edge3" class="edge">
<title>D&#45;&gt;6</title>
<path fill="none" stroke="#00ff00" stroke-width=".4742" d="M135.0751,-236.6036C140.3491,-228.7126 148.1876,-216.9843 155.0017,-206.7888"/>
<polygon fill="#00ff00" stroke="#00ff00" stroke-width=".4742" points="157.9892,-208.6176 160.636,-198.3587 152.1694,-204.7279 157.9892,-208.6176"/>
</g>
<!-- E -->
<g id="node5" class="node">
<title>E</title>
<polygon fill="#d3d3d3" stroke="#000000" points="181,-254.6934 159,-254.6934 159,-236.6934 181,-236.6934 181,-254.6934"/>
<text text-anchor="middle" x="170" y="-243.4934" font-family="Times,serif" font-size="9.00" fill="#000000">E</text>
</g>
<!-- E&#45;&gt;LEFT -->
<g id="edge17" class="edge">
<title>E&#45;&gt;LEFT</title>
<path fill="none" stroke="#ff0000" stroke-width=".8369" d="M163.137,-236.6366C157.0157,-227.9476 148.4972,-214.1897 145,-200.6934 133.4551,-156.1402 136.0101,-102.7635 139.7498,-67.9535"/>
<polygon fill="#ff0000" stroke="#ff0000" stroke-width=".8369" points="143.2546,-68.1144 140.9341,-57.7768 136.3015,-67.3052 143.2546,-68.1144"/>
</g>
<!-- E&#45;&gt;RIGHT -->
<g id="edge18" class="edge">
<title>E&#45;&gt;RIGHT</title>
<path fill="none" stroke="#00ff00" stroke-width=".3443" d="M181.2122,-239.9809C184.0234,-238.7361 187.0739,-237.5398 190,-236.6934 244.9752,-220.7927 407.4681,-243.8961 445,-200.6934 477.2778,-163.5387 454.6173,-104.3401 434.1865,-66.6232"/>
<polygon fill="#00ff00" stroke="#00ff00" stroke-width=".3443" points="437.0241,-64.5281 429.0751,-57.5235 430.921,-67.9563 437.0241,-64.5281"/>
</g>
<!-- E&#45;&gt;6 -->
<g id="edge4" class="edge">
<title>E&#45;&gt;6</title>
<path fill="none" stroke="#00ff00" stroke-width=".1254" d="M169.8481,-236.6036C169.735,-229.8346 169.5747,-220.2421 169.4239,-211.2155"/>
<polygon fill="#00ff00" stroke="#00ff00" stroke-width=".1254" points="172.9213,-211.0223 169.2546,-201.0822 165.9223,-211.1393 172.9213,-211.0223"/>
</g>
<!-- F -->
<g id="node6" class="node">
<title>F</title>
<polygon fill="#d3d3d3" stroke="#000000" points="22,-254.6934 0,-254.6934 0,-236.6934 22,-236.6934 22,-254.6934"/>
<text text-anchor="middle" x="11" y="-243.4934" font-family="Times,serif" font-size="9.00" fill="#000000">F</text>
</g>
<!-- F&#45;&gt;LEFT -->
<g id="edge19" class="edge">
<title>F&#45;&gt;LEFT</title>
<path fill="none" stroke="#00ff00" stroke-width=".3445" d="M13.4247,-236.3839C20.0646,-212.0416 40.2601,-145.1435 73,-98.2254 84.6078,-81.5908 100.9311,-65.9532 115.1012,-53.9644"/>
<polygon fill="#00ff00" stroke="#00ff00" stroke-width=".3445" points="117.6452,-56.4037 123.1436,-47.3473 113.1976,-50.9982 117.6452,-56.4037"/>
</g>
<!-- F&#45;&gt;6 -->
<g id="edge5" class="edge">
<title>F&#45;&gt;6</title>
<path fill="none" stroke="#ff0000" stroke-width=".118" d="M22.1103,-241.485C47.5732,-231.8398 110.6124,-207.961 145.2553,-194.8385"/>
<polygon fill="#ff0000" stroke="#ff0000" stroke-width=".118" points="146.9101,-197.9544 155.0219,-191.139 144.4305,-191.4083 146.9101,-197.9544"/>
</g>
<!-- G -->
<g id="node7" class="node">
<title>G</title>
<polygon fill="#d3d3d3" stroke="#000000" points="222.5,-254.6934 199.5,-254.6934 199.5,-236.6934 222.5,-236.6934 222.5,-254.6934"/>
<text text-anchor="middle" x="211" y="-243.4934" font-family="Times,serif" font-size="9.00" fill="#000000">G</text>
</g>
<!-- G&#45;&gt;LEFT -->
<g id="edge20" class="edge">
<title>G&#45;&gt;LEFT</title>
<path fill="none" stroke="#00ff00" stroke-width=".6764" d="M209.0248,-236.4301C205.9432,-222.2488 199.6515,-194.3443 193,-170.9949 183.6698,-138.2424 180.0679,-130.4323 169,-98.2254 165.4039,-87.7609 161.3917,-76.4183 157.6929,-66.0879"/>
<polygon fill="#00ff00" stroke="#00ff00" stroke-width=".6764" points="160.9428,-64.782 154.2665,-56.5554 154.3555,-67.1498 160.9428,-64.782"/>
</g>
<!-- G&#45;&gt;RIGHT -->
<g id="edge21" class="edge">
<title>G&#45;&gt;RIGHT</title>
<path fill="none" stroke="#ff0000" stroke-width=".1533" d="M222.6366,-239.798C225.3291,-238.6205 228.2208,-237.4997 231,-236.6934 285.3282,-220.9313 445.9362,-243.4284 483,-200.6934 512.8388,-166.289 501.0181,-140.0508 483,-98.2254 475.4268,-80.6458 460.7332,-65.5234 446.6687,-54.1081"/>
<polygon fill="#ff0000" stroke="#ff0000" stroke-width=".1533" points="448.5756,-51.1588 438.519,-47.8247 444.3014,-56.7024 448.5756,-51.1588"/>
</g>
<!-- G&#45;&gt;6 -->
<g id="edge6" class="edge">
<title>G&#45;&gt;6</title>
<path fill="none" stroke="#ff0000" stroke-width=".1348" d="M204.6211,-236.6036C199.0835,-228.7126 190.853,-216.9843 183.6982,-206.7888"/>
<polygon fill="#ff0000" stroke="#ff0000" stroke-width=".1348" points="186.3915,-204.5337 177.7822,-198.3587 180.6616,-208.5547 186.3915,-204.5337"/>
</g>
<!-- 6&#45;&gt;LEFT -->
<g id="edge7" class="edge">
<title>6&#45;&gt;LEFT</title>
<path fill="none" stroke="#00ff00" stroke-width=".6505" stroke-dasharray="1,5" d="M166.6988,-171.0079C163.0464,-147.4603 155.8136,-100.8293 150.7046,-67.8909"/>
<polygon fill="#00ff00" stroke="#00ff00" stroke-width=".6505" points="154.1191,-67.0697 149.1277,-57.7244 147.2019,-68.1427 154.1191,-67.0697"/>
</g>
<!-- 6&#45;&gt;RIGHT -->
<g id="edge8" class="edge">
<title>6&#45;&gt;RIGHT</title>
<path fill="none" stroke="#ff0000" stroke-width=".2697" d="M184.0049,-183.9606C226.3261,-178.3716 345.4191,-160.6563 374,-134.9949 391.8868,-118.9352 401.3669,-93.7437 406.3849,-72.1904"/>
<polygon fill="#ff0000" stroke="#ff0000" stroke-width=".2697" points="409.8375,-72.7781 408.449,-62.2747 402.9844,-71.3515 409.8375,-72.7781"/>
</g>
<!-- 65 -->
<g id="node11" class="node">
<title>65</title>
<ellipse fill="#ffffff" stroke="#000000" cx="347" cy="-116.6102" rx="18.2703" ry="18.2703"/>
<text text-anchor="middle" x="347" y="-114.4102" font-family="Times,serif" font-size="9.00" fill="#000000">65</text>
</g>
<!-- 6&#45;&gt;65 -->
<g id="edge22" class="edge">
<title>6&#45;&gt;65</title>
<path fill="none" stroke="#00ff00" stroke-width=".1958" d="M183.4381,-181.7924C210.0466,-174.113 268.3654,-156.2873 315,-134.9949 317.4825,-133.8615 320.0248,-132.5962 322.5383,-131.2745"/>
<polygon fill="#00ff00" stroke="#00ff00" stroke-width=".1958" points="324.3159,-134.2908 331.3568,-126.3739 320.9157,-128.1721 324.3159,-134.2908"/>
</g>
<!-- 65&#45;&gt;LEFT -->
<g id="edge23" class="edge">
<title>65&#45;&gt;LEFT</title>
<path fill="none" stroke="#00ff00" stroke-width=".1135" d="M329.7776,-109.3207C296.515,-95.2422 222.8776,-64.0748 179.2721,-45.6185"/>
<polygon fill="#00ff00" stroke="#00ff00" stroke-width=".1135" points="180.4976,-42.3367 169.9242,-41.662 177.7691,-48.783 180.4976,-42.3367"/>
</g>
<!-- 65&#45;&gt;RIGHT -->
<g id="edge24" class="edge">
<title>65&#45;&gt;RIGHT</title>
<path fill="none" stroke="#00ff00" stroke-width=".3943" d="M358.3221,-101.7176C366.1395,-91.4352 376.8522,-77.3442 386.6521,-64.4539"/>
<polygon fill="#00ff00" stroke="#00ff00" stroke-width=".3943" points="389.6547,-66.2876 392.9206,-56.2087 384.0822,-62.0511 389.6547,-66.2876"/>
</g>
</g>
</svg>
