<?xml version="1.0" encoding="UTF-8" standalone="no"?>
<!DOCTYPE svg PUBLIC "-//W3C//DTD SVG 1.1//EN"
 "http://www.w3.org/Graphics/SVG/1.1/DTD/svg11.dtd">
<!-- Generated by graphviz version 2.40.1 (20161225.0304)
 -->
<!-- Title: %3 Pages: 1 -->
<svg width="475pt" height="263pt"
 viewBox="0.00 0.00 475.27 262.69" xmlns="http://www.w3.org/2000/svg" xmlns:xlink="http://www.w3.org/1999/xlink">
<g id="graph0" class="graph" transform="scale(1 1) rotate(0) translate(4 258.6934)">
<title>%3</title>
<polygon fill="#ffffff" stroke="transparent" points="-4,4 -4,-258.6934 471.2701,-258.6934 471.2701,4 -4,4"/>
<!-- A -->
<g id="node1" class="node">
<title>A</title>
<polygon fill="#d3d3d3" stroke="#000000" points="293.7701,-125.6102 270.7701,-125.6102 270.7701,-107.6102 293.7701,-107.6102 293.7701,-125.6102"/>
<text text-anchor="middle" x="282.2701" y="-114.4102" font-family="Times,serif" font-size="9.00" fill="#000000">A</text>
</g>
<!-- LEFT -->
<g id="node8" class="node">
<title>LEFT</title>
<ellipse fill="#add8e6" stroke="#000000" cx="341.2701" cy="-31.1127" rx="26.7407" ry="26.7407"/>
<text text-anchor="middle" x="341.2701" y="-28.9127" font-family="Times,serif" font-size="9.00" fill="#000000">LEFT</text>
</g>
<!-- A&#45;&gt;LEFT -->
<g id="edge7" class="edge">
<title>A&#45;&gt;LEFT</title>
<path fill="none" stroke="#00ff00" stroke-width=".1371" d="M288.5841,-107.4604C296.0587,-96.629 308.898,-78.0233 320.0304,-61.8912"/>
<polygon fill="#00ff00" stroke="#00ff00" stroke-width=".1371" points="323.1955,-63.467 325.9946,-53.2486 317.4341,-59.4912 323.1955,-63.467"/>
</g>
<!-- RIGHT -->
<g id="node9" class="node">
<title>RIGHT</title>
<ellipse fill="#add8e6" stroke="#000000" cx="132.2701" cy="-31.1127" rx="31.2258" ry="31.2258"/>
<text text-anchor="middle" x="132.2701" y="-28.9127" font-family="Times,serif" font-size="9.00" fill="#000000">RIGHT</text>
</g>
<!-- A&#45;&gt;RIGHT -->
<g id="edge8" class="edge">
<title>A&#45;&gt;RIGHT</title>
<path fill="none" stroke="#00ff00" stroke-width=".4475" d="M273.3478,-107.4593C270.0333,-104.3233 266.1359,-100.9271 262.2701,-98.2254 233.2514,-77.9457 197.2947,-59.8542 170.5572,-47.5798"/>
<polygon fill="#00ff00" stroke="#00ff00" stroke-width=".4475" points="171.7074,-44.2588 161.1536,-43.3276 168.8232,-50.637 171.7074,-44.2588"/>
</g>
<!-- B -->
<g id="node2" class="node">
<title>B</title>
<polygon fill="#d3d3d3" stroke="#000000" points="248.7701,-254.6934 225.7701,-254.6934 225.7701,-236.6934 248.7701,-236.6934 248.7701,-254.6934"/>
<text text-anchor="middle" x="237.2701" y="-243.4934" font-family="Times,serif" font-size="9.00" fill="#000000">B</text>
</g>
<!-- B&#45;&gt;LEFT -->
<g id="edge9" class="edge">
<title>B&#45;&gt;LEFT</title>
<path fill="none" stroke="#ff0000" stroke-width=".3099" d="M243.1993,-236.4277C252.8012,-221.7606 272.7561,-192.6418 293.2701,-170.9949 310.4147,-152.9036 325.184,-157.3183 336.2701,-134.9949 346.5068,-114.3818 347.7892,-88.5418 346.4963,-67.7902"/>
<polygon fill="#ff0000" stroke="#ff0000" stroke-width=".3099" points="349.9783,-67.4286 345.6512,-57.7577 343.003,-68.0162 349.9783,-67.4286"/>
</g>
<!-- B&#45;&gt;RIGHT -->
<g id="edge10" class="edge">
<title>B&#45;&gt;RIGHT</title>
<path fill="none" stroke="#00ff00" stroke-width=".3104" d="M225.6142,-240.38C188.8101,-223.3395 76.3788,-169.1798 57.2701,-134.9949 40.6471,-105.2571 70.7583,-73.9197 97.6344,-53.5406"/>
<polygon fill="#00ff00" stroke="#00ff00" stroke-width=".3104" points="99.7933,-56.2982 105.8161,-47.5817 95.6722,-50.6398 99.7933,-56.2982"/>
</g>
<!-- 6 -->
<g id="node10" class="node">
<title>6</title>
<ellipse fill="#ffffff" stroke="#000000" cx="317.2701" cy="-185.8442" rx="14.7" ry="14.7"/>
<text text-anchor="middle" x="317.2701" y="-183.6442" font-family="Times,serif" font-size="9.00" fill="#000000">6</text>
</g>
<!-- B&#45;&gt;6 -->
<g id="edge1" class="edge">
<title>B&#45;&gt;6</title>
<path fill="none" stroke="#00ff00" stroke-width=".4074" d="M249.0743,-236.8625C261.6455,-227.4578 281.7764,-212.3976 296.9141,-201.0728"/>
<polygon fill="#00ff00" stroke="#00ff00" stroke-width=".4074" points="299.2445,-203.7005 305.1551,-194.9076 295.0512,-198.0954 299.2445,-203.7005"/>
</g>
<!-- C -->
<g id="node3" class="node">
<title>C</title>
<polygon fill="#d3d3d3" stroke="#000000" points="252.7701,-125.6102 229.7701,-125.6102 229.7701,-107.6102 252.7701,-107.6102 252.7701,-125.6102"/>
<text text-anchor="middle" x="241.2701" y="-114.4102" font-family="Times,serif" font-size="9.00" fill="#000000">C</text>
</g>
<!-- C&#45;&gt;LEFT -->
<g id="edge11" class="edge">
<title>C&#45;&gt;LEFT</title>
<path fill="none" stroke="#ff0000" stroke-width=".2313" d="M251.4974,-107.6026C254.9136,-104.6083 258.7474,-101.2634 262.2701,-98.2254 278.8284,-83.9453 297.4643,-68.1027 312.4759,-55.3974"/>
<polygon fill="#ff0000" stroke="#ff0000" stroke-width=".2313" points="315.0303,-57.821 320.4066,-48.6916 310.5106,-52.4757 315.0303,-57.821"/>
</g>
<!-- C&#45;&gt;RIGHT -->
<g id="edge12" class="edge">
<title>C&#45;&gt;RIGHT</title>
<path fill="none" stroke="#00ff00" stroke-width=".2848" d="M229.6051,-107.4604C214.3138,-95.4662 186.8689,-73.939 165.011,-56.794"/>
<polygon fill="#00ff00" stroke="#00ff00" stroke-width=".2848" points="166.9727,-53.8845 156.9442,-50.4667 162.6524,-59.3923 166.9727,-53.8845"/>
</g>
<!-- D -->
<g id="node4" class="node">
<title>D</title>
<polygon fill="#d3d3d3" stroke="#000000" points="328.7701,-254.6934 305.7701,-254.6934 305.7701,-236.6934 328.7701,-236.6934 328.7701,-254.6934"/>
<text text-anchor="middle" x="317.2701" y="-243.4934" font-family="Times,serif" font-size="9.00" fill="#000000">D</text>
</g>
<!-- D&#45;&gt;LEFT -->
<g id="edge13" class="edge">
<title>D&#45;&gt;LEFT</title>
<path fill="none" stroke="#ff0000" stroke-width=".2395" d="M323.9786,-236.5398C336.851,-218.332 364.5977,-175.8005 374.2701,-134.9949 378.0393,-119.0935 377.9717,-114.1427 374.2701,-98.2254 371.4722,-86.1945 366.1966,-73.8373 360.6712,-63.0577"/>
<polygon fill="#ff0000" stroke="#ff0000" stroke-width=".2395" points="363.6345,-61.1789 355.8072,-54.0387 357.4734,-64.5017 363.6345,-61.1789"/>
</g>
<!-- D&#45;&gt;RIGHT -->
<g id="edge14" class="edge">
<title>D&#45;&gt;RIGHT</title>
<path fill="none" stroke="#ff0000" stroke-width=".3632" d="M305.5973,-243.6356C269.0131,-236.485 156.4046,-208.9854 112.2701,-134.9949 100.1946,-114.7508 105.254,-88.695 113.3024,-67.7429"/>
<polygon fill="#ff0000" stroke="#ff0000" stroke-width=".3632" points="116.5323,-69.0909 117.1598,-58.5147 110.0738,-66.3912 116.5323,-69.0909"/>
</g>
<!-- D&#45;&gt;6 -->
<g id="edge2" class="edge">
<title>D&#45;&gt;6</title>
<path fill="none" stroke="#00ff00" stroke-width=".4742" d="M317.2701,-236.6036C317.2701,-229.8346 317.2701,-220.2421 317.2701,-211.2155"/>
<polygon fill="#00ff00" stroke="#00ff00" stroke-width=".4742" points="320.7702,-211.0821 317.2701,-201.0822 313.7702,-211.0822 320.7702,-211.0821"/>
</g>
<!-- E -->
<g id="node5" class="node">
<title>E</title>
<polygon fill="#d3d3d3" stroke="#000000" points="409.2701,-254.6934 387.2701,-254.6934 387.2701,-236.6934 409.2701,-236.6934 409.2701,-254.6934"/>
<text text-anchor="middle" x="398.2701" y="-243.4934" font-family="Times,serif" font-size="9.00" fill="#000000">E</text>
</g>
<!-- E&#45;&gt;LEFT -->
<g id="edge15" class="edge">
<title>E&#45;&gt;LEFT</title>
<path fill="none" stroke="#ff0000" stroke-width=".8369" d="M402.0003,-236.5776C405.4502,-227.62 410.3279,-213.474 412.2701,-200.6934 414.2531,-187.6439 414.2825,-184.04 412.2701,-170.9949 407.0985,-137.4725 404.4345,-128.5658 389.2701,-98.2254 382.6355,-84.9514 373.5104,-71.4305 364.9968,-60.0363"/>
<polygon fill="#ff0000" stroke="#ff0000" stroke-width=".8369" points="367.5223,-57.5782 358.657,-51.7768 361.9695,-61.8405 367.5223,-57.5782"/>
</g>
<!-- E&#45;&gt;RIGHT -->
<g id="edge16" class="edge">
<title>E&#45;&gt;RIGHT</title>
<path fill="none" stroke="#00ff00" stroke-width=".3443" d="M393.6799,-236.3753C385.4091,-220.5498 366.4908,-188.4434 341.2701,-170.9949 295.4788,-139.3152 267.9391,-165.3667 221.2701,-134.9949 206.2076,-125.1925 177.849,-90.6732 157.1795,-64.0875"/>
<polygon fill="#00ff00" stroke="#00ff00" stroke-width=".3443" points="159.9161,-61.9048 151.035,-56.1277 154.375,-66.1823 159.9161,-61.9048"/>
</g>
<!-- E&#45;&gt;6 -->
<g id="edge3" class="edge">
<title>E&#45;&gt;6</title>
<path fill="none" stroke="#00ff00" stroke-width=".1254" d="M387.0073,-237.3717C374.1701,-227.8865 352.9414,-212.201 337.272,-200.6232"/>
<polygon fill="#00ff00" stroke="#00ff00" stroke-width=".1254" points="339.35,-197.8069 329.2273,-194.6792 335.1901,-203.4368 339.35,-197.8069"/>
</g>
<!-- F -->
<g id="node6" class="node">
<title>F</title>
<polygon fill="#d3d3d3" stroke="#000000" points="467.2701,-254.6934 445.2701,-254.6934 445.2701,-236.6934 467.2701,-236.6934 467.2701,-254.6934"/>
<text text-anchor="middle" x="456.2701" y="-243.4934" font-family="Times,serif" font-size="9.00" fill="#000000">F</text>
</g>
<!-- F&#45;&gt;LEFT -->
<g id="edge17" class="edge">
<title>F&#45;&gt;LEFT</title>
<path fill="none" stroke="#00ff00" stroke-width=".3445" d="M455.0003,-236.4019C451.351,-212.1031 439.1851,-145.3009 410.2701,-98.2254 399.9611,-81.4418 384.518,-65.8862 370.8539,-53.9858"/>
<polygon fill="#00ff00" stroke="#00ff00" stroke-width=".3445" points="372.9677,-51.19 363.0664,-47.4197 368.4554,-56.5416 372.9677,-51.19"/>
</g>
<!-- F&#45;&gt;6 -->
<g id="edge4" class="edge">
<title>F&#45;&gt;6</title>
<path fill="none" stroke="#ff0000" stroke-width=".118" d="M444.8951,-240.7957C422.1763,-231.0137 370.7806,-208.8842 340.5987,-195.8888"/>
<polygon fill="#ff0000" stroke="#ff0000" stroke-width=".118" points="341.8173,-192.6029 331.2484,-191.8628 339.049,-199.0323 341.8173,-192.6029"/>
</g>
<!-- G -->
<g id="node7" class="node">
<title>G</title>
<polygon fill="#d3d3d3" stroke="#000000" points="207.7701,-254.6934 184.7701,-254.6934 184.7701,-236.6934 207.7701,-236.6934 207.7701,-254.6934"/>
<text text-anchor="middle" x="196.2701" y="-243.4934" font-family="Times,serif" font-size="9.00" fill="#000000">G</text>
</g>
<!-- G&#45;&gt;LEFT -->
<g id="edge18" class="edge">
<title>G&#45;&gt;LEFT</title>
<path fill="none" stroke="#00ff00" stroke-width=".6764" d="M204.393,-236.2541C216.8981,-221.8429 241.7792,-193.6422 264.2701,-170.9949 280.8922,-154.2573 290.1847,-154.6219 303.2701,-134.9949 317.0022,-114.3979 326.54,-88.2041 332.6256,-67.2724"/>
<polygon fill="#00ff00" stroke="#00ff00" stroke-width=".6764" points="336.0451,-68.0384 335.339,-57.4671 329.2987,-66.1714 336.0451,-68.0384"/>
</g>
<!-- G&#45;&gt;RIGHT -->
<g id="edge19" class="edge">
<title>G&#45;&gt;RIGHT</title>
<path fill="none" stroke="#ff0000" stroke-width=".1533" d="M184.7207,-244.5674C148.7662,-240.801 39.998,-227.3506 19.2701,-200.6934 -8.6851,-164.7417 -3.2569,-137.8051 19.2701,-98.2254 34.8825,-70.7945 66.6156,-53.4129 92.4895,-43.2294"/>
<polygon fill="#ff0000" stroke="#ff0000" stroke-width=".1533" points="93.9156,-46.4334 102.0732,-39.673 91.4802,-39.8707 93.9156,-46.4334"/>
</g>
<!-- G&#45;&gt;6 -->
<g id="edge5" class="edge">
<title>G&#45;&gt;6</title>
<path fill="none" stroke="#ff0000" stroke-width=".1348" d="M207.872,-239.9548C227.8032,-230.0965 268.8819,-209.778 294.641,-197.037"/>
<polygon fill="#ff0000" stroke="#ff0000" stroke-width=".1348" points="296.2755,-200.1334 303.6872,-192.5626 293.172,-193.8589 296.2755,-200.1334"/>
</g>
<!-- 6&#45;&gt;RIGHT -->
<g id="edge6" class="edge">
<title>6&#45;&gt;RIGHT</title>
<path fill="none" stroke="#ff0000" stroke-width=".2697" d="M304.3025,-178.3202C299.4009,-175.7147 293.6951,-172.9585 288.2701,-170.9949 219.7324,-146.1882 173.8034,-191.9116 128.2701,-134.9949 114.0594,-117.2316 114.8113,-91.7786 119.2371,-70.5135"/>
<polygon fill="#ff0000" stroke="#ff0000" stroke-width=".2697" points="122.6445,-71.3129 121.5714,-60.7725 115.8373,-69.6815 122.6445,-71.3129"/>
</g>
<!-- 65 -->
<g id="node11" class="node">
<title>65</title>
<ellipse fill="#ffffff" stroke="#000000" cx="155.2701" cy="-116.6102" rx="18.2703" ry="18.2703"/>
<text text-anchor="middle" x="155.2701" y="-114.4102" font-family="Times,serif" font-size="9.00" fill="#000000">65</text>
</g>
<!-- 6&#45;&gt;65 -->
<g id="edge20" class="edge">
<title>6&#45;&gt;65</title>
<path fill="none" stroke="#00ff00" stroke-width=".1958" d="M304.1627,-178.6727C299.246,-176.1053 293.5664,-173.2832 288.2701,-170.9949 244.5231,-152.0947 230.5484,-154.9448 187.2701,-134.9949 184.7916,-133.8525 182.2521,-132.5812 179.7404,-131.2557"/>
<polygon fill="#00ff00" stroke="#00ff00" stroke-width=".1958" points="181.3643,-128.154 170.9242,-126.35 177.9607,-134.2708 181.3643,-128.154"/>
</g>
<!-- 65&#45;&gt;LEFT -->
<g id="edge21" class="edge">
<title>65&#45;&gt;LEFT</title>
<path fill="none" stroke="#00ff00" stroke-width=".1135" d="M172.1044,-108.872C202.6531,-94.8299 267.7449,-64.9095 307.6851,-46.5505"/>
<polygon fill="#00ff00" stroke="#00ff00" stroke-width=".1135" points="309.151,-49.7288 316.7753,-42.3721 306.2274,-43.3685 309.151,-49.7288"/>
</g>
<!-- 65&#45;&gt;RIGHT -->
<g id="edge22" class="edge">
<title>65&#45;&gt;RIGHT</title>
<path fill="none" stroke="#00ff00" stroke-width=".3943" d="M150.3923,-98.4784C148.2393,-90.4747 145.6164,-80.7246 143.0423,-71.1561"/>
<polygon fill="#00ff00" stroke="#00ff00" stroke-width=".3943" points="146.3769,-70.0785 140.3992,-61.3311 139.6172,-71.897 146.3769,-70.0785"/>
</g>
</g>
</svg>
