<?xml version="1.0" encoding="UTF-8" standalone="no"?>
<!DOCTYPE svg PUBLIC "-//W3C//DTD SVG 1.1//EN"
 "http://www.w3.org/Graphics/SVG/1.1/DTD/svg11.dtd">
<!-- Generated by graphviz version 2.40.1 (20161225.0304)
 -->
<!-- Title: %3 Pages: 1 -->
<svg width="276pt" height="124pt"
 viewBox="0.00 0.00 276.00 124.23" xmlns="http://www.w3.org/2000/svg" xmlns:xlink="http://www.w3.org/1999/xlink">
<g id="graph0" class="graph" transform="scale(1 1) rotate(0) translate(4 120.2254)">
<title>%3</title>
<polygon fill="#ffffff" stroke="transparent" points="-4,4 -4,-120.2254 272,-120.2254 272,4 -4,4"/>
<!-- A -->
<g id="node1" class="node">
<title>A</title>
<polygon fill="#d3d3d3" stroke="#000000" points="186,-116.2254 163,-116.2254 163,-98.2254 186,-98.2254 186,-116.2254"/>
<text text-anchor="middle" x="174.5" y="-105.0254" font-family="Times,serif" font-size="9.00" fill="#000000">A</text>
</g>
<!-- LEFT -->
<g id="node8" class="node">
<title>LEFT</title>
<ellipse fill="#add8e6" stroke="#000000" cx="98.5" cy="-31.1127" rx="26.7407" ry="26.7407"/>
<text text-anchor="middle" x="98.5" y="-28.9127" font-family="Times,serif" font-size="9.00" fill="#000000">LEFT</text>
</g>
<!-- A&#45;&gt;LEFT -->
<g id="edge1" class="edge">
<title>A&#45;&gt;LEFT</title>
<path fill="none" stroke="#00ff00" stroke-width=".5916" d="M165.4834,-98.1954C155.5054,-88.2026 138.9635,-71.6362 124.8155,-57.4672"/>
<polygon fill="#00ff00" stroke="#00ff00" stroke-width=".5916" points="127.2252,-54.927 117.6826,-50.3238 122.2718,-59.8731 127.2252,-54.927"/>
</g>
<!-- RIGHT -->
<g id="node9" class="node">
<title>RIGHT</title>
<ellipse fill="#add8e6" stroke="#000000" cx="174.5" cy="-31.1127" rx="31.2258" ry="31.2258"/>
<text text-anchor="middle" x="174.5" y="-28.9127" font-family="Times,serif" font-size="9.00" fill="#000000">RIGHT</text>
</g>
<!-- A&#45;&gt;RIGHT -->
<g id="edge2" class="edge">
<title>A&#45;&gt;RIGHT</title>
<path fill="none" stroke="#ff0000" stroke-width=".4108" stroke-dasharray="1,5" d="M174.5,-98.1954C174.5,-91.6488 174.5,-82.2808 174.5,-72.614"/>
<polygon fill="#ff0000" stroke="#ff0000" stroke-width=".4108" points="178.0001,-72.5375 174.5,-62.5376 171.0001,-72.5376 178.0001,-72.5375"/>
</g>
<!-- B -->
<g id="node2" class="node">
<title>B</title>
<polygon fill="#d3d3d3" stroke="#000000" points="227,-116.2254 204,-116.2254 204,-98.2254 227,-98.2254 227,-116.2254"/>
<text text-anchor="middle" x="215.5" y="-105.0254" font-family="Times,serif" font-size="9.00" fill="#000000">B</text>
</g>
<!-- B&#45;&gt;LEFT -->
<g id="edge3" class="edge">
<title>B&#45;&gt;LEFT</title>
<path fill="none" stroke="#00ff00" stroke-width=".4565" d="M203.7879,-101.6736C187.6267,-93.8033 157.8401,-78.5348 134.5,-62.2254 131.7915,-60.3328 129.0505,-58.272 126.3532,-56.1418"/>
<polygon fill="#00ff00" stroke="#00ff00" stroke-width=".4565" points="128.4115,-53.3026 118.4692,-49.6419 123.9586,-58.7037 128.4115,-53.3026"/>
</g>
<!-- B&#45;&gt;RIGHT -->
<g id="edge4" class="edge">
<title>B&#45;&gt;RIGHT</title>
<path fill="none" stroke="#00ff00" stroke-width=".6611" d="M210.6358,-98.1954C206.5183,-90.5518 200.329,-79.0619 194.2307,-67.7409"/>
<polygon fill="#00ff00" stroke="#00ff00" stroke-width=".6611" points="197.2246,-65.9185 189.4007,-58.7745 191.0618,-69.2383 197.2246,-65.9185"/>
</g>
<!-- C -->
<g id="node3" class="node">
<title>C</title>
<polygon fill="#d3d3d3" stroke="#000000" points="23,-116.2254 0,-116.2254 0,-98.2254 23,-98.2254 23,-116.2254"/>
<text text-anchor="middle" x="11.5" y="-105.0254" font-family="Times,serif" font-size="9.00" fill="#000000">C</text>
</g>
<!-- C&#45;&gt;LEFT -->
<g id="edge5" class="edge">
<title>C&#45;&gt;LEFT</title>
<path fill="none" stroke="#ff0000" stroke-width=".2924" d="M21.8217,-98.1954C33.6581,-87.8402 53.5633,-70.426 70.1265,-55.9355"/>
<polygon fill="#ff0000" stroke="#ff0000" stroke-width=".2924" points="72.7173,-58.3193 77.939,-49.1006 68.1082,-53.0509 72.7173,-58.3193"/>
</g>
<!-- D -->
<g id="node4" class="node">
<title>D</title>
<polygon fill="#d3d3d3" stroke="#000000" points="268,-116.2254 245,-116.2254 245,-98.2254 268,-98.2254 268,-116.2254"/>
<text text-anchor="middle" x="256.5" y="-105.0254" font-family="Times,serif" font-size="9.00" fill="#000000">D</text>
</g>
<!-- D&#45;&gt;LEFT -->
<g id="edge6" class="edge">
<title>D&#45;&gt;LEFT</title>
<path fill="none" stroke="#ff0000" stroke-width=".3515" d="M244.7255,-101.7303C242.0401,-100.5321 239.1862,-99.3016 236.5,-98.2254 191.8745,-80.3459 176.0755,-86.3622 134.5,-62.2254 131.4794,-60.4718 128.4746,-58.4487 125.5627,-56.2931"/>
<polygon fill="#ff0000" stroke="#ff0000" stroke-width=".3515" points="127.6628,-53.491 117.6665,-49.9804 123.2918,-58.9586 127.6628,-53.491"/>
</g>
<!-- D&#45;&gt;RIGHT -->
<g id="edge7" class="edge">
<title>D&#45;&gt;RIGHT</title>
<path fill="none" stroke="#ff0000" stroke-width=".3976" d="M246.7715,-98.1954C236.5116,-88.6721 219.8194,-73.1783 205.0606,-59.4791"/>
<polygon fill="#ff0000" stroke="#ff0000" stroke-width=".3976" points="207.2736,-56.7579 197.5632,-52.52 202.5114,-61.8884 207.2736,-56.7579"/>
</g>
<!-- E -->
<g id="node5" class="node">
<title>E</title>
<polygon fill="#d3d3d3" stroke="#000000" points="63.5,-116.2254 41.5,-116.2254 41.5,-98.2254 63.5,-98.2254 63.5,-116.2254"/>
<text text-anchor="middle" x="52.5" y="-105.0254" font-family="Times,serif" font-size="9.00" fill="#000000">E</text>
</g>
<!-- E&#45;&gt;LEFT -->
<g id="edge8" class="edge">
<title>E&#45;&gt;LEFT</title>
<path fill="none" stroke="#ff0000" stroke-width=".1249" d="M57.9574,-98.1954C63.2556,-89.4289 71.6115,-75.6031 79.3643,-62.7751"/>
<polygon fill="#ff0000" stroke="#ff0000" stroke-width=".1249" points="82.4132,-64.4969 84.5902,-54.1281 76.4223,-60.8762 82.4132,-64.4969"/>
</g>
<!-- E&#45;&gt;RIGHT -->
<g id="edge9" class="edge">
<title>E&#45;&gt;RIGHT</title>
<path fill="none" stroke="#00ff00" stroke-width=".1059" d="M63.7002,-101.7943C79.7975,-93.8307 110.2097,-78.1913 134.5,-62.2254 137.064,-60.5401 139.6717,-58.7366 142.2637,-56.8783"/>
<polygon fill="#00ff00" stroke="#00ff00" stroke-width=".1059" points="144.4674,-59.6016 150.4161,-50.8343 140.2984,-53.9784 144.4674,-59.6016"/>
</g>
<!-- F -->
<g id="node6" class="node">
<title>F</title>
<polygon fill="#d3d3d3" stroke="#000000" points="103.5,-116.2254 81.5,-116.2254 81.5,-98.2254 103.5,-98.2254 103.5,-116.2254"/>
<text text-anchor="middle" x="92.5" y="-105.0254" font-family="Times,serif" font-size="9.00" fill="#000000">F</text>
</g>
<!-- F&#45;&gt;LEFT -->
<g id="edge10" class="edge">
<title>F&#45;&gt;LEFT</title>
<path fill="none" stroke="#ff0000" stroke-width=".2656" d="M93.2118,-98.1954C93.806,-90.6582 94.695,-79.3812 95.5753,-68.2139"/>
<polygon fill="#ff0000" stroke="#ff0000" stroke-width=".2656" points="99.0758,-68.3437 96.3726,-58.0995 92.0975,-67.7935 99.0758,-68.3437"/>
</g>
<!-- F&#45;&gt;RIGHT -->
<g id="edge11" class="edge">
<title>F&#45;&gt;RIGHT</title>
<path fill="none" stroke="#00ff00" stroke-width=".3845" d="M102.2285,-98.1954C112.4884,-88.6721 129.1806,-73.1783 143.9394,-59.4791"/>
<polygon fill="#00ff00" stroke="#00ff00" stroke-width=".3845" points="146.4886,-61.8884 151.4368,-52.52 141.7264,-56.7579 146.4886,-61.8884"/>
</g>
<!-- G -->
<g id="node7" class="node">
<title>G</title>
<polygon fill="#d3d3d3" stroke="#000000" points="145,-116.2254 122,-116.2254 122,-98.2254 145,-98.2254 145,-116.2254"/>
<text text-anchor="middle" x="133.5" y="-105.0254" font-family="Times,serif" font-size="9.00" fill="#000000">G</text>
</g>
<!-- G&#45;&gt;LEFT -->
<g id="edge12" class="edge">
<title>G&#45;&gt;LEFT</title>
<path fill="none" stroke="#00ff00" stroke-width=".5208" d="M129.3476,-98.1954C125.5382,-89.9113 119.6513,-77.1093 114.0373,-64.9008"/>
<polygon fill="#00ff00" stroke="#00ff00" stroke-width=".5208" points="117.1942,-63.3883 109.8363,-55.7652 110.8343,-66.3129 117.1942,-63.3883"/>
</g>
<!-- G&#45;&gt;RIGHT -->
<g id="edge13" class="edge">
<title>G&#45;&gt;RIGHT</title>
<path fill="none" stroke="#00ff00" stroke-width=".1975" d="M138.3642,-98.1954C142.4817,-90.5518 148.671,-79.0619 154.7693,-67.7409"/>
<polygon fill="#00ff00" stroke="#00ff00" stroke-width=".1975" points="157.9382,-69.2383 159.5993,-58.7745 151.7754,-65.9185 157.9382,-69.2383"/>
</g>
</g>
</svg>
