<?xml version="1.0" encoding="UTF-8" standalone="no"?>
<!DOCTYPE svg PUBLIC "-//W3C//DTD SVG 1.1//EN"
 "http://www.w3.org/Graphics/SVG/1.1/DTD/svg11.dtd">
<!-- Generated by graphviz version 2.40.1 (20161225.0304)
 -->
<!-- Title: %3 Pages: 1 -->
<svg width="276pt" height="124pt"
 viewBox="0.00 0.00 276.00 124.23" xmlns="http://www.w3.org/2000/svg" xmlns:xlink="http://www.w3.org/1999/xlink">
<g id="graph0" class="graph" transform="scale(1 1) rotate(0) translate(4 120.2254)">
<title>%3</title>
<polygon fill="#ffffff" stroke="transparent" points="-4,4 -4,-120.2254 272,-120.2254 272,4 -4,4"/>
<!-- A -->
<g id="node1" class="node">
<title>A</title>
<polygon fill="#d3d3d3" stroke="#000000" points="64,-116.2254 41,-116.2254 41,-98.2254 64,-98.2254 64,-116.2254"/>
<text text-anchor="middle" x="52.5" y="-105.0254" font-family="Times,serif" font-size="9.00" fill="#000000">A</text>
</g>
<!-- LEFT -->
<g id="node8" class="node">
<title>LEFT</title>
<ellipse fill="#add8e6" stroke="#000000" cx="115.5" cy="-31.1127" rx="26.7407" ry="26.7407"/>
<text text-anchor="middle" x="115.5" y="-28.9127" font-family="Times,serif" font-size="9.00" fill="#000000">LEFT</text>
</g>
<!-- A&#45;&gt;LEFT -->
<g id="edge1" class="edge">
<title>A&#45;&gt;LEFT</title>
<path fill="none" stroke="#00ff00" stroke-width=".5916" d="M59.9743,-98.1954C67.8213,-88.7152 80.5656,-73.3183 91.8666,-59.6651"/>
<polygon fill="#00ff00" stroke="#00ff00" stroke-width=".5916" points="94.6257,-61.8209 98.3058,-51.8857 89.2333,-57.3574 94.6257,-61.8209"/>
</g>
<!-- B -->
<g id="node2" class="node">
<title>B</title>
<polygon fill="#d3d3d3" stroke="#000000" points="227,-116.2254 204,-116.2254 204,-98.2254 227,-98.2254 227,-116.2254"/>
<text text-anchor="middle" x="215.5" y="-105.0254" font-family="Times,serif" font-size="9.00" fill="#000000">B</text>
</g>
<!-- B&#45;&gt;LEFT -->
<g id="edge2" class="edge">
<title>B&#45;&gt;LEFT</title>
<path fill="none" stroke="#00ff00" stroke-width=".4565" d="M203.9218,-99.5947C190.9075,-90.9013 169.274,-76.0987 151.5,-62.2254 148.8953,-60.1923 146.2256,-58.0349 143.5749,-55.8418"/>
<polygon fill="#00ff00" stroke="#00ff00" stroke-width=".4565" points="145.6614,-53.0228 135.7635,-49.2436 141.1443,-58.3703 145.6614,-53.0228"/>
</g>
<!-- RIGHT -->
<g id="node9" class="node">
<title>RIGHT</title>
<ellipse fill="#add8e6" stroke="#000000" cx="191.5" cy="-31.1127" rx="31.2258" ry="31.2258"/>
<text text-anchor="middle" x="191.5" y="-28.9127" font-family="Times,serif" font-size="9.00" fill="#000000">RIGHT</text>
</g>
<!-- B&#45;&gt;RIGHT -->
<g id="edge3" class="edge">
<title>B&#45;&gt;RIGHT</title>
<path fill="none" stroke="#00ff00" stroke-width=".6611" d="M212.6526,-98.1954C210.4281,-91.1406 207.1704,-80.8093 203.875,-70.3584"/>
<polygon fill="#00ff00" stroke="#00ff00" stroke-width=".6611" points="207.2119,-69.302 200.8666,-60.8174 200.5359,-71.4071 207.2119,-69.302"/>
</g>
<!-- C -->
<g id="node3" class="node">
<title>C</title>
<polygon fill="#d3d3d3" stroke="#000000" points="23,-116.2254 0,-116.2254 0,-98.2254 23,-98.2254 23,-116.2254"/>
<text text-anchor="middle" x="11.5" y="-105.0254" font-family="Times,serif" font-size="9.00" fill="#000000">C</text>
</g>
<!-- C&#45;&gt;LEFT -->
<g id="edge4" class="edge">
<title>C&#45;&gt;LEFT</title>
<path fill="none" stroke="#ff0000" stroke-width=".2924" d="M23.0272,-98.7892C37.9944,-87.8354 64.6688,-68.3137 85.5351,-53.0426"/>
<polygon fill="#ff0000" stroke="#ff0000" stroke-width=".2924" points="87.7806,-55.7365 93.7833,-47.0061 83.6464,-50.0876 87.7806,-55.7365"/>
</g>
<!-- D -->
<g id="node4" class="node">
<title>D</title>
<polygon fill="#d3d3d3" stroke="#000000" points="268,-116.2254 245,-116.2254 245,-98.2254 268,-98.2254 268,-116.2254"/>
<text text-anchor="middle" x="256.5" y="-105.0254" font-family="Times,serif" font-size="9.00" fill="#000000">D</text>
</g>
<!-- D&#45;&gt;LEFT -->
<g id="edge5" class="edge">
<title>D&#45;&gt;LEFT</title>
<path fill="none" stroke="#ff0000" stroke-width=".3515" d="M244.6747,-101.8517C241.992,-100.6472 239.1519,-99.3835 236.5,-98.2254 198.9024,-81.8065 186.3323,-83.902 151.5,-62.2254 148.6946,-60.4796 145.887,-58.5197 143.1463,-56.4554"/>
<polygon fill="#ff0000" stroke="#ff0000" stroke-width=".3515" points="145.18,-53.5994 135.1945,-50.0582 140.7922,-59.0536 145.18,-53.5994"/>
</g>
<!-- D&#45;&gt;RIGHT -->
<g id="edge6" class="edge">
<title>D&#45;&gt;RIGHT</title>
<path fill="none" stroke="#ff0000" stroke-width=".3976" d="M248.7884,-98.1954C241.2693,-89.3907 229.3918,-75.4827 218.3967,-62.6077"/>
<polygon fill="#ff0000" stroke="#ff0000" stroke-width=".3976" points="220.8672,-60.1111 211.7115,-54.7796 215.5441,-64.657 220.8672,-60.1111"/>
</g>
<!-- E -->
<g id="node5" class="node">
<title>E</title>
<polygon fill="#d3d3d3" stroke="#000000" points="104.5,-116.2254 82.5,-116.2254 82.5,-98.2254 104.5,-98.2254 104.5,-116.2254"/>
<text text-anchor="middle" x="93.5" y="-105.0254" font-family="Times,serif" font-size="9.00" fill="#000000">E</text>
</g>
<!-- E&#45;&gt;LEFT -->
<g id="edge7" class="edge">
<title>E&#45;&gt;LEFT</title>
<path fill="none" stroke="#ff0000" stroke-width=".1249" d="M96.1101,-98.1954C98.3865,-90.3198 101.8431,-78.361 105.2106,-66.7108"/>
<polygon fill="#ff0000" stroke="#ff0000" stroke-width=".1249" points="108.5759,-67.6721 107.9904,-57.0935 101.8512,-65.7283 108.5759,-67.6721"/>
</g>
<!-- E&#45;&gt;RIGHT -->
<g id="edge8" class="edge">
<title>E&#45;&gt;RIGHT</title>
<path fill="none" stroke="#00ff00" stroke-width=".1059" d="M104.6221,-98.6026C116.3,-89.5475 135.1952,-74.8916 151.5,-62.2254 153.7797,-60.4544 156.1322,-58.6263 158.5013,-56.7848"/>
<polygon fill="#00ff00" stroke="#00ff00" stroke-width=".1059" points="160.7925,-59.4368 166.5387,-50.5356 156.4958,-53.9106 160.7925,-59.4368"/>
</g>
<!-- F -->
<g id="node6" class="node">
<title>F</title>
<polygon fill="#d3d3d3" stroke="#000000" points="144.5,-116.2254 122.5,-116.2254 122.5,-98.2254 144.5,-98.2254 144.5,-116.2254"/>
<text text-anchor="middle" x="133.5" y="-105.0254" font-family="Times,serif" font-size="9.00" fill="#000000">F</text>
</g>
<!-- F&#45;&gt;LEFT -->
<g id="edge9" class="edge">
<title>F&#45;&gt;LEFT</title>
<path fill="none" stroke="#ff0000" stroke-width=".2656" d="M131.3645,-98.1954C129.535,-90.4595 126.7738,-78.7839 124.0653,-67.3308"/>
<polygon fill="#ff0000" stroke="#ff0000" stroke-width=".2656" points="127.4309,-66.354 121.7233,-57.4279 120.6188,-67.965 127.4309,-66.354"/>
</g>
<!-- F&#45;&gt;RIGHT -->
<g id="edge10" class="edge">
<title>F&#45;&gt;RIGHT</title>
<path fill="none" stroke="#00ff00" stroke-width=".3845" d="M140.3811,-98.1954C146.8303,-89.7322 156.8726,-76.5538 166.3551,-64.1101"/>
<polygon fill="#00ff00" stroke="#00ff00" stroke-width=".3845" points="169.185,-66.171 172.4622,-56.0958 163.6173,-61.9283 169.185,-66.171"/>
</g>
<!-- G -->
<g id="node7" class="node">
<title>G</title>
<polygon fill="#d3d3d3" stroke="#000000" points="186,-116.2254 163,-116.2254 163,-98.2254 186,-98.2254 186,-116.2254"/>
<text text-anchor="middle" x="174.5" y="-105.0254" font-family="Times,serif" font-size="9.00" fill="#000000">G</text>
</g>
<!-- G&#45;&gt;LEFT -->
<g id="edge11" class="edge">
<title>G&#45;&gt;LEFT</title>
<path fill="none" stroke="#00ff00" stroke-width=".5208" d="M167.5002,-98.1954C160.3213,-88.9342 148.7654,-74.0266 138.3685,-60.6142"/>
<polygon fill="#00ff00" stroke="#00ff00" stroke-width=".5208" points="140.9871,-58.2793 132.0943,-52.52 135.4546,-62.5679 140.9871,-58.2793"/>
</g>
<!-- G&#45;&gt;RIGHT -->
<g id="edge12" class="edge">
<title>G&#45;&gt;RIGHT</title>
<path fill="none" stroke="#00ff00" stroke-width=".1975" d="M176.5169,-98.1954C178.034,-91.4027 180.2297,-81.5725 182.4743,-71.5226"/>
<polygon fill="#00ff00" stroke="#00ff00" stroke-width=".1975" points="185.948,-72.0263 184.7121,-61.5038 179.1163,-70.5003 185.948,-72.0263"/>
</g>
</g>
</svg>
