<?xml version="1.0" encoding="UTF-8" standalone="no"?>
<!DOCTYPE svg PUBLIC "-//W3C//DTD SVG 1.1//EN"
 "http://www.w3.org/Graphics/SVG/1.1/DTD/svg11.dtd">
<!-- Generated by graphviz version 2.40.1 (20161225.0304)
 -->
<!-- Title: %3 Pages: 1 -->
<svg width="286pt" height="124pt"
 viewBox="0.00 0.00 285.50 124.23" xmlns="http://www.w3.org/2000/svg" xmlns:xlink="http://www.w3.org/1999/xlink">
<g id="graph0" class="graph" transform="scale(1 1) rotate(0) translate(4 120.2254)">
<title>%3</title>
<polygon fill="#ffffff" stroke="transparent" points="-4,4 -4,-120.2254 281.5,-120.2254 281.5,4 -4,4"/>
<!-- A -->
<g id="node1" class="node">
<title>A</title>
<polygon fill="#d3d3d3" stroke="#000000" points="105,-116.2254 82,-116.2254 82,-98.2254 105,-98.2254 105,-116.2254"/>
<text text-anchor="middle" x="93.5" y="-105.0254" font-family="Times,serif" font-size="9.00" fill="#000000">A</text>
</g>
<!-- LEFT -->
<g id="node8" class="node">
<title>LEFT</title>
<ellipse fill="#add8e6" stroke="#000000" cx="88.5" cy="-31.1127" rx="26.7407" ry="26.7407"/>
<text text-anchor="middle" x="88.5" y="-28.9127" font-family="Times,serif" font-size="9.00" fill="#000000">LEFT</text>
</g>
<!-- A&#45;&gt;LEFT -->
<g id="edge1" class="edge">
<title>A&#45;&gt;LEFT</title>
<path fill="none" stroke="#00ff00" stroke-width=".7584" d="M92.9068,-98.1954C92.4117,-90.6582 91.6709,-79.3812 90.9373,-68.2139"/>
<polygon fill="#00ff00" stroke="#00ff00" stroke-width=".7584" points="94.4209,-67.8485 90.2728,-58.0995 87.4359,-68.3075 94.4209,-67.8485"/>
</g>
<!-- RIGHT -->
<g id="node9" class="node">
<title>RIGHT</title>
<ellipse fill="#add8e6" stroke="#000000" cx="164.5" cy="-31.1127" rx="31.2258" ry="31.2258"/>
<text text-anchor="middle" x="164.5" y="-28.9127" font-family="Times,serif" font-size="9.00" fill="#000000">RIGHT</text>
</g>
<!-- A&#45;&gt;RIGHT -->
<g id="edge9" class="edge">
<title>A&#45;&gt;RIGHT</title>
<path fill="none" stroke="#00ff00" stroke-width=".1241" d="M101.9234,-98.1954C110.337,-89.176 123.7461,-74.8012 135.9975,-61.6677"/>
<polygon fill="#00ff00" stroke="#00ff00" stroke-width=".1241" points="138.7687,-63.828 143.0306,-54.1281 133.65,-59.0531 138.7687,-63.828"/>
</g>
<!-- B -->
<g id="node2" class="node">
<title>B</title>
<polygon fill="#d3d3d3" stroke="#000000" points="146,-116.2254 123,-116.2254 123,-98.2254 146,-98.2254 146,-116.2254"/>
<text text-anchor="middle" x="134.5" y="-105.0254" font-family="Times,serif" font-size="9.00" fill="#000000">B</text>
</g>
<!-- B&#45;&gt;LEFT -->
<g id="edge2" class="edge">
<title>B&#45;&gt;LEFT</title>
<path fill="none" stroke="#ff0000" stroke-width=".1314" d="M129.0426,-98.1954C123.7444,-89.4289 115.3885,-75.6031 107.6357,-62.7751"/>
<polygon fill="#ff0000" stroke="#ff0000" stroke-width=".1314" points="110.5777,-60.8762 102.4098,-54.1281 104.5868,-64.4969 110.5777,-60.8762"/>
</g>
<!-- B&#45;&gt;RIGHT -->
<g id="edge3" class="edge">
<title>B&#45;&gt;RIGHT</title>
<path fill="none" stroke="#ff0000" stroke-width=".3979" d="M138.0592,-98.1954C140.9163,-90.9468 145.1367,-80.2392 149.3708,-69.4968"/>
<polygon fill="#ff0000" stroke="#ff0000" stroke-width=".3979" points="152.6505,-70.7205 153.0613,-60.1336 146.1381,-68.1536 152.6505,-70.7205"/>
</g>
<!-- C -->
<g id="node3" class="node">
<title>C</title>
<polygon fill="#d3d3d3" stroke="#000000" points="187,-116.2254 164,-116.2254 164,-98.2254 187,-98.2254 187,-116.2254"/>
<text text-anchor="middle" x="175.5" y="-105.0254" font-family="Times,serif" font-size="9.00" fill="#000000">C</text>
</g>
<!-- C&#45;&gt;LEFT -->
<g id="edge4" class="edge">
<title>C&#45;&gt;LEFT</title>
<path fill="none" stroke="#00ff00" stroke-width=".2587" d="M165.1783,-98.1954C153.3419,-87.8402 133.4367,-70.426 116.8735,-55.9355"/>
<polygon fill="#00ff00" stroke="#00ff00" stroke-width=".2587" points="118.8918,-53.0509 109.061,-49.1006 114.2827,-58.3193 118.8918,-53.0509"/>
</g>
<!-- C&#45;&gt;RIGHT -->
<g id="edge5" class="edge">
<title>C&#45;&gt;RIGHT</title>
<path fill="none" stroke="#ff0000" stroke-width=".2347" d="M174.195,-98.1954C173.2404,-91.5904 171.8707,-82.1133 170.4604,-72.3549"/>
<polygon fill="#ff0000" stroke="#ff0000" stroke-width=".2347" points="173.8862,-71.589 168.9917,-62.1924 166.9582,-72.5903 173.8862,-71.589"/>
</g>
<!-- D -->
<g id="node4" class="node">
<title>D</title>
<polygon fill="#d3d3d3" stroke="#000000" points="23,-116.2254 0,-116.2254 0,-98.2254 23,-98.2254 23,-116.2254"/>
<text text-anchor="middle" x="11.5" y="-105.0254" font-family="Times,serif" font-size="9.00" fill="#000000">D</text>
</g>
<!-- D&#45;&gt;LEFT -->
<g id="edge6" class="edge">
<title>D&#45;&gt;LEFT</title>
<path fill="none" stroke="#00ff00" stroke-width=".7824" d="M20.6353,-98.1954C30.8124,-88.1356 47.7293,-71.4136 62.1265,-57.1822"/>
<polygon fill="#00ff00" stroke="#00ff00" stroke-width=".7824" points="64.7252,-59.5349 69.3766,-50.0157 59.8042,-54.5565 64.7252,-59.5349"/>
</g>
<!-- E -->
<g id="node5" class="node">
<title>E</title>
<polygon fill="#d3d3d3" stroke="#000000" points="237.5,-116.2254 215.5,-116.2254 215.5,-98.2254 237.5,-98.2254 237.5,-116.2254"/>
<text text-anchor="middle" x="226.5" y="-105.0254" font-family="Times,serif" font-size="9.00" fill="#000000">E</text>
</g>
<!-- E&#45;&gt;RIGHT -->
<g id="edge7" class="edge">
<title>E&#45;&gt;RIGHT</title>
<path fill="none" stroke="#ff0000" stroke-width="1.0584" d="M219.1443,-98.1954C212.1451,-89.603 201.1868,-76.1503 190.9152,-63.5407"/>
<polygon fill="#ff0000" stroke="#ff0000" stroke-width="1.0584" points="193.3423,-60.9784 184.313,-55.4356 187.915,-65.3993 193.3423,-60.9784"/>
</g>
<!-- 83 -->
<g id="node10" class="node">
<title>83</title>
<ellipse fill="#ffffff" stroke="#000000" cx="231.5" cy="-31.1127" rx="18.2703" ry="18.2703"/>
<text text-anchor="middle" x="231.5" y="-28.9127" font-family="Times,serif" font-size="9.00" fill="#000000">83</text>
</g>
<!-- E&#45;&gt;83 -->
<g id="edge10" class="edge">
<title>E&#45;&gt;83</title>
<path fill="none" stroke="#ff0000" stroke-width=".3753" d="M227.0932,-98.1954C227.7096,-88.8118 228.7069,-73.6315 229.5969,-60.083"/>
<polygon fill="#ff0000" stroke="#ff0000" stroke-width=".3753" points="233.1152,-59.9171 230.2784,-49.7091 226.1303,-59.4582 233.1152,-59.9171"/>
</g>
<!-- F -->
<g id="node6" class="node">
<title>F</title>
<polygon fill="#d3d3d3" stroke="#000000" points="277.5,-116.2254 255.5,-116.2254 255.5,-98.2254 277.5,-98.2254 277.5,-116.2254"/>
<text text-anchor="middle" x="266.5" y="-105.0254" font-family="Times,serif" font-size="9.00" fill="#000000">F</text>
</g>
<!-- G -->
<g id="node7" class="node">
<title>G</title>
<polygon fill="#d3d3d3" stroke="#000000" points="64,-116.2254 41,-116.2254 41,-98.2254 64,-98.2254 64,-116.2254"/>
<text text-anchor="middle" x="52.5" y="-105.0254" font-family="Times,serif" font-size="9.00" fill="#000000">G</text>
</g>
<!-- G&#45;&gt;LEFT -->
<g id="edge8" class="edge">
<title>G&#45;&gt;LEFT</title>
<path fill="none" stroke="#ff0000" stroke-width=".4101" d="M56.771,-98.1954C60.719,-89.8485 66.8363,-76.9151 72.65,-64.6234"/>
<polygon fill="#ff0000" stroke="#ff0000" stroke-width=".4101" points="75.8839,-65.9719 76.9957,-55.4356 69.556,-62.9789 75.8839,-65.9719"/>
</g>
</g>
</svg>
