<?xml version="1.0" encoding="UTF-8" standalone="no"?>
<!DOCTYPE svg PUBLIC "-//W3C//DTD SVG 1.1//EN"
 "http://www.w3.org/Graphics/SVG/1.1/DTD/svg11.dtd">
<!-- Generated by graphviz version 2.40.1 (20161225.0304)
 -->
<!-- Title: %3 Pages: 1 -->
<svg width="318pt" height="214pt"
 viewBox="0.00 0.00 318.00 213.97" xmlns="http://www.w3.org/2000/svg" xmlns:xlink="http://www.w3.org/1999/xlink">
<g id="graph0" class="graph" transform="scale(1 1) rotate(0) translate(4 209.9655)">
<title>%3</title>
<polygon fill="#ffffff" stroke="transparent" points="-4,4 -4,-209.9655 314,-209.9655 314,4 -4,4"/>
<!-- A -->
<g id="node1" class="node">
<title>A</title>
<polygon fill="#d3d3d3" stroke="#000000" points="178,-205.9655 155,-205.9655 155,-187.9655 178,-187.9655 178,-205.9655"/>
<text text-anchor="middle" x="166.5" y="-194.7655" font-family="Times,serif" font-size="9.00" fill="#000000">A</text>
</g>
<!-- LEFT -->
<g id="node8" class="node">
<title>LEFT</title>
<ellipse fill="#add8e6" stroke="#000000" cx="111.5" cy="-26.8701" rx="26.7407" ry="26.7407"/>
<text text-anchor="middle" x="111.5" y="-24.6701" font-family="Times,serif" font-size="9.00" fill="#000000">LEFT</text>
</g>
<!-- A&#45;&gt;LEFT -->
<g id="edge11" class="edge">
<title>A&#45;&gt;LEFT</title>
<path fill="none" stroke="#00ff00" stroke-width=".5845" d="M163.0832,-187.6945C159.7681,-178.622 154.6449,-164.3933 150.5,-151.9655 140.5052,-121.9975 129.8779,-87.7322 122.2454,-62.6499"/>
<polygon fill="#00ff00" stroke="#00ff00" stroke-width=".5845" points="125.5222,-61.3946 119.2706,-52.8407 118.8234,-63.4261 125.5222,-61.3946"/>
</g>
<!-- RIGHT -->
<g id="node9" class="node">
<title>RIGHT</title>
<ellipse fill="#add8e6" stroke="#000000" cx="244.5" cy="-120.8528" rx="31.2258" ry="31.2258"/>
<text text-anchor="middle" x="244.5" y="-118.6528" font-family="Times,serif" font-size="9.00" fill="#000000">RIGHT</text>
</g>
<!-- A&#45;&gt;RIGHT -->
<g id="edge1" class="edge">
<title>A&#45;&gt;RIGHT</title>
<path fill="none" stroke="#ff0000" stroke-width=".6547" d="M175.7539,-187.9355C185.2876,-178.6325 200.6601,-163.6319 214.4532,-150.1726"/>
<polygon fill="#ff0000" stroke="#ff0000" stroke-width=".6547" points="217.1937,-152.3887 221.9064,-142.8997 212.3049,-147.3787 217.1937,-152.3887"/>
</g>
<!-- 67 -->
<g id="node10" class="node">
<title>67</title>
<ellipse fill="#ffffff" stroke="#000000" cx="177.5" cy="-120.8528" rx="18.2703" ry="18.2703"/>
<text text-anchor="middle" x="177.5" y="-118.6528" font-family="Times,serif" font-size="9.00" fill="#000000">67</text>
</g>
<!-- A&#45;&gt;67 -->
<g id="edge12" class="edge">
<title>A&#45;&gt;67</title>
<path fill="none" stroke="#ff0000" stroke-width=".2076" d="M167.805,-187.9355C169.1837,-178.3962 171.4281,-162.8663 173.4104,-149.1502"/>
<polygon fill="#ff0000" stroke="#ff0000" stroke-width=".2076" points="176.89,-149.5421 174.8565,-139.1442 169.962,-148.5407 176.89,-149.5421"/>
</g>
<!-- B -->
<g id="node2" class="node">
<title>B</title>
<polygon fill="#d3d3d3" stroke="#000000" points="310,-205.9655 287,-205.9655 287,-187.9655 310,-187.9655 310,-205.9655"/>
<text text-anchor="middle" x="298.5" y="-194.7655" font-family="Times,serif" font-size="9.00" fill="#000000">B</text>
</g>
<!-- B&#45;&gt;LEFT -->
<g id="edge2" class="edge">
<title>B&#45;&gt;LEFT</title>
<path fill="none" stroke="#ff0000" stroke-width=".4975" d="M300.2035,-187.7197C303.3692,-167.5101 307.8757,-118.8828 284.5,-89.7401 267.0725,-68.0132 193.166,-46.7249 147.7766,-35.3517"/>
<polygon fill="#ff0000" stroke="#ff0000" stroke-width=".4975" points="148.5511,-31.9379 138.0043,-32.9455 146.8774,-38.7349 148.5511,-31.9379"/>
</g>
<!-- B&#45;&gt;RIGHT -->
<g id="edge3" class="edge">
<title>B&#45;&gt;RIGHT</title>
<path fill="none" stroke="#ff0000" stroke-width="1.1761" d="M292.0934,-187.9355C286.237,-179.6809 277.1981,-166.9406 268.5644,-154.7715"/>
<polygon fill="#ff0000" stroke="#ff0000" stroke-width="1.1761" points="271.337,-152.6307 262.6961,-146.5001 265.6279,-156.6812 271.337,-152.6307"/>
</g>
<!-- C -->
<g id="node3" class="node">
<title>C</title>
<polygon fill="#d3d3d3" stroke="#000000" points="23,-129.8528 0,-129.8528 0,-111.8528 23,-111.8528 23,-129.8528"/>
<text text-anchor="middle" x="11.5" y="-118.6528" font-family="Times,serif" font-size="9.00" fill="#000000">C</text>
</g>
<!-- C&#45;&gt;LEFT -->
<g id="edge4" class="edge">
<title>C&#45;&gt;LEFT</title>
<path fill="none" stroke="#ff0000" stroke-width=".1338" d="M16.7129,-111.6042C20.6068,-105.1163 26.3067,-96.4395 32.5,-89.7401 46.8566,-74.2104 65.2291,-59.3537 80.6428,-47.9853"/>
<polygon fill="#ff0000" stroke="#ff0000" stroke-width=".1338" points="82.8041,-50.7417 88.8573,-42.0463 78.7028,-45.069 82.8041,-50.7417"/>
</g>
<!-- D -->
<g id="node4" class="node">
<title>D</title>
<polygon fill="#d3d3d3" stroke="#000000" points="260,-205.9655 237,-205.9655 237,-187.9655 260,-187.9655 260,-205.9655"/>
<text text-anchor="middle" x="248.5" y="-194.7655" font-family="Times,serif" font-size="9.00" fill="#000000">D</text>
</g>
<!-- D&#45;&gt;RIGHT -->
<g id="edge5" class="edge">
<title>D&#45;&gt;RIGHT</title>
<path fill="none" stroke="#ff0000" stroke-width=".2844" d="M248.0254,-187.9355C247.6783,-181.3305 247.1803,-171.8534 246.6674,-162.0951"/>
<polygon fill="#ff0000" stroke="#ff0000" stroke-width=".2844" points="250.1534,-161.7351 246.1334,-151.9326 243.1631,-162.1025 250.1534,-161.7351"/>
</g>
<!-- E -->
<g id="node5" class="node">
<title>E</title>
<polygon fill="#d3d3d3" stroke="#000000" points="63.5,-129.8528 41.5,-129.8528 41.5,-111.8528 63.5,-111.8528 63.5,-129.8528"/>
<text text-anchor="middle" x="52.5" y="-118.6528" font-family="Times,serif" font-size="9.00" fill="#000000">E</text>
</g>
<!-- E&#45;&gt;LEFT -->
<g id="edge6" class="edge">
<title>E&#45;&gt;LEFT</title>
<path fill="none" stroke="#00ff00" stroke-width=".6342" stroke-dasharray="1,5" d="M58.1572,-111.8414C65.826,-99.6254 79.9158,-77.1814 91.6893,-58.4271"/>
<polygon fill="#00ff00" stroke="#00ff00" stroke-width=".6342" points="94.7214,-60.1799 97.0741,-49.8496 88.7928,-56.458 94.7214,-60.1799"/>
</g>
<!-- F -->
<g id="node6" class="node">
<title>F</title>
<polygon fill="#d3d3d3" stroke="#000000" points="103.5,-129.8528 81.5,-129.8528 81.5,-111.8528 103.5,-111.8528 103.5,-129.8528"/>
<text text-anchor="middle" x="92.5" y="-118.6528" font-family="Times,serif" font-size="9.00" fill="#000000">F</text>
</g>
<!-- F&#45;&gt;LEFT -->
<g id="edge7" class="edge">
<title>F&#45;&gt;LEFT</title>
<path fill="none" stroke="#00ff00" stroke-width=".2377" d="M94.3218,-111.8414C96.5735,-100.7036 100.544,-81.0637 104.1008,-63.4698"/>
<polygon fill="#00ff00" stroke="#00ff00" stroke-width=".2377" points="107.5801,-63.9221 106.1312,-53.4269 100.7189,-62.535 107.5801,-63.9221"/>
</g>
<!-- G -->
<g id="node7" class="node">
<title>G</title>
<polygon fill="#d3d3d3" stroke="#000000" points="219,-205.9655 196,-205.9655 196,-187.9655 219,-187.9655 219,-205.9655"/>
<text text-anchor="middle" x="207.5" y="-194.7655" font-family="Times,serif" font-size="9.00" fill="#000000">G</text>
</g>
<!-- G&#45;&gt;RIGHT -->
<g id="edge8" class="edge">
<title>G&#45;&gt;RIGHT</title>
<path fill="none" stroke="#ff0000" stroke-width=".2937" d="M211.8897,-187.9355C215.5387,-180.4291 220.9909,-169.2133 226.3978,-158.0908"/>
<polygon fill="#ff0000" stroke="#ff0000" stroke-width=".2937" points="229.6641,-159.3771 230.8884,-148.8532 223.3686,-156.3167 229.6641,-159.3771"/>
</g>
<!-- G&#45;&gt;67 -->
<g id="edge9" class="edge">
<title>G&#45;&gt;67</title>
<path fill="none" stroke="#00ff00" stroke-width=".7572" d="M203.9408,-187.9355C200.0691,-178.1126 193.6936,-161.9375 188.1732,-147.9317"/>
<polygon fill="#00ff00" stroke="#00ff00" stroke-width=".7572" points="191.2759,-146.2585 184.3526,-138.2386 184.7635,-148.8254 191.2759,-146.2585"/>
</g>
<!-- 67&#45;&gt;LEFT -->
<g id="edge10" class="edge">
<title>67&#45;&gt;LEFT</title>
<path fill="none" stroke="#ff0000" stroke-width=".1319" d="M166.896,-105.7529C157.7954,-92.7938 144.3922,-73.7079 133.0493,-57.5559"/>
<polygon fill="#ff0000" stroke="#ff0000" stroke-width=".1319" points="135.6115,-55.1141 127.0001,-48.9419 129.8829,-59.1371 135.6115,-55.1141"/>
</g>
</g>
</svg>
