<?xml version="1.0" encoding="UTF-8" standalone="no"?>
<!DOCTYPE svg PUBLIC "-//W3C//DTD SVG 1.1//EN"
 "http://www.w3.org/Graphics/SVG/1.1/DTD/svg11.dtd">
<!-- Generated by graphviz version 2.40.1 (20161225.0304)
 -->
<!-- Title: %3 Pages: 1 -->
<svg width="282pt" height="214pt"
 viewBox="0.00 0.00 281.50 213.97" xmlns="http://www.w3.org/2000/svg" xmlns:xlink="http://www.w3.org/1999/xlink">
<g id="graph0" class="graph" transform="scale(1 1) rotate(0) translate(4 209.9655)">
<title>%3</title>
<polygon fill="#ffffff" stroke="transparent" points="-4,4 -4,-209.9655 277.5,-209.9655 277.5,4 -4,4"/>
<!-- A -->
<g id="node1" class="node">
<title>A</title>
<polygon fill="#d3d3d3" stroke="#000000" points="96.5,-205.9655 73.5,-205.9655 73.5,-187.9655 96.5,-187.9655 96.5,-205.9655"/>
<text text-anchor="middle" x="85" y="-194.7655" font-family="Times,serif" font-size="9.00" fill="#000000">A</text>
</g>
<!-- LEFT -->
<g id="node8" class="node">
<title>LEFT</title>
<ellipse fill="#add8e6" stroke="#000000" cx="96" cy="-26.8701" rx="26.7407" ry="26.7407"/>
<text text-anchor="middle" x="96" y="-24.6701" font-family="Times,serif" font-size="9.00" fill="#000000">LEFT</text>
</g>
<!-- A&#45;&gt;LEFT -->
<g id="edge10" class="edge">
<title>A&#45;&gt;LEFT</title>
<path fill="none" stroke="#00ff00" stroke-width=".5845" d="M80.74,-187.9066C76.7997,-178.9913 71.2269,-164.8756 69,-151.9655 64.2991,-124.7122 63.4292,-116.829 69,-89.7401 71.06,-79.7227 74.7882,-69.3325 78.8295,-59.9532"/>
<polygon fill="#00ff00" stroke="#00ff00" stroke-width=".5845" points="82.129,-61.1534 83.0975,-50.6029 75.761,-58.2466 82.129,-61.1534"/>
</g>
<!-- RIGHT -->
<g id="node9" class="node">
<title>RIGHT</title>
<ellipse fill="#add8e6" stroke="#000000" cx="163" cy="-120.8528" rx="31.2258" ry="31.2258"/>
<text text-anchor="middle" x="163" y="-118.6528" font-family="Times,serif" font-size="9.00" fill="#000000">RIGHT</text>
</g>
<!-- A&#45;&gt;RIGHT -->
<g id="edge1" class="edge">
<title>A&#45;&gt;RIGHT</title>
<path fill="none" stroke="#ff0000" stroke-width=".6547" d="M94.2539,-187.9355C103.7876,-178.6325 119.1601,-163.6319 132.9532,-150.1726"/>
<polygon fill="#ff0000" stroke="#ff0000" stroke-width=".6547" points="135.6937,-152.3887 140.4064,-142.8997 130.8049,-147.3787 135.6937,-152.3887"/>
</g>
<!-- 67 -->
<g id="node10" class="node">
<title>67</title>
<ellipse fill="#ffffff" stroke="#000000" cx="96" cy="-120.8528" rx="18.2703" ry="18.2703"/>
<text text-anchor="middle" x="96" y="-118.6528" font-family="Times,serif" font-size="9.00" fill="#000000">67</text>
</g>
<!-- A&#45;&gt;67 -->
<g id="edge11" class="edge">
<title>A&#45;&gt;67</title>
<path fill="none" stroke="#ff0000" stroke-width=".2076" d="M86.305,-187.9355C87.6837,-178.3962 89.9281,-162.8663 91.9104,-149.1502"/>
<polygon fill="#ff0000" stroke="#ff0000" stroke-width=".2076" points="95.39,-149.5421 93.3565,-139.1442 88.462,-148.5407 95.39,-149.5421"/>
</g>
<!-- B -->
<g id="node2" class="node">
<title>B</title>
<polygon fill="#d3d3d3" stroke="#000000" points="228.5,-205.9655 205.5,-205.9655 205.5,-187.9655 228.5,-187.9655 228.5,-205.9655"/>
<text text-anchor="middle" x="217" y="-194.7655" font-family="Times,serif" font-size="9.00" fill="#000000">B</text>
</g>
<!-- B&#45;&gt;LEFT -->
<g id="edge2" class="edge">
<title>B&#45;&gt;LEFT</title>
<path fill="none" stroke="#ff0000" stroke-width=".4975" d="M218.3292,-187.7209C220.6715,-167.9283 223.5168,-120.7367 203,-89.7401 186.2767,-64.4747 155.6391,-47.9958 131.4201,-38.274"/>
<polygon fill="#ff0000" stroke="#ff0000" stroke-width=".4975" points="132.4196,-34.9098 121.8283,-34.6351 129.9366,-41.4547 132.4196,-34.9098"/>
</g>
<!-- B&#45;&gt;RIGHT -->
<g id="edge3" class="edge">
<title>B&#45;&gt;RIGHT</title>
<path fill="none" stroke="#ff0000" stroke-width="1.1761" d="M210.5934,-187.9355C204.737,-179.6809 195.6981,-166.9406 187.0644,-154.7715"/>
<polygon fill="#ff0000" stroke="#ff0000" stroke-width="1.1761" points="189.837,-152.6307 181.1961,-146.5001 184.1279,-156.6812 189.837,-152.6307"/>
</g>
<!-- C -->
<g id="node3" class="node">
<title>C</title>
<polygon fill="#d3d3d3" stroke="#000000" points="273.5,-129.8528 250.5,-129.8528 250.5,-111.8528 273.5,-111.8528 273.5,-129.8528"/>
<text text-anchor="middle" x="262" y="-118.6528" font-family="Times,serif" font-size="9.00" fill="#000000">C</text>
</g>
<!-- C&#45;&gt;LEFT -->
<g id="edge4" class="edge">
<title>C&#45;&gt;LEFT</title>
<path fill="none" stroke="#ff0000" stroke-width=".1338" d="M256.0642,-111.7131C251.2961,-104.9406 244.0795,-95.8616 236,-89.7401 204.041,-65.5263 161.2773,-48.055 131.4556,-37.7664"/>
<polygon fill="#ff0000" stroke="#ff0000" stroke-width=".1338" points="132.4665,-34.4139 121.8726,-34.5532 130.2412,-41.0508 132.4665,-34.4139"/>
</g>
<!-- D -->
<g id="node4" class="node">
<title>D</title>
<polygon fill="#d3d3d3" stroke="#000000" points="178.5,-205.9655 155.5,-205.9655 155.5,-187.9655 178.5,-187.9655 178.5,-205.9655"/>
<text text-anchor="middle" x="167" y="-194.7655" font-family="Times,serif" font-size="9.00" fill="#000000">D</text>
</g>
<!-- D&#45;&gt;RIGHT -->
<g id="edge5" class="edge">
<title>D&#45;&gt;RIGHT</title>
<path fill="none" stroke="#ff0000" stroke-width=".2844" d="M166.5254,-187.9355C166.1783,-181.3305 165.6803,-171.8534 165.1674,-162.0951"/>
<polygon fill="#ff0000" stroke="#ff0000" stroke-width=".2844" points="168.6534,-161.7351 164.6334,-151.9326 161.6631,-162.1025 168.6534,-161.7351"/>
</g>
<!-- E -->
<g id="node5" class="node">
<title>E</title>
<polygon fill="#d3d3d3" stroke="#000000" points="269,-205.9655 247,-205.9655 247,-187.9655 269,-187.9655 269,-205.9655"/>
<text text-anchor="middle" x="258" y="-194.7655" font-family="Times,serif" font-size="9.00" fill="#000000">E</text>
</g>
<!-- F -->
<g id="node6" class="node">
<title>F</title>
<polygon fill="#d3d3d3" stroke="#000000" points="22,-129.8528 0,-129.8528 0,-111.8528 22,-111.8528 22,-129.8528"/>
<text text-anchor="middle" x="11" y="-118.6528" font-family="Times,serif" font-size="9.00" fill="#000000">F</text>
</g>
<!-- F&#45;&gt;LEFT -->
<g id="edge6" class="edge">
<title>F&#45;&gt;LEFT</title>
<path fill="none" stroke="#00ff00" stroke-width=".2377" d="M18.0217,-111.7001C22.9262,-105.4116 29.6986,-96.9325 36,-89.7401 46.7443,-77.4767 59.1089,-64.3641 69.8114,-53.3043"/>
<polygon fill="#00ff00" stroke="#00ff00" stroke-width=".2377" points="72.4449,-55.6168 76.915,-46.0112 67.4304,-50.7327 72.4449,-55.6168"/>
</g>
<!-- G -->
<g id="node7" class="node">
<title>G</title>
<polygon fill="#d3d3d3" stroke="#000000" points="137.5,-205.9655 114.5,-205.9655 114.5,-187.9655 137.5,-187.9655 137.5,-205.9655"/>
<text text-anchor="middle" x="126" y="-194.7655" font-family="Times,serif" font-size="9.00" fill="#000000">G</text>
</g>
<!-- G&#45;&gt;RIGHT -->
<g id="edge7" class="edge">
<title>G&#45;&gt;RIGHT</title>
<path fill="none" stroke="#ff0000" stroke-width=".2937" d="M130.3897,-187.9355C134.0387,-180.4291 139.4909,-169.2133 144.8978,-158.0908"/>
<polygon fill="#ff0000" stroke="#ff0000" stroke-width=".2937" points="148.1641,-159.3771 149.3884,-148.8532 141.8686,-156.3167 148.1641,-159.3771"/>
</g>
<!-- G&#45;&gt;67 -->
<g id="edge8" class="edge">
<title>G&#45;&gt;67</title>
<path fill="none" stroke="#00ff00" stroke-width=".7572" d="M122.4408,-187.9355C118.5691,-178.1126 112.1936,-161.9375 106.6732,-147.9317"/>
<polygon fill="#00ff00" stroke="#00ff00" stroke-width=".7572" points="109.7759,-146.2585 102.8526,-138.2386 103.2635,-148.8254 109.7759,-146.2585"/>
</g>
<!-- 67&#45;&gt;LEFT -->
<g id="edge9" class="edge">
<title>67&#45;&gt;LEFT</title>
<path fill="none" stroke="#ff0000" stroke-width=".1319" d="M96,-102.2848C96,-91.3944 96,-77.2416 96,-64.1423"/>
<polygon fill="#ff0000" stroke="#ff0000" stroke-width=".1319" points="99.5001,-63.9454 96,-53.9454 92.5001,-63.9454 99.5001,-63.9454"/>
</g>
</g>
</svg>
