<?xml version="1.0" encoding="UTF-8" standalone="no"?>
<!DOCTYPE svg PUBLIC "-//W3C//DTD SVG 1.1//EN"
 "http://www.w3.org/Graphics/SVG/1.1/DTD/svg11.dtd">
<!-- Generated by graphviz version 2.40.1 (20161225.0304)
 -->
<!-- Title: %3 Pages: 1 -->
<svg width="276pt" height="124pt"
 viewBox="0.00 0.00 275.50 124.23" xmlns="http://www.w3.org/2000/svg" xmlns:xlink="http://www.w3.org/1999/xlink">
<g id="graph0" class="graph" transform="scale(1 1) rotate(0) translate(4 120.2254)">
<title>%3</title>
<polygon fill="#ffffff" stroke="transparent" points="-4,4 -4,-120.2254 271.5,-120.2254 271.5,4 -4,4"/>
<!-- A -->
<g id="node1" class="node">
<title>A</title>
<polygon fill="#d3d3d3" stroke="#000000" points="64,-116.2254 41,-116.2254 41,-98.2254 64,-98.2254 64,-116.2254"/>
<text text-anchor="middle" x="52.5" y="-105.0254" font-family="Times,serif" font-size="9.00" fill="#000000">A</text>
</g>
<!-- LEFT -->
<g id="node8" class="node">
<title>LEFT</title>
<ellipse fill="#add8e6" stroke="#000000" cx="96.5" cy="-31.1127" rx="26.7407" ry="26.7407"/>
<text text-anchor="middle" x="96.5" y="-28.9127" font-family="Times,serif" font-size="9.00" fill="#000000">LEFT</text>
</g>
<!-- A&#45;&gt;LEFT -->
<g id="edge1" class="edge">
<title>A&#45;&gt;LEFT</title>
<path fill="none" stroke="#ff0000" stroke-width=".2248" d="M57.7202,-98.1954C62.7026,-89.5766 70.5121,-76.0674 77.821,-63.4242"/>
<polygon fill="#ff0000" stroke="#ff0000" stroke-width=".2248" points="81.0323,-64.8625 83.007,-54.4533 74.9721,-61.3591 81.0323,-64.8625"/>
</g>
<!-- RIGHT -->
<g id="node9" class="node">
<title>RIGHT</title>
<ellipse fill="#add8e6" stroke="#000000" cx="172.5" cy="-31.1127" rx="31.2258" ry="31.2258"/>
<text text-anchor="middle" x="172.5" y="-28.9127" font-family="Times,serif" font-size="9.00" fill="#000000">RIGHT</text>
</g>
<!-- A&#45;&gt;RIGHT -->
<g id="edge2" class="edge">
<title>A&#45;&gt;RIGHT</title>
<path fill="none" stroke="#00ff00" stroke-width=".305" d="M64.2122,-101.3375C80.0902,-93.1996 109.1443,-77.7529 132.5,-62.2254 135.0551,-60.5267 137.6564,-58.7134 140.2438,-56.8483"/>
<polygon fill="#00ff00" stroke="#00ff00" stroke-width=".305" points="142.4524,-59.5677 148.3877,-50.7914 138.2749,-53.9508 142.4524,-59.5677"/>
</g>
<!-- B -->
<g id="node2" class="node">
<title>B</title>
<polygon fill="#d3d3d3" stroke="#000000" points="105,-116.2254 82,-116.2254 82,-98.2254 105,-98.2254 105,-116.2254"/>
<text text-anchor="middle" x="93.5" y="-105.0254" font-family="Times,serif" font-size="9.00" fill="#000000">B</text>
</g>
<!-- B&#45;&gt;LEFT -->
<g id="edge3" class="edge">
<title>B&#45;&gt;LEFT</title>
<path fill="none" stroke="#00ff00" stroke-width=".1859" d="M93.8559,-98.1954C94.153,-90.6582 94.5975,-79.3812 95.0376,-68.2139"/>
<polygon fill="#00ff00" stroke="#00ff00" stroke-width=".1859" points="98.5397,-68.2296 95.4363,-58.0995 91.5451,-67.9539 98.5397,-68.2296"/>
</g>
<!-- B&#45;&gt;RIGHT -->
<g id="edge4" class="edge">
<title>B&#45;&gt;RIGHT</title>
<path fill="none" stroke="#ff0000" stroke-width=".1774" d="M102.8726,-98.1954C112.5975,-88.8259 128.3208,-73.6772 142.3671,-60.1443"/>
<polygon fill="#ff0000" stroke="#ff0000" stroke-width=".1774" points="145.1763,-62.298 149.9493,-52.8392 140.3195,-57.2569 145.1763,-62.298"/>
</g>
<!-- C -->
<g id="node3" class="node">
<title>C</title>
<polygon fill="#d3d3d3" stroke="#000000" points="146,-116.2254 123,-116.2254 123,-98.2254 146,-98.2254 146,-116.2254"/>
<text text-anchor="middle" x="134.5" y="-105.0254" font-family="Times,serif" font-size="9.00" fill="#000000">C</text>
</g>
<!-- C&#45;&gt;LEFT -->
<g id="edge5" class="edge">
<title>C&#45;&gt;LEFT</title>
<path fill="none" stroke="#00ff00" stroke-width=".2576" d="M129.9917,-98.1954C125.8244,-89.8485 119.3673,-76.9151 113.2306,-64.6234"/>
<polygon fill="#00ff00" stroke="#00ff00" stroke-width=".2576" points="116.2418,-62.8191 108.6434,-55.4356 109.9789,-65.9459 116.2418,-62.8191"/>
</g>
<!-- C&#45;&gt;RIGHT -->
<g id="edge6" class="edge">
<title>C&#45;&gt;RIGHT</title>
<path fill="none" stroke="#ff0000" stroke-width=".134" d="M139.0083,-98.1954C142.756,-90.689 148.3556,-79.4732 153.9086,-68.3507"/>
<polygon fill="#ff0000" stroke="#ff0000" stroke-width=".134" points="157.185,-69.6235 158.5205,-59.1131 150.9222,-66.4966 157.185,-69.6235"/>
</g>
<!-- D -->
<g id="node4" class="node">
<title>D</title>
<polygon fill="#d3d3d3" stroke="#000000" points="187,-116.2254 164,-116.2254 164,-98.2254 187,-98.2254 187,-116.2254"/>
<text text-anchor="middle" x="175.5" y="-105.0254" font-family="Times,serif" font-size="9.00" fill="#000000">D</text>
</g>
<!-- D&#45;&gt;LEFT -->
<g id="edge7" class="edge">
<title>D&#45;&gt;LEFT</title>
<path fill="none" stroke="#00ff00" stroke-width=".1231" d="M166.1274,-98.1954C155.686,-88.1356 138.3297,-71.4136 123.5585,-57.1822"/>
<polygon fill="#00ff00" stroke="#00ff00" stroke-width=".1231" points="125.7499,-54.4335 116.1201,-50.0157 120.8931,-59.4745 125.7499,-54.4335"/>
</g>
<!-- D&#45;&gt;RIGHT -->
<g id="edge8" class="edge">
<title>D&#45;&gt;RIGHT</title>
<path fill="none" stroke="#ff0000" stroke-width=".8245" d="M175.1441,-98.1954C174.886,-91.6488 174.5168,-82.2808 174.1358,-72.614"/>
<polygon fill="#ff0000" stroke="#ff0000" stroke-width=".8245" points="177.6298,-72.3919 173.7386,-62.5376 170.6353,-72.6677 177.6298,-72.3919"/>
</g>
<!-- E -->
<g id="node5" class="node">
<title>E</title>
<polygon fill="#d3d3d3" stroke="#000000" points="227.5,-116.2254 205.5,-116.2254 205.5,-98.2254 227.5,-98.2254 227.5,-116.2254"/>
<text text-anchor="middle" x="216.5" y="-105.0254" font-family="Times,serif" font-size="9.00" fill="#000000">E</text>
</g>
<!-- E&#45;&gt;LEFT -->
<g id="edge9" class="edge">
<title>E&#45;&gt;LEFT</title>
<path fill="none" stroke="#ff0000" stroke-width=".4575" d="M205.4491,-102.2694C188.9498,-94.6604 157.1764,-79.1893 132.5,-62.2254 129.7771,-60.3535 127.0262,-58.307 124.3225,-56.1861"/>
<polygon fill="#ff0000" stroke="#ff0000" stroke-width=".4575" points="126.377,-53.3443 116.4284,-49.7008 121.9334,-58.7531 126.377,-53.3443"/>
</g>
<!-- E&#45;&gt;RIGHT -->
<g id="edge10" class="edge">
<title>E&#45;&gt;RIGHT</title>
<path fill="none" stroke="#00ff00" stroke-width=".2508" d="M211.2798,-98.1954C206.7448,-90.3506 199.8678,-78.4544 193.1578,-66.8473"/>
<polygon fill="#00ff00" stroke="#00ff00" stroke-width=".2508" points="196.1358,-65.0053 188.1008,-58.0995 190.0755,-68.5087 196.1358,-65.0053"/>
</g>
<!-- F -->
<g id="node6" class="node">
<title>F</title>
<polygon fill="#d3d3d3" stroke="#000000" points="267.5,-116.2254 245.5,-116.2254 245.5,-98.2254 267.5,-98.2254 267.5,-116.2254"/>
<text text-anchor="middle" x="256.5" y="-105.0254" font-family="Times,serif" font-size="9.00" fill="#000000">F</text>
</g>
<!-- F&#45;&gt;LEFT -->
<g id="edge11" class="edge">
<title>F&#45;&gt;LEFT</title>
<path fill="none" stroke="#ff0000" stroke-width=".4181" d="M245.1529,-101.9071C242.3457,-100.6503 239.331,-99.3497 236.5,-98.2254 191.0408,-80.1712 174.8753,-86.6555 132.5,-62.2254 129.4741,-60.4809 126.4658,-58.464 123.5516,-56.3122"/>
<polygon fill="#ff0000" stroke="#ff0000" stroke-width=".4181" points="125.6508,-53.5095 115.6523,-50.005 121.2831,-58.9797 125.6508,-53.5095"/>
</g>
<!-- F&#45;&gt;RIGHT -->
<g id="edge12" class="edge">
<title>F&#45;&gt;RIGHT</title>
<path fill="none" stroke="#00ff00" stroke-width=".5062" d="M246.5342,-98.1954C235.9501,-88.605 218.6835,-72.9598 203.4868,-59.19"/>
<polygon fill="#00ff00" stroke="#00ff00" stroke-width=".5062" points="205.5355,-56.3232 195.7749,-52.2022 200.8353,-61.5105 205.5355,-56.3232"/>
</g>
<!-- G -->
<g id="node7" class="node">
<title>G</title>
<polygon fill="#d3d3d3" stroke="#000000" points="23,-116.2254 0,-116.2254 0,-98.2254 23,-98.2254 23,-116.2254"/>
<text text-anchor="middle" x="11.5" y="-105.0254" font-family="Times,serif" font-size="9.00" fill="#000000">G</text>
</g>
<!-- G&#45;&gt;LEFT -->
<g id="edge13" class="edge">
<title>G&#45;&gt;LEFT</title>
<path fill="none" stroke="#ff0000" stroke-width=".2095" d="M21.5844,-98.1954C33.1487,-87.8402 52.5963,-70.426 68.7787,-55.9355"/>
<polygon fill="#ff0000" stroke="#ff0000" stroke-width=".2095" points="71.2967,-58.379 76.4117,-49.1006 66.6271,-53.1641 71.2967,-58.379"/>
</g>
<!-- G&#45;&gt;RIGHT -->
<g id="edge14" class="edge">
<title>G&#45;&gt;RIGHT</title>
<path fill="none" stroke="#00ff00" stroke-width=".3221" d="M23.277,-101.7365C25.9622,-100.5379 28.8155,-99.3058 31.5,-98.2254 75.7091,-80.433 90.7183,-85.1449 132.5,-62.2254 135.1901,-60.7497 137.8896,-59.0987 140.546,-57.3475"/>
<polygon fill="#00ff00" stroke="#00ff00" stroke-width=".3221" points="142.6699,-60.1325 148.8196,-51.5051 138.632,-54.4144 142.6699,-60.1325"/>
</g>
</g>
</svg>
