<?xml version="1.0" encoding="UTF-8" standalone="no"?>
<!DOCTYPE svg PUBLIC "-//W3C//DTD SVG 1.1//EN"
 "http://www.w3.org/Graphics/SVG/1.1/DTD/svg11.dtd">
<!-- Generated by graphviz version 2.40.1 (20161225.0304)
 -->
<!-- Title: %3 Pages: 1 -->
<svg width="277pt" height="124pt"
 viewBox="0.00 0.00 276.50 124.23" xmlns="http://www.w3.org/2000/svg" xmlns:xlink="http://www.w3.org/1999/xlink">
<g id="graph0" class="graph" transform="scale(1 1) rotate(0) translate(4 120.2254)">
<title>%3</title>
<polygon fill="#ffffff" stroke="transparent" points="-4,4 -4,-120.2254 272.5,-120.2254 272.5,4 -4,4"/>
<!-- A -->
<g id="node1" class="node">
<title>A</title>
<polygon fill="#d3d3d3" stroke="#000000" points="146,-116.2254 123,-116.2254 123,-98.2254 146,-98.2254 146,-116.2254"/>
<text text-anchor="middle" x="134.5" y="-105.0254" font-family="Times,serif" font-size="9.00" fill="#000000">A</text>
</g>
<!-- LEFT -->
<g id="node8" class="node">
<title>LEFT</title>
<ellipse fill="#add8e6" stroke="#000000" cx="96.5" cy="-31.1127" rx="26.7407" ry="26.7407"/>
<text text-anchor="middle" x="96.5" y="-28.9127" font-family="Times,serif" font-size="9.00" fill="#000000">LEFT</text>
</g>
<!-- A&#45;&gt;LEFT -->
<g id="edge1" class="edge">
<title>A&#45;&gt;LEFT</title>
<path fill="none" stroke="#00ff00" stroke-width=".1955" stroke-dasharray="1,5" d="M129.9917,-98.1954C125.8244,-89.8485 119.3673,-76.9151 113.2306,-64.6234"/>
<polygon fill="#00ff00" stroke="#00ff00" stroke-width=".1955" points="116.2418,-62.8191 108.6434,-55.4356 109.9789,-65.9459 116.2418,-62.8191"/>
</g>
<!-- RIGHT -->
<g id="node9" class="node">
<title>RIGHT</title>
<ellipse fill="#add8e6" stroke="#000000" cx="175.5" cy="-31.1127" rx="31.2258" ry="31.2258"/>
<text text-anchor="middle" x="175.5" y="-28.9127" font-family="Times,serif" font-size="9.00" fill="#000000">RIGHT</text>
</g>
<!-- A&#45;&gt;RIGHT -->
<g id="edge2" class="edge">
<title>A&#45;&gt;RIGHT</title>
<path fill="none" stroke="#ff0000" stroke-width=".1606" stroke-dasharray="1,5" d="M139.3642,-98.1954C143.4817,-90.5518 149.671,-79.0619 155.7693,-67.7409"/>
<polygon fill="#ff0000" stroke="#ff0000" stroke-width=".1606" points="158.9382,-69.2383 160.5993,-58.7745 152.7754,-65.9185 158.9382,-69.2383"/>
</g>
<!-- B -->
<g id="node2" class="node">
<title>B</title>
<polygon fill="#d3d3d3" stroke="#000000" points="23,-116.2254 0,-116.2254 0,-98.2254 23,-98.2254 23,-116.2254"/>
<text text-anchor="middle" x="11.5" y="-105.0254" font-family="Times,serif" font-size="9.00" fill="#000000">B</text>
</g>
<!-- B&#45;&gt;LEFT -->
<g id="edge3" class="edge">
<title>B&#45;&gt;LEFT</title>
<path fill="none" stroke="#ff0000" stroke-width=".4889" d="M21.5844,-98.1954C33.1487,-87.8402 52.5963,-70.426 68.7787,-55.9355"/>
<polygon fill="#ff0000" stroke="#ff0000" stroke-width=".4889" points="71.2967,-58.379 76.4117,-49.1006 66.6271,-53.1641 71.2967,-58.379"/>
</g>
<!-- C -->
<g id="node3" class="node">
<title>C</title>
<polygon fill="#d3d3d3" stroke="#000000" points="187,-116.2254 164,-116.2254 164,-98.2254 187,-98.2254 187,-116.2254"/>
<text text-anchor="middle" x="175.5" y="-105.0254" font-family="Times,serif" font-size="9.00" fill="#000000">C</text>
</g>
<!-- C&#45;&gt;LEFT -->
<g id="edge4" class="edge">
<title>C&#45;&gt;LEFT</title>
<path fill="none" stroke="#00ff00" stroke-width=".3851" stroke-dasharray="1,5" d="M166.1274,-98.1954C155.686,-88.1356 138.3297,-71.4136 123.5585,-57.1822"/>
<polygon fill="#00ff00" stroke="#00ff00" stroke-width=".3851" points="125.7499,-54.4335 116.1201,-50.0157 120.8931,-59.4745 125.7499,-54.4335"/>
</g>
<!-- C&#45;&gt;RIGHT -->
<g id="edge5" class="edge">
<title>C&#45;&gt;RIGHT</title>
<path fill="none" stroke="#00ff00" stroke-width=".3446" d="M175.5,-98.1954C175.5,-91.6488 175.5,-82.2808 175.5,-72.614"/>
<polygon fill="#00ff00" stroke="#00ff00" stroke-width=".3446" points="179.0001,-72.5375 175.5,-62.5376 172.0001,-72.5376 179.0001,-72.5375"/>
</g>
<!-- D -->
<g id="node4" class="node">
<title>D</title>
<polygon fill="#d3d3d3" stroke="#000000" points="64,-116.2254 41,-116.2254 41,-98.2254 64,-98.2254 64,-116.2254"/>
<text text-anchor="middle" x="52.5" y="-105.0254" font-family="Times,serif" font-size="9.00" fill="#000000">D</text>
</g>
<!-- D&#45;&gt;LEFT -->
<g id="edge6" class="edge">
<title>D&#45;&gt;LEFT</title>
<path fill="none" stroke="#00ff00" stroke-width=".1327" d="M57.7202,-98.1954C62.7026,-89.5766 70.5121,-76.0674 77.821,-63.4242"/>
<polygon fill="#00ff00" stroke="#00ff00" stroke-width=".1327" points="81.0323,-64.8625 83.007,-54.4533 74.9721,-61.3591 81.0323,-64.8625"/>
</g>
<!-- E -->
<g id="node5" class="node">
<title>E</title>
<polygon fill="#d3d3d3" stroke="#000000" points="268.5,-116.2254 246.5,-116.2254 246.5,-98.2254 268.5,-98.2254 268.5,-116.2254"/>
<text text-anchor="middle" x="257.5" y="-105.0254" font-family="Times,serif" font-size="9.00" fill="#000000">E</text>
</g>
<!-- F -->
<g id="node6" class="node">
<title>F</title>
<polygon fill="#d3d3d3" stroke="#000000" points="104.5,-116.2254 82.5,-116.2254 82.5,-98.2254 104.5,-98.2254 104.5,-116.2254"/>
<text text-anchor="middle" x="93.5" y="-105.0254" font-family="Times,serif" font-size="9.00" fill="#000000">F</text>
</g>
<!-- F&#45;&gt;LEFT -->
<g id="edge7" class="edge">
<title>F&#45;&gt;LEFT</title>
<path fill="none" stroke="#ff0000" stroke-width=".553" d="M93.8559,-98.1954C94.153,-90.6582 94.5975,-79.3812 95.0376,-68.2139"/>
<polygon fill="#ff0000" stroke="#ff0000" stroke-width=".553" points="98.5397,-68.2296 95.4363,-58.0995 91.5451,-67.9539 98.5397,-68.2296"/>
</g>
<!-- G -->
<g id="node7" class="node">
<title>G</title>
<polygon fill="#d3d3d3" stroke="#000000" points="228,-116.2254 205,-116.2254 205,-98.2254 228,-98.2254 228,-116.2254"/>
<text text-anchor="middle" x="216.5" y="-105.0254" font-family="Times,serif" font-size="9.00" fill="#000000">G</text>
</g>
<!-- G&#45;&gt;LEFT -->
<g id="edge8" class="edge">
<title>G&#45;&gt;LEFT</title>
<path fill="none" stroke="#00ff00" stroke-width=".3442" d="M204.8782,-101.5416C188.8218,-93.5181 159.1563,-78.0727 135.5,-62.2254 132.0189,-59.8934 128.4609,-57.3318 124.9792,-54.7106"/>
<polygon fill="#00ff00" stroke="#00ff00" stroke-width=".3442" points="127.1112,-51.9349 117.0661,-48.5664 122.8181,-57.4639 127.1112,-51.9349"/>
</g>
<!-- G&#45;&gt;RIGHT -->
<g id="edge9" class="edge">
<title>G&#45;&gt;RIGHT</title>
<path fill="none" stroke="#ff0000" stroke-width=".2114" d="M211.6358,-98.1954C207.5183,-90.5518 201.329,-79.0619 195.2307,-67.7409"/>
<polygon fill="#ff0000" stroke="#ff0000" stroke-width=".2114" points="198.2246,-65.9185 190.4007,-58.7745 192.0618,-69.2383 198.2246,-65.9185"/>
</g>
</g>
</svg>
