<?xml version="1.0" encoding="UTF-8" standalone="no"?>
<!DOCTYPE svg PUBLIC "-//W3C//DTD SVG 1.1//EN"
 "http://www.w3.org/Graphics/SVG/1.1/DTD/svg11.dtd">
<!-- Generated by graphviz version 2.40.1 (20161225.0304)
 -->
<!-- Title: %3 Pages: 1 -->
<svg width="277pt" height="124pt"
 viewBox="0.00 0.00 276.50 124.23" xmlns="http://www.w3.org/2000/svg" xmlns:xlink="http://www.w3.org/1999/xlink">
<g id="graph0" class="graph" transform="scale(1 1) rotate(0) translate(4 120.2254)">
<title>%3</title>
<polygon fill="#ffffff" stroke="transparent" points="-4,4 -4,-120.2254 272.5,-120.2254 272.5,4 -4,4"/>
<!-- A -->
<g id="node1" class="node">
<title>A</title>
<polygon fill="#d3d3d3" stroke="#000000" points="23,-116.2254 0,-116.2254 0,-98.2254 23,-98.2254 23,-116.2254"/>
<text text-anchor="middle" x="11.5" y="-105.0254" font-family="Times,serif" font-size="9.00" fill="#000000">A</text>
</g>
<!-- B -->
<g id="node2" class="node">
<title>B</title>
<polygon fill="#d3d3d3" stroke="#000000" points="64,-116.2254 41,-116.2254 41,-98.2254 64,-98.2254 64,-116.2254"/>
<text text-anchor="middle" x="52.5" y="-105.0254" font-family="Times,serif" font-size="9.00" fill="#000000">B</text>
</g>
<!-- LEFT -->
<g id="node8" class="node">
<title>LEFT</title>
<ellipse fill="#add8e6" stroke="#000000" cx="115.5" cy="-31.1127" rx="26.7407" ry="26.7407"/>
<text text-anchor="middle" x="115.5" y="-28.9127" font-family="Times,serif" font-size="9.00" fill="#000000">LEFT</text>
</g>
<!-- B&#45;&gt;LEFT -->
<g id="edge1" class="edge">
<title>B&#45;&gt;LEFT</title>
<path fill="none" stroke="#ff0000" stroke-width=".4889" d="M59.9743,-98.1954C67.8213,-88.7152 80.5656,-73.3183 91.8666,-59.6651"/>
<polygon fill="#ff0000" stroke="#ff0000" stroke-width=".4889" points="94.6257,-61.8209 98.3058,-51.8857 89.2333,-57.3574 94.6257,-61.8209"/>
</g>
<!-- C -->
<g id="node3" class="node">
<title>C</title>
<polygon fill="#d3d3d3" stroke="#000000" points="228,-116.2254 205,-116.2254 205,-98.2254 228,-98.2254 228,-116.2254"/>
<text text-anchor="middle" x="216.5" y="-105.0254" font-family="Times,serif" font-size="9.00" fill="#000000">C</text>
</g>
<!-- RIGHT -->
<g id="node9" class="node">
<title>RIGHT</title>
<ellipse fill="#add8e6" stroke="#000000" cx="194.5" cy="-31.1127" rx="31.2258" ry="31.2258"/>
<text text-anchor="middle" x="194.5" y="-28.9127" font-family="Times,serif" font-size="9.00" fill="#000000">RIGHT</text>
</g>
<!-- C&#45;&gt;RIGHT -->
<g id="edge2" class="edge">
<title>C&#45;&gt;RIGHT</title>
<path fill="none" stroke="#00ff00" stroke-width=".3446" d="M213.8899,-98.1954C211.8888,-91.2723 208.9757,-81.1938 206.0129,-70.9434"/>
<polygon fill="#00ff00" stroke="#00ff00" stroke-width=".3446" points="209.3243,-69.7951 203.1851,-61.1603 202.5996,-71.7389 209.3243,-69.7951"/>
</g>
<!-- D -->
<g id="node4" class="node">
<title>D</title>
<polygon fill="#d3d3d3" stroke="#000000" points="105,-116.2254 82,-116.2254 82,-98.2254 105,-98.2254 105,-116.2254"/>
<text text-anchor="middle" x="93.5" y="-105.0254" font-family="Times,serif" font-size="9.00" fill="#000000">D</text>
</g>
<!-- D&#45;&gt;LEFT -->
<g id="edge3" class="edge">
<title>D&#45;&gt;LEFT</title>
<path fill="none" stroke="#00ff00" stroke-width=".1327" d="M96.1101,-98.1954C98.3865,-90.3198 101.8431,-78.361 105.2106,-66.7108"/>
<polygon fill="#00ff00" stroke="#00ff00" stroke-width=".1327" points="108.5759,-67.6721 107.9904,-57.0935 101.8512,-65.7283 108.5759,-67.6721"/>
</g>
<!-- E -->
<g id="node5" class="node">
<title>E</title>
<polygon fill="#d3d3d3" stroke="#000000" points="268.5,-116.2254 246.5,-116.2254 246.5,-98.2254 268.5,-98.2254 268.5,-116.2254"/>
<text text-anchor="middle" x="257.5" y="-105.0254" font-family="Times,serif" font-size="9.00" fill="#000000">E</text>
</g>
<!-- F -->
<g id="node6" class="node">
<title>F</title>
<polygon fill="#d3d3d3" stroke="#000000" points="145.5,-116.2254 123.5,-116.2254 123.5,-98.2254 145.5,-98.2254 145.5,-116.2254"/>
<text text-anchor="middle" x="134.5" y="-105.0254" font-family="Times,serif" font-size="9.00" fill="#000000">F</text>
</g>
<!-- F&#45;&gt;LEFT -->
<g id="edge4" class="edge">
<title>F&#45;&gt;LEFT</title>
<path fill="none" stroke="#ff0000" stroke-width=".553" d="M132.2458,-98.1954C130.3147,-90.4595 127.4002,-78.7839 124.5411,-67.3308"/>
<polygon fill="#ff0000" stroke="#ff0000" stroke-width=".553" points="127.8869,-66.2825 122.0691,-57.4279 121.0953,-67.9779 127.8869,-66.2825"/>
</g>
<!-- G -->
<g id="node7" class="node">
<title>G</title>
<polygon fill="#d3d3d3" stroke="#000000" points="187,-116.2254 164,-116.2254 164,-98.2254 187,-98.2254 187,-116.2254"/>
<text text-anchor="middle" x="175.5" y="-105.0254" font-family="Times,serif" font-size="9.00" fill="#000000">G</text>
</g>
<!-- G&#45;&gt;LEFT -->
<g id="edge5" class="edge">
<title>G&#45;&gt;LEFT</title>
<path fill="none" stroke="#00ff00" stroke-width=".3442" d="M168.3816,-98.1954C161.081,-88.9342 149.3293,-74.0266 138.7561,-60.6142"/>
<polygon fill="#00ff00" stroke="#00ff00" stroke-width=".3442" points="141.315,-58.2066 132.3755,-52.52 135.8177,-62.5401 141.315,-58.2066"/>
</g>
<!-- G&#45;&gt;RIGHT -->
<g id="edge6" class="edge">
<title>G&#45;&gt;RIGHT</title>
<path fill="none" stroke="#ff0000" stroke-width=".2114" d="M177.7542,-98.1954C179.4675,-91.3319 181.9549,-81.3674 184.4909,-71.2084"/>
<polygon fill="#ff0000" stroke="#ff0000" stroke-width=".2114" points="187.8872,-72.0538 186.9135,-61.5038 181.0956,-70.3583 187.8872,-72.0538"/>
</g>
</g>
</svg>
