<?xml version="1.0" encoding="UTF-8" standalone="no"?>
<!DOCTYPE svg PUBLIC "-//W3C//DTD SVG 1.1//EN"
 "http://www.w3.org/Graphics/SVG/1.1/DTD/svg11.dtd">
<!-- Generated by graphviz version 2.40.1 (20161225.0304)
 -->
<!-- Title: %3 Pages: 1 -->
<svg width="270pt" height="123pt"
 viewBox="0.00 0.00 270.00 122.51" xmlns="http://www.w3.org/2000/svg" xmlns:xlink="http://www.w3.org/1999/xlink">
<g id="graph0" class="graph" transform="scale(1 1) rotate(0) translate(4 118.5135)">
<title>%3</title>
<polygon fill="#ffffff" stroke="transparent" points="-4,4 -4,-118.5135 266.0029,-118.5135 266.0029,4 -4,4"/>
<!-- A -->
<g id="node1" class="node">
<title>A</title>
<polygon fill="#d3d3d3" stroke="#000000" points="62.5066,-114.5135 39.4963,-114.5135 39.4963,-97.5135 62.5066,-97.5135 62.5066,-114.5135"/>
<text text-anchor="middle" x="51.0015" y="-103.3135" font-family="Times,serif" font-size="9.00" fill="#000000">A</text>
</g>
<!-- LEFT -->
<g id="node8" class="node">
<title>LEFT</title>
<ellipse fill="#add8e6" stroke="#000000" cx="91.0015" cy="-30.7567" rx="26.5303" ry="26.5303"/>
<text text-anchor="middle" x="91.0015" y="-28.0567" font-family="Times,serif" font-size="9.00" fill="#000000">LEFT</text>
</g>
<!-- A&#45;&gt;LEFT -->
<g id="edge1" class="edge">
<title>A&#45;&gt;LEFT</title>
<path fill="none" stroke="#ff0000" stroke-width="1.2971" d="M55.59,-97.3806C60.0485,-88.9923 67.0996,-75.7261 73.7402,-63.2324"/>
<polygon fill="#ff0000" stroke="#ff0000" stroke-width="1.2971" points="76.8573,-64.8252 78.4601,-54.3523 70.6761,-61.5398 76.8573,-64.8252"/>
</g>
<!-- B -->
<g id="node2" class="node">
<title>B</title>
<polygon fill="#d3d3d3" stroke="#000000" points="22.0044,-114.5135 -.0015,-114.5135 -.0015,-97.5135 22.0044,-97.5135 22.0044,-114.5135"/>
<text text-anchor="middle" x="11.0015" y="-103.3135" font-family="Times,serif" font-size="9.00" fill="#000000">B</text>
</g>
<!-- B&#45;&gt;LEFT -->
<g id="edge2" class="edge">
<title>B&#45;&gt;LEFT</title>
<path fill="none" stroke="#ff0000" stroke-width=".6453" d="M20.1785,-97.3806C30.8032,-87.3858 48.7895,-70.4659 63.977,-56.1789"/>
<polygon fill="#ff0000" stroke="#ff0000" stroke-width=".6453" points="66.7246,-58.3995 71.6102,-48.9983 61.9283,-53.3009 66.7246,-58.3995"/>
</g>
<!-- C -->
<g id="node3" class="node">
<title>C</title>
<polygon fill="#d3d3d3" stroke="#000000" points="262.0044,-114.5135 239.9985,-114.5135 239.9985,-97.5135 262.0044,-97.5135 262.0044,-114.5135"/>
<text text-anchor="middle" x="251.0015" y="-103.3135" font-family="Times,serif" font-size="9.00" fill="#000000">C</text>
</g>
<!-- RIGHT -->
<g id="node9" class="node">
<title>RIGHT</title>
<ellipse fill="#add8e6" stroke="#000000" cx="171.0015" cy="-30.7567" rx="30.5154" ry="30.5154"/>
<text text-anchor="middle" x="171.0015" y="-28.0567" font-family="Times,serif" font-size="9.00" fill="#000000">RIGHT</text>
</g>
<!-- C&#45;&gt;RIGHT -->
<g id="edge3" class="edge">
<title>C&#45;&gt;RIGHT</title>
<path fill="none" stroke="#ff0000" stroke-width=".4279" d="M241.8244,-97.3806C231.8987,-88.0433 215.5482,-72.6622 201.0569,-59.0301"/>
<polygon fill="#ff0000" stroke="#ff0000" stroke-width=".4279" points="203.3741,-56.4047 193.6922,-52.1021 198.5778,-61.5033 203.3741,-56.4047"/>
</g>
<!-- D -->
<g id="node4" class="node">
<title>D</title>
<polygon fill="#d3d3d3" stroke="#000000" points="102.5066,-114.5135 79.4963,-114.5135 79.4963,-97.5135 102.5066,-97.5135 102.5066,-114.5135"/>
<text text-anchor="middle" x="91.0015" y="-103.3135" font-family="Times,serif" font-size="9.00" fill="#000000">D</text>
</g>
<!-- D&#45;&gt;LEFT -->
<g id="edge4" class="edge">
<title>D&#45;&gt;LEFT</title>
<path fill="none" stroke="#00ff00" stroke-width=".2555" d="M91.0015,-97.3806C91.0015,-89.9315 91.0015,-78.6359 91.0015,-67.4504"/>
<polygon fill="#00ff00" stroke="#00ff00" stroke-width=".2555" points="94.5016,-67.3225 91.0015,-57.3225 87.5016,-67.3226 94.5016,-67.3225"/>
</g>
<!-- D&#45;&gt;RIGHT -->
<g id="edge5" class="edge">
<title>D&#45;&gt;RIGHT</title>
<path fill="none" stroke="#ff0000" stroke-width=".5236" d="M100.1785,-97.3806C110.1042,-88.0433 126.4548,-72.6622 140.946,-59.0301"/>
<polygon fill="#ff0000" stroke="#ff0000" stroke-width=".5236" points="143.4251,-61.5033 148.3107,-52.1021 138.6288,-56.4047 143.4251,-61.5033"/>
</g>
<!-- E -->
<g id="node5" class="node">
<title>E</title>
<polygon fill="#d3d3d3" stroke="#000000" points="222.0049,-114.5135 199.998,-114.5135 199.998,-97.5135 222.0049,-97.5135 222.0049,-114.5135"/>
<text text-anchor="middle" x="211.0015" y="-103.3135" font-family="Times,serif" font-size="9.00" fill="#000000">E</text>
</g>
<!-- E&#45;&gt;RIGHT -->
<g id="edge6" class="edge">
<title>E&#45;&gt;RIGHT</title>
<path fill="none" stroke="#00ff00" stroke-width=".2706" d="M206.413,-97.3806C202.3973,-89.8254 196.2783,-78.3131 190.2505,-66.9722"/>
<polygon fill="#00ff00" stroke="#00ff00" stroke-width=".2706" points="193.2617,-65.1801 185.4777,-57.9926 187.0806,-68.4655 193.2617,-65.1801"/>
</g>
<!-- F -->
<g id="node6" class="node">
<title>F</title>
<polygon fill="#d3d3d3" stroke="#000000" points="141.5068,-114.5135 120.4961,-114.5135 120.4961,-97.5135 141.5068,-97.5135 141.5068,-114.5135"/>
<text text-anchor="middle" x="131.0015" y="-103.3135" font-family="Times,serif" font-size="9.00" fill="#000000">F</text>
</g>
<!-- F&#45;&gt;LEFT -->
<g id="edge7" class="edge">
<title>F&#45;&gt;LEFT</title>
<path fill="none" stroke="#ff0000" stroke-width=".3953" d="M126.413,-97.3806C121.9545,-88.9923 114.9033,-75.7261 108.2627,-63.2324"/>
<polygon fill="#ff0000" stroke="#ff0000" stroke-width=".3953" points="111.3268,-61.5398 103.5428,-54.3523 105.1457,-64.8252 111.3268,-61.5398"/>
</g>
<!-- F&#45;&gt;RIGHT -->
<g id="edge8" class="edge">
<title>F&#45;&gt;RIGHT</title>
<path fill="none" stroke="#00ff00" stroke-width=".6515" d="M135.59,-97.3806C139.6057,-89.8254 145.7246,-78.3131 151.7524,-66.9722"/>
<polygon fill="#00ff00" stroke="#00ff00" stroke-width=".6515" points="154.9224,-68.4655 156.5252,-57.9926 148.7412,-65.1801 154.9224,-68.4655"/>
</g>
<!-- G -->
<g id="node7" class="node">
<title>G</title>
<polygon fill="#d3d3d3" stroke="#000000" points="182.5066,-114.5135 159.4963,-114.5135 159.4963,-97.5135 182.5066,-97.5135 182.5066,-114.5135"/>
<text text-anchor="middle" x="171.0015" y="-103.3135" font-family="Times,serif" font-size="9.00" fill="#000000">G</text>
</g>
<!-- G&#45;&gt;LEFT -->
<g id="edge9" class="edge">
<title>G&#45;&gt;LEFT</title>
<path fill="none" stroke="#ff0000" stroke-width=".2293" d="M161.8244,-97.3806C151.1997,-87.3858 133.2134,-70.4659 118.0259,-56.1789"/>
<polygon fill="#ff0000" stroke="#ff0000" stroke-width=".2293" points="120.0746,-53.3009 110.3928,-48.9983 115.2783,-58.3995 120.0746,-53.3009"/>
</g>
<!-- G&#45;&gt;RIGHT -->
<g id="edge10" class="edge">
<title>G&#45;&gt;RIGHT</title>
<path fill="none" stroke="#00ff00" stroke-width=".2538" d="M171.0015,-97.3806C171.0015,-90.9046 171.0015,-81.5213 171.0015,-71.8306"/>
<polygon fill="#00ff00" stroke="#00ff00" stroke-width=".2538" points="174.5016,-71.7296 171.0015,-61.7297 167.5016,-71.7297 174.5016,-71.7296"/>
</g>
</g>
</svg>
