<?xml version="1.0" encoding="UTF-8" standalone="no"?>
<!DOCTYPE svg PUBLIC "-//W3C//DTD SVG 1.1//EN"
 "http://www.w3.org/Graphics/SVG/1.1/DTD/svg11.dtd">
<!-- Generated by graphviz version 2.40.1 (20161225.0304)
 -->
<!-- Title: %3 Pages: 1 -->
<svg width="277pt" height="124pt"
 viewBox="0.00 0.00 276.50 124.23" xmlns="http://www.w3.org/2000/svg" xmlns:xlink="http://www.w3.org/1999/xlink">
<g id="graph0" class="graph" transform="scale(1 1) rotate(0) translate(4 120.2254)">
<title>%3</title>
<polygon fill="#ffffff" stroke="transparent" points="-4,4 -4,-120.2254 272.5,-120.2254 272.5,4 -4,4"/>
<!-- A -->
<g id="node1" class="node">
<title>A</title>
<polygon fill="#d3d3d3" stroke="#000000" points="63.5,-116.2254 40.5,-116.2254 40.5,-98.2254 63.5,-98.2254 63.5,-116.2254"/>
<text text-anchor="middle" x="52" y="-105.0254" font-family="Times,serif" font-size="9.00" fill="#000000">A</text>
</g>
<!-- LEFT -->
<g id="node8" class="node">
<title>LEFT</title>
<ellipse fill="#add8e6" stroke="#000000" cx="55" cy="-31.1127" rx="26.7407" ry="26.7407"/>
<text text-anchor="middle" x="55" y="-28.9127" font-family="Times,serif" font-size="9.00" fill="#000000">LEFT</text>
</g>
<!-- A&#45;&gt;LEFT -->
<g id="edge1" class="edge">
<title>A&#45;&gt;LEFT</title>
<path fill="none" stroke="#ff0000" stroke-width=".104" d="M52.3559,-98.1954C52.653,-90.6582 53.0975,-79.3812 53.5376,-68.2139"/>
<polygon fill="#ff0000" stroke="#ff0000" stroke-width=".104" points="57.0397,-68.2296 53.9363,-58.0995 50.0451,-67.9539 57.0397,-68.2296"/>
</g>
<!-- RIGHT -->
<g id="node9" class="node">
<title>RIGHT</title>
<ellipse fill="#add8e6" stroke="#000000" cx="134" cy="-31.1127" rx="31.2258" ry="31.2258"/>
<text text-anchor="middle" x="134" y="-28.9127" font-family="Times,serif" font-size="9.00" fill="#000000">RIGHT</text>
</g>
<!-- A&#45;&gt;RIGHT -->
<g id="edge2" class="edge">
<title>A&#45;&gt;RIGHT</title>
<path fill="none" stroke="#ff0000" stroke-width=".786" d="M61.7285,-98.1954C71.9884,-88.6721 88.6806,-73.1783 103.4394,-59.4791"/>
<polygon fill="#ff0000" stroke="#ff0000" stroke-width=".786" points="105.9886,-61.8884 110.9368,-52.52 101.2264,-56.7579 105.9886,-61.8884"/>
</g>
<!-- B -->
<g id="node2" class="node">
<title>B</title>
<polygon fill="#d3d3d3" stroke="#000000" points="104.5,-116.2254 81.5,-116.2254 81.5,-98.2254 104.5,-98.2254 104.5,-116.2254"/>
<text text-anchor="middle" x="93" y="-105.0254" font-family="Times,serif" font-size="9.00" fill="#000000">B</text>
</g>
<!-- B&#45;&gt;LEFT -->
<g id="edge11" class="edge">
<title>B&#45;&gt;LEFT</title>
<path fill="none" stroke="#00ff00" stroke-width=".1064" d="M88.4917,-98.1954C84.3244,-89.8485 77.8673,-76.9151 71.7306,-64.6234"/>
<polygon fill="#00ff00" stroke="#00ff00" stroke-width=".1064" points="74.7418,-62.8191 67.1434,-55.4356 68.4789,-65.9459 74.7418,-62.8191"/>
</g>
<!-- B&#45;&gt;RIGHT -->
<g id="edge3" class="edge">
<title>B&#45;&gt;RIGHT</title>
<path fill="none" stroke="#ff0000" stroke-width=".4577" d="M97.8642,-98.1954C101.9817,-90.5518 108.171,-79.0619 114.2693,-67.7409"/>
<polygon fill="#ff0000" stroke="#ff0000" stroke-width=".4577" points="117.4382,-69.2383 119.0993,-58.7745 111.2754,-65.9185 117.4382,-69.2383"/>
</g>
<!-- C -->
<g id="node3" class="node">
<title>C</title>
<polygon fill="#d3d3d3" stroke="#000000" points="145.5,-116.2254 122.5,-116.2254 122.5,-98.2254 145.5,-98.2254 145.5,-116.2254"/>
<text text-anchor="middle" x="134" y="-105.0254" font-family="Times,serif" font-size="9.00" fill="#000000">C</text>
</g>
<!-- C&#45;&gt;LEFT -->
<g id="edge4" class="edge">
<title>C&#45;&gt;LEFT</title>
<path fill="none" stroke="#00ff00" stroke-width=".3006" d="M124.6274,-98.1954C114.186,-88.1356 96.8297,-71.4136 82.0585,-57.1822"/>
<polygon fill="#00ff00" stroke="#00ff00" stroke-width=".3006" points="84.2499,-54.4335 74.6201,-50.0157 79.3931,-59.4745 84.2499,-54.4335"/>
</g>
<!-- C&#45;&gt;RIGHT -->
<g id="edge5" class="edge">
<title>C&#45;&gt;RIGHT</title>
<path fill="none" stroke="#00ff00" stroke-width=".5107" d="M134,-98.1954C134,-91.6488 134,-82.2808 134,-72.614"/>
<polygon fill="#00ff00" stroke="#00ff00" stroke-width=".5107" points="137.5001,-72.5375 134,-62.5376 130.5001,-72.5376 137.5001,-72.5375"/>
</g>
<!-- D -->
<g id="node4" class="node">
<title>D</title>
<polygon fill="#d3d3d3" stroke="#000000" points="186.5,-116.2254 163.5,-116.2254 163.5,-98.2254 186.5,-98.2254 186.5,-116.2254"/>
<text text-anchor="middle" x="175" y="-105.0254" font-family="Times,serif" font-size="9.00" fill="#000000">D</text>
</g>
<!-- D&#45;&gt;RIGHT -->
<g id="edge6" class="edge">
<title>D&#45;&gt;RIGHT</title>
<path fill="none" stroke="#ff0000" stroke-width=".5301" d="M170.1358,-98.1954C166.0183,-90.5518 159.829,-79.0619 153.7307,-67.7409"/>
<polygon fill="#ff0000" stroke="#ff0000" stroke-width=".5301" points="156.7246,-65.9185 148.9007,-58.7745 150.5618,-69.2383 156.7246,-65.9185"/>
</g>
<!-- E -->
<g id="node5" class="node">
<title>E</title>
<polygon fill="#d3d3d3" stroke="#000000" points="22,-116.2254 0,-116.2254 0,-98.2254 22,-98.2254 22,-116.2254"/>
<text text-anchor="middle" x="11" y="-105.0254" font-family="Times,serif" font-size="9.00" fill="#000000">E</text>
</g>
<!-- E&#45;&gt;LEFT -->
<g id="edge7" class="edge">
<title>E&#45;&gt;LEFT</title>
<path fill="none" stroke="#ff0000" stroke-width=".1764" d="M16.2202,-98.1954C21.2026,-89.5766 29.0121,-76.0674 36.321,-63.4242"/>
<polygon fill="#ff0000" stroke="#ff0000" stroke-width=".1764" points="39.5323,-64.8625 41.507,-54.4533 33.4721,-61.3591 39.5323,-64.8625"/>
</g>
<!-- E&#45;&gt;RIGHT -->
<g id="edge8" class="edge">
<title>E&#45;&gt;RIGHT</title>
<path fill="none" stroke="#ff0000" stroke-width=".6569" d="M22.1011,-101.4972C37.7652,-93.2994 67.1099,-77.5171 91,-62.2254 94.1334,-60.2197 97.348,-58.0728 100.5403,-55.8791"/>
<polygon fill="#ff0000" stroke="#ff0000" stroke-width=".6569" points="102.6976,-58.641 108.8671,-50.0278 98.6729,-52.9136 102.6976,-58.641"/>
</g>
<!-- F -->
<g id="node6" class="node">
<title>F</title>
<polygon fill="#d3d3d3" stroke="#000000" points="227,-116.2254 205,-116.2254 205,-98.2254 227,-98.2254 227,-116.2254"/>
<text text-anchor="middle" x="216" y="-105.0254" font-family="Times,serif" font-size="9.00" fill="#000000">F</text>
</g>
<!-- F&#45;&gt;RIGHT -->
<g id="edge9" class="edge">
<title>F&#45;&gt;RIGHT</title>
<path fill="none" stroke="#ff0000" stroke-width=".1397" d="M206.2715,-98.1954C196.0116,-88.6721 179.3194,-73.1783 164.5606,-59.4791"/>
<polygon fill="#ff0000" stroke="#ff0000" stroke-width=".1397" points="166.7736,-56.7579 157.0632,-52.52 162.0114,-61.8884 166.7736,-56.7579"/>
</g>
<!-- G -->
<g id="node7" class="node">
<title>G</title>
<polygon fill="#d3d3d3" stroke="#000000" points="268.5,-116.2254 245.5,-116.2254 245.5,-98.2254 268.5,-98.2254 268.5,-116.2254"/>
<text text-anchor="middle" x="257" y="-105.0254" font-family="Times,serif" font-size="9.00" fill="#000000">G</text>
</g>
<!-- G&#45;&gt;RIGHT -->
<g id="edge10" class="edge">
<title>G&#45;&gt;RIGHT</title>
<path fill="none" stroke="#ff0000" stroke-width=".3373" d="M245.2062,-99.9274C227.8868,-89.2101 194.8585,-68.7721 169.2776,-52.9426"/>
<polygon fill="#ff0000" stroke="#ff0000" stroke-width=".3373" points="170.9233,-49.845 160.5779,-47.5592 167.2398,-55.7975 170.9233,-49.845"/>
</g>
</g>
</svg>
