<?xml version="1.0" encoding="UTF-8" standalone="no"?>
<!DOCTYPE svg PUBLIC "-//W3C//DTD SVG 1.1//EN"
 "http://www.w3.org/Graphics/SVG/1.1/DTD/svg11.dtd">
<!-- Generated by graphviz version 2.40.1 (20161225.0304)
 -->
<!-- Title: %3 Pages: 1 -->
<svg width="249pt" height="197pt"
 viewBox="0.00 0.00 249.00 196.99" xmlns="http://www.w3.org/2000/svg" xmlns:xlink="http://www.w3.org/1999/xlink">
<g id="graph0" class="graph" transform="scale(1 1) rotate(0) translate(4 192.9949)">
<title>%3</title>
<polygon fill="#ffffff" stroke="transparent" points="-4,4 -4,-192.9949 245,-192.9949 245,4 -4,4"/>
<!-- A -->
<g id="node1" class="node">
<title>A</title>
<polygon fill="#d3d3d3" stroke="#000000" points="105,-125.6102 82,-125.6102 82,-107.6102 105,-107.6102 105,-125.6102"/>
<text text-anchor="middle" x="93.5" y="-114.4102" font-family="Times,serif" font-size="9.00" fill="#000000">A</text>
</g>
<!-- LEFT -->
<g id="node8" class="node">
<title>LEFT</title>
<ellipse fill="#add8e6" stroke="#000000" cx="93.5" cy="-31.1127" rx="26.7407" ry="26.7407"/>
<text text-anchor="middle" x="93.5" y="-28.9127" font-family="Times,serif" font-size="9.00" fill="#000000">LEFT</text>
</g>
<!-- A&#45;&gt;LEFT -->
<g id="edge1" class="edge">
<title>A&#45;&gt;LEFT</title>
<path fill="none" stroke="#ff0000" stroke-width="1.3792" d="M93.5,-107.4604C93.5,-98.0317 93.5,-82.712 93.5,-68.261"/>
<polygon fill="#ff0000" stroke="#ff0000" stroke-width="1.3792" points="97.0001,-67.9886 93.5,-57.9887 90.0001,-67.9887 97.0001,-67.9886"/>
</g>
<!-- RIGHT -->
<g id="node9" class="node">
<title>RIGHT</title>
<ellipse fill="#add8e6" stroke="#000000" cx="175.5" cy="-31.1127" rx="31.2258" ry="31.2258"/>
<text text-anchor="middle" x="175.5" y="-28.9127" font-family="Times,serif" font-size="9.00" fill="#000000">RIGHT</text>
</g>
<!-- A&#45;&gt;RIGHT -->
<g id="edge2" class="edge">
<title>A&#45;&gt;RIGHT</title>
<path fill="none" stroke="#00ff00" stroke-width=".359" d="M102.2754,-107.4604C112.8807,-96.4028 131.2568,-77.2429 146.9465,-60.8841"/>
<polygon fill="#00ff00" stroke="#00ff00" stroke-width=".359" points="149.5327,-63.2439 153.9287,-53.6041 144.4807,-58.3986 149.5327,-63.2439"/>
</g>
<!-- B -->
<g id="node2" class="node">
<title>B</title>
<polygon fill="#d3d3d3" stroke="#000000" points="241,-125.6102 218,-125.6102 218,-107.6102 241,-107.6102 241,-125.6102"/>
<text text-anchor="middle" x="229.5" y="-114.4102" font-family="Times,serif" font-size="9.00" fill="#000000">B</text>
</g>
<!-- B&#45;&gt;RIGHT -->
<g id="edge3" class="edge">
<title>B&#45;&gt;RIGHT</title>
<path fill="none" stroke="#00ff00" stroke-width=".4011" stroke-dasharray="1,5" d="M223.7211,-107.4604C217.4891,-97.5935 207.1826,-81.2753 197.6942,-66.2526"/>
<polygon fill="#00ff00" stroke="#00ff00" stroke-width=".4011" points="200.5385,-64.2014 192.2392,-57.6156 194.6201,-67.9395 200.5385,-64.2014"/>
</g>
<!-- C -->
<g id="node3" class="node">
<title>C</title>
<polygon fill="#d3d3d3" stroke="#000000" points="234,-188.9949 211,-188.9949 211,-170.9949 234,-170.9949 234,-188.9949"/>
<text text-anchor="middle" x="222.5" y="-177.7949" font-family="Times,serif" font-size="9.00" fill="#000000">C</text>
</g>
<!-- D -->
<g id="node4" class="node">
<title>D</title>
<polygon fill="#d3d3d3" stroke="#000000" points="23,-125.6102 0,-125.6102 0,-107.6102 23,-107.6102 23,-125.6102"/>
<text text-anchor="middle" x="11.5" y="-114.4102" font-family="Times,serif" font-size="9.00" fill="#000000">D</text>
</g>
<!-- D&#45;&gt;LEFT -->
<g id="edge4" class="edge">
<title>D&#45;&gt;LEFT</title>
<path fill="none" stroke="#00ff00" stroke-width=".3099" d="M20.2754,-107.4604C31.454,-95.8051 51.2662,-75.1479 67.4656,-58.2575"/>
<polygon fill="#00ff00" stroke="#00ff00" stroke-width=".3099" points="70.2144,-60.4479 74.6103,-50.808 65.1624,-55.6025 70.2144,-60.4479"/>
</g>
<!-- E -->
<g id="node5" class="node">
<title>E</title>
<polygon fill="#d3d3d3" stroke="#000000" points="63.5,-125.6102 41.5,-125.6102 41.5,-107.6102 63.5,-107.6102 63.5,-125.6102"/>
<text text-anchor="middle" x="52.5" y="-114.4102" font-family="Times,serif" font-size="9.00" fill="#000000">E</text>
</g>
<!-- E&#45;&gt;LEFT -->
<g id="edge5" class="edge">
<title>E&#45;&gt;LEFT</title>
<path fill="none" stroke="#ff0000" stroke-width=".2947" d="M56.8877,-107.4604C61.7804,-97.2577 69.981,-80.1569 77.3822,-64.7232"/>
<polygon fill="#ff0000" stroke="#ff0000" stroke-width=".2947" points="80.6823,-65.9358 81.8504,-55.4056 74.3705,-62.909 80.6823,-65.9358"/>
</g>
<!-- F -->
<g id="node6" class="node">
<title>F</title>
<polygon fill="#d3d3d3" stroke="#000000" points="145.5,-125.6102 123.5,-125.6102 123.5,-107.6102 145.5,-107.6102 145.5,-125.6102"/>
<text text-anchor="middle" x="134.5" y="-114.4102" font-family="Times,serif" font-size="9.00" fill="#000000">F</text>
</g>
<!-- F&#45;&gt;LEFT -->
<g id="edge6" class="edge">
<title>F&#45;&gt;LEFT</title>
<path fill="none" stroke="#ff0000" stroke-width=".3106" d="M130.1123,-107.4604C125.2196,-97.2577 117.019,-80.1569 109.6178,-64.7232"/>
<polygon fill="#ff0000" stroke="#ff0000" stroke-width=".3106" points="112.6295,-62.909 105.1496,-55.4056 106.3177,-65.9358 112.6295,-62.909"/>
</g>
<!-- F&#45;&gt;RIGHT -->
<g id="edge7" class="edge">
<title>F&#45;&gt;RIGHT</title>
<path fill="none" stroke="#00ff00" stroke-width=".5331" d="M138.8877,-107.4604C143.3615,-98.1313 150.6008,-83.035 157.4659,-68.7193"/>
<polygon fill="#00ff00" stroke="#00ff00" stroke-width=".5331" points="160.7222,-70.0233 161.8903,-59.493 154.4104,-66.9965 160.7222,-70.0233"/>
</g>
<!-- G -->
<g id="node7" class="node">
<title>G</title>
<polygon fill="#d3d3d3" stroke="#000000" points="193,-188.9949 170,-188.9949 170,-170.9949 193,-170.9949 193,-188.9949"/>
<text text-anchor="middle" x="181.5" y="-177.7949" font-family="Times,serif" font-size="9.00" fill="#000000">G</text>
</g>
<!-- 76 -->
<g id="node10" class="node">
<title>76</title>
<ellipse fill="#ffffff" stroke="#000000" cx="181.5" cy="-116.6102" rx="18.2703" ry="18.2703"/>
<text text-anchor="middle" x="181.5" y="-114.4102" font-family="Times,serif" font-size="9.00" fill="#000000">76</text>
</g>
<!-- G&#45;&gt;76 -->
<g id="edge8" class="edge">
<title>G&#45;&gt;76</title>
<path fill="none" stroke="#00ff00" stroke-width=".3211" d="M181.5,-170.9135C181.5,-164.1485 181.5,-154.5155 181.5,-145.2364"/>
<polygon fill="#00ff00" stroke="#00ff00" stroke-width=".3211" points="185.0001,-145.0821 181.5,-135.0821 178.0001,-145.0821 185.0001,-145.0821"/>
</g>
<!-- 76&#45;&gt;LEFT -->
<g id="edge10" class="edge">
<title>76&#45;&gt;LEFT</title>
<path fill="none" stroke="#00ff00" stroke-width=".178" d="M168.1347,-103.6249C155.4908,-91.3406 136.1466,-72.5465 120.3203,-57.1703"/>
<polygon fill="#00ff00" stroke="#00ff00" stroke-width=".178" points="122.4896,-54.398 112.8783,-49.94 117.6117,-59.4187 122.4896,-54.398"/>
</g>
<!-- 76&#45;&gt;RIGHT -->
<g id="edge9" class="edge">
<title>76&#45;&gt;RIGHT</title>
<path fill="none" stroke="#00ff00" stroke-width=".595" d="M180.1981,-98.0585C179.6672,-90.4937 179.0305,-81.4215 178.3998,-72.4335"/>
<polygon fill="#00ff00" stroke="#00ff00" stroke-width=".595" points="181.8877,-72.1369 177.6961,-62.4065 174.9049,-72.627 181.8877,-72.1369"/>
</g>
</g>
</svg>
