<?xml version="1.0" encoding="UTF-8" standalone="no"?>
<!DOCTYPE svg PUBLIC "-//W3C//DTD SVG 1.1//EN"
 "http://www.w3.org/Graphics/SVG/1.1/DTD/svg11.dtd">
<!-- Generated by graphviz version 2.40.1 (20161225.0304)
 -->
<!-- Title: %3 Pages: 1 -->
<svg width="283pt" height="197pt"
 viewBox="0.00 0.00 282.50 196.99" xmlns="http://www.w3.org/2000/svg" xmlns:xlink="http://www.w3.org/1999/xlink">
<g id="graph0" class="graph" transform="scale(1 1) rotate(0) translate(4 192.9949)">
<title>%3</title>
<polygon fill="#ffffff" stroke="transparent" points="-4,4 -4,-192.9949 278.5,-192.9949 278.5,4 -4,4"/>
<!-- A -->
<g id="node1" class="node">
<title>A</title>
<polygon fill="#d3d3d3" stroke="#000000" points="104.5,-125.6102 81.5,-125.6102 81.5,-107.6102 104.5,-107.6102 104.5,-125.6102"/>
<text text-anchor="middle" x="93" y="-114.4102" font-family="Times,serif" font-size="9.00" fill="#000000">A</text>
</g>
<!-- LEFT -->
<g id="node8" class="node">
<title>LEFT</title>
<ellipse fill="#add8e6" stroke="#000000" cx="75" cy="-31.1127" rx="26.7407" ry="26.7407"/>
<text text-anchor="middle" x="75" y="-28.9127" font-family="Times,serif" font-size="9.00" fill="#000000">LEFT</text>
</g>
<!-- A&#45;&gt;LEFT -->
<g id="edge1" class="edge">
<title>A&#45;&gt;LEFT</title>
<path fill="none" stroke="#ff0000" stroke-width="1.3792" d="M91.0737,-107.4604C89.0546,-97.8702 85.7524,-82.1853 82.6647,-67.519"/>
<polygon fill="#ff0000" stroke="#ff0000" stroke-width="1.3792" points="86.0649,-66.68 80.5797,-57.6156 79.215,-68.1222 86.0649,-66.68"/>
</g>
<!-- RIGHT -->
<g id="node9" class="node">
<title>RIGHT</title>
<ellipse fill="#add8e6" stroke="#000000" cx="151" cy="-31.1127" rx="31.2258" ry="31.2258"/>
<text text-anchor="middle" x="151" y="-28.9127" font-family="Times,serif" font-size="9.00" fill="#000000">RIGHT</text>
</g>
<!-- A&#45;&gt;RIGHT -->
<g id="edge2" class="edge">
<title>A&#45;&gt;RIGHT</title>
<path fill="none" stroke="#00ff00" stroke-width=".359" d="M99.207,-107.4604C106.0617,-97.3559 117.5062,-80.4857 127.8964,-65.1696"/>
<polygon fill="#00ff00" stroke="#00ff00" stroke-width=".359" points="130.8068,-67.1138 133.5244,-56.8735 125.0139,-63.1841 130.8068,-67.1138"/>
</g>
<!-- B -->
<g id="node2" class="node">
<title>B</title>
<polygon fill="#d3d3d3" stroke="#000000" points="233.5,-188.9949 210.5,-188.9949 210.5,-170.9949 233.5,-170.9949 233.5,-188.9949"/>
<text text-anchor="middle" x="222" y="-177.7949" font-family="Times,serif" font-size="9.00" fill="#000000">B</text>
</g>
<!-- C -->
<g id="node3" class="node">
<title>C</title>
<polygon fill="#d3d3d3" stroke="#000000" points="274.5,-188.9949 251.5,-188.9949 251.5,-170.9949 274.5,-170.9949 274.5,-188.9949"/>
<text text-anchor="middle" x="263" y="-177.7949" font-family="Times,serif" font-size="9.00" fill="#000000">C</text>
</g>
<!-- D -->
<g id="node4" class="node">
<title>D</title>
<polygon fill="#d3d3d3" stroke="#000000" points="63.5,-125.6102 40.5,-125.6102 40.5,-107.6102 63.5,-107.6102 63.5,-125.6102"/>
<text text-anchor="middle" x="52" y="-114.4102" font-family="Times,serif" font-size="9.00" fill="#000000">D</text>
</g>
<!-- D&#45;&gt;LEFT -->
<g id="edge3" class="edge">
<title>D&#45;&gt;LEFT</title>
<path fill="none" stroke="#00ff00" stroke-width=".3099" d="M54.4614,-107.4604C57.0602,-97.8002 61.3225,-81.956 65.2925,-67.198"/>
<polygon fill="#00ff00" stroke="#00ff00" stroke-width=".3099" points="68.7523,-67.8098 67.9704,-57.2439 61.9927,-65.9913 68.7523,-67.8098"/>
</g>
<!-- E -->
<g id="node5" class="node">
<title>E</title>
<polygon fill="#d3d3d3" stroke="#000000" points="22,-125.6102 0,-125.6102 0,-107.6102 22,-107.6102 22,-125.6102"/>
<text text-anchor="middle" x="11" y="-114.4102" font-family="Times,serif" font-size="9.00" fill="#000000">E</text>
</g>
<!-- E&#45;&gt;LEFT -->
<g id="edge4" class="edge">
<title>E&#45;&gt;LEFT</title>
<path fill="none" stroke="#ff0000" stroke-width=".2947" d="M17.8491,-107.4604C26.0871,-96.4553 40.3327,-77.4247 52.5398,-61.1173"/>
<polygon fill="#ff0000" stroke="#ff0000" stroke-width=".2947" points="55.5041,-62.9977 58.6949,-52.8947 49.9003,-58.8028 55.5041,-62.9977"/>
</g>
<!-- F -->
<g id="node6" class="node">
<title>F</title>
<polygon fill="#d3d3d3" stroke="#000000" points="145,-125.6102 123,-125.6102 123,-107.6102 145,-107.6102 145,-125.6102"/>
<text text-anchor="middle" x="134" y="-114.4102" font-family="Times,serif" font-size="9.00" fill="#000000">F</text>
</g>
<!-- F&#45;&gt;LEFT -->
<g id="edge5" class="edge">
<title>F&#45;&gt;LEFT</title>
<path fill="none" stroke="#ff0000" stroke-width=".3106" d="M127.686,-107.4604C120.2114,-96.629 107.372,-78.0233 96.2396,-61.8912"/>
<polygon fill="#ff0000" stroke="#ff0000" stroke-width=".3106" points="98.8359,-59.4912 90.2755,-53.2486 93.0745,-63.467 98.8359,-59.4912"/>
</g>
<!-- F&#45;&gt;RIGHT -->
<g id="edge6" class="edge">
<title>F&#45;&gt;RIGHT</title>
<path fill="none" stroke="#00ff00" stroke-width=".5331" d="M135.8193,-107.4604C137.5394,-98.8098 140.2454,-85.2004 142.8994,-71.8526"/>
<polygon fill="#00ff00" stroke="#00ff00" stroke-width=".5331" points="146.3842,-72.2736 144.9016,-61.783 139.5186,-70.9084 146.3842,-72.2736"/>
</g>
<!-- G -->
<g id="node7" class="node">
<title>G</title>
<polygon fill="#d3d3d3" stroke="#000000" points="192.5,-188.9949 169.5,-188.9949 169.5,-170.9949 192.5,-170.9949 192.5,-188.9949"/>
<text text-anchor="middle" x="181" y="-177.7949" font-family="Times,serif" font-size="9.00" fill="#000000">G</text>
</g>
<!-- 76 -->
<g id="node10" class="node">
<title>76</title>
<ellipse fill="#ffffff" stroke="#000000" cx="181" cy="-116.6102" rx="18.2703" ry="18.2703"/>
<text text-anchor="middle" x="181" y="-114.4102" font-family="Times,serif" font-size="9.00" fill="#000000">76</text>
</g>
<!-- G&#45;&gt;76 -->
<g id="edge7" class="edge">
<title>G&#45;&gt;76</title>
<path fill="none" stroke="#00ff00" stroke-width=".3211" d="M181,-170.9135C181,-164.1485 181,-154.5155 181,-145.2364"/>
<polygon fill="#00ff00" stroke="#00ff00" stroke-width=".3211" points="184.5001,-145.0821 181,-135.0821 177.5001,-145.0821 184.5001,-145.0821"/>
</g>
<!-- 76&#45;&gt;LEFT -->
<g id="edge9" class="edge">
<title>76&#45;&gt;LEFT</title>
<path fill="none" stroke="#00ff00" stroke-width=".178" d="M166.0748,-105.3726C151.7809,-94.5266 129.6866,-77.5418 111,-62.2254 108.4445,-60.1308 105.8086,-57.9311 103.18,-55.7104"/>
<polygon fill="#00ff00" stroke="#00ff00" stroke-width=".178" points="105.2805,-52.9016 95.4031,-49.0691 100.7346,-58.2247 105.2805,-52.9016"/>
</g>
<!-- 76&#45;&gt;RIGHT -->
<g id="edge8" class="edge">
<title>76&#45;&gt;RIGHT</title>
<path fill="none" stroke="#00ff00" stroke-width=".595" d="M174.784,-98.895C171.8446,-90.5182 168.2105,-80.1611 164.6753,-70.086"/>
<polygon fill="#00ff00" stroke="#00ff00" stroke-width=".595" points="167.9556,-68.8637 161.342,-60.5866 161.3505,-71.1814 167.9556,-68.8637"/>
</g>
</g>
</svg>
