<?xml version="1.0" encoding="UTF-8" standalone="no"?>
<!DOCTYPE svg PUBLIC "-//W3C//DTD SVG 1.1//EN"
 "http://www.w3.org/Graphics/SVG/1.1/DTD/svg11.dtd">
<!-- Generated by graphviz version 2.40.1 (20161225.0304)
 -->
<!-- Title: %3 Pages: 1 -->
<svg width="276pt" height="124pt"
 viewBox="0.00 0.00 276.00 124.23" xmlns="http://www.w3.org/2000/svg" xmlns:xlink="http://www.w3.org/1999/xlink">
<g id="graph0" class="graph" transform="scale(1 1) rotate(0) translate(4 120.2254)">
<title>%3</title>
<polygon fill="#ffffff" stroke="transparent" points="-4,4 -4,-120.2254 272,-120.2254 272,4 -4,4"/>
<!-- A -->
<g id="node1" class="node">
<title>A</title>
<polygon fill="#d3d3d3" stroke="#000000" points="227,-116.2254 204,-116.2254 204,-98.2254 227,-98.2254 227,-116.2254"/>
<text text-anchor="middle" x="215.5" y="-105.0254" font-family="Times,serif" font-size="9.00" fill="#000000">A</text>
</g>
<!-- LEFT -->
<g id="node8" class="node">
<title>LEFT</title>
<ellipse fill="#add8e6" stroke="#000000" cx="116.5" cy="-31.1127" rx="26.7407" ry="26.7407"/>
<text text-anchor="middle" x="116.5" y="-28.9127" font-family="Times,serif" font-size="9.00" fill="#000000">LEFT</text>
</g>
<!-- A&#45;&gt;LEFT -->
<g id="edge1" class="edge">
<title>A&#45;&gt;LEFT</title>
<path fill="none" stroke="#ff0000" stroke-width=".2275" d="M203.6517,-99.2474C190.8085,-90.4883 169.8263,-75.8531 152.5,-62.2254 149.9028,-60.1826 147.2384,-58.0186 144.591,-55.8212"/>
<polygon fill="#ff0000" stroke="#ff0000" stroke-width=".2275" points="146.6797,-53.0037 136.785,-49.2162 142.1581,-58.3474 146.6797,-53.0037"/>
</g>
<!-- RIGHT -->
<g id="node9" class="node">
<title>RIGHT</title>
<ellipse fill="#add8e6" stroke="#000000" cx="192.5" cy="-31.1127" rx="31.2258" ry="31.2258"/>
<text text-anchor="middle" x="192.5" y="-28.9127" font-family="Times,serif" font-size="9.00" fill="#000000">RIGHT</text>
</g>
<!-- A&#45;&gt;RIGHT -->
<g id="edge2" class="edge">
<title>A&#45;&gt;RIGHT</title>
<path fill="none" stroke="#00ff00" stroke-width=".1109" d="M212.7713,-98.1954C210.6792,-91.2723 207.6337,-81.1938 204.5362,-70.9434"/>
<polygon fill="#00ff00" stroke="#00ff00" stroke-width=".1109" points="207.823,-69.7203 201.5799,-61.1603 201.1222,-71.7452 207.823,-69.7203"/>
</g>
<!-- B -->
<g id="node2" class="node">
<title>B</title>
<polygon fill="#d3d3d3" stroke="#000000" points="268,-116.2254 245,-116.2254 245,-98.2254 268,-98.2254 268,-116.2254"/>
<text text-anchor="middle" x="256.5" y="-105.0254" font-family="Times,serif" font-size="9.00" fill="#000000">B</text>
</g>
<!-- B&#45;&gt;LEFT -->
<g id="edge3" class="edge">
<title>B&#45;&gt;LEFT</title>
<path fill="none" stroke="#ff0000" stroke-width=".2989" d="M244.671,-101.8601C241.9885,-100.6551 239.1494,-99.3891 236.5,-98.2254 199.3119,-81.8908 186.9393,-83.7594 152.5,-62.2254 149.6983,-60.4736 146.8933,-58.5096 144.1543,-56.4426"/>
<polygon fill="#ff0000" stroke="#ff0000" stroke-width=".2989" points="146.1889,-53.5872 136.205,-50.0413 141.7985,-59.0393 146.1889,-53.5872"/>
</g>
<!-- B&#45;&gt;RIGHT -->
<g id="edge4" class="edge">
<title>B&#45;&gt;RIGHT</title>
<path fill="none" stroke="#ff0000" stroke-width=".7313" d="M248.907,-98.1954C241.5584,-89.456 229.9819,-75.6884 219.2236,-62.894"/>
<polygon fill="#ff0000" stroke="#ff0000" stroke-width=".7313" points="221.7905,-60.5084 212.6759,-55.1071 216.4328,-65.0134 221.7905,-60.5084"/>
</g>
<!-- C -->
<g id="node3" class="node">
<title>C</title>
<polygon fill="#d3d3d3" stroke="#000000" points="64,-116.2254 41,-116.2254 41,-98.2254 64,-98.2254 64,-116.2254"/>
<text text-anchor="middle" x="52.5" y="-105.0254" font-family="Times,serif" font-size="9.00" fill="#000000">C</text>
</g>
<!-- C&#45;&gt;LEFT -->
<g id="edge5" class="edge">
<title>C&#45;&gt;LEFT</title>
<path fill="none" stroke="#ff0000" stroke-width=".495" d="M60.093,-98.1954C68.0645,-88.7152 81.0111,-73.3183 92.4915,-59.6651"/>
<polygon fill="#ff0000" stroke="#ff0000" stroke-width=".495" points="95.2759,-61.792 99.0329,-51.8857 89.9182,-57.287 95.2759,-61.792"/>
</g>
<!-- D -->
<g id="node4" class="node">
<title>D</title>
<polygon fill="#d3d3d3" stroke="#000000" points="105,-116.2254 82,-116.2254 82,-98.2254 105,-98.2254 105,-116.2254"/>
<text text-anchor="middle" x="93.5" y="-105.0254" font-family="Times,serif" font-size="9.00" fill="#000000">D</text>
</g>
<!-- D&#45;&gt;LEFT -->
<g id="edge6" class="edge">
<title>D&#45;&gt;LEFT</title>
<path fill="none" stroke="#00ff00" stroke-width=".1525" d="M96.2287,-98.1954C98.6086,-90.3198 102.2223,-78.361 105.7429,-66.7108"/>
<polygon fill="#00ff00" stroke="#00ff00" stroke-width=".1525" points="109.1067,-67.6784 108.649,-57.0935 102.4059,-65.6535 109.1067,-67.6784"/>
</g>
<!-- D&#45;&gt;RIGHT -->
<g id="edge7" class="edge">
<title>D&#45;&gt;RIGHT</title>
<path fill="none" stroke="#ff0000" stroke-width=".3275" d="M105.279,-98.2933C117.206,-89.2367 136.1705,-74.8029 152.5,-62.2254 154.787,-60.4638 157.1449,-58.6427 159.5179,-56.8063"/>
<polygon fill="#ff0000" stroke="#ff0000" stroke-width=".3275" points="161.8057,-59.4613 167.5634,-50.5674 157.5161,-53.9296 161.8057,-59.4613"/>
</g>
<!-- E -->
<g id="node5" class="node">
<title>E</title>
<polygon fill="#d3d3d3" stroke="#000000" points="145.5,-116.2254 123.5,-116.2254 123.5,-98.2254 145.5,-98.2254 145.5,-116.2254"/>
<text text-anchor="middle" x="134.5" y="-105.0254" font-family="Times,serif" font-size="9.00" fill="#000000">E</text>
</g>
<!-- E&#45;&gt;LEFT -->
<g id="edge8" class="edge">
<title>E&#45;&gt;LEFT</title>
<path fill="none" stroke="#ff0000" stroke-width=".5071" d="M132.3645,-98.1954C130.535,-90.4595 127.7738,-78.7839 125.0653,-67.3308"/>
<polygon fill="#ff0000" stroke="#ff0000" stroke-width=".5071" points="128.4309,-66.354 122.7233,-57.4279 121.6188,-67.965 128.4309,-66.354"/>
</g>
<!-- E&#45;&gt;RIGHT -->
<g id="edge9" class="edge">
<title>E&#45;&gt;RIGHT</title>
<path fill="none" stroke="#ff0000" stroke-width="1.1849" d="M141.3811,-98.1954C147.8303,-89.7322 157.8726,-76.5538 167.3551,-64.1101"/>
<polygon fill="#ff0000" stroke="#ff0000" stroke-width="1.1849" points="170.185,-66.171 173.4622,-56.0958 164.6173,-61.9283 170.185,-66.171"/>
</g>
<!-- F -->
<g id="node6" class="node">
<title>F</title>
<polygon fill="#d3d3d3" stroke="#000000" points="185.5,-116.2254 163.5,-116.2254 163.5,-98.2254 185.5,-98.2254 185.5,-116.2254"/>
<text text-anchor="middle" x="174.5" y="-105.0254" font-family="Times,serif" font-size="9.00" fill="#000000">F</text>
</g>
<!-- F&#45;&gt;LEFT -->
<g id="edge10" class="edge">
<title>F&#45;&gt;LEFT</title>
<path fill="none" stroke="#00ff00" stroke-width=".115" stroke-dasharray="1,5" d="M167.6189,-98.1954C160.5616,-88.9342 149.2016,-74.0266 138.9809,-60.6142"/>
<polygon fill="#00ff00" stroke="#00ff00" stroke-width=".115" points="141.6579,-58.3525 132.813,-52.52 136.0902,-62.5953 141.6579,-58.3525"/>
</g>
<!-- F&#45;&gt;RIGHT -->
<g id="edge11" class="edge">
<title>F&#45;&gt;RIGHT</title>
<path fill="none" stroke="#ff0000" stroke-width=".6528" d="M176.6355,-98.1954C178.2419,-91.4027 180.5667,-81.5725 182.9434,-71.5226"/>
<polygon fill="#ff0000" stroke="#ff0000" stroke-width=".6528" points="186.4173,-72.0409 185.3128,-61.5038 179.6052,-70.4298 186.4173,-72.0409"/>
</g>
<!-- G -->
<g id="node7" class="node">
<title>G</title>
<polygon fill="#d3d3d3" stroke="#000000" points="23,-116.2254 0,-116.2254 0,-98.2254 23,-98.2254 23,-116.2254"/>
<text text-anchor="middle" x="11.5" y="-105.0254" font-family="Times,serif" font-size="9.00" fill="#000000">G</text>
</g>
<!-- G&#45;&gt;LEFT -->
<g id="edge12" class="edge">
<title>G&#45;&gt;LEFT</title>
<path fill="none" stroke="#00ff00" stroke-width=".8695" d="M23.138,-98.7892C38.2491,-87.8354 65.18,-68.3137 86.247,-53.0426"/>
<polygon fill="#00ff00" stroke="#00ff00" stroke-width=".8695" points="88.5321,-55.709 94.5745,-47.0061 84.4237,-50.0414 88.5321,-55.709"/>
</g>
</g>
</svg>
