<?xml version="1.0" encoding="UTF-8" standalone="no"?>
<!DOCTYPE svg PUBLIC "-//W3C//DTD SVG 1.1//EN"
 "http://www.w3.org/Graphics/SVG/1.1/DTD/svg11.dtd">
<!-- Generated by graphviz version 2.40.1 (20161225.0304)
 -->
<!-- Title: %3 Pages: 1 -->
<svg width="298pt" height="197pt"
 viewBox="0.00 0.00 298.00 196.99" xmlns="http://www.w3.org/2000/svg" xmlns:xlink="http://www.w3.org/1999/xlink">
<g id="graph0" class="graph" transform="scale(1 1) rotate(0) translate(4 192.9949)">
<title>%3</title>
<polygon fill="#ffffff" stroke="transparent" points="-4,4 -4,-192.9949 294,-192.9949 294,4 -4,4"/>
<!-- A -->
<g id="node1" class="node">
<title>A</title>
<polygon fill="#d3d3d3" stroke="#000000" points="23,-188.9949 0,-188.9949 0,-170.9949 23,-170.9949 23,-188.9949"/>
<text text-anchor="middle" x="11.5" y="-177.7949" font-family="Times,serif" font-size="9.00" fill="#000000">A</text>
</g>
<!-- LEFT -->
<g id="node8" class="node">
<title>LEFT</title>
<ellipse fill="#add8e6" stroke="#000000" cx="98.5" cy="-31.1127" rx="26.7407" ry="26.7407"/>
<text text-anchor="middle" x="98.5" y="-28.9127" font-family="Times,serif" font-size="9.00" fill="#000000">LEFT</text>
</g>
<!-- A&#45;&gt;LEFT -->
<g id="edge10" class="edge">
<title>A&#45;&gt;LEFT</title>
<path fill="none" stroke="#ff0000" stroke-width=".5715" d="M12.1334,-170.8211C13.56,-155.0473 18.034,-122.1746 31.5,-98.2254 41.0109,-81.3104 55.9668,-65.7444 69.3376,-53.871"/>
<polygon fill="#ff0000" stroke="#ff0000" stroke-width=".5715" points="71.6598,-56.4904 76.9738,-47.3245 67.1038,-51.176 71.6598,-56.4904"/>
</g>
<!-- RIGHT -->
<g id="node9" class="node">
<title>RIGHT</title>
<ellipse fill="#add8e6" stroke="#000000" cx="178.5" cy="-31.1127" rx="31.2258" ry="31.2258"/>
<text text-anchor="middle" x="178.5" y="-28.9127" font-family="Times,serif" font-size="9.00" fill="#000000">RIGHT</text>
</g>
<!-- A&#45;&gt;RIGHT -->
<g id="edge11" class="edge">
<title>A&#45;&gt;RIGHT</title>
<path fill="none" stroke="#00ff00" stroke-width=".5097" d="M13.9637,-170.907C18.8714,-154.3761 31.348,-119.1646 53.5,-98.2254 82.1295,-71.1634 100.2504,-81.6925 134.5,-62.2254 137.9695,-60.2534 141.5044,-58.0747 144.9866,-55.813"/>
<polygon fill="#00ff00" stroke="#00ff00" stroke-width=".5097" points="147.1353,-58.5855 153.4666,-50.0904 143.2196,-52.7831 147.1353,-58.5855"/>
</g>
<!-- 12 -->
<g id="node10" class="node">
<title>12</title>
<ellipse fill="#ffffff" stroke="#000000" cx="98.5" cy="-116.6102" rx="18.2703" ry="18.2703"/>
<text text-anchor="middle" x="98.5" y="-114.4102" font-family="Times,serif" font-size="9.00" fill="#000000">12</text>
</g>
<!-- A&#45;&gt;12 -->
<g id="edge1" class="edge">
<title>A&#45;&gt;12</title>
<path fill="none" stroke="#ff0000" stroke-width=".7611" d="M23.2332,-171.4466C36.5041,-161.778 58.4482,-145.7903 75.2272,-133.5658"/>
<polygon fill="#ff0000" stroke="#ff0000" stroke-width=".7611" points="77.436,-136.287 83.4575,-127.5696 73.3141,-130.6293 77.436,-136.287"/>
</g>
<!-- B -->
<g id="node2" class="node">
<title>B</title>
<polygon fill="#d3d3d3" stroke="#000000" points="290,-188.9949 267,-188.9949 267,-170.9949 290,-170.9949 290,-188.9949"/>
<text text-anchor="middle" x="278.5" y="-177.7949" font-family="Times,serif" font-size="9.00" fill="#000000">B</text>
</g>
<!-- B&#45;&gt;RIGHT -->
<g id="edge12" class="edge">
<title>B&#45;&gt;RIGHT</title>
<path fill="none" stroke="#00ff00" stroke-width=".4271" d="M276.7192,-170.7747C273.3486,-154.9309 264.9517,-121.9556 249.5,-98.2254 239.3828,-82.6877 224.9603,-68.1826 211.7538,-56.6612"/>
<polygon fill="#00ff00" stroke="#00ff00" stroke-width=".4271" points="213.6356,-53.6692 203.7375,-49.8905 209.1188,-59.017 213.6356,-53.6692"/>
</g>
<!-- B&#45;&gt;12 -->
<g id="edge2" class="edge">
<title>B&#45;&gt;12</title>
<path fill="none" stroke="#ff0000" stroke-width=".1482" d="M266.9664,-175.9335C238.7713,-166.005 165.7432,-140.289 125.7199,-126.1953"/>
<polygon fill="#ff0000" stroke="#ff0000" stroke-width=".1482" points="126.6644,-122.8173 116.0695,-122.7971 124.3393,-129.4199 126.6644,-122.8173"/>
</g>
<!-- C -->
<g id="node3" class="node">
<title>C</title>
<polygon fill="#d3d3d3" stroke="#000000" points="64,-188.9949 41,-188.9949 41,-170.9949 64,-170.9949 64,-188.9949"/>
<text text-anchor="middle" x="52.5" y="-177.7949" font-family="Times,serif" font-size="9.00" fill="#000000">C</text>
</g>
<!-- C&#45;&gt;LEFT -->
<g id="edge13" class="edge">
<title>C&#45;&gt;LEFT</title>
<path fill="none" stroke="#ff0000" stroke-width=".2809" d="M47.7887,-170.6107C40.6645,-155.0774 28.9439,-123.252 38.5,-98.2254 44.9175,-81.4185 57.6946,-66.157 69.8148,-54.4491"/>
<polygon fill="#ff0000" stroke="#ff0000" stroke-width=".2809" points="72.2279,-56.9849 77.2137,-47.6365 67.4864,-51.8354 72.2279,-56.9849"/>
</g>
<!-- C&#45;&gt;RIGHT -->
<g id="edge14" class="edge">
<title>C&#45;&gt;RIGHT</title>
<path fill="none" stroke="#00ff00" stroke-width=".6327" d="M52.34,-170.9213C52.5073,-154.7202 54.9634,-120.4367 71.5,-98.2254 90.7584,-72.3582 107.3028,-79.555 134.5,-62.2254 137.8656,-60.0809 141.3313,-57.7872 144.7702,-55.4536"/>
<polygon fill="#00ff00" stroke="#00ff00" stroke-width=".6327" points="146.9551,-58.1982 153.1911,-49.633 142.9748,-52.4399 146.9551,-58.1982"/>
</g>
<!-- C&#45;&gt;12 -->
<g id="edge3" class="edge">
<title>C&#45;&gt;12</title>
<path fill="none" stroke="#00ff00" stroke-width=".5531" stroke-dasharray="1,5" d="M59.0907,-170.9135C64.9714,-162.8103 73.8384,-150.5921 81.6733,-139.7962"/>
<polygon fill="#00ff00" stroke="#00ff00" stroke-width=".5531" points="84.6178,-141.6978 87.6587,-131.5487 78.9525,-137.5863 84.6178,-141.6978"/>
</g>
<!-- D -->
<g id="node4" class="node">
<title>D</title>
<polygon fill="#d3d3d3" stroke="#000000" points="186,-188.9949 163,-188.9949 163,-170.9949 186,-170.9949 186,-188.9949"/>
<text text-anchor="middle" x="174.5" y="-177.7949" font-family="Times,serif" font-size="9.00" fill="#000000">D</text>
</g>
<!-- D&#45;&gt;LEFT -->
<g id="edge15" class="edge">
<title>D&#45;&gt;LEFT</title>
<path fill="none" stroke="#ff0000" stroke-width=".9037" d="M169.7459,-170.6817C159.1119,-149.8499 132.9679,-98.6345 115.4835,-64.3831"/>
<polygon fill="#ff0000" stroke="#ff0000" stroke-width=".9037" points="118.4658,-62.527 110.8018,-55.2116 112.2311,-65.7096 118.4658,-62.527"/>
</g>
<!-- D&#45;&gt;RIGHT -->
<g id="edge16" class="edge">
<title>D&#45;&gt;RIGHT</title>
<path fill="none" stroke="#ff0000" stroke-width=".2875" d="M174.7502,-170.6817C175.2679,-151.4126 176.4841,-106.1472 177.3919,-72.3574"/>
<polygon fill="#ff0000" stroke="#ff0000" stroke-width=".2875" points="180.8927,-72.3712 177.6626,-62.2808 173.8952,-72.1831 180.8927,-72.3712"/>
</g>
<!-- D&#45;&gt;12 -->
<g id="edge4" class="edge">
<title>D&#45;&gt;12</title>
<path fill="none" stroke="#00ff00" stroke-width=".1071" d="M163.6111,-170.9135C152.4258,-161.5849 134.7016,-146.8027 120.568,-135.0151"/>
<polygon fill="#00ff00" stroke="#00ff00" stroke-width=".1071" points="122.6593,-132.2018 112.7379,-128.4847 118.1758,-137.5775 122.6593,-132.2018"/>
</g>
<!-- E -->
<g id="node5" class="node">
<title>E</title>
<polygon fill="#d3d3d3" stroke="#000000" points="104.5,-188.9949 82.5,-188.9949 82.5,-170.9949 104.5,-170.9949 104.5,-188.9949"/>
<text text-anchor="middle" x="93.5" y="-177.7949" font-family="Times,serif" font-size="9.00" fill="#000000">E</text>
</g>
<!-- E&#45;&gt;12 -->
<g id="edge5" class="edge">
<title>E&#45;&gt;12</title>
<path fill="none" stroke="#00ff00" stroke-width=".6535" d="M94.2164,-170.9135C94.75,-164.1485 95.5099,-154.5155 96.2419,-145.2364"/>
<polygon fill="#00ff00" stroke="#00ff00" stroke-width=".6535" points="99.7456,-145.3264 97.0429,-135.0821 92.7672,-144.7759 99.7456,-145.3264"/>
</g>
<!-- F -->
<g id="node6" class="node">
<title>F</title>
<polygon fill="#d3d3d3" stroke="#000000" points="144.5,-188.9949 122.5,-188.9949 122.5,-170.9949 144.5,-170.9949 144.5,-188.9949"/>
<text text-anchor="middle" x="133.5" y="-177.7949" font-family="Times,serif" font-size="9.00" fill="#000000">F</text>
</g>
<!-- F&#45;&gt;12 -->
<g id="edge6" class="edge">
<title>F&#45;&gt;12</title>
<path fill="none" stroke="#ff0000" stroke-width=".1912" d="M128.4854,-170.9135C124.3175,-163.3654 118.1781,-152.247 112.5383,-142.0334"/>
<polygon fill="#ff0000" stroke="#ff0000" stroke-width=".1912" points="115.4681,-140.0986 107.5703,-133.0364 109.3402,-143.4823 115.4681,-140.0986"/>
</g>
<!-- G -->
<g id="node7" class="node">
<title>G</title>
<polygon fill="#d3d3d3" stroke="#000000" points="232,-188.9949 209,-188.9949 209,-170.9949 232,-170.9949 232,-188.9949"/>
<text text-anchor="middle" x="220.5" y="-177.7949" font-family="Times,serif" font-size="9.00" fill="#000000">G</text>
</g>
<!-- G&#45;&gt;LEFT -->
<g id="edge17" class="edge">
<title>G&#45;&gt;LEFT</title>
<path fill="none" stroke="#ff0000" stroke-width=".5804" d="M213.3816,-170.8427C201.5246,-155.6429 176.9154,-124.286 155.5,-98.2254 144.9332,-85.3666 133.0446,-71.3064 122.8697,-59.3925"/>
<polygon fill="#ff0000" stroke="#ff0000" stroke-width=".5804" points="125.299,-56.8483 116.1366,-51.5284 119.9817,-61.4009 125.299,-56.8483"/>
</g>
<!-- G&#45;&gt;RIGHT -->
<g id="edge18" class="edge">
<title>G&#45;&gt;RIGHT</title>
<path fill="none" stroke="#ff0000" stroke-width=".2972" d="M225.1152,-170.6465C232.1012,-155.1646 243.6277,-123.4114 234.5,-98.2254 229.2067,-83.6196 219.1914,-69.9628 209.0773,-58.8318"/>
<polygon fill="#ff0000" stroke="#ff0000" stroke-width=".2972" points="211.5558,-56.3595 202.1162,-51.5486 206.4954,-61.1961 211.5558,-56.3595"/>
</g>
<!-- G&#45;&gt;12 -->
<g id="edge7" class="edge">
<title>G&#45;&gt;12</title>
<path fill="none" stroke="#ff0000" stroke-width=".1212" d="M208.8021,-173.9174C189.3614,-163.817 149.9657,-143.3491 123.9041,-129.8088"/>
<polygon fill="#ff0000" stroke="#ff0000" stroke-width=".1212" points="125.4548,-126.6703 114.9673,-125.1657 122.2275,-132.882 125.4548,-126.6703"/>
</g>
<!-- 12&#45;&gt;LEFT -->
<g id="edge8" class="edge">
<title>12&#45;&gt;LEFT</title>
<path fill="none" stroke="#00ff00" stroke-width=".532" d="M98.5,-98.0585C98.5,-89.292 98.5,-78.5011 98.5,-68.163"/>
<polygon fill="#00ff00" stroke="#00ff00" stroke-width=".532" points="102.0001,-68.0674 98.5,-58.0674 95.0001,-68.0675 102.0001,-68.0674"/>
</g>
<!-- 12&#45;&gt;RIGHT -->
<g id="edge9" class="edge">
<title>12&#45;&gt;RIGHT</title>
<path fill="none" stroke="#00ff00" stroke-width=".6775" d="M111.3534,-102.8735C121.7136,-91.8014 136.6741,-75.8128 149.8454,-61.7364"/>
<polygon fill="#00ff00" stroke="#00ff00" stroke-width=".6775" points="152.6614,-63.8496 156.9381,-54.1563 147.55,-59.0669 152.6614,-63.8496"/>
</g>
</g>
</svg>
