<?xml version="1.0" encoding="UTF-8" standalone="no"?>
<!DOCTYPE svg PUBLIC "-//W3C//DTD SVG 1.1//EN"
 "http://www.w3.org/Graphics/SVG/1.1/DTD/svg11.dtd">
<!-- Generated by graphviz version 2.40.1 (20161225.0304)
 -->
<!-- Title: %3 Pages: 1 -->
<svg width="322pt" height="197pt"
 viewBox="0.00 0.00 322.19 196.99" xmlns="http://www.w3.org/2000/svg" xmlns:xlink="http://www.w3.org/1999/xlink">
<g id="graph0" class="graph" transform="scale(1 1) rotate(0) translate(4 192.9949)">
<title>%3</title>
<polygon fill="#ffffff" stroke="transparent" points="-4,4 -4,-192.9949 318.1916,-192.9949 318.1916,4 -4,4"/>
<!-- A -->
<g id="node1" class="node">
<title>A</title>
<polygon fill="#d3d3d3" stroke="#000000" points="271.1916,-188.9949 248.1916,-188.9949 248.1916,-170.9949 271.1916,-170.9949 271.1916,-188.9949"/>
<text text-anchor="middle" x="259.6916" y="-177.7949" font-family="Times,serif" font-size="9.00" fill="#000000">A</text>
</g>
<!-- LEFT -->
<g id="node8" class="node">
<title>LEFT</title>
<ellipse fill="#add8e6" stroke="#000000" cx="59.6916" cy="-31.1127" rx="26.7407" ry="26.7407"/>
<text text-anchor="middle" x="59.6916" y="-28.9127" font-family="Times,serif" font-size="9.00" fill="#000000">LEFT</text>
</g>
<!-- A&#45;&gt;LEFT -->
<g id="edge9" class="edge">
<title>A&#45;&gt;LEFT</title>
<path fill="none" stroke="#ff0000" stroke-width=".5715" d="M256.4722,-170.8224C250.1857,-154.154 234.7516,-118.7272 210.6916,-98.2254 177.9005,-70.2837 159.9212,-80.031 120.6916,-62.2254 111.452,-58.0317 101.5928,-53.1759 92.5542,-48.5658"/>
<polygon fill="#ff0000" stroke="#ff0000" stroke-width=".5715" points="93.9839,-45.365 83.4924,-43.8884 90.7732,-51.5853 93.9839,-45.365"/>
</g>
<!-- RIGHT -->
<g id="node9" class="node">
<title>RIGHT</title>
<ellipse fill="#add8e6" stroke="#000000" cx="160.6916" cy="-31.1127" rx="31.2258" ry="31.2258"/>
<text text-anchor="middle" x="160.6916" y="-28.9127" font-family="Times,serif" font-size="9.00" fill="#000000">RIGHT</text>
</g>
<!-- A&#45;&gt;RIGHT -->
<g id="edge10" class="edge">
<title>A&#45;&gt;RIGHT</title>
<path fill="none" stroke="#00ff00" stroke-width=".5097" d="M259.8757,-170.9366C259.7951,-155.0539 257.7955,-121.646 243.6916,-98.2254 232.2946,-79.2997 213.5121,-63.4463 196.6947,-51.9081"/>
<polygon fill="#00ff00" stroke="#00ff00" stroke-width=".5097" points="198.4071,-48.8452 188.1289,-46.2744 194.5605,-54.6937 198.4071,-48.8452"/>
</g>
<!-- 12 -->
<g id="node10" class="node">
<title>12</title>
<ellipse fill="#ffffff" stroke="#000000" cx="183.6916" cy="-116.6102" rx="18.2703" ry="18.2703"/>
<text text-anchor="middle" x="183.6916" y="-114.4102" font-family="Times,serif" font-size="9.00" fill="#000000">12</text>
</g>
<!-- A&#45;&gt;12 -->
<g id="edge1" class="edge">
<title>A&#45;&gt;12</title>
<path fill="none" stroke="#ff0000" stroke-width=".7611" d="M248.8027,-170.9135C237.6175,-161.5849 219.8933,-146.8027 205.7597,-135.0151"/>
<polygon fill="#ff0000" stroke="#ff0000" stroke-width=".7611" points="207.8509,-132.2018 197.9295,-128.4847 203.3675,-137.5775 207.8509,-132.2018"/>
</g>
<!-- B -->
<g id="node2" class="node">
<title>B</title>
<polygon fill="#d3d3d3" stroke="#000000" points="314.1916,-188.9949 291.1916,-188.9949 291.1916,-170.9949 314.1916,-170.9949 314.1916,-188.9949"/>
<text text-anchor="middle" x="302.6916" y="-177.7949" font-family="Times,serif" font-size="9.00" fill="#000000">B</text>
</g>
<!-- B&#45;&gt;RIGHT -->
<g id="edge11" class="edge">
<title>B&#45;&gt;RIGHT</title>
<path fill="none" stroke="#00ff00" stroke-width=".4271" d="M300.177,-170.9755C295.3251,-154.8602 283.3777,-120.7082 263.6916,-98.2254 245.5652,-77.5239 219.5736,-60.6523 198.2356,-49.0033"/>
<polygon fill="#00ff00" stroke="#00ff00" stroke-width=".4271" points="199.5856,-45.758 189.109,-44.1794 196.3145,-51.9467 199.5856,-45.758"/>
</g>
<!-- B&#45;&gt;12 -->
<g id="edge2" class="edge">
<title>B&#45;&gt;12</title>
<path fill="none" stroke="#ff0000" stroke-width=".1482" d="M290.8464,-173.6856C271.8715,-163.5788 234.2363,-143.5325 209.0084,-130.095"/>
<polygon fill="#ff0000" stroke="#ff0000" stroke-width=".1482" points="210.4834,-126.9152 200.0119,-125.3031 207.1925,-133.0934 210.4834,-126.9152"/>
</g>
<!-- C -->
<g id="node3" class="node">
<title>C</title>
<polygon fill="#d3d3d3" stroke="#000000" points="71.1916,-125.6102 48.1916,-125.6102 48.1916,-107.6102 71.1916,-107.6102 71.1916,-125.6102"/>
<text text-anchor="middle" x="59.6916" y="-114.4102" font-family="Times,serif" font-size="9.00" fill="#000000">C</text>
</g>
<!-- C&#45;&gt;LEFT -->
<g id="edge12" class="edge">
<title>C&#45;&gt;LEFT</title>
<path fill="none" stroke="#ff0000" stroke-width=".2809" d="M59.6916,-107.4604C59.6916,-98.0317 59.6916,-82.712 59.6916,-68.261"/>
<polygon fill="#ff0000" stroke="#ff0000" stroke-width=".2809" points="63.1917,-67.9886 59.6916,-57.9887 56.1917,-67.9887 63.1917,-67.9886"/>
</g>
<!-- C&#45;&gt;RIGHT -->
<g id="edge13" class="edge">
<title>C&#45;&gt;RIGHT</title>
<path fill="none" stroke="#00ff00" stroke-width=".6327" d="M70.5004,-107.4604C84.3375,-95.7472 108.9145,-74.9425 128.9218,-58.0062"/>
<polygon fill="#00ff00" stroke="#00ff00" stroke-width=".6327" points="131.2407,-60.6289 136.6119,-51.4964 126.718,-55.2861 131.2407,-60.6289"/>
</g>
<!-- D -->
<g id="node4" class="node">
<title>D</title>
<polygon fill="#d3d3d3" stroke="#000000" points="108.1916,-188.9949 85.1916,-188.9949 85.1916,-170.9949 108.1916,-170.9949 108.1916,-188.9949"/>
<text text-anchor="middle" x="96.6916" y="-177.7949" font-family="Times,serif" font-size="9.00" fill="#000000">D</text>
</g>
<!-- D&#45;&gt;LEFT -->
<g id="edge14" class="edge">
<title>D&#45;&gt;LEFT</title>
<path fill="none" stroke="#ff0000" stroke-width=".9037" d="M85.1878,-178.2365C64.9283,-174.4508 23.3595,-163.4418 5.6916,-134.9949 -10.5208,-108.8915 11.2459,-77.3914 31.7897,-55.9713"/>
<polygon fill="#ff0000" stroke="#ff0000" stroke-width=".9037" points="34.3311,-58.3799 38.941,-48.8405 29.3884,-53.423 34.3311,-58.3799"/>
</g>
<!-- D&#45;&gt;RIGHT -->
<g id="edge15" class="edge">
<title>D&#45;&gt;RIGHT</title>
<path fill="none" stroke="#ff0000" stroke-width=".2875" d="M100.6951,-170.6817C109.2498,-150.781 129.7242,-103.1517 144.3737,-69.0729"/>
<polygon fill="#ff0000" stroke="#ff0000" stroke-width=".2875" points="147.6025,-70.4239 148.3364,-59.8545 141.1716,-67.6594 147.6025,-70.4239"/>
</g>
<!-- D&#45;&gt;12 -->
<g id="edge3" class="edge">
<title>D&#45;&gt;12</title>
<path fill="none" stroke="#00ff00" stroke-width=".1071" d="M108.4248,-171.4466C121.6957,-161.778 143.6399,-145.7903 160.4189,-133.5658"/>
<polygon fill="#00ff00" stroke="#00ff00" stroke-width=".1071" points="162.6277,-136.287 168.6491,-127.5696 158.5057,-130.6293 162.6277,-136.287"/>
</g>
<!-- E -->
<g id="node5" class="node">
<title>E</title>
<polygon fill="#d3d3d3" stroke="#000000" points="189.6916,-188.9949 167.6916,-188.9949 167.6916,-170.9949 189.6916,-170.9949 189.6916,-188.9949"/>
<text text-anchor="middle" x="178.6916" y="-177.7949" font-family="Times,serif" font-size="9.00" fill="#000000">E</text>
</g>
<!-- E&#45;&gt;12 -->
<g id="edge4" class="edge">
<title>E&#45;&gt;12</title>
<path fill="none" stroke="#00ff00" stroke-width=".6535" d="M179.408,-170.9135C179.9416,-164.1485 180.7015,-154.5155 181.4335,-145.2364"/>
<polygon fill="#00ff00" stroke="#00ff00" stroke-width=".6535" points="184.9372,-145.3264 182.2345,-135.0821 177.9589,-144.7759 184.9372,-145.3264"/>
</g>
<!-- F -->
<g id="node6" class="node">
<title>F</title>
<polygon fill="#d3d3d3" stroke="#000000" points="229.6916,-188.9949 207.6916,-188.9949 207.6916,-170.9949 229.6916,-170.9949 229.6916,-188.9949"/>
<text text-anchor="middle" x="218.6916" y="-177.7949" font-family="Times,serif" font-size="9.00" fill="#000000">F</text>
</g>
<!-- F&#45;&gt;12 -->
<g id="edge5" class="edge">
<title>F&#45;&gt;12</title>
<path fill="none" stroke="#ff0000" stroke-width=".1912" d="M213.677,-170.9135C209.5091,-163.3654 203.3697,-152.247 197.7299,-142.0334"/>
<polygon fill="#ff0000" stroke="#ff0000" stroke-width=".1912" points="200.6597,-140.0986 192.7619,-133.0364 194.5319,-143.4823 200.6597,-140.0986"/>
</g>
<!-- G -->
<g id="node7" class="node">
<title>G</title>
<polygon fill="#d3d3d3" stroke="#000000" points="149.1916,-188.9949 126.1916,-188.9949 126.1916,-170.9949 149.1916,-170.9949 149.1916,-188.9949"/>
<text text-anchor="middle" x="137.6916" y="-177.7949" font-family="Times,serif" font-size="9.00" fill="#000000">G</text>
</g>
<!-- G&#45;&gt;LEFT -->
<g id="edge16" class="edge">
<title>G&#45;&gt;LEFT</title>
<path fill="none" stroke="#ff0000" stroke-width=".5804" d="M125.9907,-174.7252C99.8601,-162.9503 39.0126,-135.4935 38.6916,-134.9949 24.9814,-113.7029 32.0831,-85.2787 41.5814,-63.5456"/>
<polygon fill="#ff0000" stroke="#ff0000" stroke-width=".5804" points="44.8028,-64.92 45.896,-54.3816 38.4697,-61.9382 44.8028,-64.92"/>
</g>
<!-- G&#45;&gt;RIGHT -->
<g id="edge17" class="edge">
<title>G&#45;&gt;RIGHT</title>
<path fill="none" stroke="#ff0000" stroke-width=".2972" d="M139.1304,-170.6817C142.1161,-151.3549 149.1419,-105.8759 154.3668,-72.0542"/>
<polygon fill="#ff0000" stroke="#ff0000" stroke-width=".2972" points="157.8562,-72.3911 155.924,-61.9739 150.9383,-71.3223 157.8562,-72.3911"/>
</g>
<!-- G&#45;&gt;12 -->
<g id="edge6" class="edge">
<title>G&#45;&gt;12</title>
<path fill="none" stroke="#ff0000" stroke-width=".1212" d="M144.2823,-170.9135C150.163,-162.8103 159.03,-150.5921 166.865,-139.7962"/>
<polygon fill="#ff0000" stroke="#ff0000" stroke-width=".1212" points="169.8094,-141.6978 172.8503,-131.5487 164.1441,-137.5863 169.8094,-141.6978"/>
</g>
<!-- 12&#45;&gt;LEFT -->
<g id="edge7" class="edge">
<title>12&#45;&gt;LEFT</title>
<path fill="none" stroke="#00ff00" stroke-width=".532" d="M168.4868,-106.1265C149.1648,-92.8041 115.3461,-69.4863 90.5292,-52.3751"/>
<polygon fill="#00ff00" stroke="#00ff00" stroke-width=".532" points="92.3846,-49.4031 82.1651,-46.608 88.411,-55.166 92.3846,-49.4031"/>
</g>
<!-- 12&#45;&gt;RIGHT -->
<g id="edge8" class="edge">
<title>12&#45;&gt;RIGHT</title>
<path fill="none" stroke="#00ff00" stroke-width=".6775" d="M178.8139,-98.4784C176.6608,-90.4747 174.0379,-80.7246 171.4638,-71.1561"/>
<polygon fill="#00ff00" stroke="#00ff00" stroke-width=".6775" points="174.7985,-70.0785 168.8208,-61.3311 168.0388,-71.897 174.7985,-70.0785"/>
</g>
</g>
</svg>
