<?xml version="1.0" encoding="UTF-8" standalone="no"?>
<!DOCTYPE svg PUBLIC "-//W3C//DTD SVG 1.1//EN"
 "http://www.w3.org/Graphics/SVG/1.1/DTD/svg11.dtd">
<!-- Generated by graphviz version 2.40.1 (20161225.0304)
 -->
<!-- Title: %3 Pages: 1 -->
<svg width="356pt" height="197pt"
 viewBox="0.00 0.00 355.77 196.99" xmlns="http://www.w3.org/2000/svg" xmlns:xlink="http://www.w3.org/1999/xlink">
<g id="graph0" class="graph" transform="scale(1 1) rotate(0) translate(4 192.9949)">
<title>%3</title>
<polygon fill="#ffffff" stroke="transparent" points="-4,4 -4,-192.9949 351.7696,-192.9949 351.7696,4 -4,4"/>
<!-- A -->
<g id="node1" class="node">
<title>A</title>
<polygon fill="#d3d3d3" stroke="#000000" points="77.8848,-125.6102 54.8848,-125.6102 54.8848,-107.6102 77.8848,-107.6102 77.8848,-125.6102"/>
<text text-anchor="middle" x="66.3848" y="-114.4102" font-family="Times,serif" font-size="9.00" fill="#000000">A</text>
</g>
<!-- RIGHT -->
<g id="node9" class="node">
<title>RIGHT</title>
<ellipse fill="#add8e6" stroke="#000000" cx="147.3848" cy="-31.1127" rx="31.2258" ry="31.2258"/>
<text text-anchor="middle" x="147.3848" y="-28.9127" font-family="Times,serif" font-size="9.00" fill="#000000">RIGHT</text>
</g>
<!-- A&#45;&gt;RIGHT -->
<g id="edge1" class="edge">
<title>A&#45;&gt;RIGHT</title>
<path fill="none" stroke="#ff0000" stroke-width=".1336" d="M75.0532,-107.4604C85.3646,-96.5765 103.1129,-77.8427 118.4474,-61.6568"/>
<polygon fill="#ff0000" stroke="#ff0000" stroke-width=".1336" points="121.4014,-63.6279 125.7381,-53.9613 116.3197,-58.8136 121.4014,-63.6279"/>
</g>
<!-- B -->
<g id="node2" class="node">
<title>B</title>
<polygon fill="#d3d3d3" stroke="#000000" points="240.8848,-125.6102 217.8848,-125.6102 217.8848,-107.6102 240.8848,-107.6102 240.8848,-125.6102"/>
<text text-anchor="middle" x="229.3848" y="-114.4102" font-family="Times,serif" font-size="9.00" fill="#000000">B</text>
</g>
<!-- LEFT -->
<g id="node8" class="node">
<title>LEFT</title>
<ellipse fill="#add8e6" stroke="#000000" cx="226.3848" cy="-31.1127" rx="26.7407" ry="26.7407"/>
<text text-anchor="middle" x="226.3848" y="-28.9127" font-family="Times,serif" font-size="9.00" fill="#000000">LEFT</text>
</g>
<!-- B&#45;&gt;LEFT -->
<g id="edge2" class="edge">
<title>B&#45;&gt;LEFT</title>
<path fill="none" stroke="#ff0000" stroke-width=".2134" d="M229.0637,-107.4604C228.7329,-98.0317 228.1953,-82.712 227.6883,-68.261"/>
<polygon fill="#ff0000" stroke="#ff0000" stroke-width=".2134" points="231.1764,-67.8597 227.3278,-57.9887 224.1807,-68.1053 231.1764,-67.8597"/>
</g>
<!-- B&#45;&gt;RIGHT -->
<g id="edge3" class="edge">
<title>B&#45;&gt;RIGHT</title>
<path fill="none" stroke="#ff0000" stroke-width=".4897" d="M220.6093,-107.4604C210.0041,-96.4028 191.6279,-77.2429 175.9383,-60.8841"/>
<polygon fill="#ff0000" stroke="#ff0000" stroke-width=".4897" points="178.4041,-58.3986 168.9561,-53.6041 173.352,-63.2439 178.4041,-58.3986"/>
</g>
<!-- C -->
<g id="node3" class="node">
<title>C</title>
<polygon fill="#d3d3d3" stroke="#000000" points="280.8848,-188.9949 257.8848,-188.9949 257.8848,-170.9949 280.8848,-170.9949 280.8848,-188.9949"/>
<text text-anchor="middle" x="269.3848" y="-177.7949" font-family="Times,serif" font-size="9.00" fill="#000000">C</text>
</g>
<!-- C&#45;&gt;LEFT -->
<g id="edge4" class="edge">
<title>C&#45;&gt;LEFT</title>
<path fill="none" stroke="#00ff00" stroke-width=".3167" d="M267.6145,-170.8309C264.5953,-155.6141 258.0291,-124.2334 250.3848,-98.2254 247.2645,-87.6093 243.3957,-76.221 239.6821,-65.8954"/>
<polygon fill="#00ff00" stroke="#00ff00" stroke-width=".3167" points="242.9234,-64.5681 236.1986,-56.381 236.3501,-66.9747 242.9234,-64.5681"/>
</g>
<!-- 25 -->
<g id="node10" class="node">
<title>25</title>
<ellipse fill="#ffffff" stroke="#000000" cx="329.3848" cy="-31.1127" rx="18.2703" ry="18.2703"/>
<text text-anchor="middle" x="329.3848" y="-28.9127" font-family="Times,serif" font-size="9.00" fill="#000000">25</text>
</g>
<!-- C&#45;&gt;25 -->
<g id="edge14" class="edge">
<title>C&#45;&gt;25</title>
<path fill="none" stroke="#ff0000" stroke-width=".2479" d="M280.9742,-175.3933C295.592,-168.8785 320.0632,-155.4354 330.3848,-134.9949 342.2618,-111.4742 340.2572,-80.9672 336.3468,-59.108"/>
<polygon fill="#ff0000" stroke="#ff0000" stroke-width=".2479" points="339.7433,-58.2457 334.3266,-49.1402 332.8828,-59.6362 339.7433,-58.2457"/>
</g>
<!-- 46 -->
<g id="node11" class="node">
<title>46</title>
<ellipse fill="#ffffff" stroke="#000000" cx="18.3848" cy="-116.6102" rx="18.2703" ry="18.2703"/>
<text text-anchor="middle" x="18.3848" y="-114.4102" font-family="Times,serif" font-size="9.00" fill="#000000">46</text>
</g>
<!-- C&#45;&gt;46 -->
<g id="edge15" class="edge">
<title>C&#45;&gt;46</title>
<path fill="none" stroke="#00ff00" stroke-width=".3823" d="M257.7244,-179.2856C223.7124,-176.879 122.1714,-167.2816 45.3848,-134.9949 44.1791,-134.488 42.9716,-133.9232 41.7723,-133.3151"/>
<polygon fill="#00ff00" stroke="#00ff00" stroke-width=".3823" points="43.2923,-130.147 32.9078,-128.0465 39.7159,-136.1644 43.2923,-130.147"/>
</g>
<!-- D -->
<g id="node4" class="node">
<title>D</title>
<polygon fill="#d3d3d3" stroke="#000000" points="320.8848,-125.6102 297.8848,-125.6102 297.8848,-107.6102 320.8848,-107.6102 320.8848,-125.6102"/>
<text text-anchor="middle" x="309.3848" y="-114.4102" font-family="Times,serif" font-size="9.00" fill="#000000">D</text>
</g>
<!-- D&#45;&gt;LEFT -->
<g id="edge5" class="edge">
<title>D&#45;&gt;LEFT</title>
<path fill="none" stroke="#ff0000" stroke-width=".3136" d="M300.5023,-107.4604C289.1149,-95.7304 268.8762,-74.8827 252.4218,-57.9332"/>
<polygon fill="#ff0000" stroke="#ff0000" stroke-width=".3136" points="254.6502,-55.2038 245.1734,-50.4667 249.6276,-60.0797 254.6502,-55.2038"/>
</g>
<!-- D&#45;&gt;RIGHT -->
<g id="edge6" class="edge">
<title>D&#45;&gt;RIGHT</title>
<path fill="none" stroke="#ff0000" stroke-width=".4015" d="M297.8568,-112.229C276.1643,-103.7939 228.0689,-84.1796 190.3848,-62.2254 187.1702,-60.3526 183.9,-58.2967 180.6717,-56.1619"/>
<polygon fill="#ff0000" stroke="#ff0000" stroke-width=".4015" points="182.514,-53.1811 172.291,-50.3987 178.5475,-58.949 182.514,-53.1811"/>
</g>
<!-- D&#45;&gt;25 -->
<g id="edge13" class="edge">
<title>D&#45;&gt;25</title>
<path fill="none" stroke="#ff0000" stroke-width=".3613" d="M311.5251,-107.4604C314.2122,-95.9734 318.9447,-75.7425 322.8632,-58.9914"/>
<polygon fill="#ff0000" stroke="#ff0000" stroke-width=".3613" points="326.3025,-59.6549 325.1723,-49.1205 319.4865,-58.0604 326.3025,-59.6549"/>
</g>
<!-- E -->
<g id="node5" class="node">
<title>E</title>
<polygon fill="#d3d3d3" stroke="#000000" points="118.3848,-125.6102 96.3848,-125.6102 96.3848,-107.6102 118.3848,-107.6102 118.3848,-125.6102"/>
<text text-anchor="middle" x="107.3848" y="-114.4102" font-family="Times,serif" font-size="9.00" fill="#000000">E</text>
</g>
<!-- E&#45;&gt;LEFT -->
<g id="edge7" class="edge">
<title>E&#45;&gt;LEFT</title>
<path fill="none" stroke="#00ff00" stroke-width=".3933" d="M116.4053,-107.5953C119.729,-104.4721 123.6071,-101.0491 127.3848,-98.2254 152.2937,-79.6067 161.8399,-79.9615 187.3848,-62.2254 190.8265,-59.8358 194.3601,-57.2383 197.828,-54.5968"/>
<polygon fill="#00ff00" stroke="#00ff00" stroke-width=".3933" points="199.9976,-57.3434 205.7261,-48.4308 195.6899,-51.8257 199.9976,-57.3434"/>
</g>
<!-- E&#45;&gt;RIGHT -->
<g id="edge8" class="edge">
<title>E&#45;&gt;RIGHT</title>
<path fill="none" stroke="#ff0000" stroke-width=".5951" d="M111.6655,-107.4604C116.0301,-98.1313 123.0929,-83.035 129.7905,-68.7193"/>
<polygon fill="#ff0000" stroke="#ff0000" stroke-width=".5951" points="133.0395,-70.034 134.107,-59.493 126.6991,-67.0676 133.0395,-70.034"/>
</g>
<!-- F -->
<g id="node6" class="node">
<title>F</title>
<polygon fill="#d3d3d3" stroke="#000000" points="158.3848,-125.6102 136.3848,-125.6102 136.3848,-107.6102 158.3848,-107.6102 158.3848,-125.6102"/>
<text text-anchor="middle" x="147.3848" y="-114.4102" font-family="Times,serif" font-size="9.00" fill="#000000">F</text>
</g>
<!-- F&#45;&gt;LEFT -->
<g id="edge9" class="edge">
<title>F&#45;&gt;LEFT</title>
<path fill="none" stroke="#00ff00" stroke-width=".5547" d="M155.8392,-107.4604C166.5397,-95.8798 185.4517,-75.4124 201.0023,-58.5828"/>
<polygon fill="#00ff00" stroke="#00ff00" stroke-width=".5547" points="203.6531,-60.8713 207.869,-51.1513 198.5119,-56.1207 203.6531,-60.8713"/>
</g>
<!-- F&#45;&gt;RIGHT -->
<g id="edge10" class="edge">
<title>F&#45;&gt;RIGHT</title>
<path fill="none" stroke="#ff0000" stroke-width=".3057" d="M147.3848,-107.4604C147.3848,-99.0306 147.3848,-85.8918 147.3848,-72.875"/>
<polygon fill="#ff0000" stroke="#ff0000" stroke-width=".3057" points="150.8849,-72.5542 147.3848,-62.5542 143.8849,-72.5543 150.8849,-72.5542"/>
</g>
<!-- G -->
<g id="node7" class="node">
<title>G</title>
<polygon fill="#d3d3d3" stroke="#000000" points="199.8848,-125.6102 176.8848,-125.6102 176.8848,-107.6102 199.8848,-107.6102 199.8848,-125.6102"/>
<text text-anchor="middle" x="188.3848" y="-114.4102" font-family="Times,serif" font-size="9.00" fill="#000000">G</text>
</g>
<!-- G&#45;&gt;LEFT -->
<g id="edge11" class="edge">
<title>G&#45;&gt;LEFT</title>
<path fill="none" stroke="#00ff00" stroke-width=".3458" d="M192.4514,-107.4604C196.9544,-97.329 204.4806,-80.3957 211.3023,-65.0472"/>
<polygon fill="#00ff00" stroke="#00ff00" stroke-width=".3458" points="214.5623,-66.33 215.4255,-55.7704 208.1656,-63.4869 214.5623,-66.33"/>
</g>
<!-- G&#45;&gt;RIGHT -->
<g id="edge12" class="edge">
<title>G&#45;&gt;RIGHT</title>
<path fill="none" stroke="#00ff00" stroke-width=".1303" d="M183.9971,-107.4604C179.5233,-98.1313 172.2839,-83.035 165.4189,-68.7193"/>
<polygon fill="#00ff00" stroke="#00ff00" stroke-width=".1303" points="168.4744,-66.9965 160.9945,-59.493 162.1626,-70.0233 168.4744,-66.9965"/>
</g>
<!-- 46&#45;&gt;RIGHT -->
<g id="edge16" class="edge">
<title>46&#45;&gt;RIGHT</title>
<path fill="none" stroke="#ff0000" stroke-width=".1803" d="M33.7767,-106.0679C37.5641,-103.4908 41.6147,-100.749 45.3848,-98.2254 67.7881,-83.2291 93.1058,-66.5691 112.913,-53.5997"/>
<polygon fill="#ff0000" stroke="#ff0000" stroke-width=".1803" points="114.8648,-56.5054 121.317,-48.1018 111.0326,-50.6475 114.8648,-56.5054"/>
</g>
</g>
</svg>
