<?xml version="1.0" encoding="UTF-8" standalone="no"?>
<!DOCTYPE svg PUBLIC "-//W3C//DTD SVG 1.1//EN"
 "http://www.w3.org/Graphics/SVG/1.1/DTD/svg11.dtd">
<!-- Generated by graphviz version 2.40.1 (20161225.0304)
 -->
<!-- Title: %3 Pages: 1 -->
<svg width="401pt" height="292pt"
 viewBox="0.00 0.00 401.29 292.39" xmlns="http://www.w3.org/2000/svg" xmlns:xlink="http://www.w3.org/1999/xlink">
<g id="graph0" class="graph" transform="scale(1 1) rotate(0) translate(4 288.3919)">
<title>%3</title>
<polygon fill="#ffffff" stroke="transparent" points="-4,4 -4,-288.3919 397.2887,-288.3919 397.2887,4 -4,4"/>
<!-- A -->
<g id="node1" class="node">
<title>A</title>
<polygon fill="#d3d3d3" stroke="#000000" points="393.2887,-218.1787 370.2887,-218.1787 370.2887,-200.1787 393.2887,-200.1787 393.2887,-218.1787"/>
<text text-anchor="middle" x="381.7887" y="-206.9787" font-family="Times,serif" font-size="9.00" fill="#000000">A</text>
</g>
<!-- LEFT -->
<g id="node8" class="node">
<title>LEFT</title>
<ellipse fill="#add8e6" stroke="#000000" cx="139.7887" cy="-26.8701" rx="26.7407" ry="26.7407"/>
<text text-anchor="middle" x="139.7887" y="-24.6701" font-family="Times,serif" font-size="9.00" fill="#000000">LEFT</text>
</g>
<!-- A&#45;&gt;LEFT -->
<g id="edge7" class="edge">
<title>A&#45;&gt;LEFT</title>
<path fill="none" stroke="#ff0000" stroke-width=".1273" d="M375.6298,-199.9358C360.7514,-178.1951 320.7427,-123.139 275.7887,-89.7401 244.7837,-66.7047 203.9895,-49.2396 175.1944,-38.6331"/>
<polygon fill="#ff0000" stroke="#ff0000" stroke-width=".1273" points="176.1398,-35.2539 165.5453,-35.1696 173.7749,-41.8423 176.1398,-35.2539"/>
</g>
<!-- 16 -->
<g id="node13" class="node">
<title>16</title>
<ellipse fill="#ffffff" stroke="#000000" cx="248.7887" cy="-120.8528" rx="18.2703" ry="18.2703"/>
<text text-anchor="middle" x="248.7887" y="-118.6528" font-family="Times,serif" font-size="9.00" fill="#000000">16</text>
</g>
<!-- A&#45;&gt;16 -->
<g id="edge1" class="edge">
<title>A&#45;&gt;16</title>
<path fill="none" stroke="#ff0000" stroke-width=".3979" d="M373.6651,-199.994C369.9459,-196.0558 365.3555,-191.5477 360.7887,-187.9655 333.1989,-166.3244 298.0583,-146.3326 274.5655,-133.8984"/>
<polygon fill="#ff0000" stroke="#ff0000" stroke-width=".3979" points="276.0536,-130.7271 265.5687,-129.2048 272.8158,-136.9333 276.0536,-130.7271"/>
</g>
<!-- B -->
<g id="node2" class="node">
<title>B</title>
<polygon fill="#d3d3d3" stroke="#000000" points="217.2887,-218.1787 194.2887,-218.1787 194.2887,-200.1787 217.2887,-200.1787 217.2887,-218.1787"/>
<text text-anchor="middle" x="205.7887" y="-206.9787" font-family="Times,serif" font-size="9.00" fill="#000000">B</text>
</g>
<!-- B&#45;&gt;LEFT -->
<g id="edge8" class="edge">
<title>B&#45;&gt;LEFT</title>
<path fill="none" stroke="#00ff00" stroke-width=".2989" d="M205.4283,-200.1174C204.3395,-179.6582 200.07,-128.6397 183.7887,-89.7401 178.7656,-77.7387 171.1719,-65.7448 163.6999,-55.4992"/>
<polygon fill="#00ff00" stroke="#00ff00" stroke-width=".2989" points="166.3438,-53.1933 157.5111,-47.3423 160.7672,-57.4244 166.3438,-53.1933"/>
</g>
<!-- RIGHT -->
<g id="node9" class="node">
<title>RIGHT</title>
<ellipse fill="#add8e6" stroke="#000000" cx="143.7887" cy="-120.8528" rx="31.2258" ry="31.2258"/>
<text text-anchor="middle" x="143.7887" y="-118.6528" font-family="Times,serif" font-size="9.00" fill="#000000">RIGHT</text>
</g>
<!-- B&#45;&gt;RIGHT -->
<g id="edge9" class="edge">
<title>B&#45;&gt;RIGHT</title>
<path fill="none" stroke="#ff0000" stroke-width=".1964" d="M199.3871,-200.059C191.9047,-189.3994 179.086,-171.1378 167.6418,-154.8342"/>
<polygon fill="#ff0000" stroke="#ff0000" stroke-width=".1964" points="170.428,-152.7115 161.818,-146.5375 164.6986,-156.7332 170.428,-152.7115"/>
</g>
<!-- B&#45;&gt;16 -->
<g id="edge2" class="edge">
<title>B&#45;&gt;16</title>
<path fill="none" stroke="#00ff00" stroke-width=".5799" d="M210.2285,-200.059C216.2756,-187.6377 227.3479,-164.8941 236.0816,-146.9544"/>
<polygon fill="#00ff00" stroke="#00ff00" stroke-width=".5799" points="239.4159,-148.1014 240.6462,-137.5782 233.1221,-145.0373 239.4159,-148.1014"/>
</g>
<!-- C -->
<g id="node3" class="node">
<title>C</title>
<polygon fill="#d3d3d3" stroke="#000000" points="297.2887,-218.1787 274.2887,-218.1787 274.2887,-200.1787 297.2887,-200.1787 297.2887,-218.1787"/>
<text text-anchor="middle" x="285.7887" y="-206.9787" font-family="Times,serif" font-size="9.00" fill="#000000">C</text>
</g>
<!-- C&#45;&gt;16 -->
<g id="edge3" class="edge">
<title>C&#45;&gt;16</title>
<path fill="none" stroke="#00ff00" stroke-width=".1526" d="M281.9684,-200.059C276.7963,-187.7121 267.3517,-165.1661 259.858,-147.2772"/>
<polygon fill="#00ff00" stroke="#00ff00" stroke-width=".1526" points="263.027,-145.7835 255.935,-137.9124 256.5706,-148.4881 263.027,-145.7835"/>
</g>
<!-- D -->
<g id="node4" class="node">
<title>D</title>
<polygon fill="#d3d3d3" stroke="#000000" points="71.2887,-284.3919 48.2887,-284.3919 48.2887,-266.3919 71.2887,-266.3919 71.2887,-284.3919"/>
<text text-anchor="middle" x="59.7887" y="-273.1919" font-family="Times,serif" font-size="9.00" fill="#000000">D</text>
</g>
<!-- D&#45;&gt;LEFT -->
<g id="edge10" class="edge">
<title>D&#45;&gt;LEFT</title>
<path fill="none" stroke="#00ff00" stroke-width=".2649" d="M47.9061,-269.7352C34.5774,-262.6488 13.6646,-249.1221 4.7887,-230.3919 -3.2861,-213.3522 .7695,-206.3884 4.7887,-187.9655 15.0239,-141.05 19.0264,-126.6115 49.7887,-89.7401 65.5285,-70.8746 88.2368,-55.0673 106.9049,-44.0217"/>
<polygon fill="#00ff00" stroke="#00ff00" stroke-width=".2649" points="108.7564,-46.9948 115.6964,-38.9894 105.2789,-40.9197 108.7564,-46.9948"/>
</g>
<!-- D&#45;&gt;RIGHT -->
<g id="edge11" class="edge">
<title>D&#45;&gt;RIGHT</title>
<path fill="none" stroke="#ff0000" stroke-width=".15" d="M63.9177,-266.3176C71.2882,-250.2811 87.3849,-215.9785 102.7887,-187.9655 108.5895,-177.4164 115.2581,-166.1727 121.5086,-155.9642"/>
<polygon fill="#ff0000" stroke="#ff0000" stroke-width=".15" points="124.5814,-157.6497 126.8616,-147.3031 118.6269,-153.9695 124.5814,-157.6497"/>
</g>
<!-- 103 -->
<g id="node10" class="node">
<title>103</title>
<ellipse fill="#ffffff" stroke="#000000" cx="34.7887" cy="-209.1787" rx="21.4286" ry="21.4286"/>
<text text-anchor="middle" x="34.7887" y="-206.9787" font-family="Times,serif" font-size="9.00" fill="#000000">103</text>
</g>
<!-- D&#45;&gt;103 -->
<g id="edge18" class="edge">
<title>D&#45;&gt;103</title>
<path fill="none" stroke="#00ff00" stroke-width=".5417" d="M56.3126,-266.1853C53.6158,-259.0429 49.7192,-248.7226 45.9805,-238.8205"/>
<polygon fill="#00ff00" stroke="#00ff00" stroke-width=".5417" points="49.1514,-237.3099 42.3446,-229.1908 42.6026,-239.7825 49.1514,-237.3099"/>
</g>
<!-- D&#45;&gt;16 -->
<g id="edge4" class="edge">
<title>D&#45;&gt;16</title>
<path fill="none" stroke="#00ff00" stroke-width=".1017" d="M71.3688,-273.833C105.4171,-269.016 204.166,-253.301 225.7887,-230.3919 246.1213,-208.8497 250.3943,-174.1218 250.5243,-149.5502"/>
<polygon fill="#00ff00" stroke="#00ff00" stroke-width=".1017" points="254.0209,-149.3226 250.3484,-139.3847 247.022,-149.4438 254.0209,-149.3226"/>
</g>
<!-- E -->
<g id="node5" class="node">
<title>E</title>
<polygon fill="#d3d3d3" stroke="#000000" points="175.7887,-218.1787 153.7887,-218.1787 153.7887,-200.1787 175.7887,-200.1787 175.7887,-218.1787"/>
<text text-anchor="middle" x="164.7887" y="-206.9787" font-family="Times,serif" font-size="9.00" fill="#000000">E</text>
</g>
<!-- E&#45;&gt;RIGHT -->
<g id="edge12" class="edge">
<title>E&#45;&gt;RIGHT</title>
<path fill="none" stroke="#ff0000" stroke-width=".7089" d="M162.6204,-200.059C160.4067,-190.7478 156.8138,-175.6364 153.3568,-161.0961"/>
<polygon fill="#ff0000" stroke="#ff0000" stroke-width=".7089" points="156.722,-160.1186 151.0038,-151.1994 149.9119,-161.7378 156.722,-160.1186"/>
</g>
<!-- E&#45;&gt;16 -->
<g id="edge5" class="edge">
<title>E&#45;&gt;16</title>
<path fill="none" stroke="#ff0000" stroke-width=".3332" d="M173.342,-200.0839C176.8801,-196.3276 181.0274,-191.9323 184.7887,-187.9655 199.6054,-172.3394 216.4096,-154.7219 229.0801,-141.4592"/>
<polygon fill="#ff0000" stroke="#ff0000" stroke-width=".3332" points="231.6374,-143.8492 236.0163,-134.2016 226.5768,-139.0127 231.6374,-143.8492"/>
</g>
<!-- F -->
<g id="node6" class="node">
<title>F</title>
<polygon fill="#d3d3d3" stroke="#000000" points="344.7887,-284.3919 322.7887,-284.3919 322.7887,-266.3919 344.7887,-266.3919 344.7887,-284.3919"/>
<text text-anchor="middle" x="333.7887" y="-273.1919" font-family="Times,serif" font-size="9.00" fill="#000000">F</text>
</g>
<!-- 78 -->
<g id="node12" class="node">
<title>78</title>
<ellipse fill="#ffffff" stroke="#000000" cx="333.7887" cy="-209.1787" rx="18.2703" ry="18.2703"/>
<text text-anchor="middle" x="333.7887" y="-206.9787" font-family="Times,serif" font-size="9.00" fill="#000000">78</text>
</g>
<!-- F&#45;&gt;78 -->
<g id="edge16" class="edge">
<title>F&#45;&gt;78</title>
<path fill="none" stroke="#00ff00" stroke-width=".206" d="M333.7887,-266.1853C333.7887,-258.8535 333.7887,-248.1733 333.7887,-238.034"/>
<polygon fill="#00ff00" stroke="#00ff00" stroke-width=".206" points="337.2888,-237.8265 333.7887,-227.8266 330.2888,-237.8266 337.2888,-237.8265"/>
</g>
<!-- G -->
<g id="node7" class="node">
<title>G</title>
<polygon fill="#d3d3d3" stroke="#000000" points="135.2887,-218.1787 112.2887,-218.1787 112.2887,-200.1787 135.2887,-200.1787 135.2887,-218.1787"/>
<text text-anchor="middle" x="123.7887" y="-206.9787" font-family="Times,serif" font-size="9.00" fill="#000000">G</text>
</g>
<!-- G&#45;&gt;RIGHT -->
<g id="edge13" class="edge">
<title>G&#45;&gt;RIGHT</title>
<path fill="none" stroke="#ff0000" stroke-width=".3595" d="M125.8537,-200.059C127.9621,-190.7478 131.3838,-175.6364 134.6762,-161.0961"/>
<polygon fill="#ff0000" stroke="#ff0000" stroke-width=".3595" points="138.1223,-161.7254 136.9172,-151.1994 131.2951,-160.1795 138.1223,-161.7254"/>
</g>
<!-- 76 -->
<g id="node11" class="node">
<title>76</title>
<ellipse fill="#ffffff" stroke="#000000" cx="76.7887" cy="-120.8528" rx="18.2703" ry="18.2703"/>
<text text-anchor="middle" x="76.7887" y="-118.6528" font-family="Times,serif" font-size="9.00" fill="#000000">76</text>
</g>
<!-- G&#45;&gt;76 -->
<g id="edge14" class="edge">
<title>G&#45;&gt;76</title>
<path fill="none" stroke="#00ff00" stroke-width=".1896" d="M118.9359,-200.059C112.2252,-187.4476 99.8523,-164.1956 90.2415,-146.1343"/>
<polygon fill="#00ff00" stroke="#00ff00" stroke-width=".1896" points="93.2994,-144.4302 85.512,-137.2463 87.1198,-147.7185 93.2994,-144.4302"/>
</g>
<!-- G&#45;&gt;16 -->
<g id="edge6" class="edge">
<title>G&#45;&gt;16</title>
<path fill="none" stroke="#ff0000" stroke-width=".9255" d="M131.9694,-200.0655C135.6992,-196.1406 140.282,-191.623 144.7887,-187.9655 170.0784,-167.4409 201.8786,-147.6941 223.6146,-134.9989"/>
<polygon fill="#ff0000" stroke="#ff0000" stroke-width=".9255" points="225.635,-137.8742 232.5493,-129.8466 222.138,-131.8102 225.635,-137.8742"/>
</g>
<!-- 103&#45;&gt;76 -->
<g id="edge19" class="edge">
<title>103&#45;&gt;76</title>
<path fill="none" stroke="#00ff00" stroke-width=".2609" d="M43.9021,-190.0133C49.9396,-177.3164 57.9317,-160.509 64.5254,-146.6426"/>
<polygon fill="#00ff00" stroke="#00ff00" stroke-width=".2609" points="67.692,-148.1334 68.8256,-137.5993 61.3703,-145.1273 67.692,-148.1334"/>
</g>
<!-- 76&#45;&gt;LEFT -->
<g id="edge15" class="edge">
<title>76&#45;&gt;LEFT</title>
<path fill="none" stroke="#ff0000" stroke-width=".1816" d="M87.1919,-105.3335C95.8024,-92.4884 108.3052,-73.8369 118.9605,-57.9414"/>
<polygon fill="#ff0000" stroke="#ff0000" stroke-width=".1816" points="121.9927,-59.7038 124.6536,-49.4485 116.1782,-55.8061 121.9927,-59.7038"/>
</g>
<!-- 78&#45;&gt;16 -->
<g id="edge17" class="edge">
<title>78&#45;&gt;16</title>
<path fill="none" stroke="#ff0000" stroke-width=".3191" d="M320.879,-195.7639C307.0697,-181.4142 284.986,-158.4664 268.8961,-141.7469"/>
<polygon fill="#ff0000" stroke="#ff0000" stroke-width=".3191" points="270.9974,-138.883 261.5414,-134.1045 265.9536,-143.7369 270.9974,-138.883"/>
</g>
</g>
</svg>
