<?xml version="1.0" encoding="UTF-8" standalone="no"?>
<!DOCTYPE svg PUBLIC "-//W3C//DTD SVG 1.1//EN"
 "http://www.w3.org/Graphics/SVG/1.1/DTD/svg11.dtd">
<!-- Generated by graphviz version 2.40.1 (20161225.0304)
 -->
<!-- Title: %3 Pages: 1 -->
<svg width="277pt" height="124pt"
 viewBox="0.00 0.00 276.50 124.23" xmlns="http://www.w3.org/2000/svg" xmlns:xlink="http://www.w3.org/1999/xlink">
<g id="graph0" class="graph" transform="scale(1 1) rotate(0) translate(4 120.2254)">
<title>%3</title>
<polygon fill="#ffffff" stroke="transparent" points="-4,4 -4,-120.2254 272.5,-120.2254 272.5,4 -4,4"/>
<!-- A -->
<g id="node1" class="node">
<title>A</title>
<polygon fill="#d3d3d3" stroke="#000000" points="63.5,-116.2254 40.5,-116.2254 40.5,-98.2254 63.5,-98.2254 63.5,-116.2254"/>
<text text-anchor="middle" x="52" y="-105.0254" font-family="Times,serif" font-size="9.00" fill="#000000">A</text>
</g>
<!-- LEFT -->
<g id="node8" class="node">
<title>LEFT</title>
<ellipse fill="#add8e6" stroke="#000000" cx="134" cy="-31.1127" rx="26.7407" ry="26.7407"/>
<text text-anchor="middle" x="134" y="-28.9127" font-family="Times,serif" font-size="9.00" fill="#000000">LEFT</text>
</g>
<!-- A&#45;&gt;LEFT -->
<g id="edge1" class="edge">
<title>A&#45;&gt;LEFT</title>
<path fill="none" stroke="#ff0000" stroke-width=".5203" d="M61.7285,-98.1954C72.8117,-87.9079 91.4009,-70.6533 106.9506,-56.22"/>
<polygon fill="#ff0000" stroke="#ff0000" stroke-width=".5203" points="109.3455,-58.7725 114.2938,-49.4041 104.5834,-53.6419 109.3455,-58.7725"/>
</g>
<!-- RIGHT -->
<g id="node9" class="node">
<title>RIGHT</title>
<ellipse fill="#add8e6" stroke="#000000" cx="55" cy="-31.1127" rx="31.2258" ry="31.2258"/>
<text text-anchor="middle" x="55" y="-28.9127" font-family="Times,serif" font-size="9.00" fill="#000000">RIGHT</text>
</g>
<!-- A&#45;&gt;RIGHT -->
<g id="edge2" class="edge">
<title>A&#45;&gt;RIGHT</title>
<path fill="none" stroke="#00ff00" stroke-width=".1928" d="M52.3559,-98.1954C52.614,-91.6488 52.9832,-82.2808 53.3642,-72.614"/>
<polygon fill="#00ff00" stroke="#00ff00" stroke-width=".1928" points="56.8647,-72.6677 53.7614,-62.5376 49.8702,-72.3919 56.8647,-72.6677"/>
</g>
<!-- B -->
<g id="node2" class="node">
<title>B</title>
<polygon fill="#d3d3d3" stroke="#000000" points="104.5,-116.2254 81.5,-116.2254 81.5,-98.2254 104.5,-98.2254 104.5,-116.2254"/>
<text text-anchor="middle" x="93" y="-105.0254" font-family="Times,serif" font-size="9.00" fill="#000000">B</text>
</g>
<!-- B&#45;&gt;LEFT -->
<g id="edge3" class="edge">
<title>B&#45;&gt;LEFT</title>
<path fill="none" stroke="#ff0000" stroke-width=".6462" d="M97.8642,-98.1954C102.4729,-89.6399 109.6771,-76.2658 116.4443,-63.7032"/>
<polygon fill="#ff0000" stroke="#ff0000" stroke-width=".6462" points="119.5901,-65.2435 121.2512,-54.7796 113.4273,-61.9237 119.5901,-65.2435"/>
</g>
<!-- B&#45;&gt;RIGHT -->
<g id="edge4" class="edge">
<title>B&#45;&gt;RIGHT</title>
<path fill="none" stroke="#00ff00" stroke-width=".5673" stroke-dasharray="1,5" d="M88.4917,-98.1954C84.744,-90.689 79.1444,-79.4732 73.5914,-68.3507"/>
<polygon fill="#00ff00" stroke="#00ff00" stroke-width=".5673" points="76.5778,-66.4966 68.9795,-59.1131 70.315,-69.6235 76.5778,-66.4966"/>
</g>
<!-- C -->
<g id="node3" class="node">
<title>C</title>
<polygon fill="#d3d3d3" stroke="#000000" points="145.5,-116.2254 122.5,-116.2254 122.5,-98.2254 145.5,-98.2254 145.5,-116.2254"/>
<text text-anchor="middle" x="134" y="-105.0254" font-family="Times,serif" font-size="9.00" fill="#000000">C</text>
</g>
<!-- C&#45;&gt;LEFT -->
<g id="edge5" class="edge">
<title>C&#45;&gt;LEFT</title>
<path fill="none" stroke="#ff0000" stroke-width=".1755" d="M134,-98.1954C134,-90.6582 134,-79.3812 134,-68.2139"/>
<polygon fill="#ff0000" stroke="#ff0000" stroke-width=".1755" points="137.5001,-68.0995 134,-58.0995 130.5001,-68.0995 137.5001,-68.0995"/>
</g>
<!-- C&#45;&gt;RIGHT -->
<g id="edge6" class="edge">
<title>C&#45;&gt;RIGHT</title>
<path fill="none" stroke="#00ff00" stroke-width=".3239" d="M124.6274,-98.1954C114.9025,-88.8259 99.1792,-73.6772 85.1329,-60.1443"/>
<polygon fill="#00ff00" stroke="#00ff00" stroke-width=".3239" points="87.1805,-57.2569 77.5507,-52.8392 82.3237,-62.298 87.1805,-57.2569"/>
</g>
<!-- D -->
<g id="node4" class="node">
<title>D</title>
<polygon fill="#d3d3d3" stroke="#000000" points="186.5,-116.2254 163.5,-116.2254 163.5,-98.2254 186.5,-98.2254 186.5,-116.2254"/>
<text text-anchor="middle" x="175" y="-105.0254" font-family="Times,serif" font-size="9.00" fill="#000000">D</text>
</g>
<!-- D&#45;&gt;LEFT -->
<g id="edge7" class="edge">
<title>D&#45;&gt;LEFT</title>
<path fill="none" stroke="#00ff00" stroke-width=".2095" d="M170.1358,-98.1954C165.5271,-89.6399 158.3229,-76.2658 151.5557,-63.7032"/>
<polygon fill="#00ff00" stroke="#00ff00" stroke-width=".2095" points="154.5727,-61.9237 146.7488,-54.7796 148.4099,-65.2435 154.5727,-61.9237"/>
</g>
<!-- E -->
<g id="node5" class="node">
<title>E</title>
<polygon fill="#d3d3d3" stroke="#000000" points="227,-116.2254 205,-116.2254 205,-98.2254 227,-98.2254 227,-116.2254"/>
<text text-anchor="middle" x="216" y="-105.0254" font-family="Times,serif" font-size="9.00" fill="#000000">E</text>
</g>
<!-- E&#45;&gt;LEFT -->
<g id="edge8" class="edge">
<title>E&#45;&gt;LEFT</title>
<path fill="none" stroke="#ff0000" stroke-width=".9769" d="M206.2715,-98.1954C195.1883,-87.9079 176.5991,-70.6533 161.0494,-56.22"/>
<polygon fill="#ff0000" stroke="#ff0000" stroke-width=".9769" points="163.4166,-53.6419 153.7062,-49.4041 158.6545,-58.7725 163.4166,-53.6419"/>
</g>
<!-- F -->
<g id="node6" class="node">
<title>F</title>
<polygon fill="#d3d3d3" stroke="#000000" points="22,-116.2254 0,-116.2254 0,-98.2254 22,-98.2254 22,-116.2254"/>
<text text-anchor="middle" x="11" y="-105.0254" font-family="Times,serif" font-size="9.00" fill="#000000">F</text>
</g>
<!-- F&#45;&gt;LEFT -->
<g id="edge9" class="edge">
<title>F&#45;&gt;LEFT</title>
<path fill="none" stroke="#00ff00" stroke-width=".6429" d="M22.2393,-102.0142C38.7069,-94.2009 70.133,-78.6098 95,-62.2254 98.4988,-59.9201 102.0679,-57.3751 105.5558,-54.7633"/>
<polygon fill="#00ff00" stroke="#00ff00" stroke-width=".6429" points="107.7128,-57.5197 113.4756,-48.6291 103.4264,-51.9855 107.7128,-57.5197"/>
</g>
<!-- F&#45;&gt;RIGHT -->
<g id="edge10" class="edge">
<title>F&#45;&gt;RIGHT</title>
<path fill="none" stroke="#ff0000" stroke-width=".3287" d="M16.2202,-98.1954C20.7552,-90.3506 27.6322,-78.4544 34.3422,-66.8473"/>
<polygon fill="#ff0000" stroke="#ff0000" stroke-width=".3287" points="37.4245,-68.5087 39.3992,-58.0995 31.3642,-65.0053 37.4245,-68.5087"/>
</g>
<!-- G -->
<g id="node7" class="node">
<title>G</title>
<polygon fill="#d3d3d3" stroke="#000000" points="268.5,-116.2254 245.5,-116.2254 245.5,-98.2254 268.5,-98.2254 268.5,-116.2254"/>
<text text-anchor="middle" x="257" y="-105.0254" font-family="Times,serif" font-size="9.00" fill="#000000">G</text>
</g>
<!-- G&#45;&gt;LEFT -->
<g id="edge11" class="edge">
<title>G&#45;&gt;LEFT</title>
<path fill="none" stroke="#ff0000" stroke-width=".1824" d="M245.2062,-99.9274C227.1338,-88.7441 191.9568,-66.9765 165.9851,-50.9052"/>
<polygon fill="#ff0000" stroke="#ff0000" stroke-width=".1824" points="167.571,-47.7706 157.2257,-45.4848 163.8876,-53.7232 167.571,-47.7706"/>
</g>
</g>
</svg>
