<?xml version="1.0" encoding="UTF-8" standalone="no"?>
<!DOCTYPE svg PUBLIC "-//W3C//DTD SVG 1.1//EN"
 "http://www.w3.org/Graphics/SVG/1.1/DTD/svg11.dtd">
<!-- Generated by graphviz version 2.40.1 (20161225.0304)
 -->
<!-- Title: %3 Pages: 1 -->
<svg width="277pt" height="124pt"
 viewBox="0.00 0.00 276.50 124.23" xmlns="http://www.w3.org/2000/svg" xmlns:xlink="http://www.w3.org/1999/xlink">
<g id="graph0" class="graph" transform="scale(1 1) rotate(0) translate(4 120.2254)">
<title>%3</title>
<polygon fill="#ffffff" stroke="transparent" points="-4,4 -4,-120.2254 272.5,-120.2254 272.5,4 -4,4"/>
<!-- A -->
<g id="node1" class="node">
<title>A</title>
<polygon fill="#d3d3d3" stroke="#000000" points="187,-116.2254 164,-116.2254 164,-98.2254 187,-98.2254 187,-116.2254"/>
<text text-anchor="middle" x="175.5" y="-105.0254" font-family="Times,serif" font-size="9.00" fill="#000000">A</text>
</g>
<!-- LEFT -->
<g id="node8" class="node">
<title>LEFT</title>
<ellipse fill="#add8e6" stroke="#000000" cx="134.5" cy="-31.1127" rx="26.7407" ry="26.7407"/>
<text text-anchor="middle" x="134.5" y="-28.9127" font-family="Times,serif" font-size="9.00" fill="#000000">LEFT</text>
</g>
<!-- A&#45;&gt;LEFT -->
<g id="edge1" class="edge">
<title>A&#45;&gt;LEFT</title>
<path fill="none" stroke="#ff0000" stroke-width=".5203" d="M170.6358,-98.1954C166.0271,-89.6399 158.8229,-76.2658 152.0557,-63.7032"/>
<polygon fill="#ff0000" stroke="#ff0000" stroke-width=".5203" points="155.0727,-61.9237 147.2488,-54.7796 148.9099,-65.2435 155.0727,-61.9237"/>
</g>
<!-- RIGHT -->
<g id="node9" class="node">
<title>RIGHT</title>
<ellipse fill="#add8e6" stroke="#000000" cx="216.5" cy="-31.1127" rx="31.2258" ry="31.2258"/>
<text text-anchor="middle" x="216.5" y="-28.9127" font-family="Times,serif" font-size="9.00" fill="#000000">RIGHT</text>
</g>
<!-- A&#45;&gt;RIGHT -->
<g id="edge2" class="edge">
<title>A&#45;&gt;RIGHT</title>
<path fill="none" stroke="#00ff00" stroke-width=".1928" d="M180.3642,-98.1954C184.4817,-90.5518 190.671,-79.0619 196.7693,-67.7409"/>
<polygon fill="#00ff00" stroke="#00ff00" stroke-width=".1928" points="199.9382,-69.2383 201.5993,-58.7745 193.7754,-65.9185 199.9382,-69.2383"/>
</g>
<!-- B -->
<g id="node2" class="node">
<title>B</title>
<polygon fill="#d3d3d3" stroke="#000000" points="146,-116.2254 123,-116.2254 123,-98.2254 146,-98.2254 146,-116.2254"/>
<text text-anchor="middle" x="134.5" y="-105.0254" font-family="Times,serif" font-size="9.00" fill="#000000">B</text>
</g>
<!-- B&#45;&gt;LEFT -->
<g id="edge3" class="edge">
<title>B&#45;&gt;LEFT</title>
<path fill="none" stroke="#ff0000" stroke-width=".6462" d="M134.5,-98.1954C134.5,-90.6582 134.5,-79.3812 134.5,-68.2139"/>
<polygon fill="#ff0000" stroke="#ff0000" stroke-width=".6462" points="138.0001,-68.0995 134.5,-58.0995 131.0001,-68.0995 138.0001,-68.0995"/>
</g>
<!-- C -->
<g id="node3" class="node">
<title>C</title>
<polygon fill="#d3d3d3" stroke="#000000" points="228,-116.2254 205,-116.2254 205,-98.2254 228,-98.2254 228,-116.2254"/>
<text text-anchor="middle" x="216.5" y="-105.0254" font-family="Times,serif" font-size="9.00" fill="#000000">C</text>
</g>
<!-- C&#45;&gt;LEFT -->
<g id="edge4" class="edge">
<title>C&#45;&gt;LEFT</title>
<path fill="none" stroke="#ff0000" stroke-width=".1755" d="M206.7715,-98.1954C195.6883,-87.9079 177.0991,-70.6533 161.5494,-56.22"/>
<polygon fill="#ff0000" stroke="#ff0000" stroke-width=".1755" points="163.9166,-53.6419 154.2062,-49.4041 159.1545,-58.7725 163.9166,-53.6419"/>
</g>
<!-- C&#45;&gt;RIGHT -->
<g id="edge5" class="edge">
<title>C&#45;&gt;RIGHT</title>
<path fill="none" stroke="#00ff00" stroke-width=".3239" d="M216.5,-98.1954C216.5,-91.6488 216.5,-82.2808 216.5,-72.614"/>
<polygon fill="#00ff00" stroke="#00ff00" stroke-width=".3239" points="220.0001,-72.5375 216.5,-62.5376 213.0001,-72.5376 220.0001,-72.5375"/>
</g>
<!-- D -->
<g id="node4" class="node">
<title>D</title>
<polygon fill="#d3d3d3" stroke="#000000" points="23,-116.2254 0,-116.2254 0,-98.2254 23,-98.2254 23,-116.2254"/>
<text text-anchor="middle" x="11.5" y="-105.0254" font-family="Times,serif" font-size="9.00" fill="#000000">D</text>
</g>
<!-- D&#45;&gt;LEFT -->
<g id="edge6" class="edge">
<title>D&#45;&gt;LEFT</title>
<path fill="none" stroke="#00ff00" stroke-width=".2095" d="M23.2938,-99.9274C41.3662,-88.7441 76.5432,-66.9765 102.5149,-50.9052"/>
<polygon fill="#00ff00" stroke="#00ff00" stroke-width=".2095" points="104.6124,-53.7232 111.2743,-45.4848 100.929,-47.7706 104.6124,-53.7232"/>
</g>
<!-- E -->
<g id="node5" class="node">
<title>E</title>
<polygon fill="#d3d3d3" stroke="#000000" points="63.5,-116.2254 41.5,-116.2254 41.5,-98.2254 63.5,-98.2254 63.5,-116.2254"/>
<text text-anchor="middle" x="52.5" y="-105.0254" font-family="Times,serif" font-size="9.00" fill="#000000">E</text>
</g>
<!-- E&#45;&gt;LEFT -->
<g id="edge7" class="edge">
<title>E&#45;&gt;LEFT</title>
<path fill="none" stroke="#ff0000" stroke-width=".9769" d="M62.2285,-98.1954C73.3117,-87.9079 91.9009,-70.6533 107.4506,-56.22"/>
<polygon fill="#ff0000" stroke="#ff0000" stroke-width=".9769" points="109.8455,-58.7725 114.7938,-49.4041 105.0834,-53.6419 109.8455,-58.7725"/>
</g>
<!-- F -->
<g id="node6" class="node">
<title>F</title>
<polygon fill="#d3d3d3" stroke="#000000" points="268.5,-116.2254 246.5,-116.2254 246.5,-98.2254 268.5,-98.2254 268.5,-116.2254"/>
<text text-anchor="middle" x="257.5" y="-105.0254" font-family="Times,serif" font-size="9.00" fill="#000000">F</text>
</g>
<!-- F&#45;&gt;LEFT -->
<g id="edge8" class="edge">
<title>F&#45;&gt;LEFT</title>
<path fill="none" stroke="#00ff00" stroke-width=".6429" d="M246.4941,-101.6938C230.6633,-93.6079 200.7067,-77.821 176.5,-62.2254 172.4236,-59.5991 168.219,-56.7136 164.1173,-53.7915"/>
<polygon fill="#00ff00" stroke="#00ff00" stroke-width=".6429" points="166.0593,-50.8759 155.9166,-47.8135 161.9358,-56.5325 166.0593,-50.8759"/>
</g>
<!-- F&#45;&gt;RIGHT -->
<g id="edge9" class="edge">
<title>F&#45;&gt;RIGHT</title>
<path fill="none" stroke="#ff0000" stroke-width=".3287" d="M252.6358,-98.1954C248.5183,-90.5518 242.329,-79.0619 236.2307,-67.7409"/>
<polygon fill="#ff0000" stroke="#ff0000" stroke-width=".3287" points="239.2246,-65.9185 231.4007,-58.7745 233.0618,-69.2383 239.2246,-65.9185"/>
</g>
<!-- G -->
<g id="node7" class="node">
<title>G</title>
<polygon fill="#d3d3d3" stroke="#000000" points="105,-116.2254 82,-116.2254 82,-98.2254 105,-98.2254 105,-116.2254"/>
<text text-anchor="middle" x="93.5" y="-105.0254" font-family="Times,serif" font-size="9.00" fill="#000000">G</text>
</g>
<!-- G&#45;&gt;LEFT -->
<g id="edge10" class="edge">
<title>G&#45;&gt;LEFT</title>
<path fill="none" stroke="#ff0000" stroke-width=".1824" d="M98.3642,-98.1954C102.9729,-89.6399 110.1771,-76.2658 116.9443,-63.7032"/>
<polygon fill="#ff0000" stroke="#ff0000" stroke-width=".1824" points="120.0901,-65.2435 121.7512,-54.7796 113.9273,-61.9237 120.0901,-65.2435"/>
</g>
</g>
</svg>
