<?xml version="1.0" encoding="UTF-8" standalone="no"?>
<!DOCTYPE svg PUBLIC "-//W3C//DTD SVG 1.1//EN"
 "http://www.w3.org/Graphics/SVG/1.1/DTD/svg11.dtd">
<!-- Generated by graphviz version 2.40.1 (20161225.0304)
 -->
<!-- Title: %3 Pages: 1 -->
<svg width="277pt" height="124pt"
 viewBox="0.00 0.00 277.00 124.23" xmlns="http://www.w3.org/2000/svg" xmlns:xlink="http://www.w3.org/1999/xlink">
<g id="graph0" class="graph" transform="scale(1 1) rotate(0) translate(4 120.2254)">
<title>%3</title>
<polygon fill="#ffffff" stroke="transparent" points="-4,4 -4,-120.2254 273,-120.2254 273,4 -4,4"/>
<!-- A -->
<g id="node1" class="node">
<title>A</title>
<polygon fill="#d3d3d3" stroke="#000000" points="23,-116.2254 0,-116.2254 0,-98.2254 23,-98.2254 23,-116.2254"/>
<text text-anchor="middle" x="11.5" y="-105.0254" font-family="Times,serif" font-size="9.00" fill="#000000">A</text>
</g>
<!-- LEFT -->
<g id="node8" class="node">
<title>LEFT</title>
<ellipse fill="#add8e6" stroke="#000000" cx="30.5" cy="-31.1127" rx="26.7407" ry="26.7407"/>
<text text-anchor="middle" x="30.5" y="-28.9127" font-family="Times,serif" font-size="9.00" fill="#000000">LEFT</text>
</g>
<!-- A&#45;&gt;LEFT -->
<g id="edge1" class="edge">
<title>A&#45;&gt;LEFT</title>
<path fill="none" stroke="#ff0000" stroke-width=".7073" d="M13.7542,-98.1954C15.6853,-90.4595 18.5998,-78.7839 21.4589,-67.3308"/>
<polygon fill="#ff0000" stroke="#ff0000" stroke-width=".7073" points="24.9047,-67.9779 23.9309,-57.4279 18.1131,-66.2825 24.9047,-67.9779"/>
</g>
<!-- B -->
<g id="node2" class="node">
<title>B</title>
<polygon fill="#d3d3d3" stroke="#000000" points="105,-116.2254 82,-116.2254 82,-98.2254 105,-98.2254 105,-116.2254"/>
<text text-anchor="middle" x="93.5" y="-105.0254" font-family="Times,serif" font-size="9.00" fill="#000000">B</text>
</g>
<!-- B&#45;&gt;LEFT -->
<g id="edge2" class="edge">
<title>B&#45;&gt;LEFT</title>
<path fill="none" stroke="#ff0000" stroke-width=".3479" d="M86.0257,-98.1954C78.1787,-88.7152 65.4344,-73.3183 54.1334,-59.6651"/>
<polygon fill="#ff0000" stroke="#ff0000" stroke-width=".3479" points="56.7667,-57.3574 47.6942,-51.8857 51.3743,-61.8209 56.7667,-57.3574"/>
</g>
<!-- 54 -->
<g id="node10" class="node">
<title>54</title>
<ellipse fill="#ffffff" stroke="#000000" cx="93.5" cy="-31.1127" rx="18.2703" ry="18.2703"/>
<text text-anchor="middle" x="93.5" y="-28.9127" font-family="Times,serif" font-size="9.00" fill="#000000">54</text>
</g>
<!-- B&#45;&gt;54 -->
<g id="edge6" class="edge">
<title>B&#45;&gt;54</title>
<path fill="none" stroke="#ff0000" stroke-width=".404" d="M93.5,-98.1954C93.5,-88.8118 93.5,-73.6315 93.5,-60.083"/>
<polygon fill="#ff0000" stroke="#ff0000" stroke-width=".404" points="97.0001,-59.7091 93.5,-49.7091 90.0001,-59.7092 97.0001,-59.7091"/>
</g>
<!-- C -->
<g id="node3" class="node">
<title>C</title>
<polygon fill="#d3d3d3" stroke="#000000" points="146,-116.2254 123,-116.2254 123,-98.2254 146,-98.2254 146,-116.2254"/>
<text text-anchor="middle" x="134.5" y="-105.0254" font-family="Times,serif" font-size="9.00" fill="#000000">C</text>
</g>
<!-- D -->
<g id="node4" class="node">
<title>D</title>
<polygon fill="#d3d3d3" stroke="#000000" points="187,-116.2254 164,-116.2254 164,-98.2254 187,-98.2254 187,-116.2254"/>
<text text-anchor="middle" x="175.5" y="-105.0254" font-family="Times,serif" font-size="9.00" fill="#000000">D</text>
</g>
<!-- E -->
<g id="node5" class="node">
<title>E</title>
<polygon fill="#d3d3d3" stroke="#000000" points="227.5,-116.2254 205.5,-116.2254 205.5,-98.2254 227.5,-98.2254 227.5,-116.2254"/>
<text text-anchor="middle" x="216.5" y="-105.0254" font-family="Times,serif" font-size="9.00" fill="#000000">E</text>
</g>
<!-- RIGHT -->
<g id="node9" class="node">
<title>RIGHT</title>
<ellipse fill="#add8e6" stroke="#000000" cx="216.5" cy="-31.1127" rx="31.2258" ry="31.2258"/>
<text text-anchor="middle" x="216.5" y="-28.9127" font-family="Times,serif" font-size="9.00" fill="#000000">RIGHT</text>
</g>
<!-- E&#45;&gt;RIGHT -->
<g id="edge3" class="edge">
<title>E&#45;&gt;RIGHT</title>
<path fill="none" stroke="#ff0000" stroke-width="1.2321" d="M216.5,-98.1954C216.5,-91.6488 216.5,-82.2808 216.5,-72.614"/>
<polygon fill="#ff0000" stroke="#ff0000" stroke-width="1.2321" points="220.0001,-72.5375 216.5,-62.5376 213.0001,-72.5376 220.0001,-72.5375"/>
</g>
<!-- F -->
<g id="node6" class="node">
<title>F</title>
<polygon fill="#d3d3d3" stroke="#000000" points="63.5,-116.2254 41.5,-116.2254 41.5,-98.2254 63.5,-98.2254 63.5,-116.2254"/>
<text text-anchor="middle" x="52.5" y="-105.0254" font-family="Times,serif" font-size="9.00" fill="#000000">F</text>
</g>
<!-- F&#45;&gt;LEFT -->
<g id="edge4" class="edge">
<title>F&#45;&gt;LEFT</title>
<path fill="none" stroke="#00ff00" stroke-width=".1238" stroke-dasharray="1,5" d="M49.8899,-98.1954C47.6135,-90.3198 44.1569,-78.361 40.7894,-66.7108"/>
<polygon fill="#00ff00" stroke="#00ff00" stroke-width=".1238" points="44.1488,-65.7283 38.0096,-57.0935 37.4241,-67.6721 44.1488,-65.7283"/>
</g>
<!-- F&#45;&gt;54 -->
<g id="edge5" class="edge">
<title>F&#45;&gt;54</title>
<path fill="none" stroke="#ff0000" stroke-width=".1619" d="M57.3642,-98.1954C62.8976,-87.9233 72.1727,-70.7049 79.9404,-56.2848"/>
<polygon fill="#ff0000" stroke="#ff0000" stroke-width=".1619" points="83.1117,-57.7777 84.7728,-47.3139 76.9489,-54.458 83.1117,-57.7777"/>
</g>
<!-- G -->
<g id="node7" class="node">
<title>G</title>
<polygon fill="#d3d3d3" stroke="#000000" points="269,-116.2254 246,-116.2254 246,-98.2254 269,-98.2254 269,-116.2254"/>
<text text-anchor="middle" x="257.5" y="-105.0254" font-family="Times,serif" font-size="9.00" fill="#000000">G</text>
</g>
</g>
</svg>
