<?xml version="1.0" encoding="UTF-8" standalone="no"?>
<!DOCTYPE svg PUBLIC "-//W3C//DTD SVG 1.1//EN"
 "http://www.w3.org/Graphics/SVG/1.1/DTD/svg11.dtd">
<!-- Generated by graphviz version 2.40.1 (20161225.0304)
 -->
<!-- Title: %3 Pages: 1 -->
<svg width="408pt" height="214pt"
 viewBox="0.00 0.00 408.37 213.97" xmlns="http://www.w3.org/2000/svg" xmlns:xlink="http://www.w3.org/1999/xlink">
<g id="graph0" class="graph" transform="scale(1 1) rotate(0) translate(4 209.9655)">
<title>%3</title>
<polygon fill="#ffffff" stroke="transparent" points="-4,4 -4,-209.9655 404.3701,-209.9655 404.3701,4 -4,4"/>
<!-- A -->
<g id="node1" class="node">
<title>A</title>
<polygon fill="#d3d3d3" stroke="#000000" points="93.3701,-205.9655 70.3701,-205.9655 70.3701,-187.9655 93.3701,-187.9655 93.3701,-205.9655"/>
<text text-anchor="middle" x="81.8701" y="-194.7655" font-family="Times,serif" font-size="9.00" fill="#000000">A</text>
</g>
<!-- LEFT -->
<g id="node8" class="node">
<title>LEFT</title>
<ellipse fill="#add8e6" stroke="#000000" cx="26.8701" cy="-125.0955" rx="26.7407" ry="26.7407"/>
<text text-anchor="middle" x="26.8701" y="-122.8955" font-family="Times,serif" font-size="9.00" fill="#000000">LEFT</text>
</g>
<!-- A&#45;&gt;LEFT -->
<g id="edge1" class="edge">
<title>A&#45;&gt;LEFT</title>
<path fill="none" stroke="#ff0000" stroke-width="1.8601" d="M74.9043,-187.8631C68.4691,-179.4541 58.5487,-166.4908 49.3904,-154.5235"/>
<polygon fill="#ff0000" stroke="#ff0000" stroke-width="1.8601" points="52.081,-152.2801 43.2241,-146.4658 46.522,-156.5343 52.081,-152.2801"/>
</g>
<!-- RIGHT -->
<g id="node9" class="node">
<title>RIGHT</title>
<ellipse fill="#add8e6" stroke="#000000" cx="188.8701" cy="-31.1127" rx="31.2258" ry="31.2258"/>
<text text-anchor="middle" x="188.8701" y="-28.9127" font-family="Times,serif" font-size="9.00" fill="#000000">RIGHT</text>
</g>
<!-- A&#45;&gt;RIGHT -->
<g id="edge2" class="edge">
<title>A&#45;&gt;RIGHT</title>
<path fill="none" stroke="#00ff00" stroke-width=".1877" d="M81.5385,-187.7474C81.302,-169.3063 82.9418,-127.1626 100.8701,-98.2254 113.3057,-78.1536 134.0808,-61.887 152.3231,-50.3975"/>
<polygon fill="#00ff00" stroke="#00ff00" stroke-width=".1877" points="154.2736,-53.3085 161.0273,-45.1453 150.657,-47.3151 154.2736,-53.3085"/>
</g>
<!-- 1269 -->
<g id="node10" class="node">
<title>1269</title>
<ellipse fill="#ffffff" stroke="#000000" cx="134.8701" cy="-125.0955" rx="25" ry="25"/>
<text text-anchor="middle" x="134.8701" y="-122.8955" font-family="Times,serif" font-size="9.00" fill="#000000">1269</text>
</g>
<!-- A&#45;&gt;1269 -->
<g id="edge9" class="edge">
<title>A&#45;&gt;1269</title>
<path fill="none" stroke="#00ff00" stroke-width=".1381" d="M88.5825,-187.8631C94.9647,-179.2086 104.9045,-165.7299 113.9396,-153.4779"/>
<polygon fill="#00ff00" stroke="#00ff00" stroke-width=".1381" points="116.8771,-155.3917 119.9953,-145.2661 111.2433,-151.2371 116.8771,-155.3917"/>
</g>
<!-- B -->
<g id="node2" class="node">
<title>B</title>
<polygon fill="#d3d3d3" stroke="#000000" points="200.3701,-134.0955 177.3701,-134.0955 177.3701,-116.0955 200.3701,-116.0955 200.3701,-134.0955"/>
<text text-anchor="middle" x="188.8701" y="-122.8955" font-family="Times,serif" font-size="9.00" fill="#000000">B</text>
</g>
<!-- B&#45;&gt;RIGHT -->
<g id="edge8" class="edge">
<title>B&#45;&gt;RIGHT</title>
<path fill="none" stroke="#00ff00" stroke-width=".1595" d="M188.8701,-116.084C188.8701,-106.059 188.8701,-89.1457 188.8701,-73.0362"/>
<polygon fill="#00ff00" stroke="#00ff00" stroke-width=".1595" points="192.3702,-72.6465 188.8701,-62.6466 185.3702,-72.6466 192.3702,-72.6465"/>
</g>
<!-- C -->
<g id="node3" class="node">
<title>C</title>
<polygon fill="#d3d3d3" stroke="#000000" points="318.3701,-205.9655 295.3701,-205.9655 295.3701,-187.9655 318.3701,-187.9655 318.3701,-205.9655"/>
<text text-anchor="middle" x="306.8701" y="-194.7655" font-family="Times,serif" font-size="9.00" fill="#000000">C</text>
</g>
<!-- 918 -->
<g id="node11" class="node">
<title>918</title>
<ellipse fill="#ffffff" stroke="#000000" cx="306.8701" cy="-125.0955" rx="21.4286" ry="21.4286"/>
<text text-anchor="middle" x="306.8701" y="-122.8955" font-family="Times,serif" font-size="9.00" fill="#000000">918</text>
</g>
<!-- C&#45;&gt;918 -->
<g id="edge5" class="edge">
<title>C&#45;&gt;918</title>
<path fill="none" stroke="#ff0000" stroke-width=".1597" d="M306.8701,-187.8631C306.8701,-179.9393 306.8701,-167.9714 306.8701,-156.6036"/>
<polygon fill="#ff0000" stroke="#ff0000" stroke-width=".1597" points="310.3702,-156.4657 306.8701,-146.4658 303.3702,-156.4658 310.3702,-156.4657"/>
</g>
<!-- D -->
<g id="node4" class="node">
<title>D</title>
<polygon fill="#d3d3d3" stroke="#000000" points="359.3701,-205.9655 336.3701,-205.9655 336.3701,-187.9655 359.3701,-187.9655 359.3701,-205.9655"/>
<text text-anchor="middle" x="347.8701" y="-194.7655" font-family="Times,serif" font-size="9.00" fill="#000000">D</text>
</g>
<!-- E -->
<g id="node5" class="node">
<title>E</title>
<polygon fill="#d3d3d3" stroke="#000000" points="199.8701,-205.9655 177.8701,-205.9655 177.8701,-187.9655 199.8701,-187.9655 199.8701,-205.9655"/>
<text text-anchor="middle" x="188.8701" y="-194.7655" font-family="Times,serif" font-size="9.00" fill="#000000">E</text>
</g>
<!-- E&#45;&gt;1269 -->
<g id="edge4" class="edge">
<title>E&#45;&gt;1269</title>
<path fill="none" stroke="#00ff00" stroke-width=".1155" d="M182.0309,-187.8631C175.4822,-179.1472 165.2572,-165.5385 155.9997,-153.2174"/>
<polygon fill="#00ff00" stroke="#00ff00" stroke-width=".1155" points="158.6075,-150.8615 149.8023,-144.9692 153.0111,-155.0664 158.6075,-150.8615"/>
</g>
<!-- 1593 -->
<g id="node12" class="node">
<title>1593</title>
<ellipse fill="#ffffff" stroke="#000000" cx="242.8701" cy="-125.0955" rx="25" ry="25"/>
<text text-anchor="middle" x="242.8701" y="-122.8955" font-family="Times,serif" font-size="9.00" fill="#000000">1593</text>
</g>
<!-- E&#45;&gt;1593 -->
<g id="edge6" class="edge">
<title>E&#45;&gt;1593</title>
<path fill="none" stroke="#ff0000" stroke-width=".1357" d="M195.7092,-187.8631C202.2579,-179.1472 212.4829,-165.5385 221.7404,-153.2174"/>
<polygon fill="#ff0000" stroke="#ff0000" stroke-width=".1357" points="224.729,-155.0664 227.9378,-144.9692 219.1327,-150.8615 224.729,-155.0664"/>
</g>
<!-- F -->
<g id="node6" class="node">
<title>F</title>
<polygon fill="#d3d3d3" stroke="#000000" points="37.8701,-205.9655 15.8701,-205.9655 15.8701,-187.9655 37.8701,-187.9655 37.8701,-205.9655"/>
<text text-anchor="middle" x="26.8701" y="-194.7655" font-family="Times,serif" font-size="9.00" fill="#000000">F</text>
</g>
<!-- F&#45;&gt;LEFT -->
<g id="edge3" class="edge">
<title>F&#45;&gt;LEFT</title>
<path fill="none" stroke="#ff0000" stroke-width=".8503" d="M26.8701,-187.8631C26.8701,-181.2613 26.8701,-171.8523 26.8701,-162.322"/>
<polygon fill="#ff0000" stroke="#ff0000" stroke-width=".8503" points="30.3702,-162.0601 26.8701,-152.0601 23.3702,-162.0601 30.3702,-162.0601"/>
</g>
<!-- G -->
<g id="node7" class="node">
<title>G</title>
<polygon fill="#d3d3d3" stroke="#000000" points="400.3701,-205.9655 377.3701,-205.9655 377.3701,-187.9655 400.3701,-187.9655 400.3701,-205.9655"/>
<text text-anchor="middle" x="388.8701" y="-194.7655" font-family="Times,serif" font-size="9.00" fill="#000000">G</text>
</g>
<!-- 1593&#45;&gt;RIGHT -->
<g id="edge7" class="edge">
<title>1593&#45;&gt;RIGHT</title>
<path fill="none" stroke="#00ff00" stroke-width=".1936" d="M230.3456,-103.2977C224.128,-92.4763 216.4562,-79.1242 209.4085,-66.8582"/>
<polygon fill="#00ff00" stroke="#00ff00" stroke-width=".1936" points="212.4334,-65.0973 204.4166,-58.1703 206.3639,-68.5847 212.4334,-65.0973"/>
</g>
</g>
</svg>
