<?xml version="1.0" encoding="UTF-8" standalone="no"?>
<!DOCTYPE svg PUBLIC "-//W3C//DTD SVG 1.1//EN"
 "http://www.w3.org/Graphics/SVG/1.1/DTD/svg11.dtd">
<!-- Generated by graphviz version 2.40.1 (20161225.0304)
 -->
<!-- Title: %3 Pages: 1 -->
<svg width="447pt" height="197pt"
 viewBox="0.00 0.00 447.37 196.99" xmlns="http://www.w3.org/2000/svg" xmlns:xlink="http://www.w3.org/1999/xlink">
<g id="graph0" class="graph" transform="scale(1 1) rotate(0) translate(4 192.9949)">
<title>%3</title>
<polygon fill="#ffffff" stroke="transparent" points="-4,4 -4,-192.9949 443.3665,-192.9949 443.3665,4 -4,4"/>
<!-- A -->
<g id="node1" class="node">
<title>A</title>
<polygon fill="#d3d3d3" stroke="#000000" points="146.3665,-188.9949 123.3665,-188.9949 123.3665,-170.9949 146.3665,-170.9949 146.3665,-188.9949"/>
<text text-anchor="middle" x="134.8665" y="-177.7949" font-family="Times,serif" font-size="9.00" fill="#000000">A</text>
</g>
<!-- LEFT -->
<g id="node8" class="node">
<title>LEFT</title>
<ellipse fill="#add8e6" stroke="#000000" cx="117.8665" cy="-31.1127" rx="26.7407" ry="26.7407"/>
<text text-anchor="middle" x="117.8665" y="-28.9127" font-family="Times,serif" font-size="9.00" fill="#000000">LEFT</text>
</g>
<!-- A&#45;&gt;LEFT -->
<g id="edge8" class="edge">
<title>A&#45;&gt;LEFT</title>
<path fill="none" stroke="#ff0000" stroke-width=".6136" d="M123.3121,-177.6944C94.5076,-171.701 20.8237,-154.6964 6.8665,-134.9949 -19.7448,-97.4315 41.4283,-62.8327 83.1222,-44.5949"/>
<polygon fill="#ff0000" stroke="#ff0000" stroke-width=".6136" points="84.6188,-47.7621 92.4602,-40.6372 81.8872,-41.3171 84.6188,-47.7621"/>
</g>
<!-- RIGHT -->
<g id="node9" class="node">
<title>RIGHT</title>
<ellipse fill="#add8e6" stroke="#000000" cx="296.8665" cy="-31.1127" rx="31.2258" ry="31.2258"/>
<text text-anchor="middle" x="296.8665" y="-28.9127" font-family="Times,serif" font-size="9.00" fill="#000000">RIGHT</text>
</g>
<!-- A&#45;&gt;RIGHT -->
<g id="edge9" class="edge">
<title>A&#45;&gt;RIGHT</title>
<path fill="none" stroke="#ff0000" stroke-width=".1225" d="M146.4203,-175.6927C163.5611,-168.9175 196.1434,-154.4977 218.8665,-134.9949 231.4747,-124.1736 255.4084,-91.3958 273.4539,-65.5209"/>
<polygon fill="#ff0000" stroke="#ff0000" stroke-width=".1225" points="276.5035,-67.265 279.3231,-57.0522 270.7501,-63.2776 276.5035,-67.265"/>
</g>
<!-- 2 -->
<g id="node10" class="node">
<title>2</title>
<ellipse fill="#ffffff" stroke="#000000" cx="318.8665" cy="-116.6102" rx="14.7" ry="14.7"/>
<text text-anchor="middle" x="318.8665" y="-114.4102" font-family="Times,serif" font-size="9.00" fill="#000000">2</text>
</g>
<!-- A&#45;&gt;2 -->
<g id="edge1" class="edge">
<title>A&#45;&gt;2</title>
<path fill="none" stroke="#ff0000" stroke-width=".5725" d="M146.5266,-175.3091C150.147,-173.8874 154.1599,-172.3453 157.8665,-170.9949 206.1827,-153.3924 263.339,-134.5489 294.9008,-124.314"/>
<polygon fill="#ff0000" stroke="#ff0000" stroke-width=".5725" points="296.1348,-127.5935 304.5734,-121.1873 293.9816,-120.9329 296.1348,-127.5935"/>
</g>
<!-- 64 -->
<g id="node11" class="node">
<title>64</title>
<ellipse fill="#ffffff" stroke="#000000" cx="33.8665" cy="-116.6102" rx="18.2703" ry="18.2703"/>
<text text-anchor="middle" x="33.8665" y="-114.4102" font-family="Times,serif" font-size="9.00" fill="#000000">64</text>
</g>
<!-- A&#45;&gt;64 -->
<g id="edge22" class="edge">
<title>A&#45;&gt;64</title>
<path fill="none" stroke="#00ff00" stroke-width=".3942" d="M123.2805,-172.7239C107.4829,-162.8098 78.7941,-144.8055 58.1686,-131.8615"/>
<polygon fill="#00ff00" stroke="#00ff00" stroke-width=".3942" points="59.9403,-128.8412 49.6096,-126.4901 56.2193,-134.7704 59.9403,-128.8412"/>
</g>
<!-- B -->
<g id="node2" class="node">
<title>B</title>
<polygon fill="#d3d3d3" stroke="#000000" points="209.3665,-125.6102 186.3665,-125.6102 186.3665,-107.6102 209.3665,-107.6102 209.3665,-125.6102"/>
<text text-anchor="middle" x="197.8665" y="-114.4102" font-family="Times,serif" font-size="9.00" fill="#000000">B</text>
</g>
<!-- B&#45;&gt;LEFT -->
<g id="edge10" class="edge">
<title>B&#45;&gt;LEFT</title>
<path fill="none" stroke="#ff0000" stroke-width=".3117" d="M189.3051,-107.4604C178.3992,-95.8051 159.0702,-75.1479 143.2659,-58.2575"/>
<polygon fill="#ff0000" stroke="#ff0000" stroke-width=".3117" points="145.6835,-55.7186 136.2954,-50.808 140.5722,-60.5014 145.6835,-55.7186"/>
</g>
<!-- B&#45;&gt;RIGHT -->
<g id="edge11" class="edge">
<title>B&#45;&gt;RIGHT</title>
<path fill="none" stroke="#ff0000" stroke-width=".105" d="M208.4612,-107.4604C221.9643,-95.7991 245.9017,-75.1264 265.4652,-58.2312"/>
<polygon fill="#ff0000" stroke="#ff0000" stroke-width=".105" points="267.9829,-60.6815 273.2636,-51.4964 263.4076,-55.3836 267.9829,-60.6815"/>
</g>
<!-- C -->
<g id="node3" class="node">
<title>C</title>
<polygon fill="#d3d3d3" stroke="#000000" points="189.3665,-188.9949 166.3665,-188.9949 166.3665,-170.9949 189.3665,-170.9949 189.3665,-188.9949"/>
<text text-anchor="middle" x="177.8665" y="-177.7949" font-family="Times,serif" font-size="9.00" fill="#000000">C</text>
</g>
<!-- C&#45;&gt;LEFT -->
<g id="edge12" class="edge">
<title>C&#45;&gt;LEFT</title>
<path fill="none" stroke="#ff0000" stroke-width=".3044" stroke-dasharray="1,5" d="M166.1385,-174.6206C147.0661,-165.6122 110.7569,-147.2494 103.8665,-134.9949 92.0089,-113.9064 96.2427,-86.705 103.0527,-65.4273"/>
<polygon fill="#ff0000" stroke="#ff0000" stroke-width=".3044" points="106.4183,-66.4063 106.4283,-55.8115 99.8135,-64.0876 106.4183,-66.4063"/>
</g>
<!-- C&#45;&gt;RIGHT -->
<g id="edge13" class="edge">
<title>C&#45;&gt;RIGHT</title>
<path fill="none" stroke="#00ff00" stroke-width=".1924" d="M189.3935,-175.6286C205.3779,-169.0486 234.2868,-155.1763 251.8665,-134.9949 267.8034,-116.6995 278.8343,-91.8923 285.9848,-71.108"/>
<polygon fill="#00ff00" stroke="#00ff00" stroke-width=".1924" points="289.3198,-72.1701 289.0942,-61.5777 282.665,-69.9989 289.3198,-72.1701"/>
</g>
<!-- C&#45;&gt;2 -->
<g id="edge2" class="edge">
<title>C&#45;&gt;2</title>
<path fill="none" stroke="#ff0000" stroke-width=".6463" d="M189.6228,-176.0727C210.37,-168.9766 254.6191,-153.0562 289.8665,-134.9949 292.5025,-133.6442 295.2078,-132.1252 297.8561,-130.5542"/>
<polygon fill="#ff0000" stroke="#ff0000" stroke-width=".6463" points="299.8303,-133.4477 306.4571,-125.1812 296.1216,-127.5109 299.8303,-133.4477"/>
</g>
<!-- C&#45;&gt;64 -->
<g id="edge20" class="edge">
<title>C&#45;&gt;64</title>
<path fill="none" stroke="#00ff00" stroke-width=".2614" d="M166.2275,-175.2138C162.8846,-173.8459 159.2329,-172.3568 155.8665,-170.9949 115.9293,-154.8388 104.6403,-153.7723 65.8665,-134.9949 63.4103,-133.8055 60.8856,-132.5029 58.3831,-131.1577"/>
<polygon fill="#00ff00" stroke="#00ff00" stroke-width=".2614" points="60.0144,-128.0598 49.5795,-126.2254 56.5929,-134.1666 60.0144,-128.0598"/>
</g>
<!-- D -->
<g id="node4" class="node">
<title>D</title>
<polygon fill="#d3d3d3" stroke="#000000" points="389.3665,-188.9949 366.3665,-188.9949 366.3665,-170.9949 389.3665,-170.9949 389.3665,-188.9949"/>
<text text-anchor="middle" x="377.8665" y="-177.7949" font-family="Times,serif" font-size="9.00" fill="#000000">D</text>
</g>
<!-- D&#45;&gt;RIGHT -->
<g id="edge14" class="edge">
<title>D&#45;&gt;RIGHT</title>
<path fill="none" stroke="#00ff00" stroke-width=".1883" d="M377.1136,-170.8865C375.5066,-155.2113 370.768,-122.4833 357.8665,-98.2254 350.2374,-83.8809 338.8478,-70.1964 327.9688,-58.9704"/>
<polygon fill="#00ff00" stroke="#00ff00" stroke-width=".1883" points="330.1298,-56.1834 320.5712,-51.6135 325.1937,-61.1468 330.1298,-56.1834"/>
</g>
<!-- D&#45;&gt;2 -->
<g id="edge3" class="edge">
<title>D&#45;&gt;2</title>
<path fill="none" stroke="#00ff00" stroke-width=".2453" d="M369.4132,-170.9135C360.8181,-161.6795 347.2491,-147.1022 336.3331,-135.3749"/>
<polygon fill="#00ff00" stroke="#00ff00" stroke-width=".2453" points="338.6688,-132.7472 329.2935,-127.8121 333.545,-137.5165 338.6688,-132.7472"/>
</g>
<!-- E -->
<g id="node5" class="node">
<title>E</title>
<polygon fill="#d3d3d3" stroke="#000000" points="329.8665,-188.9949 307.8665,-188.9949 307.8665,-170.9949 329.8665,-170.9949 329.8665,-188.9949"/>
<text text-anchor="middle" x="318.8665" y="-177.7949" font-family="Times,serif" font-size="9.00" fill="#000000">E</text>
</g>
<!-- E&#45;&gt;LEFT -->
<g id="edge15" class="edge">
<title>E&#45;&gt;LEFT</title>
<path fill="none" stroke="#ff0000" stroke-width=".2655" d="M307.704,-178.8074C271.8749,-174.7657 160.7243,-160.3669 136.8665,-134.9949 120.2774,-117.3531 115.7487,-90.2623 115.2513,-68.1691"/>
<polygon fill="#ff0000" stroke="#ff0000" stroke-width=".2655" points="118.7514,-68.1179 115.2865,-58.1057 111.7515,-68.0934 118.7514,-68.1179"/>
</g>
<!-- E&#45;&gt;RIGHT -->
<g id="edge16" class="edge">
<title>E&#45;&gt;RIGHT</title>
<path fill="none" stroke="#00ff00" stroke-width=".5371" d="M325.4583,-170.8941C331.3372,-162.174 339.5165,-148.395 342.8665,-134.9949 346.83,-119.1409 347.7027,-113.8354 342.8665,-98.2254 338.9412,-85.5557 331.7069,-73.1512 324.1189,-62.5219"/>
<polygon fill="#00ff00" stroke="#00ff00" stroke-width=".5371" points="326.8228,-60.2941 318.0142,-54.4069 321.2289,-64.5022 326.8228,-60.2941"/>
</g>
<!-- E&#45;&gt;2 -->
<g id="edge4" class="edge">
<title>E&#45;&gt;2</title>
<path fill="none" stroke="#00ff00" stroke-width=".495" d="M318.8665,-170.9135C318.8665,-163.2916 318.8665,-152.0292 318.8665,-141.7341"/>
<polygon fill="#00ff00" stroke="#00ff00" stroke-width=".495" points="322.3666,-141.5487 318.8665,-131.5487 315.3666,-141.5487 322.3666,-141.5487"/>
</g>
<!-- F -->
<g id="node6" class="node">
<title>F</title>
<polygon fill="#d3d3d3" stroke="#000000" points="167.8665,-125.6102 145.8665,-125.6102 145.8665,-107.6102 167.8665,-107.6102 167.8665,-125.6102"/>
<text text-anchor="middle" x="156.8665" y="-114.4102" font-family="Times,serif" font-size="9.00" fill="#000000">F</text>
</g>
<!-- F&#45;&gt;LEFT -->
<g id="edge17" class="edge">
<title>F&#45;&gt;LEFT</title>
<path fill="none" stroke="#00ff00" stroke-width=".4542" d="M152.6928,-107.4604C148.0713,-97.329 140.3471,-80.3957 133.3458,-65.0472"/>
<polygon fill="#00ff00" stroke="#00ff00" stroke-width=".4542" points="136.4487,-63.416 129.1142,-55.7704 130.08,-66.3211 136.4487,-63.416"/>
</g>
<!-- F&#45;&gt;RIGHT -->
<g id="edge18" class="edge">
<title>F&#45;&gt;RIGHT</title>
<path fill="none" stroke="#00ff00" stroke-width=".1412" d="M166.3519,-107.5698C169.8431,-104.4442 173.9124,-101.0262 177.8665,-98.2254 203.8386,-79.8284 235.2788,-62.2782 259.3188,-49.7417"/>
<polygon fill="#00ff00" stroke="#00ff00" stroke-width=".1412" points="261.186,-52.717 268.471,-45.0241 257.9787,-46.4949 261.186,-52.717"/>
</g>
<!-- G -->
<g id="node7" class="node">
<title>G</title>
<polygon fill="#d3d3d3" stroke="#000000" points="439.3665,-188.9949 416.3665,-188.9949 416.3665,-170.9949 439.3665,-170.9949 439.3665,-188.9949"/>
<text text-anchor="middle" x="427.8665" y="-177.7949" font-family="Times,serif" font-size="9.00" fill="#000000">G</text>
</g>
<!-- G&#45;&gt;RIGHT -->
<g id="edge19" class="edge">
<title>G&#45;&gt;RIGHT</title>
<path fill="none" stroke="#ff0000" stroke-width=".3298" d="M423.4926,-170.7567C415.713,-154.8856 398.3488,-121.8703 377.8665,-98.2254 364.0447,-82.2694 346.1902,-67.0395 330.7629,-55.1332"/>
<polygon fill="#ff0000" stroke="#ff0000" stroke-width=".3298" points="332.5715,-52.113 322.483,-48.877 328.3516,-57.698 332.5715,-52.113"/>
</g>
<!-- G&#45;&gt;2 -->
<g id="edge5" class="edge">
<title>G&#45;&gt;2</title>
<path fill="none" stroke="#ff0000" stroke-width=".2619" d="M416.2016,-173.2117C398.229,-162.7604 363.4672,-142.546 340.7205,-129.3186"/>
<polygon fill="#ff0000" stroke="#ff0000" stroke-width=".2619" points="342.1956,-126.1276 331.7915,-124.1262 338.6767,-132.1789 342.1956,-126.1276"/>
</g>
<!-- 2&#45;&gt;LEFT -->
<g id="edge6" class="edge">
<title>2&#45;&gt;LEFT</title>
<path fill="none" stroke="#00ff00" stroke-width=".4419" d="M305.0509,-110.7336C273.8162,-97.4476 196.9944,-64.7706 152.0729,-45.6628"/>
<polygon fill="#00ff00" stroke="#00ff00" stroke-width=".4419" points="153.3025,-42.3824 142.7304,-41.6888 150.5625,-48.8238 153.3025,-42.3824"/>
</g>
<!-- 2&#45;&gt;RIGHT -->
<g id="edge7" class="edge">
<title>2&#45;&gt;RIGHT</title>
<path fill="none" stroke="#00ff00" stroke-width=".3093" d="M315.1345,-102.1067C312.9382,-93.5713 310.0422,-82.3167 307.205,-71.291"/>
<polygon fill="#00ff00" stroke="#00ff00" stroke-width=".3093" points="310.5195,-70.1265 304.6378,-61.3142 303.7403,-71.8709 310.5195,-70.1265"/>
</g>
<!-- 64&#45;&gt;LEFT -->
<g id="edge21" class="edge">
<title>64&#45;&gt;LEFT</title>
<path fill="none" stroke="#ff0000" stroke-width=".4605" d="M46.9915,-103.2512C58.9669,-91.0623 77.0127,-72.6948 91.8977,-57.5445"/>
<polygon fill="#ff0000" stroke="#ff0000" stroke-width=".4605" points="94.3988,-59.9928 98.9105,-50.4066 89.4055,-55.087 94.3988,-59.9928"/>
</g>
</g>
</svg>
