<?xml version="1.0" encoding="UTF-8" standalone="no"?>
<!DOCTYPE svg PUBLIC "-//W3C//DTD SVG 1.1//EN"
 "http://www.w3.org/Graphics/SVG/1.1/DTD/svg11.dtd">
<!-- Generated by graphviz version 2.40.1 (20161225.0304)
 -->
<!-- Title: %3 Pages: 1 -->
<svg width="277pt" height="124pt"
 viewBox="0.00 0.00 276.50 124.23" xmlns="http://www.w3.org/2000/svg" xmlns:xlink="http://www.w3.org/1999/xlink">
<g id="graph0" class="graph" transform="scale(1 1) rotate(0) translate(4 120.2254)">
<title>%3</title>
<polygon fill="#ffffff" stroke="transparent" points="-4,4 -4,-120.2254 272.5,-120.2254 272.5,4 -4,4"/>
<!-- A -->
<g id="node1" class="node">
<title>A</title>
<polygon fill="#d3d3d3" stroke="#000000" points="186.5,-116.2254 163.5,-116.2254 163.5,-98.2254 186.5,-98.2254 186.5,-116.2254"/>
<text text-anchor="middle" x="175" y="-105.0254" font-family="Times,serif" font-size="9.00" fill="#000000">A</text>
</g>
<!-- LEFT -->
<g id="node8" class="node">
<title>LEFT</title>
<ellipse fill="#add8e6" stroke="#000000" cx="58" cy="-31.1127" rx="26.7407" ry="26.7407"/>
<text text-anchor="middle" x="58" y="-28.9127" font-family="Times,serif" font-size="9.00" fill="#000000">LEFT</text>
</g>
<!-- A&#45;&gt;LEFT -->
<g id="edge1" class="edge">
<title>A&#45;&gt;LEFT</title>
<path fill="none" stroke="#ff0000" stroke-width=".5594" d="M163.2879,-101.6736C147.1267,-93.8033 117.3401,-78.5348 94,-62.2254 91.2915,-60.3328 88.5505,-58.272 85.8532,-56.1418"/>
<polygon fill="#ff0000" stroke="#ff0000" stroke-width=".5594" points="87.9115,-53.3026 77.9692,-49.6419 83.4586,-58.7037 87.9115,-53.3026"/>
</g>
<!-- RIGHT -->
<g id="node9" class="node">
<title>RIGHT</title>
<ellipse fill="#add8e6" stroke="#000000" cx="134" cy="-31.1127" rx="31.2258" ry="31.2258"/>
<text text-anchor="middle" x="134" y="-28.9127" font-family="Times,serif" font-size="9.00" fill="#000000">RIGHT</text>
</g>
<!-- A&#45;&gt;RIGHT -->
<g id="edge2" class="edge">
<title>A&#45;&gt;RIGHT</title>
<path fill="none" stroke="#00ff00" stroke-width=".9464" d="M170.1358,-98.1954C166.0183,-90.5518 159.829,-79.0619 153.7307,-67.7409"/>
<polygon fill="#00ff00" stroke="#00ff00" stroke-width=".9464" points="156.7246,-65.9185 148.9007,-58.7745 150.5618,-69.2383 156.7246,-65.9185"/>
</g>
<!-- B -->
<g id="node2" class="node">
<title>B</title>
<polygon fill="#d3d3d3" stroke="#000000" points="227.5,-116.2254 204.5,-116.2254 204.5,-98.2254 227.5,-98.2254 227.5,-116.2254"/>
<text text-anchor="middle" x="216" y="-105.0254" font-family="Times,serif" font-size="9.00" fill="#000000">B</text>
</g>
<!-- C -->
<g id="node3" class="node">
<title>C</title>
<polygon fill="#d3d3d3" stroke="#000000" points="63.5,-116.2254 40.5,-116.2254 40.5,-98.2254 63.5,-98.2254 63.5,-116.2254"/>
<text text-anchor="middle" x="52" y="-105.0254" font-family="Times,serif" font-size="9.00" fill="#000000">C</text>
</g>
<!-- C&#45;&gt;LEFT -->
<g id="edge3" class="edge">
<title>C&#45;&gt;LEFT</title>
<path fill="none" stroke="#ff0000" stroke-width="1.0807" d="M52.7118,-98.1954C53.306,-90.6582 54.195,-79.3812 55.0753,-68.2139"/>
<polygon fill="#ff0000" stroke="#ff0000" stroke-width="1.0807" points="58.5758,-68.3437 55.8726,-58.0995 51.5975,-67.7935 58.5758,-68.3437"/>
</g>
<!-- C&#45;&gt;RIGHT -->
<g id="edge4" class="edge">
<title>C&#45;&gt;RIGHT</title>
<path fill="none" stroke="#ff0000" stroke-width=".2097" d="M61.7285,-98.1954C71.9884,-88.6721 88.6806,-73.1783 103.4394,-59.4791"/>
<polygon fill="#ff0000" stroke="#ff0000" stroke-width=".2097" points="105.9886,-61.8884 110.9368,-52.52 101.2264,-56.7579 105.9886,-61.8884"/>
</g>
<!-- D -->
<g id="node4" class="node">
<title>D</title>
<polygon fill="#d3d3d3" stroke="#000000" points="104.5,-116.2254 81.5,-116.2254 81.5,-98.2254 104.5,-98.2254 104.5,-116.2254"/>
<text text-anchor="middle" x="93" y="-105.0254" font-family="Times,serif" font-size="9.00" fill="#000000">D</text>
</g>
<!-- D&#45;&gt;LEFT -->
<g id="edge5" class="edge">
<title>D&#45;&gt;LEFT</title>
<path fill="none" stroke="#00ff00" stroke-width=".6835" d="M88.8476,-98.1954C85.0382,-89.9113 79.1513,-77.1093 73.5373,-64.9008"/>
<polygon fill="#00ff00" stroke="#00ff00" stroke-width=".6835" points="76.6942,-63.3883 69.3363,-55.7652 70.3343,-66.3129 76.6942,-63.3883"/>
</g>
<!-- D&#45;&gt;RIGHT -->
<g id="edge6" class="edge">
<title>D&#45;&gt;RIGHT</title>
<path fill="none" stroke="#ff0000" stroke-width=".3171" d="M97.8642,-98.1954C101.9817,-90.5518 108.171,-79.0619 114.2693,-67.7409"/>
<polygon fill="#ff0000" stroke="#ff0000" stroke-width=".3171" points="117.4382,-69.2383 119.0993,-58.7745 111.2754,-65.9185 117.4382,-69.2383"/>
</g>
<!-- E -->
<g id="node5" class="node">
<title>E</title>
<polygon fill="#d3d3d3" stroke="#000000" points="22,-116.2254 0,-116.2254 0,-98.2254 22,-98.2254 22,-116.2254"/>
<text text-anchor="middle" x="11" y="-105.0254" font-family="Times,serif" font-size="9.00" fill="#000000">E</text>
</g>
<!-- E&#45;&gt;LEFT -->
<g id="edge7" class="edge">
<title>E&#45;&gt;LEFT</title>
<path fill="none" stroke="#ff0000" stroke-width=".1332" d="M16.5761,-98.1954C21.9894,-89.4289 30.5269,-75.6031 38.4483,-62.7751"/>
<polygon fill="#ff0000" stroke="#ff0000" stroke-width=".1332" points="41.5117,-64.4756 43.7879,-54.1281 35.5558,-60.7977 41.5117,-64.4756"/>
</g>
<!-- F -->
<g id="node6" class="node">
<title>F</title>
<polygon fill="#d3d3d3" stroke="#000000" points="145,-116.2254 123,-116.2254 123,-98.2254 145,-98.2254 145,-116.2254"/>
<text text-anchor="middle" x="134" y="-105.0254" font-family="Times,serif" font-size="9.00" fill="#000000">F</text>
</g>
<!-- F&#45;&gt;LEFT -->
<g id="edge8" class="edge">
<title>F&#45;&gt;LEFT</title>
<path fill="none" stroke="#00ff00" stroke-width=".1342" d="M124.9834,-98.1954C115.0054,-88.2026 98.4635,-71.6362 84.3155,-57.4672"/>
<polygon fill="#00ff00" stroke="#00ff00" stroke-width=".1342" points="86.7252,-54.927 77.1826,-50.3238 81.7718,-59.8731 86.7252,-54.927"/>
</g>
<!-- F&#45;&gt;RIGHT -->
<g id="edge9" class="edge">
<title>F&#45;&gt;RIGHT</title>
<path fill="none" stroke="#00ff00" stroke-width=".5231" d="M134,-98.1954C134,-91.6488 134,-82.2808 134,-72.614"/>
<polygon fill="#00ff00" stroke="#00ff00" stroke-width=".5231" points="137.5001,-72.5375 134,-62.5376 130.5001,-72.5376 137.5001,-72.5375"/>
</g>
<!-- G -->
<g id="node7" class="node">
<title>G</title>
<polygon fill="#d3d3d3" stroke="#000000" points="268.5,-116.2254 245.5,-116.2254 245.5,-98.2254 268.5,-98.2254 268.5,-116.2254"/>
<text text-anchor="middle" x="257" y="-105.0254" font-family="Times,serif" font-size="9.00" fill="#000000">G</text>
</g>
</g>
</svg>
