<?xml version="1.0" encoding="UTF-8" standalone="no"?>
<!DOCTYPE svg PUBLIC "-//W3C//DTD SVG 1.1//EN"
 "http://www.w3.org/Graphics/SVG/1.1/DTD/svg11.dtd">
<!-- Generated by graphviz version 2.40.1 (20161225.0304)
 -->
<!-- Title: %3 Pages: 1 -->
<svg width="409pt" height="197pt"
 viewBox="0.00 0.00 408.68 196.99" xmlns="http://www.w3.org/2000/svg" xmlns:xlink="http://www.w3.org/1999/xlink">
<g id="graph0" class="graph" transform="scale(1 1) rotate(0) translate(4 192.9949)">
<title>%3</title>
<polygon fill="#ffffff" stroke="transparent" points="-4,4 -4,-192.9949 404.6781,-192.9949 404.6781,4 -4,4"/>
<!-- A -->
<g id="node1" class="node">
<title>A</title>
<polygon fill="#d3d3d3" stroke="#000000" points="126.6781,-188.9949 103.6781,-188.9949 103.6781,-170.9949 126.6781,-170.9949 126.6781,-188.9949"/>
<text text-anchor="middle" x="115.1781" y="-177.7949" font-family="Times,serif" font-size="9.00" fill="#000000">A</text>
</g>
<!-- LEFT -->
<g id="node8" class="node">
<title>LEFT</title>
<ellipse fill="#add8e6" stroke="#000000" cx="99.1781" cy="-31.1127" rx="26.7407" ry="26.7407"/>
<text text-anchor="middle" x="99.1781" y="-28.9127" font-family="Times,serif" font-size="9.00" fill="#000000">LEFT</text>
</g>
<!-- A&#45;&gt;LEFT -->
<g id="edge8" class="edge">
<title>A&#45;&gt;LEFT</title>
<path fill="none" stroke="#ff0000" stroke-width=".6136" d="M103.3423,-179.1994C80.0008,-176.9175 28.3771,-168.176 6.1781,-134.9949 -16.4334,-101.1973 30.6768,-67.0238 65.742,-47.5212"/>
<polygon fill="#ff0000" stroke="#ff0000" stroke-width=".6136" points="67.6443,-50.4723 74.7955,-42.655 64.3302,-44.3065 67.6443,-50.4723"/>
</g>
<!-- RIGHT -->
<g id="node9" class="node">
<title>RIGHT</title>
<ellipse fill="#add8e6" stroke="#000000" cx="258.1781" cy="-31.1127" rx="31.2258" ry="31.2258"/>
<text text-anchor="middle" x="258.1781" y="-28.9127" font-family="Times,serif" font-size="9.00" fill="#000000">RIGHT</text>
</g>
<!-- A&#45;&gt;RIGHT -->
<g id="edge9" class="edge">
<title>A&#45;&gt;RIGHT</title>
<path fill="none" stroke="#ff0000" stroke-width=".1225" d="M127.0496,-173.366C140.7618,-165.3664 163.5627,-150.9827 180.1781,-134.9949 201.6034,-114.3791 221.6476,-87.4464 236.051,-66.1706"/>
<polygon fill="#ff0000" stroke="#ff0000" stroke-width=".1225" points="239.0423,-67.9933 241.6721,-57.73 233.216,-64.1132 239.0423,-67.9933"/>
</g>
<!-- 2 -->
<g id="node10" class="node">
<title>2</title>
<ellipse fill="#ffffff" stroke="#000000" cx="280.1781" cy="-116.6102" rx="14.7" ry="14.7"/>
<text text-anchor="middle" x="280.1781" y="-114.4102" font-family="Times,serif" font-size="9.00" fill="#000000">2</text>
</g>
<!-- A&#45;&gt;2 -->
<g id="edge1" class="edge">
<title>A&#45;&gt;2</title>
<path fill="none" stroke="#ff0000" stroke-width=".5725" d="M126.7806,-175.5379C153.6198,-165.2276 220.4358,-139.5602 256.3865,-125.7497"/>
<polygon fill="#ff0000" stroke="#ff0000" stroke-width=".5725" points="257.9826,-128.886 266.0624,-122.0327 255.4724,-122.3516 257.9826,-128.886"/>
</g>
<!-- 64 -->
<g id="node11" class="node">
<title>64</title>
<ellipse fill="#ffffff" stroke="#000000" cx="33.1781" cy="-116.6102" rx="18.2703" ry="18.2703"/>
<text text-anchor="middle" x="33.1781" y="-114.4102" font-family="Times,serif" font-size="9.00" fill="#000000">64</text>
</g>
<!-- A&#45;&gt;64 -->
<g id="edge21" class="edge">
<title>A&#45;&gt;64</title>
<path fill="none" stroke="#00ff00" stroke-width=".3942" d="M103.4295,-170.9135C91.099,-161.3822 71.4034,-146.1577 55.9999,-134.251"/>
<polygon fill="#00ff00" stroke="#00ff00" stroke-width=".3942" points="58.0104,-131.3814 47.958,-128.0348 53.7294,-136.9197 58.0104,-131.3814"/>
</g>
<!-- B -->
<g id="node2" class="node">
<title>B</title>
<polygon fill="#d3d3d3" stroke="#000000" points="170.6781,-125.6102 147.6781,-125.6102 147.6781,-107.6102 170.6781,-107.6102 170.6781,-125.6102"/>
<text text-anchor="middle" x="159.1781" y="-114.4102" font-family="Times,serif" font-size="9.00" fill="#000000">B</text>
</g>
<!-- B&#45;&gt;LEFT -->
<g id="edge10" class="edge">
<title>B&#45;&gt;LEFT</title>
<path fill="none" stroke="#ff0000" stroke-width=".3117" d="M152.7571,-107.4604C145.0855,-96.5287 131.8566,-77.6781 120.4637,-61.4438"/>
<polygon fill="#ff0000" stroke="#ff0000" stroke-width=".3117" points="123.3219,-59.4235 114.7125,-53.2486 117.592,-63.4446 123.3219,-59.4235"/>
</g>
<!-- B&#45;&gt;RIGHT -->
<g id="edge11" class="edge">
<title>B&#45;&gt;RIGHT</title>
<path fill="none" stroke="#ff0000" stroke-width=".105" d="M169.7729,-107.4604C183.2759,-95.7991 207.2134,-75.1264 226.7768,-58.2312"/>
<polygon fill="#ff0000" stroke="#ff0000" stroke-width=".105" points="229.2945,-60.6815 234.5752,-51.4964 224.7193,-55.3836 229.2945,-60.6815"/>
</g>
<!-- C -->
<g id="node3" class="node">
<title>C</title>
<polygon fill="#d3d3d3" stroke="#000000" points="248.6781,-188.9949 225.6781,-188.9949 225.6781,-170.9949 248.6781,-170.9949 248.6781,-188.9949"/>
<text text-anchor="middle" x="237.1781" y="-177.7949" font-family="Times,serif" font-size="9.00" fill="#000000">C</text>
</g>
<!-- C&#45;&gt;RIGHT -->
<g id="edge12" class="edge">
<title>C&#45;&gt;RIGHT</title>
<path fill="none" stroke="#00ff00" stroke-width=".1924" d="M238.4918,-170.6817C241.2179,-151.3549 247.6327,-105.8759 252.4033,-72.0542"/>
<polygon fill="#00ff00" stroke="#00ff00" stroke-width=".1924" points="255.8941,-72.3648 253.8251,-61.9739 248.9627,-71.387 255.8941,-72.3648"/>
</g>
<!-- C&#45;&gt;2 -->
<g id="edge2" class="edge">
<title>C&#45;&gt;2</title>
<path fill="none" stroke="#ff0000" stroke-width=".6463" d="M243.339,-170.9135C249.2027,-162.27 258.2425,-148.9447 265.8997,-137.6576"/>
<polygon fill="#ff0000" stroke="#ff0000" stroke-width=".6463" points="268.9394,-139.4112 271.657,-129.1708 263.1466,-135.4814 268.9394,-139.4112"/>
</g>
<!-- C&#45;&gt;64 -->
<g id="edge19" class="edge">
<title>C&#45;&gt;64</title>
<path fill="none" stroke="#00ff00" stroke-width=".2614" d="M225.5699,-178.0606C197.3409,-173.1231 123.1627,-158.7407 65.1781,-134.9949 62.6527,-133.9607 60.0817,-132.7617 57.5503,-131.4813"/>
<polygon fill="#00ff00" stroke="#00ff00" stroke-width=".2614" points="59.1593,-128.372 48.7075,-126.637 55.7961,-134.5112 59.1593,-128.372"/>
</g>
<!-- D -->
<g id="node4" class="node">
<title>D</title>
<polygon fill="#d3d3d3" stroke="#000000" points="350.6781,-188.9949 327.6781,-188.9949 327.6781,-170.9949 350.6781,-170.9949 350.6781,-188.9949"/>
<text text-anchor="middle" x="339.1781" y="-177.7949" font-family="Times,serif" font-size="9.00" fill="#000000">D</text>
</g>
<!-- D&#45;&gt;RIGHT -->
<g id="edge13" class="edge">
<title>D&#45;&gt;RIGHT</title>
<path fill="none" stroke="#00ff00" stroke-width=".1883" d="M338.4253,-170.8865C336.8182,-155.2113 332.0797,-122.4833 319.1781,-98.2254 311.549,-83.8809 300.1595,-70.1964 289.2804,-58.9704"/>
<polygon fill="#00ff00" stroke="#00ff00" stroke-width=".1883" points="291.4414,-56.1834 281.8828,-51.6135 286.5053,-61.1468 291.4414,-56.1834"/>
</g>
<!-- D&#45;&gt;2 -->
<g id="edge3" class="edge">
<title>D&#45;&gt;2</title>
<path fill="none" stroke="#00ff00" stroke-width=".2453" d="M330.7249,-170.9135C322.1297,-161.6795 308.5608,-147.1022 297.6448,-135.3749"/>
<polygon fill="#00ff00" stroke="#00ff00" stroke-width=".2453" points="299.9805,-132.7472 290.6052,-127.8121 294.8566,-137.5165 299.9805,-132.7472"/>
</g>
<!-- E -->
<g id="node5" class="node">
<title>E</title>
<polygon fill="#d3d3d3" stroke="#000000" points="291.1781,-188.9949 269.1781,-188.9949 269.1781,-170.9949 291.1781,-170.9949 291.1781,-188.9949"/>
<text text-anchor="middle" x="280.1781" y="-177.7949" font-family="Times,serif" font-size="9.00" fill="#000000">E</text>
</g>
<!-- E&#45;&gt;LEFT -->
<g id="edge14" class="edge">
<title>E&#45;&gt;LEFT</title>
<path fill="none" stroke="#ff0000" stroke-width=".2655" d="M269.1187,-175.0494C265.6595,-173.6172 261.7997,-172.1344 258.1781,-170.9949 188.6493,-149.1197 143.7115,-191.9116 98.1781,-134.9949 83.102,-116.1497 84.0593,-88.6238 88.408,-66.6404"/>
<polygon fill="#ff0000" stroke="#ff0000" stroke-width=".2655" points="91.8708,-67.1969 90.679,-56.6694 85.0456,-65.6424 91.8708,-67.1969"/>
</g>
<!-- E&#45;&gt;RIGHT -->
<g id="edge15" class="edge">
<title>E&#45;&gt;RIGHT</title>
<path fill="none" stroke="#00ff00" stroke-width=".5371" d="M286.7699,-170.8941C292.6488,-162.174 300.8281,-148.395 304.1781,-134.9949 308.1417,-119.1409 309.0143,-113.8354 304.1781,-98.2254 300.2529,-85.5557 293.0185,-73.1512 285.4306,-62.5219"/>
<polygon fill="#00ff00" stroke="#00ff00" stroke-width=".5371" points="288.1345,-60.2941 279.3259,-54.4069 282.5406,-64.5022 288.1345,-60.2941"/>
</g>
<!-- E&#45;&gt;2 -->
<g id="edge4" class="edge">
<title>E&#45;&gt;2</title>
<path fill="none" stroke="#00ff00" stroke-width=".495" d="M280.1781,-170.9135C280.1781,-163.2916 280.1781,-152.0292 280.1781,-141.7341"/>
<polygon fill="#00ff00" stroke="#00ff00" stroke-width=".495" points="283.6782,-141.5487 280.1781,-131.5487 276.6782,-141.5487 283.6782,-141.5487"/>
</g>
<!-- F -->
<g id="node6" class="node">
<title>F</title>
<polygon fill="#d3d3d3" stroke="#000000" points="129.1781,-125.6102 107.1781,-125.6102 107.1781,-107.6102 129.1781,-107.6102 129.1781,-125.6102"/>
<text text-anchor="middle" x="118.1781" y="-114.4102" font-family="Times,serif" font-size="9.00" fill="#000000">F</text>
</g>
<!-- F&#45;&gt;LEFT -->
<g id="edge16" class="edge">
<title>F&#45;&gt;LEFT</title>
<path fill="none" stroke="#00ff00" stroke-width=".4542" d="M116.1448,-107.4604C114.0136,-97.8702 110.5279,-82.1853 107.2687,-67.519"/>
<polygon fill="#00ff00" stroke="#00ff00" stroke-width=".4542" points="110.6539,-66.6182 105.0679,-57.6156 103.8206,-68.1368 110.6539,-66.6182"/>
</g>
<!-- F&#45;&gt;RIGHT -->
<g id="edge17" class="edge">
<title>F&#45;&gt;RIGHT</title>
<path fill="none" stroke="#00ff00" stroke-width=".1412" d="M127.6636,-107.5698C131.1547,-104.4442 135.224,-101.0262 139.1781,-98.2254 165.1502,-79.8284 196.5905,-62.2782 220.6305,-49.7417"/>
<polygon fill="#00ff00" stroke="#00ff00" stroke-width=".1412" points="222.4976,-52.717 229.7826,-45.0241 219.2904,-46.4949 222.4976,-52.717"/>
</g>
<!-- G -->
<g id="node7" class="node">
<title>G</title>
<polygon fill="#d3d3d3" stroke="#000000" points="400.6781,-188.9949 377.6781,-188.9949 377.6781,-170.9949 400.6781,-170.9949 400.6781,-188.9949"/>
<text text-anchor="middle" x="389.1781" y="-177.7949" font-family="Times,serif" font-size="9.00" fill="#000000">G</text>
</g>
<!-- G&#45;&gt;RIGHT -->
<g id="edge18" class="edge">
<title>G&#45;&gt;RIGHT</title>
<path fill="none" stroke="#ff0000" stroke-width=".3298" d="M384.8043,-170.7567C377.0247,-154.8856 359.6605,-121.8703 339.1781,-98.2254 325.3563,-82.2694 307.5019,-67.0395 292.0746,-55.1332"/>
<polygon fill="#ff0000" stroke="#ff0000" stroke-width=".3298" points="293.8832,-52.113 283.7946,-48.877 289.6633,-57.698 293.8832,-52.113"/>
</g>
<!-- G&#45;&gt;2 -->
<g id="edge5" class="edge">
<title>G&#45;&gt;2</title>
<path fill="none" stroke="#ff0000" stroke-width=".2619" d="M377.5132,-173.2117C359.5407,-162.7604 324.7789,-142.546 302.0322,-129.3186"/>
<polygon fill="#ff0000" stroke="#ff0000" stroke-width=".2619" points="303.5073,-126.1276 293.1032,-124.1262 299.9884,-132.1789 303.5073,-126.1276"/>
</g>
<!-- 2&#45;&gt;LEFT -->
<g id="edge6" class="edge">
<title>2&#45;&gt;LEFT</title>
<path fill="none" stroke="#00ff00" stroke-width=".4419" d="M266.5737,-110.184C238.4122,-96.8815 173.0074,-65.9868 132.7973,-46.9931"/>
<polygon fill="#00ff00" stroke="#00ff00" stroke-width=".4419" points="134.1814,-43.7761 123.6445,-42.6697 131.1916,-50.1055 134.1814,-43.7761"/>
</g>
<!-- 2&#45;&gt;RIGHT -->
<g id="edge7" class="edge">
<title>2&#45;&gt;RIGHT</title>
<path fill="none" stroke="#00ff00" stroke-width=".3093" d="M276.4461,-102.1067C274.2498,-93.5713 271.3538,-82.3167 268.5167,-71.291"/>
<polygon fill="#00ff00" stroke="#00ff00" stroke-width=".3093" points="271.8312,-70.1265 265.9495,-61.3142 265.052,-71.8709 271.8312,-70.1265"/>
</g>
<!-- 64&#45;&gt;LEFT -->
<g id="edge20" class="edge">
<title>64&#45;&gt;LEFT</title>
<path fill="none" stroke="#ff0000" stroke-width=".4605" d="M44.6745,-101.7176C53.3605,-90.4656 65.5671,-74.6529 76.2272,-60.8438"/>
<polygon fill="#ff0000" stroke="#ff0000" stroke-width=".4605" points="79.2793,-62.6178 82.6194,-52.5632 73.7382,-58.3403 79.2793,-62.6178"/>
</g>
</g>
</svg>
