<?xml version="1.0" encoding="UTF-8" standalone="no"?>
<!DOCTYPE svg PUBLIC "-//W3C//DTD SVG 1.1//EN"
 "http://www.w3.org/Graphics/SVG/1.1/DTD/svg11.dtd">
<!-- Generated by graphviz version 2.40.1 (20161225.0304)
 -->
<!-- Title: %3 Pages: 1 -->
<svg width="277pt" height="124pt"
 viewBox="0.00 0.00 276.50 124.23" xmlns="http://www.w3.org/2000/svg" xmlns:xlink="http://www.w3.org/1999/xlink">
<g id="graph0" class="graph" transform="scale(1 1) rotate(0) translate(4 120.2254)">
<title>%3</title>
<polygon fill="#ffffff" stroke="transparent" points="-4,4 -4,-120.2254 272.5,-120.2254 272.5,4 -4,4"/>
<!-- A -->
<g id="node1" class="node">
<title>A</title>
<polygon fill="#d3d3d3" stroke="#000000" points="186.5,-116.2254 163.5,-116.2254 163.5,-98.2254 186.5,-98.2254 186.5,-116.2254"/>
<text text-anchor="middle" x="175" y="-105.0254" font-family="Times,serif" font-size="9.00" fill="#000000">A</text>
</g>
<!-- LEFT -->
<g id="node8" class="node">
<title>LEFT</title>
<ellipse fill="#add8e6" stroke="#000000" cx="96" cy="-31.1127" rx="26.7407" ry="26.7407"/>
<text text-anchor="middle" x="96" y="-28.9127" font-family="Times,serif" font-size="9.00" fill="#000000">LEFT</text>
</g>
<!-- A&#45;&gt;LEFT -->
<g id="edge1" class="edge">
<title>A&#45;&gt;LEFT</title>
<path fill="none" stroke="#ff0000" stroke-width=".5594" d="M165.6274,-98.1954C155.186,-88.1356 137.8297,-71.4136 123.0585,-57.1822"/>
<polygon fill="#ff0000" stroke="#ff0000" stroke-width=".5594" points="125.2499,-54.4335 115.6201,-50.0157 120.3931,-59.4745 125.2499,-54.4335"/>
</g>
<!-- RIGHT -->
<g id="node9" class="node">
<title>RIGHT</title>
<ellipse fill="#add8e6" stroke="#000000" cx="173" cy="-31.1127" rx="31.2258" ry="31.2258"/>
<text text-anchor="middle" x="173" y="-28.9127" font-family="Times,serif" font-size="9.00" fill="#000000">RIGHT</text>
</g>
<!-- A&#45;&gt;RIGHT -->
<g id="edge2" class="edge">
<title>A&#45;&gt;RIGHT</title>
<path fill="none" stroke="#00ff00" stroke-width=".9464" d="M174.7627,-98.1954C174.5907,-91.6488 174.3445,-82.2808 174.0905,-72.614"/>
<polygon fill="#00ff00" stroke="#00ff00" stroke-width=".9464" points="177.5873,-72.4421 173.8257,-62.5376 170.5897,-72.6261 177.5873,-72.4421"/>
</g>
<!-- B -->
<g id="node2" class="node">
<title>B</title>
<polygon fill="#d3d3d3" stroke="#000000" points="268.5,-116.2254 245.5,-116.2254 245.5,-98.2254 268.5,-98.2254 268.5,-116.2254"/>
<text text-anchor="middle" x="257" y="-105.0254" font-family="Times,serif" font-size="9.00" fill="#000000">B</text>
</g>
<!-- B&#45;&gt;RIGHT -->
<g id="edge3" class="edge">
<title>B&#45;&gt;RIGHT</title>
<path fill="none" stroke="#ff0000" stroke-width=".2412" stroke-dasharray="1,5" d="M247.0342,-98.1954C236.4501,-88.605 219.1835,-72.9598 203.9868,-59.19"/>
<polygon fill="#ff0000" stroke="#ff0000" stroke-width=".2412" points="206.0355,-56.3232 196.2749,-52.2022 201.3353,-61.5105 206.0355,-56.3232"/>
</g>
<!-- C -->
<g id="node3" class="node">
<title>C</title>
<polygon fill="#d3d3d3" stroke="#000000" points="227.5,-116.2254 204.5,-116.2254 204.5,-98.2254 227.5,-98.2254 227.5,-116.2254"/>
<text text-anchor="middle" x="216" y="-105.0254" font-family="Times,serif" font-size="9.00" fill="#000000">C</text>
</g>
<!-- C&#45;&gt;LEFT -->
<g id="edge4" class="edge">
<title>C&#45;&gt;LEFT</title>
<path fill="none" stroke="#ff0000" stroke-width="1.0807" d="M204.2953,-101.8131C187.8213,-93.9907 157.1134,-78.6514 133,-62.2254 130.0672,-60.2276 127.0939,-58.041 124.1735,-55.7825"/>
<polygon fill="#ff0000" stroke="#ff0000" stroke-width="1.0807" points="126.1427,-52.8744 116.1604,-49.3241 121.7499,-58.3245 126.1427,-52.8744"/>
</g>
<!-- C&#45;&gt;RIGHT -->
<g id="edge5" class="edge">
<title>C&#45;&gt;RIGHT</title>
<path fill="none" stroke="#ff0000" stroke-width=".2097" d="M210.8985,-98.1954C206.5451,-90.4896 199.9833,-78.8748 193.5372,-67.4648"/>
<polygon fill="#ff0000" stroke="#ff0000" stroke-width=".2097" points="196.4029,-65.4216 188.4367,-58.4366 190.3082,-68.8648 196.4029,-65.4216"/>
</g>
<!-- D -->
<g id="node4" class="node">
<title>D</title>
<polygon fill="#d3d3d3" stroke="#000000" points="63.5,-116.2254 40.5,-116.2254 40.5,-98.2254 63.5,-98.2254 63.5,-116.2254"/>
<text text-anchor="middle" x="52" y="-105.0254" font-family="Times,serif" font-size="9.00" fill="#000000">D</text>
</g>
<!-- D&#45;&gt;LEFT -->
<g id="edge6" class="edge">
<title>D&#45;&gt;LEFT</title>
<path fill="none" stroke="#00ff00" stroke-width=".6835" d="M57.2202,-98.1954C62.2026,-89.5766 70.0121,-76.0674 77.321,-63.4242"/>
<polygon fill="#00ff00" stroke="#00ff00" stroke-width=".6835" points="80.5323,-64.8625 82.507,-54.4533 74.4721,-61.3591 80.5323,-64.8625"/>
</g>
<!-- D&#45;&gt;RIGHT -->
<g id="edge7" class="edge">
<title>D&#45;&gt;RIGHT</title>
<path fill="none" stroke="#ff0000" stroke-width=".3171" d="M63.6852,-101.2966C79.5326,-93.1124 108.5521,-77.6133 132,-62.2254 134.6053,-60.5156 137.2617,-58.6943 139.9069,-56.8235"/>
<polygon fill="#ff0000" stroke="#ff0000" stroke-width=".3171" points="142.2167,-59.4713 148.2412,-50.756 138.0967,-53.8121 142.2167,-59.4713"/>
</g>
<!-- E -->
<g id="node5" class="node">
<title>E</title>
<polygon fill="#d3d3d3" stroke="#000000" points="22,-116.2254 0,-116.2254 0,-98.2254 22,-98.2254 22,-116.2254"/>
<text text-anchor="middle" x="11" y="-105.0254" font-family="Times,serif" font-size="9.00" fill="#000000">E</text>
</g>
<!-- E&#45;&gt;LEFT -->
<g id="edge8" class="edge">
<title>E&#45;&gt;LEFT</title>
<path fill="none" stroke="#ff0000" stroke-width=".1332" d="M21.0844,-98.1954C32.6487,-87.8402 52.0963,-70.426 68.2787,-55.9355"/>
<polygon fill="#ff0000" stroke="#ff0000" stroke-width=".1332" points="70.7967,-58.379 75.9117,-49.1006 66.1271,-53.1641 70.7967,-58.379"/>
</g>
<!-- F -->
<g id="node6" class="node">
<title>F</title>
<polygon fill="#d3d3d3" stroke="#000000" points="104,-116.2254 82,-116.2254 82,-98.2254 104,-98.2254 104,-116.2254"/>
<text text-anchor="middle" x="93" y="-105.0254" font-family="Times,serif" font-size="9.00" fill="#000000">F</text>
</g>
<!-- F&#45;&gt;LEFT -->
<g id="edge9" class="edge">
<title>F&#45;&gt;LEFT</title>
<path fill="none" stroke="#00ff00" stroke-width=".1342" d="M93.3559,-98.1954C93.653,-90.6582 94.0975,-79.3812 94.5376,-68.2139"/>
<polygon fill="#00ff00" stroke="#00ff00" stroke-width=".1342" points="98.0397,-68.2296 94.9363,-58.0995 91.0451,-67.9539 98.0397,-68.2296"/>
</g>
<!-- F&#45;&gt;RIGHT -->
<g id="edge10" class="edge">
<title>F&#45;&gt;RIGHT</title>
<path fill="none" stroke="#00ff00" stroke-width=".5231" d="M102.4912,-98.1954C112.4304,-88.7392 128.5569,-73.3962 142.8803,-59.7688"/>
<polygon fill="#00ff00" stroke="#00ff00" stroke-width=".5231" points="145.3315,-62.2678 150.1639,-52.8392 140.5064,-57.1963 145.3315,-62.2678"/>
</g>
<!-- G -->
<g id="node7" class="node">
<title>G</title>
<polygon fill="#d3d3d3" stroke="#000000" points="145.5,-116.2254 122.5,-116.2254 122.5,-98.2254 145.5,-98.2254 145.5,-116.2254"/>
<text text-anchor="middle" x="134" y="-105.0254" font-family="Times,serif" font-size="9.00" fill="#000000">G</text>
</g>
<!-- G&#45;&gt;LEFT -->
<g id="edge11" class="edge">
<title>G&#45;&gt;LEFT</title>
<path fill="none" stroke="#ff0000" stroke-width=".3376" stroke-dasharray="1,5" d="M129.4917,-98.1954C125.3244,-89.8485 118.8673,-76.9151 112.7306,-64.6234"/>
<polygon fill="#ff0000" stroke="#ff0000" stroke-width=".3376" points="115.7418,-62.8191 108.1434,-55.4356 109.4789,-65.9459 115.7418,-62.8191"/>
</g>
<!-- G&#45;&gt;RIGHT -->
<g id="edge12" class="edge">
<title>G&#45;&gt;RIGHT</title>
<path fill="none" stroke="#00ff00" stroke-width=".4509" stroke-dasharray="1,5" d="M138.627,-98.1954C142.5117,-90.6139 148.3353,-79.2485 154.0903,-68.017"/>
<polygon fill="#00ff00" stroke="#00ff00" stroke-width=".4509" points="157.2073,-69.6089 158.6526,-59.1131 150.9775,-66.4168 157.2073,-69.6089"/>
</g>
</g>
</svg>
