<?xml version="1.0" encoding="UTF-8" standalone="no"?>
<!DOCTYPE svg PUBLIC "-//W3C//DTD SVG 1.1//EN"
 "http://www.w3.org/Graphics/SVG/1.1/DTD/svg11.dtd">
<!-- Generated by graphviz version 2.40.1 (20161225.0304)
 -->
<!-- Title: %3 Pages: 1 -->
<svg width="287pt" height="124pt"
 viewBox="0.00 0.00 287.37 124.23" xmlns="http://www.w3.org/2000/svg" xmlns:xlink="http://www.w3.org/1999/xlink">
<g id="graph0" class="graph" transform="scale(1 1) rotate(0) translate(4 120.2254)">
<title>%3</title>
<polygon fill="#ffffff" stroke="transparent" points="-4,4 -4,-120.2254 283.3701,-120.2254 283.3701,4 -4,4"/>
<!-- A -->
<g id="node1" class="node">
<title>A</title>
<polygon fill="#d3d3d3" stroke="#000000" points="33.3701,-116.2254 10.3701,-116.2254 10.3701,-98.2254 33.3701,-98.2254 33.3701,-116.2254"/>
<text text-anchor="middle" x="21.8701" y="-105.0254" font-family="Times,serif" font-size="9.00" fill="#000000">A</text>
</g>
<!-- LEFT -->
<g id="node8" class="node">
<title>LEFT</title>
<ellipse fill="#add8e6" stroke="#000000" cx="26.8701" cy="-31.1127" rx="26.7407" ry="26.7407"/>
<text text-anchor="middle" x="26.8701" y="-28.9127" font-family="Times,serif" font-size="9.00" fill="#000000">LEFT</text>
</g>
<!-- A&#45;&gt;LEFT -->
<g id="edge1" class="edge">
<title>A&#45;&gt;LEFT</title>
<path fill="none" stroke="#ff0000" stroke-width=".7073" d="M22.4633,-98.1954C22.9584,-90.6582 23.6992,-79.3812 24.4328,-68.2139"/>
<polygon fill="#ff0000" stroke="#ff0000" stroke-width=".7073" points="27.9341,-68.3075 25.0972,-58.0995 20.9492,-67.8485 27.9341,-68.3075"/>
</g>
<!-- B -->
<g id="node2" class="node">
<title>B</title>
<polygon fill="#d3d3d3" stroke="#000000" points="74.3701,-116.2254 51.3701,-116.2254 51.3701,-98.2254 74.3701,-98.2254 74.3701,-116.2254"/>
<text text-anchor="middle" x="62.8701" y="-105.0254" font-family="Times,serif" font-size="9.00" fill="#000000">B</text>
</g>
<!-- B&#45;&gt;LEFT -->
<g id="edge2" class="edge">
<title>B&#45;&gt;LEFT</title>
<path fill="none" stroke="#ff0000" stroke-width=".3479" d="M58.599,-98.1954C54.6511,-89.8485 48.5338,-76.9151 42.7201,-64.6234"/>
<polygon fill="#ff0000" stroke="#ff0000" stroke-width=".3479" points="45.8141,-62.9789 38.3744,-55.4356 39.4862,-65.9719 45.8141,-62.9789"/>
</g>
<!-- 54 -->
<g id="node10" class="node">
<title>54</title>
<ellipse fill="#ffffff" stroke="#000000" cx="94.8701" cy="-31.1127" rx="18.2703" ry="18.2703"/>
<text text-anchor="middle" x="94.8701" y="-28.9127" font-family="Times,serif" font-size="9.00" fill="#000000">54</text>
</g>
<!-- B&#45;&gt;54 -->
<g id="edge5" class="edge">
<title>B&#45;&gt;54</title>
<path fill="none" stroke="#ff0000" stroke-width=".404" d="M66.6665,-98.1954C70.8634,-88.2131 77.8182,-71.6709 83.7711,-57.5117"/>
<polygon fill="#ff0000" stroke="#ff0000" stroke-width=".404" points="87.0368,-58.7747 87.6861,-48.1998 80.5839,-56.0617 87.0368,-58.7747"/>
</g>
<!-- C -->
<g id="node3" class="node">
<title>C</title>
<polygon fill="#d3d3d3" stroke="#000000" points="156.3701,-116.2254 133.3701,-116.2254 133.3701,-98.2254 156.3701,-98.2254 156.3701,-116.2254"/>
<text text-anchor="middle" x="144.8701" y="-105.0254" font-family="Times,serif" font-size="9.00" fill="#000000">C</text>
</g>
<!-- D -->
<g id="node4" class="node">
<title>D</title>
<polygon fill="#d3d3d3" stroke="#000000" points="197.3701,-116.2254 174.3701,-116.2254 174.3701,-98.2254 197.3701,-98.2254 197.3701,-116.2254"/>
<text text-anchor="middle" x="185.8701" y="-105.0254" font-family="Times,serif" font-size="9.00" fill="#000000">D</text>
</g>
<!-- E -->
<g id="node5" class="node">
<title>E</title>
<polygon fill="#d3d3d3" stroke="#000000" points="237.8701,-116.2254 215.8701,-116.2254 215.8701,-98.2254 237.8701,-98.2254 237.8701,-116.2254"/>
<text text-anchor="middle" x="226.8701" y="-105.0254" font-family="Times,serif" font-size="9.00" fill="#000000">E</text>
</g>
<!-- RIGHT -->
<g id="node9" class="node">
<title>RIGHT</title>
<ellipse fill="#add8e6" stroke="#000000" cx="226.8701" cy="-31.1127" rx="31.2258" ry="31.2258"/>
<text text-anchor="middle" x="226.8701" y="-28.9127" font-family="Times,serif" font-size="9.00" fill="#000000">RIGHT</text>
</g>
<!-- E&#45;&gt;RIGHT -->
<g id="edge3" class="edge">
<title>E&#45;&gt;RIGHT</title>
<path fill="none" stroke="#ff0000" stroke-width="1.2321" d="M226.8701,-98.1954C226.8701,-91.6488 226.8701,-82.2808 226.8701,-72.614"/>
<polygon fill="#ff0000" stroke="#ff0000" stroke-width="1.2321" points="230.3702,-72.5375 226.8701,-62.5376 223.3702,-72.5376 230.3702,-72.5375"/>
</g>
<!-- F -->
<g id="node6" class="node">
<title>F</title>
<polygon fill="#d3d3d3" stroke="#000000" points="114.8701,-116.2254 92.8701,-116.2254 92.8701,-98.2254 114.8701,-98.2254 114.8701,-116.2254"/>
<text text-anchor="middle" x="103.8701" y="-105.0254" font-family="Times,serif" font-size="9.00" fill="#000000">F</text>
</g>
<!-- F&#45;&gt;54 -->
<g id="edge4" class="edge">
<title>F&#45;&gt;54</title>
<path fill="none" stroke="#ff0000" stroke-width=".1619" d="M102.8023,-98.1954C101.6743,-88.6561 99.838,-73.1262 98.2161,-59.4101"/>
<polygon fill="#ff0000" stroke="#ff0000" stroke-width=".1619" points="101.6831,-58.9239 97.0329,-49.4041 94.7315,-59.7459 101.6831,-58.9239"/>
</g>
<!-- G -->
<g id="node7" class="node">
<title>G</title>
<polygon fill="#d3d3d3" stroke="#000000" points="279.3701,-116.2254 256.3701,-116.2254 256.3701,-98.2254 279.3701,-98.2254 279.3701,-116.2254"/>
<text text-anchor="middle" x="267.8701" y="-105.0254" font-family="Times,serif" font-size="9.00" fill="#000000">G</text>
</g>
</g>
</svg>
