<?xml version="1.0" encoding="UTF-8" standalone="no"?>
<!DOCTYPE svg PUBLIC "-//W3C//DTD SVG 1.1//EN"
 "http://www.w3.org/Graphics/SVG/1.1/DTD/svg11.dtd">
<!-- Generated by graphviz version 2.40.1 (20161225.0304)
 -->
<!-- Title: %3 Pages: 1 -->
<svg width="347pt" height="197pt"
 viewBox="0.00 0.00 347.15 196.99" xmlns="http://www.w3.org/2000/svg" xmlns:xlink="http://www.w3.org/1999/xlink">
<g id="graph0" class="graph" transform="scale(1 1) rotate(0) translate(4 192.9949)">
<title>%3</title>
<polygon fill="#ffffff" stroke="transparent" points="-4,4 -4,-192.9949 343.1545,-192.9949 343.1545,4 -4,4"/>
<!-- A -->
<g id="node1" class="node">
<title>A</title>
<polygon fill="#d3d3d3" stroke="#000000" points="77.8848,-125.6102 54.8848,-125.6102 54.8848,-107.6102 77.8848,-107.6102 77.8848,-125.6102"/>
<text text-anchor="middle" x="66.3848" y="-114.4102" font-family="Times,serif" font-size="9.00" fill="#000000">A</text>
</g>
<!-- RIGHT -->
<g id="node9" class="node">
<title>RIGHT</title>
<ellipse fill="#add8e6" stroke="#000000" cx="146.3848" cy="-31.1127" rx="31.2258" ry="31.2258"/>
<text text-anchor="middle" x="146.3848" y="-28.9127" font-family="Times,serif" font-size="9.00" fill="#000000">RIGHT</text>
</g>
<!-- A&#45;&gt;RIGHT -->
<g id="edge1" class="edge">
<title>A&#45;&gt;RIGHT</title>
<path fill="none" stroke="#ff0000" stroke-width=".3884" d="M74.9462,-107.4604C85.1303,-96.5765 102.6595,-77.8427 117.8046,-61.6568"/>
<polygon fill="#ff0000" stroke="#ff0000" stroke-width=".3884" points="120.7286,-63.6546 125.0054,-53.9613 115.6172,-58.8719 120.7286,-63.6546"/>
</g>
<!-- B -->
<g id="node2" class="node">
<title>B</title>
<polygon fill="#d3d3d3" stroke="#000000" points="117.8848,-188.9949 94.8848,-188.9949 94.8848,-170.9949 117.8848,-170.9949 117.8848,-188.9949"/>
<text text-anchor="middle" x="106.3848" y="-177.7949" font-family="Times,serif" font-size="9.00" fill="#000000">B</text>
</g>
<!-- LEFT -->
<g id="node8" class="node">
<title>LEFT</title>
<ellipse fill="#add8e6" stroke="#000000" cx="296.3848" cy="-31.1127" rx="26.7407" ry="26.7407"/>
<text text-anchor="middle" x="296.3848" y="-28.9127" font-family="Times,serif" font-size="9.00" fill="#000000">LEFT</text>
</g>
<!-- B&#45;&gt;LEFT -->
<g id="edge2" class="edge">
<title>B&#45;&gt;LEFT</title>
<path fill="none" stroke="#ff0000" stroke-width=".3912" d="M117.9152,-179.5257C159.8158,-177.5569 302.9881,-168.4428 330.3848,-134.9949 347.9003,-113.6107 334.4753,-82.9287 319.6492,-60.4532"/>
<polygon fill="#ff0000" stroke="#ff0000" stroke-width=".3912" points="322.3303,-58.1789 313.74,-51.9775 316.5881,-62.1824 322.3303,-58.1789"/>
</g>
<!-- B&#45;&gt;RIGHT -->
<g id="edge3" class="edge">
<title>B&#45;&gt;RIGHT</title>
<path fill="none" stroke="#ff0000" stroke-width=".2561" d="M108.2725,-170.8641C111.4609,-155.6952 118.2644,-124.3818 125.3848,-98.2254 127.8575,-89.142 130.7459,-79.4417 133.5751,-70.3202"/>
<polygon fill="#ff0000" stroke="#ff0000" stroke-width=".2561" points="136.9373,-71.2956 136.5996,-60.7062 130.2599,-69.195 136.9373,-71.2956"/>
</g>
<!-- 84 -->
<g id="node11" class="node">
<title>84</title>
<ellipse fill="#ffffff" stroke="#000000" cx="18.3848" cy="-116.6102" rx="18.2703" ry="18.2703"/>
<text text-anchor="middle" x="18.3848" y="-114.4102" font-family="Times,serif" font-size="9.00" fill="#000000">84</text>
</g>
<!-- B&#45;&gt;84 -->
<g id="edge13" class="edge">
<title>B&#45;&gt;84</title>
<path fill="none" stroke="#00ff00" stroke-width=".6495" d="M94.8803,-171.7085C81.4708,-162.0498 58.9632,-145.838 41.8245,-133.4934"/>
<polygon fill="#00ff00" stroke="#00ff00" stroke-width=".6495" points="43.588,-130.4502 33.4281,-127.4456 39.4968,-136.1302 43.588,-130.4502"/>
</g>
<!-- C -->
<g id="node3" class="node">
<title>C</title>
<polygon fill="#d3d3d3" stroke="#000000" points="157.8848,-125.6102 134.8848,-125.6102 134.8848,-107.6102 157.8848,-107.6102 157.8848,-125.6102"/>
<text text-anchor="middle" x="146.3848" y="-114.4102" font-family="Times,serif" font-size="9.00" fill="#000000">C</text>
</g>
<!-- C&#45;&gt;RIGHT -->
<g id="edge4" class="edge">
<title>C&#45;&gt;RIGHT</title>
<path fill="none" stroke="#ff0000" stroke-width=".31" d="M146.3848,-107.4604C146.3848,-99.0306 146.3848,-85.8918 146.3848,-72.875"/>
<polygon fill="#ff0000" stroke="#ff0000" stroke-width=".31" points="149.8849,-72.5542 146.3848,-62.5542 142.8849,-72.5543 149.8849,-72.5542"/>
</g>
<!-- D -->
<g id="node4" class="node">
<title>D</title>
<polygon fill="#d3d3d3" stroke="#000000" points="198.8848,-125.6102 175.8848,-125.6102 175.8848,-107.6102 198.8848,-107.6102 198.8848,-125.6102"/>
<text text-anchor="middle" x="187.3848" y="-114.4102" font-family="Times,serif" font-size="9.00" fill="#000000">D</text>
</g>
<!-- D&#45;&gt;RIGHT -->
<g id="edge5" class="edge">
<title>D&#45;&gt;RIGHT</title>
<path fill="none" stroke="#ff0000" stroke-width=".3175" d="M182.9971,-107.4604C178.5233,-98.1313 171.2839,-83.035 164.4189,-68.7193"/>
<polygon fill="#ff0000" stroke="#ff0000" stroke-width=".3175" points="167.4744,-66.9965 159.9945,-59.493 161.1626,-70.0233 167.4744,-66.9965"/>
</g>
<!-- 50 -->
<g id="node10" class="node">
<title>50</title>
<ellipse fill="#ffffff" stroke="#000000" cx="220.3848" cy="-31.1127" rx="18.2703" ry="18.2703"/>
<text text-anchor="middle" x="220.3848" y="-28.9127" font-family="Times,serif" font-size="9.00" fill="#000000">50</text>
</g>
<!-- D&#45;&gt;50 -->
<g id="edge11" class="edge">
<title>D&#45;&gt;50</title>
<path fill="none" stroke="#ff0000" stroke-width=".1393" stroke-dasharray="1,5" d="M190.9164,-107.4604C195.4475,-95.721 203.5035,-74.8492 210.0485,-57.8924"/>
<polygon fill="#ff0000" stroke="#ff0000" stroke-width=".1393" points="213.3537,-59.049 213.6893,-48.4594 206.8232,-56.5283 213.3537,-59.049"/>
</g>
<!-- E -->
<g id="node5" class="node">
<title>E</title>
<polygon fill="#d3d3d3" stroke="#000000" points="239.3848,-125.6102 217.3848,-125.6102 217.3848,-107.6102 239.3848,-107.6102 239.3848,-125.6102"/>
<text text-anchor="middle" x="228.3848" y="-114.4102" font-family="Times,serif" font-size="9.00" fill="#000000">E</text>
</g>
<!-- E&#45;&gt;LEFT -->
<g id="edge6" class="edge">
<title>E&#45;&gt;LEFT</title>
<path fill="none" stroke="#00ff00" stroke-width=".3464" d="M235.662,-107.4604C244.5315,-96.3086 259.9555,-76.9158 273.0384,-60.4664"/>
<polygon fill="#00ff00" stroke="#00ff00" stroke-width=".3464" points="276.1339,-62.1972 279.6194,-52.1921 270.6554,-57.8398 276.1339,-62.1972"/>
</g>
<!-- E&#45;&gt;RIGHT -->
<g id="edge7" class="edge">
<title>E&#45;&gt;RIGHT</title>
<path fill="none" stroke="#ff0000" stroke-width=".8634" d="M219.6093,-107.4604C209.0041,-96.4028 190.6279,-77.2429 174.9383,-60.8841"/>
<polygon fill="#ff0000" stroke="#ff0000" stroke-width=".8634" points="177.4041,-58.3986 167.9561,-53.6041 172.352,-63.2439 177.4041,-58.3986"/>
</g>
<!-- E&#45;&gt;50 -->
<g id="edge12" class="edge">
<title>E&#45;&gt;50</title>
<path fill="none" stroke="#00ff00" stroke-width=".6477" stroke-dasharray="1,5" d="M227.5286,-107.4604C226.4705,-96.1524 224.6196,-76.371 223.0669,-59.7772"/>
<polygon fill="#00ff00" stroke="#00ff00" stroke-width=".6477" points="226.5175,-59.0845 222.101,-49.4541 219.5479,-59.7367 226.5175,-59.0845"/>
</g>
<!-- F -->
<g id="node6" class="node">
<title>F</title>
<polygon fill="#d3d3d3" stroke="#000000" points="279.3848,-125.6102 257.3848,-125.6102 257.3848,-107.6102 279.3848,-107.6102 279.3848,-125.6102"/>
<text text-anchor="middle" x="268.3848" y="-114.4102" font-family="Times,serif" font-size="9.00" fill="#000000">F</text>
</g>
<!-- F&#45;&gt;LEFT -->
<g id="edge8" class="edge">
<title>F&#45;&gt;LEFT</title>
<path fill="none" stroke="#00ff00" stroke-width=".2921" d="M271.3813,-107.4604C274.5985,-97.6366 279.9101,-81.4177 284.8122,-66.4494"/>
<polygon fill="#00ff00" stroke="#00ff00" stroke-width=".2921" points="288.1621,-67.4661 287.9483,-56.8735 281.5097,-65.2875 288.1621,-67.4661"/>
</g>
<!-- F&#45;&gt;RIGHT -->
<g id="edge9" class="edge">
<title>F&#45;&gt;RIGHT</title>
<path fill="none" stroke="#ff0000" stroke-width=".5894" d="M258.8998,-107.3017C255.6633,-104.2873 251.9576,-101.0066 248.3848,-98.2254 225.331,-80.2795 217.7877,-78.2887 193.3848,-62.2254 189.4052,-59.6058 185.2393,-56.8573 181.102,-54.1236"/>
<polygon fill="#ff0000" stroke="#ff0000" stroke-width=".5894" points="182.99,-51.1761 172.7183,-48.5793 179.1287,-57.0149 182.99,-51.1761"/>
</g>
<!-- G -->
<g id="node7" class="node">
<title>G</title>
<polygon fill="#d3d3d3" stroke="#000000" points="320.8848,-125.6102 297.8848,-125.6102 297.8848,-107.6102 320.8848,-107.6102 320.8848,-125.6102"/>
<text text-anchor="middle" x="309.3848" y="-114.4102" font-family="Times,serif" font-size="9.00" fill="#000000">G</text>
</g>
<!-- G&#45;&gt;LEFT -->
<g id="edge10" class="edge">
<title>G&#45;&gt;LEFT</title>
<path fill="none" stroke="#00ff00" stroke-width=".3444" d="M307.9935,-107.4604C306.5599,-98.0317 304.2305,-82.712 302.0332,-68.261"/>
<polygon fill="#00ff00" stroke="#00ff00" stroke-width=".3444" points="305.4348,-67.3489 300.4713,-57.9887 298.5144,-68.4012 305.4348,-67.3489"/>
</g>
<!-- 84&#45;&gt;RIGHT -->
<g id="edge14" class="edge">
<title>84&#45;&gt;RIGHT</title>
<path fill="none" stroke="#ff0000" stroke-width=".3326" d="M33.7848,-106.08C37.572,-103.5025 41.6204,-100.7576 45.3848,-98.2254 67.3501,-83.45 92.1046,-66.9979 111.609,-54.0809"/>
<polygon fill="#ff0000" stroke="#ff0000" stroke-width=".3326" points="113.7648,-56.8513 120.1722,-48.4135 109.9014,-51.0139 113.7648,-56.8513"/>
</g>
</g>
</svg>
