<?xml version="1.0" encoding="UTF-8" standalone="no"?>
<!DOCTYPE svg PUBLIC "-//W3C//DTD SVG 1.1//EN"
 "http://www.w3.org/Graphics/SVG/1.1/DTD/svg11.dtd">
<!-- Generated by graphviz version 2.40.1 (20161225.0304)
 -->
<!-- Title: %3 Pages: 1 -->
<svg width="277pt" height="124pt"
 viewBox="0.00 0.00 277.00 124.23" xmlns="http://www.w3.org/2000/svg" xmlns:xlink="http://www.w3.org/1999/xlink">
<g id="graph0" class="graph" transform="scale(1 1) rotate(0) translate(4 120.2254)">
<title>%3</title>
<polygon fill="#ffffff" stroke="transparent" points="-4,4 -4,-120.2254 273,-120.2254 273,4 -4,4"/>
<!-- A -->
<g id="node1" class="node">
<title>A</title>
<polygon fill="#d3d3d3" stroke="#000000" points="146,-116.2254 123,-116.2254 123,-98.2254 146,-98.2254 146,-116.2254"/>
<text text-anchor="middle" x="134.5" y="-105.0254" font-family="Times,serif" font-size="9.00" fill="#000000">A</text>
</g>
<!-- LEFT -->
<g id="node8" class="node">
<title>LEFT</title>
<ellipse fill="#add8e6" stroke="#000000" cx="75.5" cy="-31.1127" rx="26.7407" ry="26.7407"/>
<text text-anchor="middle" x="75.5" y="-28.9127" font-family="Times,serif" font-size="9.00" fill="#000000">LEFT</text>
</g>
<!-- A&#45;&gt;LEFT -->
<g id="edge1" class="edge">
<title>A&#45;&gt;LEFT</title>
<path fill="none" stroke="#ff0000" stroke-width=".9597" d="M127.5002,-98.1954C120.3213,-88.9342 108.7654,-74.0266 98.3685,-60.6142"/>
<polygon fill="#ff0000" stroke="#ff0000" stroke-width=".9597" points="100.9871,-58.2793 92.0943,-52.52 95.4546,-62.5679 100.9871,-58.2793"/>
</g>
<!-- RIGHT -->
<g id="node9" class="node">
<title>RIGHT</title>
<ellipse fill="#add8e6" stroke="#000000" cx="151.5" cy="-31.1127" rx="31.2258" ry="31.2258"/>
<text text-anchor="middle" x="151.5" y="-28.9127" font-family="Times,serif" font-size="9.00" fill="#000000">RIGHT</text>
</g>
<!-- A&#45;&gt;RIGHT -->
<g id="edge2" class="edge">
<title>A&#45;&gt;RIGHT</title>
<path fill="none" stroke="#00ff00" stroke-width=".4585" d="M136.5169,-98.1954C138.034,-91.4027 140.2297,-81.5725 142.4743,-71.5226"/>
<polygon fill="#00ff00" stroke="#00ff00" stroke-width=".4585" points="145.948,-72.0263 144.7121,-61.5038 139.1163,-70.5003 145.948,-72.0263"/>
</g>
<!-- B -->
<g id="node2" class="node">
<title>B</title>
<polygon fill="#d3d3d3" stroke="#000000" points="187,-116.2254 164,-116.2254 164,-98.2254 187,-98.2254 187,-116.2254"/>
<text text-anchor="middle" x="175.5" y="-105.0254" font-family="Times,serif" font-size="9.00" fill="#000000">B</text>
</g>
<!-- B&#45;&gt;LEFT -->
<g id="edge3" class="edge">
<title>B&#45;&gt;LEFT</title>
<path fill="none" stroke="#ff0000" stroke-width=".1389" d="M163.9218,-99.5947C150.9075,-90.9013 129.274,-76.0987 111.5,-62.2254 108.8953,-60.1923 106.2256,-58.0349 103.5749,-55.8418"/>
<polygon fill="#ff0000" stroke="#ff0000" stroke-width=".1389" points="105.6614,-53.0228 95.7635,-49.2436 101.1443,-58.3703 105.6614,-53.0228"/>
</g>
<!-- B&#45;&gt;RIGHT -->
<g id="edge4" class="edge">
<title>B&#45;&gt;RIGHT</title>
<path fill="none" stroke="#00ff00" stroke-width=".2468" d="M172.6526,-98.1954C170.4281,-91.1406 167.1704,-80.8093 163.875,-70.3584"/>
<polygon fill="#00ff00" stroke="#00ff00" stroke-width=".2468" points="167.2119,-69.302 160.8666,-60.8174 160.5359,-71.4071 167.2119,-69.302"/>
</g>
<!-- C -->
<g id="node3" class="node">
<title>C</title>
<polygon fill="#d3d3d3" stroke="#000000" points="23,-116.2254 0,-116.2254 0,-98.2254 23,-98.2254 23,-116.2254"/>
<text text-anchor="middle" x="11.5" y="-105.0254" font-family="Times,serif" font-size="9.00" fill="#000000">C</text>
</g>
<!-- C&#45;&gt;LEFT -->
<g id="edge5" class="edge">
<title>C&#45;&gt;LEFT</title>
<path fill="none" stroke="#ff0000" stroke-width=".3215" d="M19.093,-98.1954C27.0645,-88.7152 40.0111,-73.3183 51.4915,-59.6651"/>
<polygon fill="#ff0000" stroke="#ff0000" stroke-width=".3215" points="54.2759,-61.792 58.0329,-51.8857 48.9182,-57.287 54.2759,-61.792"/>
</g>
<!-- C&#45;&gt;RIGHT -->
<g id="edge6" class="edge">
<title>C&#45;&gt;RIGHT</title>
<path fill="none" stroke="#00ff00" stroke-width=".203" d="M23.33,-102.091C48.0212,-91.3473 103.4267,-67.0863 111.5,-62.2254 114.1286,-60.6427 116.7833,-58.9139 119.4083,-57.108"/>
<polygon fill="#00ff00" stroke="#00ff00" stroke-width=".203" points="121.574,-59.8612 127.6227,-51.1627 117.4697,-54.1906 121.574,-59.8612"/>
</g>
<!-- D -->
<g id="node4" class="node">
<title>D</title>
<polygon fill="#d3d3d3" stroke="#000000" points="269,-116.2254 246,-116.2254 246,-98.2254 269,-98.2254 269,-116.2254"/>
<text text-anchor="middle" x="257.5" y="-105.0254" font-family="Times,serif" font-size="9.00" fill="#000000">D</text>
</g>
<!-- D&#45;&gt;RIGHT -->
<g id="edge7" class="edge">
<title>D&#45;&gt;RIGHT</title>
<path fill="none" stroke="#ff0000" stroke-width=".2885" d="M245.7511,-98.7892C231.2541,-88.3797 205.9812,-70.2326 185.2531,-55.349"/>
<polygon fill="#ff0000" stroke="#ff0000" stroke-width=".2885" points="187.1488,-52.4013 176.9845,-49.4117 183.0659,-58.0873 187.1488,-52.4013"/>
</g>
<!-- E -->
<g id="node5" class="node">
<title>E</title>
<polygon fill="#d3d3d3" stroke="#000000" points="227.5,-116.2254 205.5,-116.2254 205.5,-98.2254 227.5,-98.2254 227.5,-116.2254"/>
<text text-anchor="middle" x="216.5" y="-105.0254" font-family="Times,serif" font-size="9.00" fill="#000000">E</text>
</g>
<!-- E&#45;&gt;RIGHT -->
<g id="edge8" class="edge">
<title>E&#45;&gt;RIGHT</title>
<path fill="none" stroke="#ff0000" stroke-width=".1489" d="M208.7884,-98.1954C201.2693,-89.3907 189.3918,-75.4827 178.3967,-62.6077"/>
<polygon fill="#ff0000" stroke="#ff0000" stroke-width=".1489" points="180.8672,-60.1111 171.7115,-54.7796 175.5441,-64.657 180.8672,-60.1111"/>
</g>
<!-- F -->
<g id="node6" class="node">
<title>F</title>
<polygon fill="#d3d3d3" stroke="#000000" points="63.5,-116.2254 41.5,-116.2254 41.5,-98.2254 63.5,-98.2254 63.5,-116.2254"/>
<text text-anchor="middle" x="52.5" y="-105.0254" font-family="Times,serif" font-size="9.00" fill="#000000">F</text>
</g>
<!-- F&#45;&gt;LEFT -->
<g id="edge9" class="edge">
<title>F&#45;&gt;LEFT</title>
<path fill="none" stroke="#ff0000" stroke-width=".7132" d="M55.2287,-98.1954C57.6086,-90.3198 61.2223,-78.361 64.7429,-66.7108"/>
<polygon fill="#ff0000" stroke="#ff0000" stroke-width=".7132" points="68.1067,-67.6784 67.649,-57.0935 61.4059,-65.6535 68.1067,-67.6784"/>
</g>
<!-- F&#45;&gt;RIGHT -->
<g id="edge10" class="edge">
<title>F&#45;&gt;RIGHT</title>
<path fill="none" stroke="#ff0000" stroke-width=".2619" d="M63.835,-98.6304C75.7315,-89.5978 94.9664,-74.9602 111.5,-62.2254 113.787,-60.4638 116.1449,-58.6427 118.5179,-56.8063"/>
<polygon fill="#ff0000" stroke="#ff0000" stroke-width=".2619" points="120.8057,-59.4613 126.5634,-50.5674 116.5161,-53.9296 120.8057,-59.4613"/>
</g>
<!-- G -->
<g id="node7" class="node">
<title>G</title>
<polygon fill="#d3d3d3" stroke="#000000" points="105,-116.2254 82,-116.2254 82,-98.2254 105,-98.2254 105,-116.2254"/>
<text text-anchor="middle" x="93.5" y="-105.0254" font-family="Times,serif" font-size="9.00" fill="#000000">G</text>
</g>
<!-- G&#45;&gt;LEFT -->
<g id="edge11" class="edge">
<title>G&#45;&gt;LEFT</title>
<path fill="none" stroke="#00ff00" stroke-width=".2617" d="M91.3645,-98.1954C89.535,-90.4595 86.7738,-78.7839 84.0653,-67.3308"/>
<polygon fill="#00ff00" stroke="#00ff00" stroke-width=".2617" points="87.4309,-66.354 81.7233,-57.4279 80.6188,-67.965 87.4309,-66.354"/>
</g>
<!-- G&#45;&gt;RIGHT -->
<g id="edge12" class="edge">
<title>G&#45;&gt;RIGHT</title>
<path fill="none" stroke="#00ff00" stroke-width=".3831" d="M100.3811,-98.1954C106.8303,-89.7322 116.8726,-76.5538 126.3551,-64.1101"/>
<polygon fill="#00ff00" stroke="#00ff00" stroke-width=".3831" points="129.185,-66.171 132.4622,-56.0958 123.6173,-61.9283 129.185,-66.171"/>
</g>
</g>
</svg>
