<?xml version="1.0" encoding="UTF-8" standalone="no"?>
<!DOCTYPE svg PUBLIC "-//W3C//DTD SVG 1.1//EN"
 "http://www.w3.org/Graphics/SVG/1.1/DTD/svg11.dtd">
<!-- Generated by graphviz version 2.40.1 (20161225.0304)
 -->
<!-- Title: %3 Pages: 1 -->
<svg width="368pt" height="214pt"
 viewBox="0.00 0.00 368.00 213.97" xmlns="http://www.w3.org/2000/svg" xmlns:xlink="http://www.w3.org/1999/xlink">
<g id="graph0" class="graph" transform="scale(1 1) rotate(0) translate(4 209.9655)">
<title>%3</title>
<polygon fill="#ffffff" stroke="transparent" points="-4,4 -4,-209.9655 364,-209.9655 364,4 -4,4"/>
<!-- A -->
<g id="node1" class="node">
<title>A</title>
<polygon fill="#d3d3d3" stroke="#000000" points="360,-205.9655 337,-205.9655 337,-187.9655 360,-187.9655 360,-205.9655"/>
<text text-anchor="middle" x="348.5" y="-194.7655" font-family="Times,serif" font-size="9.00" fill="#000000">A</text>
</g>
<!-- LEFT -->
<g id="node8" class="node">
<title>LEFT</title>
<ellipse fill="#add8e6" stroke="#000000" cx="207.5" cy="-26.8701" rx="26.7407" ry="26.7407"/>
<text text-anchor="middle" x="207.5" y="-24.6701" font-family="Times,serif" font-size="9.00" fill="#000000">LEFT</text>
</g>
<!-- A&#45;&gt;LEFT -->
<g id="edge7" class="edge">
<title>A&#45;&gt;LEFT</title>
<path fill="none" stroke="#ff0000" stroke-width=".1283" d="M347.7981,-187.9039C345.8366,-168.0616 338.7339,-120.1214 314.5,-89.7401 295.8425,-66.3499 265.9416,-49.8361 242.4852,-39.6211"/>
<polygon fill="#ff0000" stroke="#ff0000" stroke-width=".1283" points="243.7803,-36.3691 233.2032,-35.7561 241.0894,-42.8313 243.7803,-36.3691"/>
</g>
<!-- 15 -->
<g id="node11" class="node">
<title>15</title>
<ellipse fill="#ffffff" stroke="#000000" cx="265.5" cy="-120.8528" rx="18.2703" ry="18.2703"/>
<text text-anchor="middle" x="265.5" y="-118.6528" font-family="Times,serif" font-size="9.00" fill="#000000">15</text>
</g>
<!-- A&#45;&gt;15 -->
<g id="edge1" class="edge">
<title>A&#45;&gt;15</title>
<path fill="none" stroke="#ff0000" stroke-width=".1355" d="M338.6529,-187.9355C325.9584,-176.2944 303.5355,-155.7321 286.8504,-140.4316"/>
<polygon fill="#ff0000" stroke="#ff0000" stroke-width=".1355" points="288.9241,-137.5844 279.1883,-133.4053 284.193,-142.7436 288.9241,-137.5844"/>
</g>
<!-- B -->
<g id="node2" class="node">
<title>B</title>
<polygon fill="#d3d3d3" stroke="#000000" points="23,-205.9655 0,-205.9655 0,-187.9655 23,-187.9655 23,-205.9655"/>
<text text-anchor="middle" x="11.5" y="-194.7655" font-family="Times,serif" font-size="9.00" fill="#000000">B</text>
</g>
<!-- B&#45;&gt;LEFT -->
<g id="edge8" class="edge">
<title>B&#45;&gt;LEFT</title>
<path fill="none" stroke="#ff0000" stroke-width=".6693" stroke-dasharray="1,5" d="M9.335,-187.7263C5.1829,-167.5301 -1.5726,-118.9277 21.5,-89.7401 40.2478,-66.0235 122.3158,-44.9887 170.9536,-34.3059"/>
<polygon fill="#ff0000" stroke="#ff0000" stroke-width=".6693" points="171.7519,-37.7144 180.7901,-32.1862 170.2772,-30.8714 171.7519,-37.7144"/>
</g>
<!-- RIGHT -->
<g id="node9" class="node">
<title>RIGHT</title>
<ellipse fill="#add8e6" stroke="#000000" cx="61.5" cy="-120.8528" rx="31.2258" ry="31.2258"/>
<text text-anchor="middle" x="61.5" y="-118.6528" font-family="Times,serif" font-size="9.00" fill="#000000">RIGHT</text>
</g>
<!-- B&#45;&gt;RIGHT -->
<g id="edge9" class="edge">
<title>B&#45;&gt;RIGHT</title>
<path fill="none" stroke="#00ff00" stroke-width=".113" d="M17.432,-187.9355C22.7192,-179.887 30.8078,-167.5741 38.6186,-155.6841"/>
<polygon fill="#00ff00" stroke="#00ff00" stroke-width=".113" points="41.6477,-157.4477 44.213,-147.1681 35.7972,-153.6043 41.6477,-157.4477"/>
</g>
<!-- C -->
<g id="node3" class="node">
<title>C</title>
<polygon fill="#d3d3d3" stroke="#000000" points="196,-205.9655 173,-205.9655 173,-187.9655 196,-187.9655 196,-205.9655"/>
<text text-anchor="middle" x="184.5" y="-194.7655" font-family="Times,serif" font-size="9.00" fill="#000000">C</text>
</g>
<!-- C&#45;&gt;LEFT -->
<g id="edge10" class="edge">
<title>C&#45;&gt;LEFT</title>
<path fill="none" stroke="#00ff00" stroke-width=".5308" stroke-dasharray="1,5" d="M182.1964,-187.9332C177.8193,-169.3102 169.4275,-125.402 177.5,-89.7401 179.863,-79.3011 184.1775,-68.5661 188.8119,-58.9872"/>
<polygon fill="#00ff00" stroke="#00ff00" stroke-width=".5308" points="192.0494,-60.3437 193.4924,-49.8476 185.8189,-57.1529 192.0494,-60.3437"/>
</g>
<!-- C&#45;&gt;RIGHT -->
<g id="edge11" class="edge">
<title>C&#45;&gt;RIGHT</title>
<path fill="none" stroke="#00ff00" stroke-width=".6249" stroke-dasharray="1,5" d="M172.7062,-189.6675C155.3868,-178.9502 122.3585,-158.5122 96.7776,-142.6827"/>
<polygon fill="#00ff00" stroke="#00ff00" stroke-width=".6249" points="98.4233,-139.5851 88.0779,-137.2993 94.7398,-145.5376 98.4233,-139.5851"/>
</g>
<!-- 110 -->
<g id="node10" class="node">
<title>110</title>
<ellipse fill="#ffffff" stroke="#000000" cx="207.5" cy="-120.8528" rx="21.4286" ry="21.4286"/>
<text text-anchor="middle" x="207.5" y="-118.6528" font-family="Times,serif" font-size="9.00" fill="#000000">110</text>
</g>
<!-- C&#45;&gt;110 -->
<g id="edge16" class="edge">
<title>C&#45;&gt;110</title>
<path fill="none" stroke="#ff0000" stroke-width=".127" d="M187.2287,-187.9355C189.9786,-178.8355 194.3758,-164.284 198.3731,-151.056"/>
<polygon fill="#ff0000" stroke="#ff0000" stroke-width=".127" points="201.7756,-151.8956 201.318,-141.3106 195.0749,-149.8707 201.7756,-151.8956"/>
</g>
<!-- C&#45;&gt;15 -->
<g id="edge2" class="edge">
<title>C&#45;&gt;15</title>
<path fill="none" stroke="#00ff00" stroke-width=".1326" d="M196.261,-187.7371C207.2678,-178.9269 223.9944,-165.0871 237.5,-151.9655 240.4643,-149.0855 243.4935,-145.9495 246.4125,-142.8134"/>
<polygon fill="#00ff00" stroke="#00ff00" stroke-width=".1326" points="249.2224,-144.9247 253.3414,-135.1633 244.0341,-140.2255 249.2224,-144.9247"/>
</g>
<!-- D -->
<g id="node4" class="node">
<title>D</title>
<polygon fill="#d3d3d3" stroke="#000000" points="73,-205.9655 50,-205.9655 50,-187.9655 73,-187.9655 73,-205.9655"/>
<text text-anchor="middle" x="61.5" y="-194.7655" font-family="Times,serif" font-size="9.00" fill="#000000">D</text>
</g>
<!-- D&#45;&gt;RIGHT -->
<g id="edge12" class="edge">
<title>D&#45;&gt;RIGHT</title>
<path fill="none" stroke="#ff0000" stroke-width=".2805" stroke-dasharray="1,5" d="M61.5,-187.9355C61.5,-181.3889 61.5,-172.021 61.5,-162.3541"/>
<polygon fill="#ff0000" stroke="#ff0000" stroke-width=".2805" points="65.0001,-162.2777 61.5,-152.2777 58.0001,-162.2777 65.0001,-162.2777"/>
</g>
<!-- E -->
<g id="node5" class="node">
<title>E</title>
<polygon fill="#d3d3d3" stroke="#000000" points="276.5,-205.9655 254.5,-205.9655 254.5,-187.9655 276.5,-187.9655 276.5,-205.9655"/>
<text text-anchor="middle" x="265.5" y="-194.7655" font-family="Times,serif" font-size="9.00" fill="#000000">E</text>
</g>
<!-- E&#45;&gt;15 -->
<g id="edge3" class="edge">
<title>E&#45;&gt;15</title>
<path fill="none" stroke="#ff0000" stroke-width=".1397" d="M265.5,-187.9355C265.5,-178.5519 265.5,-163.3716 265.5,-149.8231"/>
<polygon fill="#ff0000" stroke="#ff0000" stroke-width=".1397" points="269.0001,-149.4492 265.5,-139.4492 262.0001,-149.4493 269.0001,-149.4492"/>
</g>
<!-- F -->
<g id="node6" class="node">
<title>F</title>
<polygon fill="#d3d3d3" stroke="#000000" points="131.5,-205.9655 109.5,-205.9655 109.5,-187.9655 131.5,-187.9655 131.5,-205.9655"/>
<text text-anchor="middle" x="120.5" y="-194.7655" font-family="Times,serif" font-size="9.00" fill="#000000">F</text>
</g>
<!-- F&#45;&gt;LEFT -->
<g id="edge13" class="edge">
<title>F&#45;&gt;LEFT</title>
<path fill="none" stroke="#ff0000" stroke-width=".3639" stroke-dasharray="1,5" d="M124.2245,-187.9012C131.9912,-169.2192 150.7568,-125.2078 169.5,-89.7401 175.0204,-79.2939 181.5217,-68.175 187.571,-58.2383"/>
<polygon fill="#ff0000" stroke="#ff0000" stroke-width=".3639" points="190.6905,-59.8476 192.9583,-49.4983 184.7316,-56.1745 190.6905,-59.8476"/>
</g>
<!-- F&#45;&gt;RIGHT -->
<g id="edge14" class="edge">
<title>F&#45;&gt;RIGHT</title>
<path fill="none" stroke="#ff0000" stroke-width=".2239" d="M113.5002,-187.9355C106.8898,-179.4077 96.5683,-166.0925 86.8577,-153.5653"/>
<polygon fill="#ff0000" stroke="#ff0000" stroke-width=".2239" points="89.5026,-151.2645 80.6098,-145.5053 83.9701,-155.5531 89.5026,-151.2645"/>
</g>
<!-- F&#45;&gt;15 -->
<g id="edge4" class="edge">
<title>F&#45;&gt;15</title>
<path fill="none" stroke="#ff0000" stroke-width=".2847" d="M131.643,-194.5364C153.4607,-189.399 202.7158,-175.8951 237.5,-151.9655 241.0697,-149.5098 244.4955,-146.5102 247.6507,-143.3533"/>
<polygon fill="#ff0000" stroke="#ff0000" stroke-width=".2847" points="250.3104,-145.631 254.4625,-135.8837 245.1381,-140.9143 250.3104,-145.631"/>
</g>
<!-- G -->
<g id="node7" class="node">
<title>G</title>
<polygon fill="#d3d3d3" stroke="#000000" points="319,-205.9655 296,-205.9655 296,-187.9655 319,-187.9655 319,-205.9655"/>
<text text-anchor="middle" x="307.5" y="-194.7655" font-family="Times,serif" font-size="9.00" fill="#000000">G</text>
</g>
<!-- G&#45;&gt;LEFT -->
<g id="edge15" class="edge">
<title>G&#45;&gt;LEFT</title>
<path fill="none" stroke="#ff0000" stroke-width=".4384" d="M308.4683,-187.8737C310.0925,-168.3781 311.5222,-121.7293 292.5,-89.7401 280.4619,-69.4958 259.1355,-53.7502 240.857,-43.0798"/>
<polygon fill="#ff0000" stroke="#ff0000" stroke-width=".4384" points="242.3541,-39.9076 231.913,-38.1088 238.9535,-46.0261 242.3541,-39.9076"/>
</g>
<!-- G&#45;&gt;15 -->
<g id="edge5" class="edge">
<title>G&#45;&gt;15</title>
<path fill="none" stroke="#00ff00" stroke-width=".2129" d="M302.5171,-187.9355C296.8488,-177.6634 287.3475,-160.445 279.3903,-146.0249"/>
<polygon fill="#00ff00" stroke="#00ff00" stroke-width=".2129" points="282.3359,-144.1185 274.44,-137.054 276.2071,-147.5005 282.3359,-144.1185"/>
</g>
<!-- 110&#45;&gt;LEFT -->
<g id="edge17" class="edge">
<title>110&#45;&gt;LEFT</title>
<path fill="none" stroke="#00ff00" stroke-width=".4063" d="M207.5,-99.5267C207.5,-89.0547 207.5,-76.1298 207.5,-64.0982"/>
<polygon fill="#00ff00" stroke="#00ff00" stroke-width=".4063" points="211.0001,-63.8391 207.5,-53.8391 204.0001,-63.8391 211.0001,-63.8391"/>
</g>
<!-- 15&#45;&gt;LEFT -->
<g id="edge6" class="edge">
<title>15&#45;&gt;LEFT</title>
<path fill="none" stroke="#00ff00" stroke-width=".2252" d="M255.6611,-104.9099C247.8801,-92.3017 236.7681,-74.2959 227.178,-58.7562"/>
<polygon fill="#00ff00" stroke="#00ff00" stroke-width=".2252" points="229.9744,-56.6229 221.7441,-49.9511 224.0174,-60.2992 229.9744,-56.6229"/>
</g>
</g>
</svg>
