<?xml version="1.0" encoding="UTF-8" standalone="no"?>
<!DOCTYPE svg PUBLIC "-//W3C//DTD SVG 1.1//EN"
 "http://www.w3.org/Graphics/SVG/1.1/DTD/svg11.dtd">
<!-- Generated by graphviz version 2.40.1 (20161225.0304)
 -->
<!-- Title: %3 Pages: 1 -->
<svg width="429pt" height="188pt"
 viewBox="0.00 0.00 429.25 187.50" xmlns="http://www.w3.org/2000/svg" xmlns:xlink="http://www.w3.org/1999/xlink">
<g id="graph0" class="graph" transform="scale(1 1) rotate(0) translate(4 183.5048)">
<title>%3</title>
<polygon fill="#ffffff" stroke="transparent" points="-4,4 -4,-183.5048 425.2467,-183.5048 425.2467,4 -4,4"/>
<!-- A -->
<g id="node1" class="node">
<title>A</title>
<polygon fill="#d3d3d3" stroke="#000000" points="221.7549,-179.5048 198.7446,-179.5048 198.7446,-162.5048 221.7549,-162.5048 221.7549,-179.5048"/>
<text text-anchor="middle" x="210.2498" y="-168.3048" font-family="Times,serif" font-size="9.00" fill="#000000">A</text>
</g>
<!-- LEFT -->
<g id="node8" class="node">
<title>LEFT</title>
<ellipse fill="#add8e6" stroke="#000000" cx="148.2498" cy="-30.7567" rx="26.5303" ry="26.5303"/>
<text text-anchor="middle" x="148.2498" y="-28.0567" font-family="Times,serif" font-size="9.00" fill="#000000">LEFT</text>
</g>
<!-- A&#45;&gt;LEFT -->
<g id="edge10" class="edge">
<title>A&#45;&gt;LEFT</title>
<path fill="none" stroke="#ff0000" stroke-width=".1041" d="M209.0732,-162.0919C206.9864,-147.9402 201.917,-119.6663 192.2498,-97.5135 186.5427,-84.4355 178.3243,-71.0965 170.5317,-59.8147"/>
<polygon fill="#ff0000" stroke="#ff0000" stroke-width=".1041" points="173.3543,-57.7446 164.7042,-51.6269 167.6513,-61.8036 173.3543,-57.7446"/>
</g>
<!-- RIGHT -->
<g id="node9" class="node">
<title>RIGHT</title>
<ellipse fill="#add8e6" stroke="#000000" cx="255.2498" cy="-30.7567" rx="30.5154" ry="30.5154"/>
<text text-anchor="middle" x="255.2498" y="-28.0567" font-family="Times,serif" font-size="9.00" fill="#000000">RIGHT</text>
</g>
<!-- A&#45;&gt;RIGHT -->
<g id="edge11" class="edge">
<title>A&#45;&gt;RIGHT</title>
<path fill="none" stroke="#00ff00" stroke-width=".3781" d="M221.7915,-165.7558C245.7688,-154.7981 298.9451,-130.1973 301.2498,-126.5048 314.6379,-105.0547 300.49,-79.1159 284.4614,-59.6495"/>
<polygon fill="#00ff00" stroke="#00ff00" stroke-width=".3781" points="287.0047,-57.2406 277.7963,-52.0007 281.7272,-61.8393 287.0047,-57.2406"/>
</g>
<!-- 4 -->
<g id="node10" class="node">
<title>4</title>
<ellipse fill="#ffffff" stroke="#000000" cx="169.2498" cy="-112.0091" rx="14.4914" ry="14.4914"/>
<text text-anchor="middle" x="169.2498" y="-109.3091" font-family="Times,serif" font-size="9.00" fill="#000000">4</text>
</g>
<!-- A&#45;&gt;4 -->
<g id="edge1" class="edge">
<title>A&#45;&gt;4</title>
<path fill="none" stroke="#ff0000" stroke-width=".3365" d="M204.2001,-162.2998C198.7559,-154.4661 190.5453,-142.6517 183.4499,-132.442"/>
<polygon fill="#ff0000" stroke="#ff0000" stroke-width=".3365" points="186.1802,-130.2377 177.5992,-124.0234 180.432,-134.2325 186.1802,-130.2377"/>
</g>
<!-- B -->
<g id="node2" class="node">
<title>B</title>
<polygon fill="#d3d3d3" stroke="#000000" points="261.2527,-179.5048 239.2468,-179.5048 239.2468,-162.5048 261.2527,-162.5048 261.2527,-179.5048"/>
<text text-anchor="middle" x="250.2498" y="-168.3048" font-family="Times,serif" font-size="9.00" fill="#000000">B</text>
</g>
<!-- B&#45;&gt;LEFT -->
<g id="edge12" class="edge">
<title>B&#45;&gt;LEFT</title>
<path fill="none" stroke="#ff0000" stroke-width=".3707" d="M246.4515,-162.4457C239.9924,-148.3052 226.0247,-119.4493 210.2498,-97.5135 199.8715,-83.0819 186.6568,-68.456 175.0961,-56.5875"/>
<polygon fill="#ff0000" stroke="#ff0000" stroke-width=".3707" points="177.3116,-53.8511 167.7843,-49.2162 172.3418,-58.7808 177.3116,-53.8511"/>
</g>
<!-- B&#45;&gt;RIGHT -->
<g id="edge13" class="edge">
<title>B&#45;&gt;RIGHT</title>
<path fill="none" stroke="#ff0000" stroke-width=".2978" d="M261.5054,-169.224C281.3272,-165.414 321.9938,-154.4256 339.2498,-126.5048 357.4493,-97.0574 321.9789,-67.8202 291.6725,-49.5479"/>
<polygon fill="#ff0000" stroke="#ff0000" stroke-width=".2978" points="293.3124,-46.453 282.9052,-44.4676 289.8028,-52.5097 293.3124,-46.453"/>
</g>
<!-- B&#45;&gt;4 -->
<g id="edge2" class="edge">
<title>B&#45;&gt;4</title>
<path fill="none" stroke="#ff0000" stroke-width=".1454" d="M238.9871,-162.8017C226.2687,-153.5384 205.3135,-138.2759 189.6884,-126.8955"/>
<polygon fill="#ff0000" stroke="#ff0000" stroke-width=".1454" points="191.3509,-123.7764 181.207,-120.7181 187.2297,-129.4347 191.3509,-123.7764"/>
</g>
<!-- C -->
<g id="node3" class="node">
<title>C</title>
<polygon fill="#d3d3d3" stroke="#000000" points="412.2527,-179.5048 390.2468,-179.5048 390.2468,-162.5048 412.2527,-162.5048 412.2527,-179.5048"/>
<text text-anchor="middle" x="401.2498" y="-168.3048" font-family="Times,serif" font-size="9.00" fill="#000000">C</text>
</g>
<!-- C&#45;&gt;LEFT -->
<g id="edge14" class="edge">
<title>C&#45;&gt;LEFT</title>
<path fill="none" stroke="#00ff00" stroke-width=".1268" d="M390.0522,-164.7976C353.6358,-144.6105 237.6319,-80.3049 180.5715,-48.674"/>
<polygon fill="#00ff00" stroke="#00ff00" stroke-width=".1268" points="182.0568,-45.4956 171.6138,-43.7084 178.663,-51.6178 182.0568,-45.4956"/>
</g>
<!-- C&#45;&gt;RIGHT -->
<g id="edge15" class="edge">
<title>C&#45;&gt;RIGHT</title>
<path fill="none" stroke="#ff0000" stroke-width=".2522" d="M406.5544,-162.5048C414.8925,-147.943 428.7896,-117.8338 415.2498,-97.5135 388.9341,-58.0195 334.3378,-41.8511 296.2812,-35.2573"/>
<polygon fill="#ff0000" stroke="#ff0000" stroke-width=".2522" points="296.4462,-31.7401 286.0231,-33.6399 295.356,-38.6547 296.4462,-31.7401"/>
</g>
<!-- C&#45;&gt;4 -->
<g id="edge3" class="edge">
<title>C&#45;&gt;4</title>
<path fill="none" stroke="#ff0000" stroke-width=".1372" d="M390.0599,-168.1593C354.39,-159.0888 242.8153,-130.7163 193.3148,-118.1287"/>
<polygon fill="#ff0000" stroke="#ff0000" stroke-width=".1372" points="194.0298,-114.6992 183.4756,-115.6267 192.3046,-121.4833 194.0298,-114.6992"/>
</g>
<!-- D -->
<g id="node4" class="node">
<title>D</title>
<polygon fill="#d3d3d3" stroke="#000000" points="22.7549,-179.5048 -.2554,-179.5048 -.2554,-162.5048 22.7549,-162.5048 22.7549,-179.5048"/>
<text text-anchor="middle" x="11.2498" y="-168.3048" font-family="Times,serif" font-size="9.00" fill="#000000">D</text>
</g>
<!-- D&#45;&gt;LEFT -->
<g id="edge16" class="edge">
<title>D&#45;&gt;LEFT</title>
<path fill="none" stroke="#ff0000" stroke-width=".227" d="M14.8249,-162.0582C21.013,-147.3606 34.8447,-117.7219 53.2498,-97.5135 71.2588,-77.7398 96.1187,-60.531 115.8907,-48.5398"/>
<polygon fill="#ff0000" stroke="#ff0000" stroke-width=".227" points="117.7466,-51.5085 124.5742,-43.407 114.1846,-45.4825 117.7466,-51.5085"/>
</g>
<!-- D&#45;&gt;RIGHT -->
<g id="edge17" class="edge">
<title>D&#45;&gt;RIGHT</title>
<path fill="none" stroke="#00ff00" stroke-width=".2097" d="M17.9294,-162.0483C29.7313,-146.7972 55.734,-115.6769 84.2498,-97.5135 124.0908,-72.1363 140.3333,-78.9104 184.2498,-61.5135 195.2616,-57.1513 207.1104,-52.1454 217.9134,-47.4567"/>
<polygon fill="#00ff00" stroke="#00ff00" stroke-width=".2097" points="219.3315,-50.6566 227.0905,-43.4421 216.526,-44.2434 219.3315,-50.6566"/>
</g>
<!-- D&#45;&gt;4 -->
<g id="edge4" class="edge">
<title>D&#45;&gt;4</title>
<path fill="none" stroke="#00ff00" stroke-width=".295" d="M22.6308,-166.0491C25.437,-164.8601 28.4427,-163.6141 31.2498,-162.5048 71.2235,-146.7089 118.3522,-129.8337 145.9052,-120.1412"/>
<polygon fill="#00ff00" stroke="#00ff00" stroke-width=".295" points="147.1716,-123.4062 155.451,-116.7954 144.8562,-116.8002 147.1716,-123.4062"/>
</g>
<!-- E -->
<g id="node5" class="node">
<title>E</title>
<polygon fill="#d3d3d3" stroke="#000000" points="62.2532,-179.5048 40.2463,-179.5048 40.2463,-162.5048 62.2532,-162.5048 62.2532,-179.5048"/>
<text text-anchor="middle" x="51.2498" y="-168.3048" font-family="Times,serif" font-size="9.00" fill="#000000">E</text>
</g>
<!-- E&#45;&gt;LEFT -->
<g id="edge18" class="edge">
<title>E&#45;&gt;LEFT</title>
<path fill="none" stroke="#00ff00" stroke-width=".1238" d="M51.5057,-162.1794C52.2975,-147.656 55.4898,-118.2621 68.2498,-97.5135 80.1924,-78.0937 99.7656,-61.6152 116.5616,-49.8888"/>
<polygon fill="#00ff00" stroke="#00ff00" stroke-width=".1238" points="118.6848,-52.6791 125.0366,-44.1994 114.7831,-46.8672 118.6848,-52.6791"/>
</g>
<!-- E&#45;&gt;RIGHT -->
<g id="edge19" class="edge">
<title>E&#45;&gt;RIGHT</title>
<path fill="none" stroke="#00ff00" stroke-width=".178" d="M57.2921,-162.3053C67.967,-147.4422 91.4831,-116.891 117.2498,-97.5135 134.0677,-84.8657 182.764,-62.3714 217.5386,-47.0209"/>
<polygon fill="#00ff00" stroke="#00ff00" stroke-width=".178" points="219.1894,-50.1188 226.9396,-42.8949 216.3761,-43.709 219.1894,-50.1188"/>
</g>
<!-- E&#45;&gt;4 -->
<g id="edge5" class="edge">
<title>E&#45;&gt;4</title>
<path fill="none" stroke="#00ff00" stroke-width=".1099" d="M62.1394,-165.5604C81.3801,-155.9407 121.7428,-135.7609 147.0557,-123.1054"/>
<polygon fill="#00ff00" stroke="#00ff00" stroke-width=".1099" points="148.8766,-126.1081 156.2559,-118.5056 145.7463,-119.847 148.8766,-126.1081"/>
</g>
<!-- F -->
<g id="node6" class="node">
<title>F</title>
<polygon fill="#d3d3d3" stroke="#000000" points="100.7551,-179.5048 79.7444,-179.5048 79.7444,-162.5048 100.7551,-162.5048 100.7551,-179.5048"/>
<text text-anchor="middle" x="90.2498" y="-168.3048" font-family="Times,serif" font-size="9.00" fill="#000000">F</text>
</g>
<!-- F&#45;&gt;LEFT -->
<g id="edge20" class="edge">
<title>F&#45;&gt;LEFT</title>
<path fill="none" stroke="#ff0000" stroke-width=".1988" d="M85.308,-162.497C77.8273,-148.4304 65.4837,-119.6782 75.2498,-97.5135 83.8385,-78.0208 101.2406,-61.7461 116.8999,-50.1468"/>
<polygon fill="#ff0000" stroke="#ff0000" stroke-width=".1988" points="119.1929,-52.8129 125.3532,-44.1931 115.1621,-47.0899 119.1929,-52.8129"/>
</g>
<!-- F&#45;&gt;RIGHT -->
<g id="edge21" class="edge">
<title>F&#45;&gt;RIGHT</title>
<path fill="none" stroke="#ff0000" stroke-width=".1546" d="M95.2671,-162.4823C104.1594,-147.8864 123.8702,-117.7272 146.2498,-97.5135 167.8637,-77.9913 195.9663,-60.9395 218.2227,-48.9566"/>
<polygon fill="#ff0000" stroke="#ff0000" stroke-width=".1546" points="220.1514,-51.8966 227.3673,-44.1389 216.8886,-45.7034 220.1514,-51.8966"/>
</g>
<!-- F&#45;&gt;4 -->
<g id="edge6" class="edge">
<title>F&#45;&gt;4</title>
<path fill="none" stroke="#ff0000" stroke-width=".1173" d="M100.904,-163.0484C113.2264,-153.8463 133.7837,-138.4945 149.1406,-127.0263"/>
<polygon fill="#ff0000" stroke="#ff0000" stroke-width=".1173" points="151.5618,-129.5864 157.48,-120.7986 147.3734,-123.9778 151.5618,-129.5864"/>
</g>
<!-- G -->
<g id="node7" class="node">
<title>G</title>
<polygon fill="#d3d3d3" stroke="#000000" points="180.7549,-179.5048 157.7446,-179.5048 157.7446,-162.5048 180.7549,-162.5048 180.7549,-179.5048"/>
<text text-anchor="middle" x="169.2498" y="-168.3048" font-family="Times,serif" font-size="9.00" fill="#000000">G</text>
</g>
<!-- G&#45;&gt;LEFT -->
<g id="edge22" class="edge">
<title>G&#45;&gt;LEFT</title>
<path fill="none" stroke="#00ff00" stroke-width=".4152" d="M163.1459,-162.3037C157.4965,-153.6781 149.4962,-139.8564 146.2498,-126.5048 141.5868,-107.3273 141.6781,-85.3483 143.1173,-67.289"/>
<polygon fill="#00ff00" stroke="#00ff00" stroke-width=".4152" points="146.618,-67.4497 144.0947,-57.1598 139.6503,-66.7774 146.618,-67.4497"/>
</g>
<!-- G&#45;&gt;RIGHT -->
<g id="edge23" class="edge">
<title>G&#45;&gt;RIGHT</title>
<path fill="none" stroke="#00ff00" stroke-width=".1064" d="M174.6294,-162.2317C186.2257,-143.3206 214.1212,-97.8288 233.8387,-65.6736"/>
<polygon fill="#00ff00" stroke="#00ff00" stroke-width=".1064" points="236.9191,-67.3456 239.1629,-56.9911 230.9517,-63.6863 236.9191,-67.3456"/>
</g>
<!-- G&#45;&gt;4 -->
<g id="edge7" class="edge">
<title>G&#45;&gt;4</title>
<path fill="none" stroke="#00ff00" stroke-width=".314" d="M169.2498,-162.2998C169.2498,-155.5729 169.2498,-145.9106 169.2498,-136.8498"/>
<polygon fill="#00ff00" stroke="#00ff00" stroke-width=".314" points="172.7499,-136.7013 169.2498,-126.7013 165.7499,-136.7014 172.7499,-136.7013"/>
</g>
<!-- 4&#45;&gt;LEFT -->
<g id="edge8" class="edge">
<title>4&#45;&gt;LEFT</title>
<path fill="none" stroke="#ff0000" stroke-width=".1257" d="M165.5918,-97.8561C163.3426,-89.1533 160.3514,-77.5798 157.4873,-66.4983"/>
<polygon fill="#ff0000" stroke="#ff0000" stroke-width=".1257" points="160.8088,-65.3622 154.9177,-56.5562 154.0315,-67.1139 160.8088,-65.3622"/>
</g>
<!-- 4&#45;&gt;RIGHT -->
<g id="edge9" class="edge">
<title>4&#45;&gt;RIGHT</title>
<path fill="none" stroke="#ff0000" stroke-width=".2207" d="M179.795,-102.046C191.0502,-91.4122 209.3978,-74.0775 225.182,-59.1646"/>
<polygon fill="#ff0000" stroke="#ff0000" stroke-width=".2207" points="227.8171,-61.49 232.6824,-52.0783 223.0098,-56.4018 227.8171,-61.49"/>
</g>
</g>
</svg>
