<?xml version="1.0" encoding="UTF-8" standalone="no"?>
<!DOCTYPE svg PUBLIC "-//W3C//DTD SVG 1.1//EN"
 "http://www.w3.org/Graphics/SVG/1.1/DTD/svg11.dtd">
<!-- Generated by graphviz version 2.40.1 (20161225.0304)
 -->
<!-- Title: %3 Pages: 1 -->
<svg width="283pt" height="214pt"
 viewBox="0.00 0.00 283.00 213.97" xmlns="http://www.w3.org/2000/svg" xmlns:xlink="http://www.w3.org/1999/xlink">
<g id="graph0" class="graph" transform="scale(1 1) rotate(0) translate(4 209.9655)">
<title>%3</title>
<polygon fill="#ffffff" stroke="transparent" points="-4,4 -4,-209.9655 279,-209.9655 279,4 -4,4"/>
<!-- A -->
<g id="node1" class="node">
<title>A</title>
<polygon fill="#d3d3d3" stroke="#000000" points="23,-205.9655 0,-205.9655 0,-187.9655 23,-187.9655 23,-205.9655"/>
<text text-anchor="middle" x="11.5" y="-194.7655" font-family="Times,serif" font-size="9.00" fill="#000000">A</text>
</g>
<!-- LEFT -->
<g id="node8" class="node">
<title>LEFT</title>
<ellipse fill="#add8e6" stroke="#000000" cx="71.5" cy="-26.8701" rx="26.7407" ry="26.7407"/>
<text text-anchor="middle" x="71.5" y="-24.6701" font-family="Times,serif" font-size="9.00" fill="#000000">LEFT</text>
</g>
<!-- A&#45;&gt;LEFT -->
<g id="edge7" class="edge">
<title>A&#45;&gt;LEFT</title>
<path fill="none" stroke="#ff0000" stroke-width=".1283" d="M14.7259,-187.8204C22.9387,-164.5377 44.9827,-102.0445 59.0619,-62.1311"/>
<polygon fill="#ff0000" stroke="#ff0000" stroke-width=".1283" points="62.4306,-63.1025 62.4565,-52.5077 55.8292,-60.7739 62.4306,-63.1025"/>
</g>
<!-- 15 -->
<g id="node11" class="node">
<title>15</title>
<ellipse fill="#ffffff" stroke="#000000" cx="94.5" cy="-120.8528" rx="18.2703" ry="18.2703"/>
<text text-anchor="middle" x="94.5" y="-118.6528" font-family="Times,serif" font-size="9.00" fill="#000000">15</text>
</g>
<!-- A&#45;&gt;15 -->
<g id="edge1" class="edge">
<title>A&#45;&gt;15</title>
<path fill="none" stroke="#ff0000" stroke-width=".1355" d="M21.3471,-187.9355C34.0416,-176.2944 56.4645,-155.7321 73.1496,-140.4316"/>
<polygon fill="#ff0000" stroke="#ff0000" stroke-width=".1355" points="75.807,-142.7436 80.8117,-133.4053 71.0759,-137.5844 75.807,-142.7436"/>
</g>
<!-- B -->
<g id="node2" class="node">
<title>B</title>
<polygon fill="#d3d3d3" stroke="#000000" points="234,-205.9655 211,-205.9655 211,-187.9655 234,-187.9655 234,-205.9655"/>
<text text-anchor="middle" x="222.5" y="-194.7655" font-family="Times,serif" font-size="9.00" fill="#000000">B</text>
</g>
<!-- RIGHT -->
<g id="node9" class="node">
<title>RIGHT</title>
<ellipse fill="#add8e6" stroke="#000000" cx="222.5" cy="-120.8528" rx="31.2258" ry="31.2258"/>
<text text-anchor="middle" x="222.5" y="-118.6528" font-family="Times,serif" font-size="9.00" fill="#000000">RIGHT</text>
</g>
<!-- B&#45;&gt;RIGHT -->
<g id="edge8" class="edge">
<title>B&#45;&gt;RIGHT</title>
<path fill="none" stroke="#00ff00" stroke-width=".113" d="M222.5,-187.9355C222.5,-181.3889 222.5,-172.021 222.5,-162.3541"/>
<polygon fill="#00ff00" stroke="#00ff00" stroke-width=".113" points="226.0001,-162.2777 222.5,-152.2777 219.0001,-162.2777 226.0001,-162.2777"/>
</g>
<!-- C -->
<g id="node3" class="node">
<title>C</title>
<polygon fill="#d3d3d3" stroke="#000000" points="149,-205.9655 126,-205.9655 126,-187.9655 149,-187.9655 149,-205.9655"/>
<text text-anchor="middle" x="137.5" y="-194.7655" font-family="Times,serif" font-size="9.00" fill="#000000">C</text>
</g>
<!-- 110 -->
<g id="node10" class="node">
<title>110</title>
<ellipse fill="#ffffff" stroke="#000000" cx="152.5" cy="-120.8528" rx="21.4286" ry="21.4286"/>
<text text-anchor="middle" x="152.5" y="-118.6528" font-family="Times,serif" font-size="9.00" fill="#000000">110</text>
</g>
<!-- C&#45;&gt;110 -->
<g id="edge11" class="edge">
<title>C&#45;&gt;110</title>
<path fill="none" stroke="#ff0000" stroke-width=".127" d="M139.2796,-187.9355C141.0309,-179.049 143.8068,-164.9638 146.3638,-151.9891"/>
<polygon fill="#ff0000" stroke="#ff0000" stroke-width=".127" points="149.8441,-152.4304 148.3438,-141.9423 142.9762,-151.0768 149.8441,-152.4304"/>
</g>
<!-- C&#45;&gt;15 -->
<g id="edge2" class="edge">
<title>C&#45;&gt;15</title>
<path fill="none" stroke="#00ff00" stroke-width=".1326" d="M132.3985,-187.9355C126.5952,-177.6634 116.8677,-160.445 108.721,-146.0249"/>
<polygon fill="#00ff00" stroke="#00ff00" stroke-width=".1326" points="111.6191,-144.0391 103.6529,-137.054 105.5245,-147.4823 111.6191,-144.0391"/>
</g>
<!-- D -->
<g id="node4" class="node">
<title>D</title>
<polygon fill="#d3d3d3" stroke="#000000" points="275,-205.9655 252,-205.9655 252,-187.9655 275,-187.9655 275,-205.9655"/>
<text text-anchor="middle" x="263.5" y="-194.7655" font-family="Times,serif" font-size="9.00" fill="#000000">D</text>
</g>
<!-- E -->
<g id="node5" class="node">
<title>E</title>
<polygon fill="#d3d3d3" stroke="#000000" points="105.5,-205.9655 83.5,-205.9655 83.5,-187.9655 105.5,-187.9655 105.5,-205.9655"/>
<text text-anchor="middle" x="94.5" y="-194.7655" font-family="Times,serif" font-size="9.00" fill="#000000">E</text>
</g>
<!-- E&#45;&gt;15 -->
<g id="edge3" class="edge">
<title>E&#45;&gt;15</title>
<path fill="none" stroke="#ff0000" stroke-width=".1397" d="M94.5,-187.9355C94.5,-178.5519 94.5,-163.3716 94.5,-149.8231"/>
<polygon fill="#ff0000" stroke="#ff0000" stroke-width=".1397" points="98.0001,-149.4492 94.5,-139.4492 91.0001,-149.4493 98.0001,-149.4492"/>
</g>
<!-- F -->
<g id="node6" class="node">
<title>F</title>
<polygon fill="#d3d3d3" stroke="#000000" points="191.5,-205.9655 169.5,-205.9655 169.5,-187.9655 191.5,-187.9655 191.5,-205.9655"/>
<text text-anchor="middle" x="180.5" y="-194.7655" font-family="Times,serif" font-size="9.00" fill="#000000">F</text>
</g>
<!-- F&#45;&gt;RIGHT -->
<g id="edge9" class="edge">
<title>F&#45;&gt;RIGHT</title>
<path fill="none" stroke="#ff0000" stroke-width=".2239" d="M185.4829,-187.9355C189.735,-180.2297 196.1442,-168.615 202.4404,-157.2049"/>
<polygon fill="#ff0000" stroke="#ff0000" stroke-width=".2239" points="205.6553,-158.6231 207.4223,-148.1767 199.5265,-155.2412 205.6553,-158.6231"/>
</g>
<!-- F&#45;&gt;15 -->
<g id="edge4" class="edge">
<title>F&#45;&gt;15</title>
<path fill="none" stroke="#ff0000" stroke-width=".2847" d="M169.3431,-189.2212C157.3063,-180.6619 137.8086,-166.1963 122.5,-151.9655 119.4729,-149.1515 116.4088,-146.0522 113.4736,-142.9333"/>
<polygon fill="#ff0000" stroke="#ff0000" stroke-width=".2847" points="115.8497,-140.3435 106.5372,-135.2911 110.6664,-145.0482 115.8497,-140.3435"/>
</g>
<!-- G -->
<g id="node7" class="node">
<title>G</title>
<polygon fill="#d3d3d3" stroke="#000000" points="65,-205.9655 42,-205.9655 42,-187.9655 65,-187.9655 65,-205.9655"/>
<text text-anchor="middle" x="53.5" y="-194.7655" font-family="Times,serif" font-size="9.00" fill="#000000">G</text>
</g>
<!-- G&#45;&gt;LEFT -->
<g id="edge10" class="edge">
<title>G&#45;&gt;LEFT</title>
<path fill="none" stroke="#ff0000" stroke-width=".4384" d="M54.4678,-187.8204C56.8944,-164.8897 63.3458,-103.9253 67.5754,-63.9568"/>
<polygon fill="#ff0000" stroke="#ff0000" stroke-width=".4384" points="71.0797,-64.0998 68.6516,-53.787 64.1186,-63.3631 71.0797,-64.0998"/>
</g>
<!-- G&#45;&gt;15 -->
<g id="edge5" class="edge">
<title>G&#45;&gt;15</title>
<path fill="none" stroke="#00ff00" stroke-width=".2129" d="M58.3642,-187.9355C63.8976,-177.6634 73.1727,-160.445 80.9404,-146.0249"/>
<polygon fill="#00ff00" stroke="#00ff00" stroke-width=".2129" points="84.1117,-147.5178 85.7728,-137.054 77.9489,-144.1981 84.1117,-147.5178"/>
</g>
<!-- 110&#45;&gt;LEFT -->
<g id="edge12" class="edge">
<title>110&#45;&gt;LEFT</title>
<path fill="none" stroke="#00ff00" stroke-width=".4063" d="M138.3909,-104.4823C126.6273,-90.8332 109.6023,-71.0795 95.6725,-54.917"/>
<polygon fill="#00ff00" stroke="#00ff00" stroke-width=".4063" points="98.2992,-52.6035 89.1195,-47.3136 92.9968,-57.1735 98.2992,-52.6035"/>
</g>
<!-- 15&#45;&gt;LEFT -->
<g id="edge6" class="edge">
<title>15&#45;&gt;LEFT</title>
<path fill="none" stroke="#00ff00" stroke-width=".2252" d="M90.0654,-102.732C87.3192,-91.5105 83.6954,-76.7028 80.3788,-63.1506"/>
<polygon fill="#00ff00" stroke="#00ff00" stroke-width=".2252" points="83.6989,-61.9933 77.9221,-53.112 76.8996,-63.6573 83.6989,-61.9933"/>
</g>
</g>
</svg>
