<?xml version="1.0" encoding="UTF-8" standalone="no"?>
<!DOCTYPE svg PUBLIC "-//W3C//DTD SVG 1.1//EN"
 "http://www.w3.org/Graphics/SVG/1.1/DTD/svg11.dtd">
<!-- Generated by graphviz version 2.40.1 (20161225.0304)
 -->
<!-- Title: %3 Pages: 1 -->
<svg width="461pt" height="197pt"
 viewBox="0.00 0.00 460.88 196.99" xmlns="http://www.w3.org/2000/svg" xmlns:xlink="http://www.w3.org/1999/xlink">
<g id="graph0" class="graph" transform="scale(1 1) rotate(0) translate(4 192.9949)">
<title>%3</title>
<polygon fill="#ffffff" stroke="transparent" points="-4,4 -4,-192.9949 456.8848,-192.9949 456.8848,4 -4,4"/>
<!-- A -->
<g id="node1" class="node">
<title>A</title>
<polygon fill="#d3d3d3" stroke="#000000" points="105,-188.9949 82,-188.9949 82,-170.9949 105,-170.9949 105,-188.9949"/>
<text text-anchor="middle" x="93.5" y="-177.7949" font-family="Times,serif" font-size="9.00" fill="#000000">A</text>
</g>
<!-- LEFT -->
<g id="node8" class="node">
<title>LEFT</title>
<ellipse fill="#add8e6" stroke="#000000" cx="293.5" cy="-31.1127" rx="26.7407" ry="26.7407"/>
<text text-anchor="middle" x="293.5" y="-28.9127" font-family="Times,serif" font-size="9.00" fill="#000000">LEFT</text>
</g>
<!-- A&#45;&gt;LEFT -->
<g id="edge7" class="edge">
<title>A&#45;&gt;LEFT</title>
<path fill="none" stroke="#ff0000" stroke-width="1.1041" d="M105.3368,-174.4312C108.2867,-173.1818 111.4727,-171.9462 114.5,-170.9949 189.8393,-147.3215 237.1776,-195.0154 288.5,-134.9949 304.1003,-116.7507 304.846,-89.4395 301.9584,-67.3989"/>
<polygon fill="#ff0000" stroke="#ff0000" stroke-width="1.1041" points="305.3917,-66.7031 300.3576,-57.3806 298.4794,-67.8077 305.3917,-66.7031"/>
</g>
<!-- RIGHT -->
<g id="node9" class="node">
<title>RIGHT</title>
<ellipse fill="#add8e6" stroke="#000000" cx="115.5" cy="-31.1127" rx="31.2258" ry="31.2258"/>
<text text-anchor="middle" x="115.5" y="-28.9127" font-family="Times,serif" font-size="9.00" fill="#000000">RIGHT</text>
</g>
<!-- A&#45;&gt;RIGHT -->
<g id="edge8" class="edge">
<title>A&#45;&gt;RIGHT</title>
<path fill="none" stroke="#00ff00" stroke-width=".3409" d="M81.7023,-172.3507C70.7561,-164.4843 55.1804,-151.1228 48.5,-134.9949 42.2462,-119.8969 42.2525,-113.3261 48.5,-98.2254 55.4323,-81.4694 68.8015,-66.7087 81.7856,-55.3279"/>
<polygon fill="#00ff00" stroke="#00ff00" stroke-width=".3409" points="84.3125,-57.7785 89.7593,-48.691 79.8343,-52.3984 84.3125,-57.7785"/>
</g>
<!-- 9 -->
<g id="node11" class="node">
<title>9</title>
<ellipse fill="#ffffff" stroke="#000000" cx="72.5" cy="-116.6102" rx="14.7" ry="14.7"/>
<text text-anchor="middle" x="72.5" y="-114.4102" font-family="Times,serif" font-size="9.00" fill="#000000">9</text>
</g>
<!-- A&#45;&gt;9 -->
<g id="edge1" class="edge">
<title>A&#45;&gt;9</title>
<path fill="none" stroke="#ff0000" stroke-width=".7553" d="M90.4912,-170.9135C87.8785,-163.0274 83.9745,-151.244 80.4703,-140.6671"/>
<polygon fill="#ff0000" stroke="#ff0000" stroke-width=".7553" points="83.7557,-139.4544 77.2882,-131.0625 77.1109,-141.6559 83.7557,-139.4544"/>
</g>
<!-- B -->
<g id="node2" class="node">
<title>B</title>
<polygon fill="#d3d3d3" stroke="#000000" points="23,-188.9949 0,-188.9949 0,-170.9949 23,-170.9949 23,-188.9949"/>
<text text-anchor="middle" x="11.5" y="-177.7949" font-family="Times,serif" font-size="9.00" fill="#000000">B</text>
</g>
<!-- B&#45;&gt;LEFT -->
<g id="edge9" class="edge">
<title>B&#45;&gt;LEFT</title>
<path fill="none" stroke="#ff0000" stroke-width=".6223" d="M23.1472,-174.1354C25.8392,-172.9561 28.728,-171.8255 31.5,-170.9949 128.0908,-142.055 177.7158,-199.1583 255.5,-134.9949 275.4123,-118.5695 284.8904,-90.754 289.402,-68.0375"/>
<polygon fill="#ff0000" stroke="#ff0000" stroke-width=".6223" points="292.8792,-68.4702 291.145,-58.0183 285.9828,-67.2704 292.8792,-68.4702"/>
</g>
<!-- B&#45;&gt;RIGHT -->
<g id="edge10" class="edge">
<title>B&#45;&gt;RIGHT</title>
<path fill="none" stroke="#00ff00" stroke-width="1.0052" stroke-dasharray="1,5" d="M13.1608,-170.9821C16.3926,-155.1698 24.6419,-121.8675 40.5,-98.2254 51.4841,-81.8497 67.3586,-66.8698 81.6774,-55.2374"/>
<polygon fill="#00ff00" stroke="#00ff00" stroke-width="1.0052" points="84.1807,-57.7215 89.8796,-48.7899 79.8547,-52.2182 84.1807,-57.7215"/>
</g>
<!-- B&#45;&gt;9 -->
<g id="edge2" class="edge">
<title>B&#45;&gt;9</title>
<path fill="none" stroke="#00ff00" stroke-width=".2913" d="M20.2398,-170.9135C29.3199,-161.4784 43.7687,-146.4647 55.1747,-134.6128"/>
<polygon fill="#00ff00" stroke="#00ff00" stroke-width=".2913" points="57.7312,-137.0038 62.1435,-127.3715 52.6874,-132.1499 57.7312,-137.0038"/>
</g>
<!-- C -->
<g id="node3" class="node">
<title>C</title>
<polygon fill="#d3d3d3" stroke="#000000" points="246,-125.6102 223,-125.6102 223,-107.6102 246,-107.6102 246,-125.6102"/>
<text text-anchor="middle" x="234.5" y="-114.4102" font-family="Times,serif" font-size="9.00" fill="#000000">C</text>
</g>
<!-- C&#45;&gt;LEFT -->
<g id="edge11" class="edge">
<title>C&#45;&gt;LEFT</title>
<path fill="none" stroke="#ff0000" stroke-width=".5783" d="M240.814,-107.4604C248.2886,-96.629 261.128,-78.0233 272.2604,-61.8912"/>
<polygon fill="#ff0000" stroke="#ff0000" stroke-width=".5783" points="275.4255,-63.467 278.2245,-53.2486 269.6641,-59.4912 275.4255,-63.467"/>
</g>
<!-- C&#45;&gt;RIGHT -->
<g id="edge12" class="edge">
<title>C&#45;&gt;RIGHT</title>
<path fill="none" stroke="#00ff00" stroke-width=".4254" d="M224.9885,-107.3354C221.7502,-104.3233 218.0502,-101.0354 214.5,-98.2254 194.1683,-82.1327 170.1157,-65.7708 150.81,-53.2316"/>
<polygon fill="#00ff00" stroke="#00ff00" stroke-width=".4254" points="152.6067,-50.2257 142.3042,-47.754 148.8167,-56.111 152.6067,-50.2257"/>
</g>
<!-- D -->
<g id="node4" class="node">
<title>D</title>
<polygon fill="#d3d3d3" stroke="#000000" points="64,-188.9949 41,-188.9949 41,-170.9949 64,-170.9949 64,-188.9949"/>
<text text-anchor="middle" x="52.5" y="-177.7949" font-family="Times,serif" font-size="9.00" fill="#000000">D</text>
</g>
<!-- D&#45;&gt;9 -->
<g id="edge3" class="edge">
<title>D&#45;&gt;9</title>
<path fill="none" stroke="#ff0000" stroke-width=".1016" stroke-dasharray="1,5" d="M55.3655,-170.9135C57.8538,-163.0274 61.5719,-151.244 64.9093,-140.6671"/>
<polygon fill="#ff0000" stroke="#ff0000" stroke-width=".1016" points="68.2684,-141.6523 67.9398,-131.0625 61.5928,-139.5459 68.2684,-141.6523"/>
</g>
<!-- E -->
<g id="node5" class="node">
<title>E</title>
<polygon fill="#d3d3d3" stroke="#000000" points="399.5,-188.9949 377.5,-188.9949 377.5,-170.9949 399.5,-170.9949 399.5,-188.9949"/>
<text text-anchor="middle" x="388.5" y="-177.7949" font-family="Times,serif" font-size="9.00" fill="#000000">E</text>
</g>
<!-- E&#45;&gt;LEFT -->
<g id="edge13" class="edge">
<title>E&#45;&gt;LEFT</title>
<path fill="none" stroke="#ff0000" stroke-width=".1483" stroke-dasharray="1,5" d="M387.3944,-170.7725C385.1607,-154.9253 379.0267,-121.945 364.5,-98.2254 353.9105,-80.9346 337.7296,-65.1583 323.488,-53.2522"/>
<polygon fill="#ff0000" stroke="#ff0000" stroke-width=".1483" points="325.3626,-50.2673 315.3838,-46.7071 320.9644,-55.7131 325.3626,-50.2673"/>
</g>
<!-- E&#45;&gt;RIGHT -->
<g id="edge20" class="edge">
<title>E&#45;&gt;RIGHT</title>
<path fill="none" stroke="#ff0000" stroke-width=".1359" d="M377.3142,-178.9016C337.8789,-174.862 205.906,-159.7207 172.5,-134.9949 151.1827,-119.2167 136.8802,-92.9843 127.9336,-70.8288"/>
<polygon fill="#ff0000" stroke="#ff0000" stroke-width=".1359" points="131.1377,-69.4079 124.3082,-61.3079 124.5959,-71.8989 131.1377,-69.4079"/>
</g>
<!-- 91 -->
<g id="node10" class="node">
<title>91</title>
<ellipse fill="#ffffff" stroke="#000000" cx="434.5" cy="-116.6102" rx="18.2703" ry="18.2703"/>
<text text-anchor="middle" x="434.5" y="-114.4102" font-family="Times,serif" font-size="9.00" fill="#000000">91</text>
</g>
<!-- E&#45;&gt;91 -->
<g id="edge18" class="edge">
<title>E&#45;&gt;91</title>
<path fill="none" stroke="#00ff00" stroke-width=".3411" d="M395.0907,-170.9135C400.9714,-162.8103 409.8384,-150.5921 417.6733,-139.7962"/>
<polygon fill="#00ff00" stroke="#00ff00" stroke-width=".3411" points="420.6178,-141.6978 423.6587,-131.5487 414.9525,-137.5863 420.6178,-141.6978"/>
</g>
<!-- F -->
<g id="node6" class="node">
<title>F</title>
<polygon fill="#d3d3d3" stroke="#000000" points="145.5,-188.9949 123.5,-188.9949 123.5,-170.9949 145.5,-170.9949 145.5,-188.9949"/>
<text text-anchor="middle" x="134.5" y="-177.7949" font-family="Times,serif" font-size="9.00" fill="#000000">F</text>
</g>
<!-- F&#45;&gt;LEFT -->
<g id="edge14" class="edge">
<title>F&#45;&gt;LEFT</title>
<path fill="none" stroke="#00ff00" stroke-width=".3132" d="M145.6751,-179.1431C183.1937,-176.0298 303.5835,-163.9035 326.5,-134.9949 343.5195,-113.5253 330.7332,-83.1134 316.4108,-60.7409"/>
<polygon fill="#00ff00" stroke="#00ff00" stroke-width=".3132" points="319.1974,-58.6138 310.6922,-52.2963 313.4014,-62.5389 319.1974,-58.6138"/>
</g>
<!-- F&#45;&gt;RIGHT -->
<g id="edge15" class="edge">
<title>F&#45;&gt;RIGHT</title>
<path fill="none" stroke="#00ff00" stroke-width=".6037" d="M133.3115,-170.6817C130.8524,-151.4126 125.0757,-106.1472 120.7635,-72.3574"/>
<polygon fill="#00ff00" stroke="#00ff00" stroke-width=".6037" points="124.2154,-71.7572 119.4776,-62.2808 117.2718,-72.6434 124.2154,-71.7572"/>
</g>
<!-- F&#45;&gt;9 -->
<g id="edge4" class="edge">
<title>F&#45;&gt;9</title>
<path fill="none" stroke="#00ff00" stroke-width=".1458" d="M125.6169,-170.9135C116.388,-161.4784 101.7023,-146.4647 90.1094,-134.6128"/>
<polygon fill="#00ff00" stroke="#00ff00" stroke-width=".1458" points="92.5209,-132.0729 83.0262,-127.3715 87.5167,-136.9677 92.5209,-132.0729"/>
</g>
<!-- G -->
<g id="node7" class="node">
<title>G</title>
<polygon fill="#d3d3d3" stroke="#000000" points="205,-125.6102 182,-125.6102 182,-107.6102 205,-107.6102 205,-125.6102"/>
<text text-anchor="middle" x="193.5" y="-114.4102" font-family="Times,serif" font-size="9.00" fill="#000000">G</text>
</g>
<!-- G&#45;&gt;LEFT -->
<g id="edge16" class="edge">
<title>G&#45;&gt;LEFT</title>
<path fill="none" stroke="#ff0000" stroke-width=".2256" d="M203.7273,-107.6026C207.1435,-104.6083 210.9773,-101.2634 214.5,-98.2254 231.0583,-83.9453 249.6942,-68.1027 264.7058,-55.3974"/>
<polygon fill="#ff0000" stroke="#ff0000" stroke-width=".2256" points="267.2603,-57.821 272.6365,-48.6916 262.7405,-52.4757 267.2603,-57.821"/>
</g>
<!-- G&#45;&gt;RIGHT -->
<g id="edge17" class="edge">
<title>G&#45;&gt;RIGHT</title>
<path fill="none" stroke="#00ff00" stroke-width=".3529" d="M185.1526,-107.4604C175.2907,-96.6505 158.3644,-78.0973 143.6673,-61.9875"/>
<polygon fill="#00ff00" stroke="#00ff00" stroke-width=".3529" points="145.9976,-59.3487 136.6722,-54.32 140.8263,-64.0665 145.9976,-59.3487"/>
</g>
<!-- 91&#45;&gt;LEFT -->
<g id="edge19" class="edge">
<title>91&#45;&gt;LEFT</title>
<path fill="none" stroke="#00ff00" stroke-width=".1126" d="M418.5996,-106.9687C396.0163,-93.275 354.1736,-67.903 325.1316,-50.293"/>
<polygon fill="#00ff00" stroke="#00ff00" stroke-width=".1126" points="326.9306,-47.2907 316.5651,-45.0985 323.3012,-53.2763 326.9306,-47.2907"/>
</g>
<!-- 9&#45;&gt;LEFT -->
<g id="edge5" class="edge">
<title>9&#45;&gt;LEFT</title>
<path fill="none" stroke="#00ff00" stroke-width=".3058" d="M86.6607,-111.1319C120.9748,-97.8569 209.3734,-63.6584 258.7792,-44.545"/>
<polygon fill="#00ff00" stroke="#00ff00" stroke-width=".3058" points="260.3412,-47.6936 268.4048,-40.8212 257.8155,-41.1651 260.3412,-47.6936"/>
</g>
<!-- 9&#45;&gt;RIGHT -->
<g id="edge6" class="edge">
<title>9&#45;&gt;RIGHT</title>
<path fill="none" stroke="#00ff00" stroke-width=".5153" stroke-dasharray="1,5" d="M79.2188,-103.2512C83.9244,-93.8949 90.4611,-80.898 96.6914,-68.5101"/>
<polygon fill="#00ff00" stroke="#00ff00" stroke-width=".5153" points="99.9943,-69.7326 101.3606,-59.2262 93.7406,-66.5873 99.9943,-69.7326"/>
</g>
</g>
</svg>
