<?xml version="1.0" encoding="UTF-8" standalone="no"?>
<!DOCTYPE svg PUBLIC "-//W3C//DTD SVG 1.1//EN"
 "http://www.w3.org/Graphics/SVG/1.1/DTD/svg11.dtd">
<!-- Generated by graphviz version 2.40.1 (20161225.0304)
 -->
<!-- Title: %3 Pages: 1 -->
<svg width="272pt" height="214pt"
 viewBox="0.00 0.00 271.50 213.97" xmlns="http://www.w3.org/2000/svg" xmlns:xlink="http://www.w3.org/1999/xlink">
<g id="graph0" class="graph" transform="scale(1 1) rotate(0) translate(4 209.9655)">
<title>%3</title>
<polygon fill="#ffffff" stroke="transparent" points="-4,4 -4,-209.9655 267.5,-209.9655 267.5,4 -4,4"/>
<!-- A -->
<g id="node1" class="node">
<title>A</title>
<polygon fill="#d3d3d3" stroke="#000000" points="181.5,-134.0955 158.5,-134.0955 158.5,-116.0955 181.5,-116.0955 181.5,-134.0955"/>
<text text-anchor="middle" x="170" y="-122.8955" font-family="Times,serif" font-size="9.00" fill="#000000">A</text>
</g>
<!-- RIGHT -->
<g id="node9" class="node">
<title>RIGHT</title>
<ellipse fill="#add8e6" stroke="#000000" cx="170" cy="-31.1127" rx="31.2258" ry="31.2258"/>
<text text-anchor="middle" x="170" y="-28.9127" font-family="Times,serif" font-size="9.00" fill="#000000">RIGHT</text>
</g>
<!-- A&#45;&gt;RIGHT -->
<g id="edge1" class="edge">
<title>A&#45;&gt;RIGHT</title>
<path fill="none" stroke="#00ff00" stroke-width=".1434" d="M170,-116.084C170,-106.059 170,-89.1457 170,-73.0362"/>
<polygon fill="#00ff00" stroke="#00ff00" stroke-width=".1434" points="173.5001,-72.6465 170,-62.6466 166.5001,-72.6466 173.5001,-72.6465"/>
</g>
<!-- B -->
<g id="node2" class="node">
<title>B</title>
<polygon fill="#d3d3d3" stroke="#000000" points="144.5,-205.9655 121.5,-205.9655 121.5,-187.9655 144.5,-187.9655 144.5,-205.9655"/>
<text text-anchor="middle" x="133" y="-194.7655" font-family="Times,serif" font-size="9.00" fill="#000000">B</text>
</g>
<!-- LEFT -->
<g id="node8" class="node">
<title>LEFT</title>
<ellipse fill="#add8e6" stroke="#000000" cx="114" cy="-125.0955" rx="26.7407" ry="26.7407"/>
<text text-anchor="middle" x="114" y="-122.8955" font-family="Times,serif" font-size="9.00" fill="#000000">LEFT</text>
</g>
<!-- B&#45;&gt;LEFT -->
<g id="edge2" class="edge">
<title>B&#45;&gt;LEFT</title>
<path fill="none" stroke="#ff0000" stroke-width=".5134" d="M130.5936,-187.8631C128.7663,-180.9509 126.1253,-170.9612 123.4859,-160.977"/>
<polygon fill="#ff0000" stroke="#ff0000" stroke-width=".5134" points="126.8167,-159.8822 120.8771,-151.1089 120.0492,-161.6713 126.8167,-159.8822"/>
</g>
<!-- B&#45;&gt;RIGHT -->
<g id="edge3" class="edge">
<title>B&#45;&gt;RIGHT</title>
<path fill="none" stroke="#00ff00" stroke-width=".6407" stroke-dasharray="1,5" d="M144.8115,-191.6725C158.5841,-184.7688 180.6529,-171.2537 190,-151.9655 202.6087,-125.9468 196.1846,-93.4791 187.3871,-68.7502"/>
<polygon fill="#00ff00" stroke="#00ff00" stroke-width=".6407" points="190.633,-67.4392 183.7971,-59.3447 184.0932,-69.9354 190.633,-67.4392"/>
</g>
<!-- 42 -->
<g id="node10" class="node">
<title>42</title>
<ellipse fill="#ffffff" stroke="#000000" cx="51" cy="-125.0955" rx="18.2703" ry="18.2703"/>
<text text-anchor="middle" x="51" y="-122.8955" font-family="Times,serif" font-size="9.00" fill="#000000">42</text>
</g>
<!-- B&#45;&gt;42 -->
<g id="edge13" class="edge">
<title>B&#45;&gt;42</title>
<path fill="none" stroke="#00ff00" stroke-width=".1107" d="M121.352,-187.9736C110.0284,-179.1079 92.469,-165.028 78,-151.9655 75.7911,-149.9713 73.5245,-147.8479 71.2887,-145.7024"/>
<polygon fill="#00ff00" stroke="#00ff00" stroke-width=".1107" points="73.5212,-142.9893 63.9347,-138.4781 68.6157,-147.9829 73.5212,-142.9893"/>
</g>
<!-- C -->
<g id="node3" class="node">
<title>C</title>
<polygon fill="#d3d3d3" stroke="#000000" points="103.5,-205.9655 80.5,-205.9655 80.5,-187.9655 103.5,-187.9655 103.5,-205.9655"/>
<text text-anchor="middle" x="92" y="-194.7655" font-family="Times,serif" font-size="9.00" fill="#000000">C</text>
</g>
<!-- C&#45;&gt;LEFT -->
<g id="edge4" class="edge">
<title>C&#45;&gt;LEFT</title>
<path fill="none" stroke="#ff0000" stroke-width=".5267" d="M94.7863,-187.8631C96.9418,-180.8216 100.0748,-170.5865 103.1878,-160.417"/>
<polygon fill="#ff0000" stroke="#ff0000" stroke-width=".5267" points="106.5533,-161.3798 106.1337,-150.7932 99.8599,-159.3308 106.5533,-161.3798"/>
</g>
<!-- C&#45;&gt;42 -->
<g id="edge11" class="edge">
<title>C&#45;&gt;42</title>
<path fill="none" stroke="#ff0000" stroke-width=".3508" d="M86.8073,-187.8631C81.4321,-178.4408 72.7948,-163.3003 65.3501,-150.2501"/>
<polygon fill="#ff0000" stroke="#ff0000" stroke-width=".3508" points="68.1989,-148.1804 60.2036,-141.2287 62.1187,-151.649 68.1989,-148.1804"/>
</g>
<!-- D -->
<g id="node4" class="node">
<title>D</title>
<polygon fill="#d3d3d3" stroke="#000000" points="263.5,-205.9655 240.5,-205.9655 240.5,-187.9655 263.5,-187.9655 263.5,-205.9655"/>
<text text-anchor="middle" x="252" y="-194.7655" font-family="Times,serif" font-size="9.00" fill="#000000">D</text>
</g>
<!-- E -->
<g id="node5" class="node">
<title>E</title>
<polygon fill="#d3d3d3" stroke="#000000" points="62,-205.9655 40,-205.9655 40,-187.9655 62,-187.9655 62,-205.9655"/>
<text text-anchor="middle" x="51" y="-194.7655" font-family="Times,serif" font-size="9.00" fill="#000000">E</text>
</g>
<!-- E&#45;&gt;LEFT -->
<g id="edge5" class="edge">
<title>E&#45;&gt;LEFT</title>
<path fill="none" stroke="#ff0000" stroke-width="1.2245" d="M58.979,-187.8631C66.584,-179.1874 78.4386,-165.6637 89.1995,-153.3877"/>
<polygon fill="#ff0000" stroke="#ff0000" stroke-width="1.2245" points="92.0975,-155.3913 96.0574,-145.5643 86.8336,-150.7771 92.0975,-155.3913"/>
</g>
<!-- E&#45;&gt;RIGHT -->
<g id="edge6" class="edge">
<title>E&#45;&gt;RIGHT</title>
<path fill="none" stroke="#ff0000" stroke-width=".5079" stroke-dasharray="1,5" d="M43.9464,-187.7882C30.7542,-169.4204 5.3002,-127.402 24,-98.2254 47.0173,-62.3123 94.6249,-45.3574 129.2361,-37.5259"/>
<polygon fill="#ff0000" stroke="#ff0000" stroke-width=".5079" points="130.0009,-40.9417 139.0697,-35.4639 128.5643,-34.0907 130.0009,-40.9417"/>
</g>
<!-- E&#45;&gt;42 -->
<g id="edge9" class="edge">
<title>E&#45;&gt;42</title>
<path fill="none" stroke="#ff0000" stroke-width=".387" stroke-dasharray="1,5" d="M51,-187.8631C51,-179.2741 51,-165.9337 51,-153.7564"/>
<polygon fill="#ff0000" stroke="#ff0000" stroke-width=".387" points="54.5001,-153.5031 51,-143.5032 47.5001,-153.5032 54.5001,-153.5031"/>
</g>
<!-- F -->
<g id="node6" class="node">
<title>F</title>
<polygon fill="#d3d3d3" stroke="#000000" points="22,-205.9655 0,-205.9655 0,-187.9655 22,-187.9655 22,-205.9655"/>
<text text-anchor="middle" x="11" y="-194.7655" font-family="Times,serif" font-size="9.00" fill="#000000">F</text>
</g>
<!-- F&#45;&gt;42 -->
<g id="edge12" class="edge">
<title>F&#45;&gt;42</title>
<path fill="none" stroke="#ff0000" stroke-width=".6101" d="M16.066,-187.8631C21.3101,-178.4408 29.7367,-163.3003 36.9999,-150.2501"/>
<polygon fill="#ff0000" stroke="#ff0000" stroke-width=".6101" points="40.2159,-151.6687 42.0209,-141.2287 34.0994,-148.2644 40.2159,-151.6687"/>
</g>
<!-- G -->
<g id="node7" class="node">
<title>G</title>
<polygon fill="#d3d3d3" stroke="#000000" points="222.5,-205.9655 199.5,-205.9655 199.5,-187.9655 222.5,-187.9655 222.5,-205.9655"/>
<text text-anchor="middle" x="211" y="-194.7655" font-family="Times,serif" font-size="9.00" fill="#000000">G</text>
</g>
<!-- G&#45;&gt;LEFT -->
<g id="edge7" class="edge">
<title>G&#45;&gt;LEFT</title>
<path fill="none" stroke="#ff0000" stroke-width=".2008" d="M199.0447,-188.4331C186.5075,-179.4517 166.2657,-164.8552 149,-151.9655 147.2045,-150.6251 145.3623,-149.2401 143.5076,-147.8384"/>
<polygon fill="#ff0000" stroke="#ff0000" stroke-width=".2008" points="145.4795,-144.9408 135.4018,-141.671 141.2408,-150.5116 145.4795,-144.9408"/>
</g>
<!-- G&#45;&gt;RIGHT -->
<g id="edge8" class="edge">
<title>G&#45;&gt;RIGHT</title>
<path fill="none" stroke="#ff0000" stroke-width=".1784" d="M212.1646,-187.7605C214.0943,-170.0358 216.9178,-130.1015 208,-98.2254 204.8193,-86.8561 199.3218,-75.3571 193.4807,-65.1665"/>
<polygon fill="#ff0000" stroke="#ff0000" stroke-width=".1784" points="196.4681,-63.3426 188.3088,-56.5841 190.4725,-66.9557 196.4681,-63.3426"/>
</g>
<!-- 42&#45;&gt;RIGHT -->
<g id="edge10" class="edge">
<title>42&#45;&gt;RIGHT</title>
<path fill="none" stroke="#ff0000" stroke-width=".3501" d="M63.7986,-111.5577C68.1674,-107.1564 73.1714,-102.3473 78,-98.2254 96.2202,-82.6715 117.8038,-66.806 135.4847,-54.4084"/>
<polygon fill="#ff0000" stroke="#ff0000" stroke-width=".3501" points="137.6039,-57.1979 143.8191,-48.6175 133.6097,-51.4493 137.6039,-57.1979"/>
</g>
</g>
</svg>
