<?xml version="1.0" encoding="UTF-8" standalone="no"?>
<!DOCTYPE svg PUBLIC "-//W3C//DTD SVG 1.1//EN"
 "http://www.w3.org/Graphics/SVG/1.1/DTD/svg11.dtd">
<!-- Generated by graphviz version 2.40.1 (20161225.0304)
 -->
<!-- Title: %3 Pages: 1 -->
<svg width="277pt" height="124pt"
 viewBox="0.00 0.00 277.00 124.23" xmlns="http://www.w3.org/2000/svg" xmlns:xlink="http://www.w3.org/1999/xlink">
<g id="graph0" class="graph" transform="scale(1 1) rotate(0) translate(4 120.2254)">
<title>%3</title>
<polygon fill="#ffffff" stroke="transparent" points="-4,4 -4,-120.2254 273,-120.2254 273,4 -4,4"/>
<!-- A -->
<g id="node1" class="node">
<title>A</title>
<polygon fill="#d3d3d3" stroke="#000000" points="23,-116.2254 0,-116.2254 0,-98.2254 23,-98.2254 23,-116.2254"/>
<text text-anchor="middle" x="11.5" y="-105.0254" font-family="Times,serif" font-size="9.00" fill="#000000">A</text>
</g>
<!-- LEFT -->
<g id="node8" class="node">
<title>LEFT</title>
<ellipse fill="#add8e6" stroke="#000000" cx="55.5" cy="-31.1127" rx="26.7407" ry="26.7407"/>
<text text-anchor="middle" x="55.5" y="-28.9127" font-family="Times,serif" font-size="9.00" fill="#000000">LEFT</text>
</g>
<!-- A&#45;&gt;LEFT -->
<g id="edge1" class="edge">
<title>A&#45;&gt;LEFT</title>
<path fill="none" stroke="#ff0000" stroke-width=".3778" d="M16.7202,-98.1954C21.7026,-89.5766 29.5121,-76.0674 36.821,-63.4242"/>
<polygon fill="#ff0000" stroke="#ff0000" stroke-width=".3778" points="40.0323,-64.8625 42.007,-54.4533 33.9721,-61.3591 40.0323,-64.8625"/>
</g>
<!-- RIGHT -->
<g id="node9" class="node">
<title>RIGHT</title>
<ellipse fill="#add8e6" stroke="#000000" cx="132.5" cy="-31.1127" rx="31.2258" ry="31.2258"/>
<text text-anchor="middle" x="132.5" y="-28.9127" font-family="Times,serif" font-size="9.00" fill="#000000">RIGHT</text>
</g>
<!-- A&#45;&gt;RIGHT -->
<g id="edge2" class="edge">
<title>A&#45;&gt;RIGHT</title>
<path fill="none" stroke="#ff0000" stroke-width="1.011" d="M23.1852,-101.2966C39.0326,-93.1124 68.0521,-77.6133 91.5,-62.2254 94.1053,-60.5156 96.7617,-58.6943 99.4069,-56.8235"/>
<polygon fill="#ff0000" stroke="#ff0000" stroke-width="1.011" points="101.7167,-59.4713 107.7412,-50.756 97.5967,-53.8121 101.7167,-59.4713"/>
</g>
<!-- B -->
<g id="node2" class="node">
<title>B</title>
<polygon fill="#d3d3d3" stroke="#000000" points="64,-116.2254 41,-116.2254 41,-98.2254 64,-98.2254 64,-116.2254"/>
<text text-anchor="middle" x="52.5" y="-105.0254" font-family="Times,serif" font-size="9.00" fill="#000000">B</text>
</g>
<!-- B&#45;&gt;LEFT -->
<g id="edge3" class="edge">
<title>B&#45;&gt;LEFT</title>
<path fill="none" stroke="#ff0000" stroke-width=".5697" stroke-dasharray="1,5" d="M52.8559,-98.1954C53.153,-90.6582 53.5975,-79.3812 54.0376,-68.2139"/>
<polygon fill="#ff0000" stroke="#ff0000" stroke-width=".5697" points="57.5397,-68.2296 54.4363,-58.0995 50.5451,-67.9539 57.5397,-68.2296"/>
</g>
<!-- B&#45;&gt;RIGHT -->
<g id="edge4" class="edge">
<title>B&#45;&gt;RIGHT</title>
<path fill="none" stroke="#ff0000" stroke-width=".2641" stroke-dasharray="1,5" d="M61.9912,-98.1954C71.9304,-88.7392 88.0569,-73.3962 102.3803,-59.7688"/>
<polygon fill="#ff0000" stroke="#ff0000" stroke-width=".2641" points="104.8315,-62.2678 109.6639,-52.8392 100.0064,-57.1963 104.8315,-62.2678"/>
</g>
<!-- C -->
<g id="node3" class="node">
<title>C</title>
<polygon fill="#d3d3d3" stroke="#000000" points="105,-116.2254 82,-116.2254 82,-98.2254 105,-98.2254 105,-116.2254"/>
<text text-anchor="middle" x="93.5" y="-105.0254" font-family="Times,serif" font-size="9.00" fill="#000000">C</text>
</g>
<!-- C&#45;&gt;LEFT -->
<g id="edge5" class="edge">
<title>C&#45;&gt;LEFT</title>
<path fill="none" stroke="#00ff00" stroke-width=".2967" stroke-dasharray="1,5" d="M88.9917,-98.1954C84.8244,-89.8485 78.3673,-76.9151 72.2306,-64.6234"/>
<polygon fill="#00ff00" stroke="#00ff00" stroke-width=".2967" points="75.2418,-62.8191 67.6434,-55.4356 68.9789,-65.9459 75.2418,-62.8191"/>
</g>
<!-- C&#45;&gt;RIGHT -->
<g id="edge9" class="edge">
<title>C&#45;&gt;RIGHT</title>
<path fill="none" stroke="#ff0000" stroke-width=".2791" d="M98.127,-98.1954C102.0117,-90.6139 107.8353,-79.2485 113.5903,-68.017"/>
<polygon fill="#ff0000" stroke="#ff0000" stroke-width=".2791" points="116.7073,-69.6089 118.1526,-59.1131 110.4775,-66.4168 116.7073,-69.6089"/>
</g>
<!-- D -->
<g id="node4" class="node">
<title>D</title>
<polygon fill="#d3d3d3" stroke="#000000" points="187,-116.2254 164,-116.2254 164,-98.2254 187,-98.2254 187,-116.2254"/>
<text text-anchor="middle" x="175.5" y="-105.0254" font-family="Times,serif" font-size="9.00" fill="#000000">D</text>
</g>
<!-- D&#45;&gt;RIGHT -->
<g id="edge6" class="edge">
<title>D&#45;&gt;RIGHT</title>
<path fill="none" stroke="#ff0000" stroke-width=".6554" d="M170.3985,-98.1954C166.0451,-90.4896 159.4833,-78.8748 153.0372,-67.4648"/>
<polygon fill="#ff0000" stroke="#ff0000" stroke-width=".6554" points="155.9029,-65.4216 147.9367,-58.4366 149.8082,-68.8648 155.9029,-65.4216"/>
</g>
<!-- E -->
<g id="node5" class="node">
<title>E</title>
<polygon fill="#d3d3d3" stroke="#000000" points="227.5,-116.2254 205.5,-116.2254 205.5,-98.2254 227.5,-98.2254 227.5,-116.2254"/>
<text text-anchor="middle" x="216.5" y="-105.0254" font-family="Times,serif" font-size="9.00" fill="#000000">E</text>
</g>
<!-- E&#45;&gt;RIGHT -->
<g id="edge8" class="edge">
<title>E&#45;&gt;RIGHT</title>
<path fill="none" stroke="#ff0000" stroke-width=".4201" d="M206.5342,-98.1954C195.9501,-88.605 178.6835,-72.9598 163.4868,-59.19"/>
<polygon fill="#ff0000" stroke="#ff0000" stroke-width=".4201" points="165.5355,-56.3232 155.7749,-52.2022 160.8353,-61.5105 165.5355,-56.3232"/>
</g>
<!-- F -->
<g id="node6" class="node">
<title>F</title>
<polygon fill="#d3d3d3" stroke="#000000" points="145.5,-116.2254 123.5,-116.2254 123.5,-98.2254 145.5,-98.2254 145.5,-116.2254"/>
<text text-anchor="middle" x="134.5" y="-105.0254" font-family="Times,serif" font-size="9.00" fill="#000000">F</text>
</g>
<!-- F&#45;&gt;LEFT -->
<g id="edge10" class="edge">
<title>F&#45;&gt;LEFT</title>
<path fill="none" stroke="#ff0000" stroke-width=".1311" d="M125.1274,-98.1954C114.686,-88.1356 97.3297,-71.4136 82.5585,-57.1822"/>
<polygon fill="#ff0000" stroke="#ff0000" stroke-width=".1311" points="84.7499,-54.4335 75.1201,-50.0157 79.8931,-59.4745 84.7499,-54.4335"/>
</g>
<!-- F&#45;&gt;RIGHT -->
<g id="edge7" class="edge">
<title>F&#45;&gt;RIGHT</title>
<path fill="none" stroke="#ff0000" stroke-width=".1704" d="M134.2627,-98.1954C134.0907,-91.6488 133.8445,-82.2808 133.5905,-72.614"/>
<polygon fill="#ff0000" stroke="#ff0000" stroke-width=".1704" points="137.0873,-72.4421 133.3257,-62.5376 130.0897,-72.6261 137.0873,-72.4421"/>
</g>
<!-- G -->
<g id="node7" class="node">
<title>G</title>
<polygon fill="#d3d3d3" stroke="#000000" points="269,-116.2254 246,-116.2254 246,-98.2254 269,-98.2254 269,-116.2254"/>
<text text-anchor="middle" x="257.5" y="-105.0254" font-family="Times,serif" font-size="9.00" fill="#000000">G</text>
</g>
</g>
</svg>
