<?xml version="1.0" encoding="UTF-8" standalone="no"?>
<!DOCTYPE svg PUBLIC "-//W3C//DTD SVG 1.1//EN"
 "http://www.w3.org/Graphics/SVG/1.1/DTD/svg11.dtd">
<!-- Generated by graphviz version 2.40.1 (20161225.0304)
 -->
<!-- Title: %3 Pages: 1 -->
<svg width="243pt" height="214pt"
 viewBox="0.00 0.00 242.50 213.97" xmlns="http://www.w3.org/2000/svg" xmlns:xlink="http://www.w3.org/1999/xlink">
<g id="graph0" class="graph" transform="scale(1 1) rotate(0) translate(4 209.9655)">
<title>%3</title>
<polygon fill="#ffffff" stroke="transparent" points="-4,4 -4,-209.9655 238.5,-209.9655 238.5,4 -4,4"/>
<!-- A -->
<g id="node1" class="node">
<title>A</title>
<polygon fill="#d3d3d3" stroke="#000000" points="85.5,-134.0955 62.5,-134.0955 62.5,-116.0955 85.5,-116.0955 85.5,-134.0955"/>
<text text-anchor="middle" x="74" y="-122.8955" font-family="Times,serif" font-size="9.00" fill="#000000">A</text>
</g>
<!-- RIGHT -->
<g id="node9" class="node">
<title>RIGHT</title>
<ellipse fill="#add8e6" stroke="#000000" cx="74" cy="-31.1127" rx="31.2258" ry="31.2258"/>
<text text-anchor="middle" x="74" y="-28.9127" font-family="Times,serif" font-size="9.00" fill="#000000">RIGHT</text>
</g>
<!-- A&#45;&gt;RIGHT -->
<g id="edge1" class="edge">
<title>A&#45;&gt;RIGHT</title>
<path fill="none" stroke="#00ff00" stroke-width=".1434" d="M74,-116.084C74,-106.059 74,-89.1457 74,-73.0362"/>
<polygon fill="#00ff00" stroke="#00ff00" stroke-width=".1434" points="77.5001,-72.6465 74,-62.6466 70.5001,-72.6466 77.5001,-72.6465"/>
</g>
<!-- B -->
<g id="node2" class="node">
<title>B</title>
<polygon fill="#d3d3d3" stroke="#000000" points="63.5,-205.9655 40.5,-205.9655 40.5,-187.9655 63.5,-187.9655 63.5,-205.9655"/>
<text text-anchor="middle" x="52" y="-194.7655" font-family="Times,serif" font-size="9.00" fill="#000000">B</text>
</g>
<!-- LEFT -->
<g id="node8" class="node">
<title>LEFT</title>
<ellipse fill="#add8e6" stroke="#000000" cx="130" cy="-125.0955" rx="26.7407" ry="26.7407"/>
<text text-anchor="middle" x="130" y="-122.8955" font-family="Times,serif" font-size="9.00" fill="#000000">LEFT</text>
</g>
<!-- B&#45;&gt;LEFT -->
<g id="edge2" class="edge">
<title>B&#45;&gt;LEFT</title>
<path fill="none" stroke="#ff0000" stroke-width=".5134" d="M61.8788,-187.8631C72.0477,-178.4933 88.3536,-163.4689 102.4628,-150.4686"/>
<polygon fill="#ff0000" stroke="#ff0000" stroke-width=".5134" points="105.0398,-152.8533 110.0223,-143.5032 100.2964,-147.7054 105.0398,-152.8533"/>
</g>
<!-- 42 -->
<g id="node10" class="node">
<title>42</title>
<ellipse fill="#ffffff" stroke="#000000" cx="26" cy="-125.0955" rx="18.2703" ry="18.2703"/>
<text text-anchor="middle" x="26" y="-122.8955" font-family="Times,serif" font-size="9.00" fill="#000000">42</text>
</g>
<!-- B&#45;&gt;42 -->
<g id="edge10" class="edge">
<title>B&#45;&gt;42</title>
<path fill="none" stroke="#00ff00" stroke-width=".1107" d="M48.7071,-187.8631C45.4724,-178.9218 40.375,-164.8312 35.8286,-152.264"/>
<polygon fill="#00ff00" stroke="#00ff00" stroke-width=".1107" points="39.04,-150.8524 32.3468,-142.6395 32.4575,-153.2338 39.04,-150.8524"/>
</g>
<!-- C -->
<g id="node3" class="node">
<title>C</title>
<polygon fill="#d3d3d3" stroke="#000000" points="104.5,-205.9655 81.5,-205.9655 81.5,-187.9655 104.5,-187.9655 104.5,-205.9655"/>
<text text-anchor="middle" x="93" y="-194.7655" font-family="Times,serif" font-size="9.00" fill="#000000">C</text>
</g>
<!-- C&#45;&gt;LEFT -->
<g id="edge3" class="edge">
<title>C&#45;&gt;LEFT</title>
<path fill="none" stroke="#ff0000" stroke-width=".5267" d="M97.6861,-187.8631C101.5752,-180.3087 107.3567,-169.0786 112.9586,-158.1972"/>
<polygon fill="#ff0000" stroke="#ff0000" stroke-width=".5267" points="116.1112,-159.7201 117.5766,-149.2271 109.8875,-156.516 116.1112,-159.7201"/>
</g>
<!-- C&#45;&gt;42 -->
<g id="edge8" class="edge">
<title>C&#45;&gt;42</title>
<path fill="none" stroke="#ff0000" stroke-width=".3508" d="M84.5144,-187.8631C74.8596,-177.5065 58.7645,-160.2415 45.8958,-146.4374"/>
<polygon fill="#ff0000" stroke="#ff0000" stroke-width=".3508" points="48.1439,-143.7161 38.7648,-138.7881 43.0237,-148.4893 48.1439,-143.7161"/>
</g>
<!-- D -->
<g id="node4" class="node">
<title>D</title>
<polygon fill="#d3d3d3" stroke="#000000" points="234.5,-205.9655 211.5,-205.9655 211.5,-187.9655 234.5,-187.9655 234.5,-205.9655"/>
<text text-anchor="middle" x="223" y="-194.7655" font-family="Times,serif" font-size="9.00" fill="#000000">D</text>
</g>
<!-- E -->
<g id="node5" class="node">
<title>E</title>
<polygon fill="#d3d3d3" stroke="#000000" points="145,-205.9655 123,-205.9655 123,-187.9655 145,-187.9655 145,-205.9655"/>
<text text-anchor="middle" x="134" y="-194.7655" font-family="Times,serif" font-size="9.00" fill="#000000">E</text>
</g>
<!-- E&#45;&gt;LEFT -->
<g id="edge4" class="edge">
<title>E&#45;&gt;LEFT</title>
<path fill="none" stroke="#ff0000" stroke-width="1.2245" d="M133.4934,-187.8631C133.126,-181.2613 132.6023,-171.8523 132.0719,-162.322"/>
<polygon fill="#ff0000" stroke="#ff0000" stroke-width="1.2245" points="135.5511,-161.8501 131.5007,-152.0601 128.5619,-162.2392 135.5511,-161.8501"/>
</g>
<!-- F -->
<g id="node6" class="node">
<title>F</title>
<polygon fill="#d3d3d3" stroke="#000000" points="22,-205.9655 0,-205.9655 0,-187.9655 22,-187.9655 22,-205.9655"/>
<text text-anchor="middle" x="11" y="-194.7655" font-family="Times,serif" font-size="9.00" fill="#000000">F</text>
</g>
<!-- F&#45;&gt;42 -->
<g id="edge9" class="edge">
<title>F&#45;&gt;42</title>
<path fill="none" stroke="#ff0000" stroke-width=".6101" d="M12.8998,-187.8631C14.7228,-179.1284 17.5715,-165.4795 20.1474,-153.1374"/>
<polygon fill="#ff0000" stroke="#ff0000" stroke-width=".6101" points="23.6015,-153.7181 22.2185,-143.2139 16.7492,-152.2879 23.6015,-153.7181"/>
</g>
<!-- G -->
<g id="node7" class="node">
<title>G</title>
<polygon fill="#d3d3d3" stroke="#000000" points="193.5,-205.9655 170.5,-205.9655 170.5,-187.9655 193.5,-187.9655 193.5,-205.9655"/>
<text text-anchor="middle" x="182" y="-194.7655" font-family="Times,serif" font-size="9.00" fill="#000000">G</text>
</g>
<!-- G&#45;&gt;LEFT -->
<g id="edge5" class="edge">
<title>G&#45;&gt;LEFT</title>
<path fill="none" stroke="#ff0000" stroke-width=".2008" d="M175.4142,-187.8631C169.4765,-179.6566 160.4004,-167.1123 151.9185,-155.3894"/>
<polygon fill="#ff0000" stroke="#ff0000" stroke-width=".2008" points="154.5984,-153.1224 145.9009,-147.0723 148.9271,-157.2257 154.5984,-153.1224"/>
</g>
<!-- G&#45;&gt;RIGHT -->
<g id="edge6" class="edge">
<title>G&#45;&gt;RIGHT</title>
<path fill="none" stroke="#ff0000" stroke-width=".1784" d="M182.7255,-187.7341C183.7269,-169.269 183.7174,-127.0844 166,-98.2254 153.052,-77.1351 130.7701,-60.6238 111.3779,-49.256"/>
<polygon fill="#ff0000" stroke="#ff0000" stroke-width=".1784" points="112.8655,-46.0776 102.4305,-44.2443 109.4446,-52.1848 112.8655,-46.0776"/>
</g>
<!-- 42&#45;&gt;RIGHT -->
<g id="edge7" class="edge">
<title>42&#45;&gt;RIGHT</title>
<path fill="none" stroke="#ff0000" stroke-width=".3501" d="M34.5814,-108.2932C40.3327,-97.0323 48.1326,-81.7604 55.2763,-67.7731"/>
<polygon fill="#ff0000" stroke="#ff0000" stroke-width=".3501" points="58.4164,-69.3198 59.8479,-58.8221 52.1824,-66.1359 58.4164,-69.3198"/>
</g>
</g>
</svg>
