<?xml version="1.0" encoding="UTF-8" standalone="no"?>
<!DOCTYPE svg PUBLIC "-//W3C//DTD SVG 1.1//EN"
 "http://www.w3.org/Graphics/SVG/1.1/DTD/svg11.dtd">
<!-- Generated by graphviz version 2.40.1 (20161225.0304)
 -->
<!-- Title: %3 Pages: 1 -->
<svg width="289pt" height="124pt"
 viewBox="0.00 0.00 289.37 124.23" xmlns="http://www.w3.org/2000/svg" xmlns:xlink="http://www.w3.org/1999/xlink">
<g id="graph0" class="graph" transform="scale(1 1) rotate(0) translate(4 120.2254)">
<title>%3</title>
<polygon fill="#ffffff" stroke="transparent" points="-4,4 -4,-120.2254 285.3701,-120.2254 285.3701,4 -4,4"/>
<!-- A -->
<g id="node1" class="node">
<title>A</title>
<polygon fill="#d3d3d3" stroke="#000000" points="76.3701,-116.2254 53.3701,-116.2254 53.3701,-98.2254 76.3701,-98.2254 76.3701,-116.2254"/>
<text text-anchor="middle" x="64.8701" y="-105.0254" font-family="Times,serif" font-size="9.00" fill="#000000">A</text>
</g>
<!-- LEFT -->
<g id="node8" class="node">
<title>LEFT</title>
<ellipse fill="#add8e6" stroke="#000000" cx="26.8701" cy="-31.1127" rx="26.7407" ry="26.7407"/>
<text text-anchor="middle" x="26.8701" y="-28.9127" font-family="Times,serif" font-size="9.00" fill="#000000">LEFT</text>
</g>
<!-- A&#45;&gt;LEFT -->
<g id="edge1" class="edge">
<title>A&#45;&gt;LEFT</title>
<path fill="none" stroke="#ff0000" stroke-width=".3778" d="M60.3617,-98.1954C56.1945,-89.8485 49.7373,-76.9151 43.6006,-64.6234"/>
<polygon fill="#ff0000" stroke="#ff0000" stroke-width=".3778" points="46.6118,-62.8191 39.0135,-55.4356 40.349,-65.9459 46.6118,-62.8191"/>
</g>
<!-- RIGHT -->
<g id="node9" class="node">
<title>RIGHT</title>
<ellipse fill="#add8e6" stroke="#000000" cx="105.8701" cy="-31.1127" rx="31.2258" ry="31.2258"/>
<text text-anchor="middle" x="105.8701" y="-28.9127" font-family="Times,serif" font-size="9.00" fill="#000000">RIGHT</text>
</g>
<!-- A&#45;&gt;RIGHT -->
<g id="edge2" class="edge">
<title>A&#45;&gt;RIGHT</title>
<path fill="none" stroke="#ff0000" stroke-width="1.011" d="M69.7343,-98.1954C73.8517,-90.5518 80.041,-79.0619 86.1394,-67.7409"/>
<polygon fill="#ff0000" stroke="#ff0000" stroke-width="1.011" points="89.3082,-69.2383 90.9694,-58.7745 83.1455,-65.9185 89.3082,-69.2383"/>
</g>
<!-- B -->
<g id="node2" class="node">
<title>B</title>
<polygon fill="#d3d3d3" stroke="#000000" points="240.3701,-116.2254 217.3701,-116.2254 217.3701,-98.2254 240.3701,-98.2254 240.3701,-116.2254"/>
<text text-anchor="middle" x="228.8701" y="-105.0254" font-family="Times,serif" font-size="9.00" fill="#000000">B</text>
</g>
<!-- C -->
<g id="node3" class="node">
<title>C</title>
<polygon fill="#d3d3d3" stroke="#000000" points="117.3701,-116.2254 94.3701,-116.2254 94.3701,-98.2254 117.3701,-98.2254 117.3701,-116.2254"/>
<text text-anchor="middle" x="105.8701" y="-105.0254" font-family="Times,serif" font-size="9.00" fill="#000000">C</text>
</g>
<!-- C&#45;&gt;RIGHT -->
<g id="edge6" class="edge">
<title>C&#45;&gt;RIGHT</title>
<path fill="none" stroke="#ff0000" stroke-width=".2791" d="M105.8701,-98.1954C105.8701,-91.6488 105.8701,-82.2808 105.8701,-72.614"/>
<polygon fill="#ff0000" stroke="#ff0000" stroke-width=".2791" points="109.3702,-72.5375 105.8701,-62.5376 102.3702,-72.5376 109.3702,-72.5375"/>
</g>
<!-- D -->
<g id="node4" class="node">
<title>D</title>
<polygon fill="#d3d3d3" stroke="#000000" points="158.3701,-116.2254 135.3701,-116.2254 135.3701,-98.2254 158.3701,-98.2254 158.3701,-116.2254"/>
<text text-anchor="middle" x="146.8701" y="-105.0254" font-family="Times,serif" font-size="9.00" fill="#000000">D</text>
</g>
<!-- D&#45;&gt;RIGHT -->
<g id="edge3" class="edge">
<title>D&#45;&gt;RIGHT</title>
<path fill="none" stroke="#ff0000" stroke-width=".6554" d="M142.0058,-98.1954C137.8884,-90.5518 131.6991,-79.0619 125.6007,-67.7409"/>
<polygon fill="#ff0000" stroke="#ff0000" stroke-width=".6554" points="128.5946,-65.9185 120.7708,-58.7745 122.4319,-69.2383 128.5946,-65.9185"/>
</g>
<!-- E -->
<g id="node5" class="node">
<title>E</title>
<polygon fill="#d3d3d3" stroke="#000000" points="198.8701,-116.2254 176.8701,-116.2254 176.8701,-98.2254 198.8701,-98.2254 198.8701,-116.2254"/>
<text text-anchor="middle" x="187.8701" y="-105.0254" font-family="Times,serif" font-size="9.00" fill="#000000">E</text>
</g>
<!-- E&#45;&gt;RIGHT -->
<g id="edge5" class="edge">
<title>E&#45;&gt;RIGHT</title>
<path fill="none" stroke="#ff0000" stroke-width=".4201" d="M178.1416,-98.1954C167.8817,-88.6721 151.1894,-73.1783 136.4306,-59.4791"/>
<polygon fill="#ff0000" stroke="#ff0000" stroke-width=".4201" points="138.6436,-56.7579 128.9333,-52.52 133.8815,-61.8884 138.6436,-56.7579"/>
</g>
<!-- F -->
<g id="node6" class="node">
<title>F</title>
<polygon fill="#d3d3d3" stroke="#000000" points="34.8701,-116.2254 12.8701,-116.2254 12.8701,-98.2254 34.8701,-98.2254 34.8701,-116.2254"/>
<text text-anchor="middle" x="23.8701" y="-105.0254" font-family="Times,serif" font-size="9.00" fill="#000000">F</text>
</g>
<!-- F&#45;&gt;LEFT -->
<g id="edge7" class="edge">
<title>F&#45;&gt;LEFT</title>
<path fill="none" stroke="#ff0000" stroke-width=".1311" d="M24.226,-98.1954C24.5231,-90.6582 24.9675,-79.3812 25.4077,-68.2139"/>
<polygon fill="#ff0000" stroke="#ff0000" stroke-width=".1311" points="28.9097,-68.2296 25.8064,-58.0995 21.9151,-67.9539 28.9097,-68.2296"/>
</g>
<!-- F&#45;&gt;RIGHT -->
<g id="edge4" class="edge">
<title>F&#45;&gt;RIGHT</title>
<path fill="none" stroke="#ff0000" stroke-width=".1704" d="M33.5985,-98.1954C43.8585,-88.6721 60.5507,-73.1783 75.3095,-59.4791"/>
<polygon fill="#ff0000" stroke="#ff0000" stroke-width=".1704" points="77.8586,-61.8884 82.8069,-52.52 73.0965,-56.7579 77.8586,-61.8884"/>
</g>
<!-- G -->
<g id="node7" class="node">
<title>G</title>
<polygon fill="#d3d3d3" stroke="#000000" points="281.3701,-116.2254 258.3701,-116.2254 258.3701,-98.2254 281.3701,-98.2254 281.3701,-116.2254"/>
<text text-anchor="middle" x="269.8701" y="-105.0254" font-family="Times,serif" font-size="9.00" fill="#000000">G</text>
</g>
</g>
</svg>
