<?xml version="1.0" encoding="UTF-8" standalone="no"?>
<!DOCTYPE svg PUBLIC "-//W3C//DTD SVG 1.1//EN"
 "http://www.w3.org/Graphics/SVG/1.1/DTD/svg11.dtd">
<!-- Generated by graphviz version 2.40.1 (20161225.0304)
 -->
<!-- Title: %3 Pages: 1 -->
<svg width="276pt" height="124pt"
 viewBox="0.00 0.00 275.50 124.23" xmlns="http://www.w3.org/2000/svg" xmlns:xlink="http://www.w3.org/1999/xlink">
<g id="graph0" class="graph" transform="scale(1 1) rotate(0) translate(4 120.2254)">
<title>%3</title>
<polygon fill="#ffffff" stroke="transparent" points="-4,4 -4,-120.2254 271.5,-120.2254 271.5,4 -4,4"/>
<!-- A -->
<g id="node1" class="node">
<title>A</title>
<polygon fill="#d3d3d3" stroke="#000000" points="23,-116.2254 0,-116.2254 0,-98.2254 23,-98.2254 23,-116.2254"/>
<text text-anchor="middle" x="11.5" y="-105.0254" font-family="Times,serif" font-size="9.00" fill="#000000">A</text>
</g>
<!-- LEFT -->
<g id="node8" class="node">
<title>LEFT</title>
<ellipse fill="#add8e6" stroke="#000000" cx="131.5" cy="-31.1127" rx="26.7407" ry="26.7407"/>
<text text-anchor="middle" x="131.5" y="-28.9127" font-family="Times,serif" font-size="9.00" fill="#000000">LEFT</text>
</g>
<!-- A&#45;&gt;LEFT -->
<g id="edge1" class="edge">
<title>A&#45;&gt;LEFT</title>
<path fill="none" stroke="#00ff00" stroke-width=".7584" d="M23.2047,-101.8131C39.6787,-93.9907 70.3866,-78.6514 94.5,-62.2254 97.4328,-60.2276 100.4061,-58.041 103.3265,-55.7825"/>
<polygon fill="#00ff00" stroke="#00ff00" stroke-width=".7584" points="105.7501,-58.3245 111.3396,-49.3241 101.3573,-52.8744 105.7501,-58.3245"/>
</g>
<!-- RIGHT -->
<g id="node9" class="node">
<title>RIGHT</title>
<ellipse fill="#add8e6" stroke="#000000" cx="54.5" cy="-31.1127" rx="31.2258" ry="31.2258"/>
<text text-anchor="middle" x="54.5" y="-28.9127" font-family="Times,serif" font-size="9.00" fill="#000000">RIGHT</text>
</g>
<!-- A&#45;&gt;RIGHT -->
<g id="edge10" class="edge">
<title>A&#45;&gt;RIGHT</title>
<path fill="none" stroke="#00ff00" stroke-width=".1241" d="M16.6015,-98.1954C20.9549,-90.4896 27.5167,-78.8748 33.9628,-67.4648"/>
<polygon fill="#00ff00" stroke="#00ff00" stroke-width=".1241" points="37.1918,-68.8648 39.0633,-58.4366 31.0971,-65.4216 37.1918,-68.8648"/>
</g>
<!-- B -->
<g id="node2" class="node">
<title>B</title>
<polygon fill="#d3d3d3" stroke="#000000" points="64,-116.2254 41,-116.2254 41,-98.2254 64,-98.2254 64,-116.2254"/>
<text text-anchor="middle" x="52.5" y="-105.0254" font-family="Times,serif" font-size="9.00" fill="#000000">B</text>
</g>
<!-- B&#45;&gt;LEFT -->
<g id="edge2" class="edge">
<title>B&#45;&gt;LEFT</title>
<path fill="none" stroke="#ff0000" stroke-width=".1314" d="M61.8726,-98.1954C72.314,-88.1356 89.6703,-71.4136 104.4415,-57.1822"/>
<polygon fill="#ff0000" stroke="#ff0000" stroke-width=".1314" points="107.1069,-59.4745 111.8799,-50.0157 102.2501,-54.4335 107.1069,-59.4745"/>
</g>
<!-- B&#45;&gt;RIGHT -->
<g id="edge3" class="edge">
<title>B&#45;&gt;RIGHT</title>
<path fill="none" stroke="#ff0000" stroke-width=".3979" d="M52.7373,-98.1954C52.9093,-91.6488 53.1555,-82.2808 53.4095,-72.614"/>
<polygon fill="#ff0000" stroke="#ff0000" stroke-width=".3979" points="56.9103,-72.6261 53.6743,-62.5376 49.9127,-72.4421 56.9103,-72.6261"/>
</g>
<!-- C -->
<g id="node3" class="node">
<title>C</title>
<polygon fill="#d3d3d3" stroke="#000000" points="105,-116.2254 82,-116.2254 82,-98.2254 105,-98.2254 105,-116.2254"/>
<text text-anchor="middle" x="93.5" y="-105.0254" font-family="Times,serif" font-size="9.00" fill="#000000">C</text>
</g>
<!-- C&#45;&gt;LEFT -->
<g id="edge4" class="edge">
<title>C&#45;&gt;LEFT</title>
<path fill="none" stroke="#00ff00" stroke-width=".2587" d="M98.0083,-98.1954C102.1756,-89.8485 108.6327,-76.9151 114.7694,-64.6234"/>
<polygon fill="#00ff00" stroke="#00ff00" stroke-width=".2587" points="118.0211,-65.9459 119.3566,-55.4356 111.7582,-62.8191 118.0211,-65.9459"/>
</g>
<!-- C&#45;&gt;RIGHT -->
<g id="edge5" class="edge">
<title>C&#45;&gt;RIGHT</title>
<path fill="none" stroke="#ff0000" stroke-width=".2347" d="M88.873,-98.1954C84.9883,-90.6139 79.1647,-79.2485 73.4097,-68.017"/>
<polygon fill="#ff0000" stroke="#ff0000" stroke-width=".2347" points="76.5225,-66.4168 68.8474,-59.1131 70.2927,-69.6089 76.5225,-66.4168"/>
</g>
<!-- D -->
<g id="node4" class="node">
<title>D</title>
<polygon fill="#d3d3d3" stroke="#000000" points="146,-116.2254 123,-116.2254 123,-98.2254 146,-98.2254 146,-116.2254"/>
<text text-anchor="middle" x="134.5" y="-105.0254" font-family="Times,serif" font-size="9.00" fill="#000000">D</text>
</g>
<!-- D&#45;&gt;LEFT -->
<g id="edge6" class="edge">
<title>D&#45;&gt;LEFT</title>
<path fill="none" stroke="#00ff00" stroke-width=".7824" d="M134.1441,-98.1954C133.847,-90.6582 133.4025,-79.3812 132.9624,-68.2139"/>
<polygon fill="#00ff00" stroke="#00ff00" stroke-width=".7824" points="136.4549,-67.9539 132.5637,-58.0995 129.4603,-68.2296 136.4549,-67.9539"/>
</g>
<!-- E -->
<g id="node5" class="node">
<title>E</title>
<polygon fill="#d3d3d3" stroke="#000000" points="227.5,-116.2254 205.5,-116.2254 205.5,-98.2254 227.5,-98.2254 227.5,-116.2254"/>
<text text-anchor="middle" x="216.5" y="-105.0254" font-family="Times,serif" font-size="9.00" fill="#000000">E</text>
</g>
<!-- E&#45;&gt;LEFT -->
<g id="edge7" class="edge">
<title>E&#45;&gt;LEFT</title>
<path fill="none" stroke="#00ff00" stroke-width=".1448" stroke-dasharray="1,5" d="M206.4156,-98.1954C194.8513,-87.8402 175.4037,-70.426 159.2213,-55.9355"/>
<polygon fill="#00ff00" stroke="#00ff00" stroke-width=".1448" points="161.3729,-53.1641 151.5883,-49.1006 156.7033,-58.379 161.3729,-53.1641"/>
</g>
<!-- E&#45;&gt;RIGHT -->
<g id="edge8" class="edge">
<title>E&#45;&gt;RIGHT</title>
<path fill="none" stroke="#ff0000" stroke-width="1.0584" d="M205.1456,-101.9254C202.3386,-100.6681 199.3258,-99.3627 196.5,-98.2254 152.2909,-80.433 137.4176,-84.8953 95.5,-62.2254 92.5919,-60.6526 89.668,-58.8846 86.7935,-57.0106"/>
<polygon fill="#ff0000" stroke="#ff0000" stroke-width="1.0584" points="88.5917,-53.9978 78.384,-51.1598 84.5939,-59.744 88.5917,-53.9978"/>
</g>
<!-- 83 -->
<g id="node10" class="node">
<title>83</title>
<ellipse fill="#ffffff" stroke="#000000" cx="216.5" cy="-31.1127" rx="18.2703" ry="18.2703"/>
<text text-anchor="middle" x="216.5" y="-28.9127" font-family="Times,serif" font-size="9.00" fill="#000000">83</text>
</g>
<!-- E&#45;&gt;83 -->
<g id="edge11" class="edge">
<title>E&#45;&gt;83</title>
<path fill="none" stroke="#ff0000" stroke-width=".3753" d="M216.5,-98.1954C216.5,-88.8118 216.5,-73.6315 216.5,-60.083"/>
<polygon fill="#ff0000" stroke="#ff0000" stroke-width=".3753" points="220.0001,-59.7091 216.5,-49.7091 213.0001,-59.7092 220.0001,-59.7091"/>
</g>
<!-- F -->
<g id="node6" class="node">
<title>F</title>
<polygon fill="#d3d3d3" stroke="#000000" points="267.5,-116.2254 245.5,-116.2254 245.5,-98.2254 267.5,-98.2254 267.5,-116.2254"/>
<text text-anchor="middle" x="256.5" y="-105.0254" font-family="Times,serif" font-size="9.00" fill="#000000">F</text>
</g>
<!-- G -->
<g id="node7" class="node">
<title>G</title>
<polygon fill="#d3d3d3" stroke="#000000" points="187,-116.2254 164,-116.2254 164,-98.2254 187,-98.2254 187,-116.2254"/>
<text text-anchor="middle" x="175.5" y="-105.0254" font-family="Times,serif" font-size="9.00" fill="#000000">G</text>
</g>
<!-- G&#45;&gt;LEFT -->
<g id="edge9" class="edge">
<title>G&#45;&gt;LEFT</title>
<path fill="none" stroke="#ff0000" stroke-width=".4101" d="M170.2798,-98.1954C165.2974,-89.5766 157.4879,-76.0674 150.179,-63.4242"/>
<polygon fill="#ff0000" stroke="#ff0000" stroke-width=".4101" points="153.0279,-61.3591 144.993,-54.4533 146.9677,-64.8625 153.0279,-61.3591"/>
</g>
</g>
</svg>
